<?xml version="1.0" encoding="utf-8"?>
<!-- Generator: Adobe Illustrator 24.0.2, SVG Export Plug-In . SVG Version: 6.00 Build 0)  -->
<svg version="1.1" id="Layer_1" xmlns="http://www.w3.org/2000/svg" xmlns:xlink="http://www.w3.org/1999/xlink" x="0px" y="0px"
	 viewBox="0 0 773 704.5" style="enable-background:new 0 0 773 704.5;" xml:space="preserve">
<style type="text/css">
	.st0{enable-background:new    ;}
	.st1{fill:#161616;}
	.st2{fill:none;stroke:#7750A6;stroke-width:3;}
	.st3{fill:#FFFFFF;}
	.st4{fill:#4962AB;}
	.st5{fill:none;stroke:#0BA2A7;stroke-width:3;}
	.st6{fill:#FCD2BE;}
	.st7{fill:#00C7A9;}
	.st8{fill:#04AF92;}
	.st9{fill:#F9CE55;}
	.st10{fill:#E2A11E;}
	.st11{fill:#FAB998;}
	.st12{fill:#393A42;}
	.st13{fill:#3FACC9;}
	.st14{fill:#369AB2;}
	.st15{fill:#EF4A6E;}
	.st16{fill:#D8254F;}
	.st17{fill:#50515B;}
	.st18{fill:none;stroke:#0CC8BE;stroke-width:3;}
	.st19{fill:#F44336;}
	.st20{fill:#FDCC15;}
	.st21{fill:#D56826;}
	.st22{fill:#D32F2F;}
	.st23{fill:#FFE0B2;}
	.st24{fill:#FFCC80;}
	.st25{fill:#D15A18;}
	.st26{fill:none;stroke:#95CE59;stroke-width:3;}
	.st27{fill-rule:evenodd;clip-rule:evenodd;fill:#FEC96B;}
	.st28{fill-rule:evenodd;clip-rule:evenodd;fill:#F841A2;}
	.st29{fill-rule:evenodd;clip-rule:evenodd;fill:#FFFFFF;}
	.st30{fill-rule:evenodd;clip-rule:evenodd;fill:#95CE59;}
	.st31{fill-rule:evenodd;clip-rule:evenodd;fill:#0CC8BE;}
	.st32{fill-rule:evenodd;clip-rule:evenodd;}
	.st33{fill:none;stroke:#FD9D32;stroke-width:3;}
	.st34{fill:#D74947;}
	.st35{fill:#70A5F3;}
	.st36{fill:#FCBE57;}
	.st37{fill:#3E313D;}
	.st38{fill:#CE3636;}
	.st39{fill:#332533;}
</style>
<g class="st0">
	<path class="st1" d="M45.3,394.6c-0.8,0.8-1.9,1.2-3.1,1.2s-2.3-0.4-3.1-1.2c-0.8-0.8-1.2-1.8-1.2-3V385h2.3v6.4
		c0,0.6,0.2,1.2,0.6,1.6c0.4,0.4,0.9,0.6,1.5,0.6s1.1-0.2,1.5-0.6c0.4-0.4,0.6-0.9,0.6-1.6V385h2.3v6.5
		C46.5,392.8,46.1,393.8,45.3,394.6z"/>
	<path class="st1" d="M53.1,387.2c0.9,0,1.6,0.3,2.2,0.9c0.5,0.6,0.8,1.4,0.8,2.5v4.9h-2.2v-4.6c0-1.2-0.5-1.8-1.4-1.8
		c-0.6,0-1,0.2-1.3,0.6c-0.3,0.4-0.5,0.9-0.5,1.5v4.3h-2.2v-8.1H50l0.4,1c0.3-0.4,0.7-0.7,1.2-0.9C52.1,387.3,52.6,387.2,53.1,387.2
		z"/>
	<path class="st1" d="M64.1,384.5h2.2v11h-1.6l-0.3-0.7c-0.7,0.6-1.6,0.9-2.5,0.9c-1.2,0-2.2-0.4-3-1.2s-1.2-1.8-1.2-3.1
		c0-0.6,0.1-1.2,0.3-1.7c0.2-0.5,0.5-1,0.9-1.4c0.4-0.4,0.8-0.7,1.4-0.9c0.5-0.2,1.1-0.3,1.7-0.3c0.8,0,1.6,0.2,2.2,0.7V384.5z
		 M60.5,393c0.4,0.4,0.9,0.6,1.6,0.6s1.2-0.2,1.6-0.6c0.4-0.4,0.6-1,0.6-1.6c0-0.6-0.2-1.2-0.6-1.6c-0.4-0.4-0.9-0.6-1.6-0.6
		s-1.2,0.2-1.6,0.6c-0.4,0.4-0.6,1-0.6,1.6C59.8,392.1,60,392.6,60.5,393z"/>
	<path class="st1" d="M76.2,391.4c0,0.2,0,0.4,0,0.6h-6.1c0.1,0.6,0.3,1,0.7,1.3c0.3,0.3,0.8,0.4,1.3,0.4c0.4,0,0.7-0.1,1-0.3
		c0.3-0.2,0.5-0.4,0.7-0.7h2.3c-0.3,0.9-0.8,1.6-1.5,2.1c-0.7,0.5-1.6,0.8-2.5,0.8c-0.8,0-1.5-0.2-2.1-0.6c-0.6-0.4-1.1-0.9-1.5-1.5
		s-0.5-1.4-0.5-2.2c0-0.8,0.2-1.5,0.5-2.2s0.9-1.2,1.5-1.5c0.6-0.4,1.4-0.6,2.1-0.6c0.8,0,1.5,0.2,2.2,0.6c0.6,0.4,1.1,0.9,1.5,1.5
		S76.2,390.6,76.2,391.4z M72,389c-0.5,0-0.9,0.1-1.2,0.4s-0.6,0.6-0.7,1.1H74c-0.2-0.5-0.4-0.9-0.7-1.1C72.9,389.2,72.5,389,72,389
		z"/>
	<path class="st1" d="M81.9,387.4h0.7v2.1h-0.9c-0.6,0-1.1,0.1-1.3,0.4c-0.3,0.3-0.4,0.8-0.4,1.4v4.2h-2.2v-8.1h1.4l0.4,1
		C80.1,387.7,80.9,387.4,81.9,387.4z"/>
	<path class="st1" d="M86.7,395.7c-1,0-1.8-0.3-2.5-0.8c-0.6-0.5-0.9-1.2-0.9-2.1h2.1c0,0.3,0.1,0.6,0.4,0.8c0.2,0.2,0.6,0.3,1,0.3
		c0.3,0,0.6-0.1,0.8-0.2s0.3-0.3,0.3-0.6c0-0.1,0-0.2-0.1-0.3c-0.1-0.1-0.2-0.2-0.4-0.2c-0.2-0.1-0.3-0.1-0.5-0.2
		c-0.2,0-0.4-0.1-0.6-0.1c-0.2,0-0.4-0.1-0.6-0.1c-0.2,0-0.3-0.1-0.6-0.1s-0.4-0.1-0.6-0.2c-0.2-0.1-0.3-0.2-0.5-0.3
		c-0.2-0.1-0.3-0.3-0.4-0.4c-0.1-0.2-0.2-0.3-0.2-0.6c-0.1-0.2-0.1-0.5-0.1-0.7c0-0.8,0.3-1.4,0.9-1.9c0.6-0.5,1.4-0.7,2.4-0.7
		c1,0,1.8,0.2,2.4,0.7c0.6,0.5,0.9,1.1,0.9,2h-2.1c0-0.3-0.1-0.6-0.3-0.7c-0.2-0.2-0.5-0.2-0.9-0.2c-0.3,0-0.6,0.1-0.8,0.2
		s-0.3,0.3-0.3,0.6c0,0.1,0,0.2,0,0.2c0,0.1,0.1,0.1,0.2,0.2c0.1,0.1,0.2,0.1,0.2,0.1c0.1,0,0.2,0.1,0.3,0.1c0.1,0,0.3,0.1,0.4,0.1
		c0.1,0,0.2,0,0.4,0.1c0.8,0.1,1.4,0.3,1.7,0.4c0.9,0.4,1.3,1.1,1.3,2.1c0,0.8-0.3,1.5-0.9,2C88.5,395.5,87.7,395.7,86.7,395.7z"/>
	<path class="st1" d="M95.6,393.6h1v1.9H95c-0.9,0-1.6-0.3-2.1-0.8c-0.5-0.5-0.8-1.2-0.8-2.1v-3.5h-1.5v-0.5l3.2-3.4h0.4v2.1h2.2
		v1.8h-2.2v3.2c0,0.4,0.1,0.7,0.3,0.9S95.2,393.6,95.6,393.6z"/>
	<path class="st1" d="M104.6,387.4h1.6v8.1h-1.7l-0.2-0.7c-0.7,0.6-1.6,1-2.6,1c-0.8,0-1.5-0.2-2.2-0.6c-0.6-0.4-1.2-0.9-1.5-1.5
		c-0.4-0.7-0.5-1.4-0.5-2.2c0-0.8,0.2-1.5,0.5-2.2c0.4-0.7,0.9-1.2,1.5-1.5c0.6-0.4,1.4-0.6,2.2-0.6c1,0,1.9,0.3,2.7,1L104.6,387.4z
		 M100.3,393c0.4,0.4,0.9,0.6,1.6,0.6s1.2-0.2,1.6-0.6c0.4-0.4,0.6-0.9,0.6-1.6s-0.2-1.2-0.6-1.6c-0.4-0.4-0.9-0.6-1.6-0.6
		s-1.2,0.2-1.6,0.6c-0.4,0.4-0.6,1-0.6,1.6S99.9,392.6,100.3,393z"/>
	<path class="st1" d="M113,387.2c0.9,0,1.6,0.3,2.2,0.9c0.5,0.6,0.8,1.4,0.8,2.5v4.9h-2.2v-4.6c0-1.2-0.5-1.8-1.4-1.8
		c-0.6,0-1,0.2-1.3,0.6c-0.3,0.4-0.5,0.9-0.5,1.5v4.3h-2.2v-8.1h1.5l0.4,1c0.3-0.4,0.7-0.7,1.2-0.9
		C111.9,387.3,112.4,387.2,113,387.2z"/>
	<path class="st1" d="M123.9,384.5h2.2v11h-1.6l-0.3-0.7c-0.7,0.6-1.6,0.9-2.5,0.9c-1.2,0-2.2-0.4-3-1.2s-1.2-1.8-1.2-3.1
		c0-0.6,0.1-1.2,0.3-1.7c0.2-0.5,0.5-1,0.9-1.4c0.4-0.4,0.8-0.7,1.4-0.9c0.5-0.2,1.1-0.3,1.7-0.3c0.8,0,1.6,0.2,2.2,0.7V384.5z
		 M120.3,393c0.4,0.4,0.9,0.6,1.6,0.6c0.6,0,1.2-0.2,1.6-0.6c0.4-0.4,0.6-1,0.6-1.6c0-0.6-0.2-1.2-0.6-1.6c-0.4-0.4-0.9-0.6-1.6-0.6
		c-0.6,0-1.2,0.2-1.6,0.6c-0.4,0.4-0.6,1-0.6,1.6C119.7,392.1,119.9,392.6,120.3,393z"/>
	<path class="st1" d="M128.2,386.3v-2h2.2v2H128.2z M128.2,395.5v-8.1h2.2v8.1H128.2z"/>
	<path class="st1" d="M137.1,387.2c0.9,0,1.6,0.3,2.2,0.9c0.5,0.6,0.8,1.4,0.8,2.5v4.9h-2.2v-4.6c0-1.2-0.5-1.8-1.4-1.8
		c-0.6,0-1,0.2-1.3,0.6c-0.3,0.4-0.5,0.9-0.5,1.5v4.3h-2.2v-8.1h1.5l0.4,1c0.3-0.4,0.7-0.7,1.2-0.9
		C136,387.3,136.5,387.2,137.1,387.2z"/>
	<path class="st1" d="M148.6,387.4h1.4v7.2c0,1.3-0.4,2.3-1.1,3c-0.7,0.7-1.7,1.1-3,1.1c-1.1,0-2-0.3-2.7-0.8s-1.2-1.3-1.4-2.2h2.2
		c0.1,0.3,0.4,0.6,0.7,0.8c0.4,0.2,0.8,0.3,1.2,0.3c0.6,0,1.1-0.2,1.4-0.5c0.4-0.3,0.6-0.8,0.6-1.4v-0.3c-0.7,0.5-1.5,0.7-2.3,0.7
		c-0.7,0-1.4-0.2-2-0.5c-0.6-0.4-1.1-0.8-1.5-1.5c-0.4-0.6-0.5-1.3-0.5-2.1c0-0.7,0.2-1.4,0.5-2c0.4-0.6,0.8-1.1,1.5-1.5
		c0.6-0.4,1.3-0.5,2-0.5c1,0,1.9,0.3,2.7,1L148.6,387.4z M145.8,393.3c0.6,0,1.1-0.2,1.5-0.6c0.4-0.4,0.6-0.9,0.6-1.5
		c0-0.6-0.2-1.1-0.6-1.5c-0.4-0.4-0.9-0.6-1.5-0.6c-0.6,0-1.1,0.2-1.5,0.6c-0.4,0.4-0.6,0.9-0.6,1.5c0,0.6,0.2,1.1,0.6,1.5
		C144.7,393.1,145.2,393.3,145.8,393.3z"/>
	<path class="st1" d="M159.4,393.6h1v1.9h-1.6c-0.9,0-1.6-0.3-2.1-0.8c-0.5-0.5-0.8-1.2-0.8-2.1v-3.5h-1.5v-0.5l3.2-3.4h0.4v2.1h2.2
		v1.8h-2.2v3.2c0,0.4,0.1,0.7,0.3,0.9S159,393.6,159.4,393.6z"/>
	<path class="st1" d="M166.6,387.2c0.9,0,1.6,0.3,2.2,0.9c0.5,0.6,0.8,1.4,0.8,2.5v4.9h-2.2v-4.6c0-0.6-0.1-1.1-0.3-1.4
		c-0.2-0.3-0.6-0.4-1.1-0.4c-0.6,0-1,0.2-1.3,0.6c-0.3,0.4-0.5,0.9-0.5,1.5v4.3h-2.2v-11h2.2v3.7
		C164.8,387.5,165.6,387.2,166.6,387.2z"/>
	<path class="st1" d="M179.4,391.4c0,0.2,0,0.4,0,0.6h-6.1c0.1,0.6,0.3,1,0.7,1.3c0.3,0.3,0.8,0.4,1.3,0.4c0.4,0,0.7-0.1,1-0.3
		c0.3-0.2,0.5-0.4,0.7-0.7h2.3c-0.3,0.9-0.8,1.6-1.5,2.1c-0.7,0.5-1.6,0.8-2.5,0.8c-0.8,0-1.5-0.2-2.1-0.6c-0.6-0.4-1.1-0.9-1.5-1.5
		s-0.5-1.4-0.5-2.2c0-0.8,0.2-1.5,0.5-2.2c0.4-0.7,0.9-1.2,1.5-1.5c0.6-0.4,1.4-0.6,2.2-0.6c0.8,0,1.5,0.2,2.2,0.6
		c0.6,0.4,1.1,0.9,1.5,1.5S179.4,390.6,179.4,391.4z M175.2,389c-0.5,0-0.9,0.1-1.2,0.4c-0.3,0.3-0.6,0.6-0.7,1.1h3.9
		c-0.2-0.5-0.4-0.9-0.7-1.1C176.1,389.2,175.7,389,175.2,389z"/>
	<path class="st1" d="M189.5,395.7c-0.8,0-1.5-0.1-2.1-0.4c-0.7-0.3-1.2-0.7-1.7-1.1c-0.5-0.5-0.9-1.1-1.1-1.7
		c-0.3-0.7-0.4-1.4-0.4-2.2c0-0.8,0.1-1.5,0.4-2.2s0.7-1.3,1.1-1.7c0.5-0.5,1.1-0.9,1.7-1.1c0.7-0.3,1.4-0.4,2.1-0.4
		c1.3,0,2.4,0.4,3.3,1.2c0.9,0.8,1.5,1.8,1.8,3h-2.3c-0.2-0.6-0.6-1.1-1.1-1.5c-0.5-0.4-1.1-0.5-1.7-0.5c-0.9,0-1.6,0.3-2.2,0.9
		c-0.6,0.6-0.9,1.4-0.9,2.4c0,0.9,0.3,1.7,0.9,2.4c0.6,0.6,1.3,0.9,2.2,0.9c0.7,0,1.3-0.2,1.8-0.6c0.5-0.4,0.8-0.9,1-1.6h2.3
		c-0.2,1.3-0.8,2.3-1.8,3.1S190.8,395.7,189.5,395.7z"/>
	<path class="st1" d="M199.8,395.7c-1.1,0-2.1-0.3-2.8-1c-0.7-0.7-1.1-1.5-1.1-2.6v-4.7h2.2v4.4c0,0.6,0.1,1,0.4,1.4
		c0.3,0.3,0.7,0.5,1.2,0.5c0.5,0,0.9-0.2,1.2-0.5c0.3-0.3,0.4-0.8,0.4-1.3v-4.4h2.2v4.7c0,1.1-0.3,2-1,2.6S200.9,395.7,199.8,395.7z
		"/>
	<path class="st1" d="M208.5,395.7c-1,0-1.8-0.3-2.5-0.8c-0.6-0.5-0.9-1.2-0.9-2.1h2.1c0,0.3,0.1,0.6,0.4,0.8c0.2,0.2,0.6,0.3,1,0.3
		c0.3,0,0.6-0.1,0.8-0.2c0.2-0.1,0.3-0.3,0.3-0.6c0-0.1,0-0.2-0.1-0.3c-0.1-0.1-0.2-0.2-0.4-0.2c-0.2-0.1-0.3-0.1-0.5-0.2
		c-0.2,0-0.4-0.1-0.6-0.1c-0.2,0-0.4-0.1-0.6-0.1c-0.2,0-0.3-0.1-0.6-0.1c-0.2-0.1-0.4-0.1-0.6-0.2c-0.2-0.1-0.3-0.2-0.5-0.3
		c-0.2-0.1-0.3-0.3-0.4-0.4c-0.1-0.2-0.2-0.3-0.2-0.6c-0.1-0.2-0.1-0.5-0.1-0.7c0-0.8,0.3-1.4,0.9-1.9c0.6-0.5,1.4-0.7,2.4-0.7
		c1,0,1.8,0.2,2.4,0.7c0.6,0.5,0.9,1.1,0.9,2h-2.1c0-0.3-0.1-0.6-0.3-0.7c-0.2-0.2-0.5-0.2-0.9-0.2c-0.3,0-0.6,0.1-0.8,0.2
		c-0.2,0.1-0.3,0.3-0.3,0.6c0,0.1,0,0.2,0,0.2c0,0.1,0.1,0.1,0.2,0.2c0.1,0.1,0.2,0.1,0.2,0.1c0.1,0,0.2,0.1,0.3,0.1
		c0.1,0,0.3,0.1,0.4,0.1c0.1,0,0.2,0,0.4,0.1c0.8,0.1,1.4,0.3,1.7,0.4c0.9,0.4,1.3,1.1,1.3,2.1c0,0.8-0.3,1.5-0.9,2
		C210.3,395.5,209.5,395.7,208.5,395.7z"/>
	<path class="st1" d="M217.4,393.6h1v1.9h-1.6c-0.9,0-1.6-0.3-2.1-0.8c-0.5-0.5-0.8-1.2-0.8-2.1v-3.5h-1.5v-0.5l3.2-3.4h0.4v2.1h2.2
		v1.8h-2.2v3.2c0,0.4,0.1,0.7,0.3,0.9S216.9,393.6,217.4,393.6z"/>
	<path class="st1" d="M223.6,395.7c-0.8,0-1.6-0.2-2.2-0.6c-0.7-0.4-1.2-0.9-1.6-1.5c-0.4-0.7-0.6-1.4-0.6-2.2
		c0-0.8,0.2-1.5,0.6-2.2c0.4-0.7,0.9-1.2,1.6-1.5c0.7-0.4,1.4-0.6,2.2-0.6c0.8,0,1.6,0.2,2.2,0.6c0.7,0.4,1.2,0.9,1.6,1.5
		s0.6,1.4,0.6,2.2c0,0.8-0.2,1.5-0.6,2.2s-0.9,1.2-1.6,1.5C225.2,395.5,224.4,395.7,223.6,395.7z M222.1,393
		c0.4,0.4,0.9,0.6,1.6,0.6c0.6,0,1.1-0.2,1.6-0.6c0.4-0.4,0.6-0.9,0.6-1.6c0-0.7-0.2-1.2-0.6-1.6c-0.4-0.4-0.9-0.6-1.6-0.6
		c-0.6,0-1.1,0.2-1.6,0.6c-0.4,0.4-0.6,0.9-0.6,1.6C221.5,392.1,221.7,392.6,222.1,393z"/>
	<path class="st1" d="M238.8,387.2c0.8,0,1.5,0.3,2.1,0.9c0.5,0.6,0.8,1.4,0.8,2.3v5.1h-2.2v-4.7c0-0.5-0.1-1-0.3-1.2
		c-0.2-0.3-0.5-0.4-0.9-0.4c-0.5,0-0.9,0.2-1.1,0.5c-0.3,0.3-0.4,0.8-0.4,1.5v4.4h-2.1v-4.7c0-0.5-0.1-1-0.3-1.2
		c-0.2-0.3-0.5-0.4-0.9-0.4c-0.5,0-0.9,0.2-1.2,0.5c-0.3,0.3-0.4,0.8-0.4,1.5v4.4h-2.2v-8.1h1.5l0.4,1c0.3-0.4,0.6-0.7,1.1-0.9
		c0.4-0.2,0.9-0.3,1.3-0.3c0.5,0,1,0.1,1.4,0.3c0.4,0.2,0.7,0.5,1,1c0.3-0.4,0.6-0.7,1.1-0.9C237.8,387.3,238.3,387.2,238.8,387.2z"
		/>
	<path class="st1" d="M251.5,391.4c0,0.2,0,0.4,0,0.6h-6.1c0.1,0.6,0.3,1,0.7,1.3c0.3,0.3,0.8,0.4,1.3,0.4c0.4,0,0.7-0.1,1-0.3
		c0.3-0.2,0.5-0.4,0.7-0.7h2.3c-0.3,0.9-0.8,1.6-1.5,2.1c-0.7,0.5-1.6,0.8-2.5,0.8c-0.8,0-1.5-0.2-2.1-0.6c-0.6-0.4-1.1-0.9-1.5-1.5
		s-0.5-1.4-0.5-2.2c0-0.8,0.2-1.5,0.5-2.2c0.4-0.7,0.9-1.2,1.5-1.5c0.6-0.4,1.4-0.6,2.2-0.6c0.8,0,1.5,0.2,2.2,0.6
		c0.6,0.4,1.1,0.9,1.5,1.5S251.5,390.6,251.5,391.4z M247.3,389c-0.5,0-0.9,0.1-1.2,0.4c-0.3,0.3-0.6,0.6-0.7,1.1h3.9
		c-0.2-0.5-0.4-0.9-0.7-1.1C248.2,389.2,247.8,389,247.3,389z"/>
	<path class="st1" d="M257.2,387.4h0.7v2.1H257c-0.6,0-1.1,0.1-1.3,0.4c-0.3,0.3-0.4,0.8-0.4,1.4v4.2H253v-8.1h1.4l0.4,1
		C255.4,387.7,256.2,387.4,257.2,387.4z"/>
</g>
<g>
	<g class="st0">
		<path class="st1" d="M537.2,426.5l-0.7-2h-4.2l-0.7,2h-2.4l4.1-10.5h2.1l4.2,10.5H537.2z M534.4,418.8l-1.4,3.8h2.8L534.4,418.8z"
			/>
		<path class="st1" d="M543.6,426.7c-1,0-1.8-0.3-2.5-0.8c-0.6-0.5-0.9-1.2-0.9-2.1h2.1c0,0.3,0.1,0.6,0.4,0.8
			c0.2,0.2,0.6,0.3,1,0.3c0.3,0,0.6-0.1,0.8-0.2c0.2-0.1,0.3-0.3,0.3-0.6c0-0.1,0-0.2-0.1-0.3c-0.1-0.1-0.2-0.2-0.4-0.2
			c-0.2-0.1-0.3-0.1-0.5-0.2c-0.2,0-0.4-0.1-0.6-0.1c-0.2,0-0.4-0.1-0.6-0.1c-0.2,0-0.3-0.1-0.6-0.1c-0.2-0.1-0.4-0.1-0.6-0.2
			c-0.2-0.1-0.3-0.2-0.5-0.3c-0.2-0.1-0.3-0.3-0.4-0.4c-0.1-0.2-0.2-0.3-0.2-0.6c-0.1-0.2-0.1-0.5-0.1-0.7c0-0.8,0.3-1.4,0.9-1.9
			c0.6-0.5,1.4-0.7,2.4-0.7c1,0,1.8,0.2,2.4,0.7c0.6,0.5,0.9,1.1,0.9,2h-2.1c0-0.3-0.1-0.6-0.3-0.7c-0.2-0.2-0.5-0.2-0.9-0.2
			c-0.3,0-0.6,0.1-0.8,0.2c-0.2,0.1-0.3,0.3-0.3,0.6c0,0.1,0,0.2,0,0.2c0,0.1,0.1,0.1,0.2,0.2c0.1,0.1,0.2,0.1,0.2,0.1
			c0.1,0,0.2,0.1,0.3,0.1c0.1,0,0.3,0.1,0.4,0.1c0.1,0,0.2,0,0.4,0.1c0.8,0.1,1.4,0.3,1.7,0.4c0.9,0.4,1.3,1.1,1.3,2.1
			c0,0.8-0.3,1.5-0.9,2C545.4,426.5,544.6,426.7,543.6,426.7z"/>
		<path class="st1" d="M551.4,426.7c-1,0-1.8-0.3-2.5-0.8c-0.6-0.5-0.9-1.2-0.9-2.1h2.1c0,0.3,0.1,0.6,0.4,0.8
			c0.2,0.2,0.6,0.3,1,0.3c0.3,0,0.6-0.1,0.8-0.2c0.2-0.1,0.3-0.3,0.3-0.6c0-0.1,0-0.2-0.1-0.3c-0.1-0.1-0.2-0.2-0.4-0.2
			c-0.2-0.1-0.3-0.1-0.5-0.2c-0.2,0-0.4-0.1-0.6-0.1c-0.2,0-0.4-0.1-0.6-0.1c-0.2,0-0.3-0.1-0.6-0.1c-0.2-0.1-0.4-0.1-0.6-0.2
			c-0.2-0.1-0.3-0.2-0.5-0.3c-0.2-0.1-0.3-0.3-0.4-0.4c-0.1-0.2-0.2-0.3-0.2-0.6c-0.1-0.2-0.1-0.5-0.1-0.7c0-0.8,0.3-1.4,0.9-1.9
			c0.6-0.5,1.4-0.7,2.4-0.7c1,0,1.8,0.2,2.4,0.7c0.6,0.5,0.9,1.1,0.9,2h-2.1c0-0.3-0.1-0.6-0.3-0.7c-0.2-0.2-0.5-0.2-0.9-0.2
			c-0.3,0-0.6,0.1-0.8,0.2c-0.2,0.1-0.3,0.3-0.3,0.6c0,0.1,0,0.2,0,0.2c0,0.1,0.1,0.1,0.2,0.2c0.1,0.1,0.2,0.1,0.2,0.1
			c0.1,0,0.2,0.1,0.3,0.1c0.1,0,0.3,0.1,0.4,0.1c0.1,0,0.2,0,0.4,0.1c0.8,0.1,1.4,0.3,1.7,0.4c0.9,0.4,1.3,1.1,1.3,2.1
			c0,0.8-0.3,1.5-0.9,2C553.3,426.5,552.5,426.7,551.4,426.7z"/>
		<path class="st1" d="M556.4,417.3v-2h2.2v2H556.4z M556.4,426.5v-8.1h2.2v8.1H556.4z"/>
		<path class="st1" d="M567.3,418.4h1.4v7.2c0,1.3-0.4,2.3-1.1,3c-0.7,0.7-1.7,1.1-3,1.1c-1.1,0-2-0.3-2.7-0.8s-1.2-1.3-1.4-2.2h2.2
			c0.1,0.3,0.4,0.6,0.7,0.8c0.4,0.2,0.8,0.3,1.2,0.3c0.6,0,1.1-0.2,1.4-0.5c0.4-0.3,0.6-0.8,0.6-1.4v-0.3c-0.7,0.5-1.5,0.7-2.3,0.7
			c-0.7,0-1.4-0.2-2-0.5c-0.6-0.4-1.1-0.8-1.5-1.5c-0.4-0.6-0.5-1.3-0.5-2.1c0-0.7,0.2-1.4,0.5-2c0.4-0.6,0.8-1.1,1.5-1.5
			c0.6-0.4,1.3-0.5,2-0.5c1,0,1.9,0.3,2.7,1L567.3,418.4z M564.5,424.3c0.6,0,1.1-0.2,1.5-0.6c0.4-0.4,0.6-0.9,0.6-1.5
			c0-0.6-0.2-1.1-0.6-1.5c-0.4-0.4-0.9-0.6-1.5-0.6c-0.6,0-1.1,0.2-1.5,0.6c-0.4,0.4-0.6,0.9-0.6,1.5c0,0.6,0.2,1.1,0.6,1.5
			C563.4,424.1,563.9,424.3,564.5,424.3z"/>
		<path class="st1" d="M575.4,418.2c0.9,0,1.6,0.3,2.2,0.9c0.5,0.6,0.8,1.4,0.8,2.5v4.9h-2.2v-4.6c0-1.2-0.5-1.8-1.4-1.8
			c-0.6,0-1,0.2-1.3,0.6c-0.3,0.4-0.5,0.9-0.5,1.5v4.3h-2.2v-8.1h1.5l0.4,1c0.3-0.4,0.7-0.7,1.2-0.9
			C574.4,418.3,574.9,418.2,575.4,418.2z"/>
		<path class="st1" d="M580.4,417.3v-2h2.2v2H580.4z M580.4,426.5v-8.1h2.2v8.1H580.4z"/>
		<path class="st1" d="M589.3,418.2c0.9,0,1.6,0.3,2.2,0.9c0.5,0.6,0.8,1.4,0.8,2.5v4.9h-2.2v-4.6c0-1.2-0.5-1.8-1.4-1.8
			c-0.6,0-1,0.2-1.3,0.6c-0.3,0.4-0.5,0.9-0.5,1.5v4.3h-2.2v-8.1h1.5l0.4,1c0.3-0.4,0.7-0.7,1.2-0.9
			C588.3,418.3,588.8,418.2,589.3,418.2z"/>
		<path class="st1" d="M600.8,418.4h1.4v7.2c0,1.3-0.4,2.3-1.1,3c-0.7,0.7-1.7,1.1-3,1.1c-1.1,0-2-0.3-2.7-0.8s-1.2-1.3-1.4-2.2h2.2
			c0.1,0.3,0.4,0.6,0.7,0.8c0.4,0.2,0.8,0.3,1.2,0.3c0.6,0,1.1-0.2,1.4-0.5c0.4-0.3,0.6-0.8,0.6-1.4v-0.3c-0.7,0.5-1.5,0.7-2.3,0.7
			c-0.7,0-1.4-0.2-2-0.5c-0.6-0.4-1.1-0.8-1.5-1.5c-0.4-0.6-0.5-1.3-0.5-2.1c0-0.7,0.2-1.4,0.5-2c0.4-0.6,0.8-1.1,1.5-1.5
			c0.6-0.4,1.3-0.5,2-0.5c1,0,1.9,0.3,2.7,1L600.8,418.4z M598.1,424.3c0.6,0,1.1-0.2,1.5-0.6c0.4-0.4,0.6-0.9,0.6-1.5
			c0-0.6-0.2-1.1-0.6-1.5c-0.4-0.4-0.9-0.6-1.5-0.6c-0.6,0-1.1,0.2-1.5,0.6c-0.4,0.4-0.6,0.9-0.6,1.5c0,0.6,0.2,1.1,0.6,1.5
			C597,424.1,597.5,424.3,598.1,424.3z"/>
		<path class="st1" d="M614.6,418.4h1.6v8.1h-1.7l-0.2-0.7c-0.7,0.6-1.6,1-2.6,1c-0.8,0-1.5-0.2-2.2-0.6c-0.6-0.4-1.2-0.9-1.5-1.5
			c-0.4-0.7-0.5-1.4-0.5-2.2c0-0.8,0.2-1.5,0.5-2.2c0.4-0.7,0.9-1.2,1.5-1.5c0.6-0.4,1.4-0.6,2.2-0.6c1,0,1.9,0.3,2.7,1L614.6,418.4
			z M610.3,424c0.4,0.4,0.9,0.6,1.6,0.6s1.2-0.2,1.6-0.6c0.4-0.4,0.6-0.9,0.6-1.6s-0.2-1.2-0.6-1.6c-0.4-0.4-0.9-0.6-1.6-0.6
			s-1.2,0.2-1.6,0.6c-0.4,0.4-0.6,1-0.6,1.6S609.8,423.6,610.3,424z"/>
		<path class="st1" d="M628.8,416v2.1h-2.9v8.4h-2.3v-8.4h-2.9V416H628.8z"/>
		<path class="st1" d="M633.8,418.4h0.7v2.1h-0.9c-0.6,0-1.1,0.1-1.3,0.4c-0.3,0.3-0.4,0.8-0.4,1.4v4.2h-2.2v-8.1h1.4l0.4,1
			C632,418.7,632.8,418.4,633.8,418.4z"/>
		<path class="st1" d="M642.2,418.4h1.6v8.1h-1.7l-0.2-0.7c-0.7,0.6-1.6,1-2.6,1c-0.8,0-1.5-0.2-2.2-0.6c-0.6-0.4-1.2-0.9-1.5-1.5
			c-0.4-0.7-0.5-1.4-0.5-2.2c0-0.8,0.2-1.5,0.5-2.2c0.4-0.7,0.9-1.2,1.5-1.5c0.6-0.4,1.4-0.6,2.2-0.6c1,0,1.9,0.3,2.7,1L642.2,418.4
			z M637.9,424c0.4,0.4,0.9,0.6,1.6,0.6s1.2-0.2,1.6-0.6c0.4-0.4,0.6-0.9,0.6-1.6s-0.2-1.2-0.6-1.6c-0.4-0.4-0.9-0.6-1.6-0.6
			s-1.2,0.2-1.6,0.6c-0.4,0.4-0.6,1-0.6,1.6S637.5,423.6,637.9,424z"/>
		<path class="st1" d="M651.3,418.4h2.3l-3.2,8.1h-2l-3.3-8.1h2.3l2,5.4L651.3,418.4z"/>
		<path class="st1" d="M662.3,422.4c0,0.2,0,0.4,0,0.6h-6.1c0.1,0.6,0.3,1,0.7,1.3c0.3,0.3,0.8,0.4,1.3,0.4c0.4,0,0.7-0.1,1-0.3
			c0.3-0.2,0.5-0.4,0.7-0.7h2.3c-0.3,0.9-0.8,1.6-1.5,2.1c-0.7,0.5-1.6,0.8-2.5,0.8c-0.8,0-1.5-0.2-2.1-0.6
			c-0.6-0.4-1.1-0.9-1.5-1.5s-0.5-1.4-0.5-2.2c0-0.8,0.2-1.5,0.5-2.2c0.4-0.7,0.9-1.2,1.5-1.5c0.6-0.4,1.4-0.6,2.2-0.6
			c0.8,0,1.5,0.2,2.2,0.6c0.6,0.4,1.1,0.9,1.5,1.5S662.3,421.6,662.3,422.4z M658.1,420c-0.5,0-0.9,0.1-1.2,0.4
			c-0.3,0.3-0.6,0.6-0.7,1.1h3.9c-0.2-0.5-0.4-0.9-0.7-1.1C659,420.2,658.6,420,658.1,420z"/>
		<path class="st1" d="M663.8,426.5v-11h2.2v11H663.8z"/>
		<path class="st1" d="M684.7,426.5h-2.3l-1-6.9l-3.1,6.8h-0.6l-3.1-6.8l-1,6.8h-2.3l1.6-10.5h2.3l2.8,6.4l2.8-6.4h2.3L684.7,426.5z
			"/>
		<path class="st1" d="M692.8,418.4h1.6v8.1h-1.7l-0.2-0.7c-0.7,0.6-1.6,1-2.6,1c-0.8,0-1.5-0.2-2.2-0.6c-0.6-0.4-1.2-0.9-1.5-1.5
			c-0.4-0.7-0.5-1.4-0.5-2.2c0-0.8,0.2-1.5,0.5-2.2c0.4-0.7,0.9-1.2,1.5-1.5c0.6-0.4,1.4-0.6,2.2-0.6c1,0,1.9,0.3,2.7,1L692.8,418.4
			z M688.5,424c0.4,0.4,0.9,0.6,1.6,0.6s1.2-0.2,1.6-0.6c0.4-0.4,0.6-0.9,0.6-1.6s-0.2-1.2-0.6-1.6c-0.4-0.4-0.9-0.6-1.6-0.6
			s-1.2,0.2-1.6,0.6c-0.4,0.4-0.6,1-0.6,1.6S688.1,423.6,688.5,424z"/>
		<path class="st1" d="M701.2,418.2c0.9,0,1.6,0.3,2.2,0.9c0.5,0.6,0.8,1.4,0.8,2.5v4.9H702v-4.6c0-1.2-0.5-1.8-1.4-1.8
			c-0.6,0-1,0.2-1.3,0.6c-0.3,0.4-0.5,0.9-0.5,1.5v4.3h-2.2v-8.1h1.5l0.4,1c0.3-0.4,0.7-0.7,1.2-0.9
			C700.1,418.3,700.6,418.2,701.2,418.2z"/>
		<path class="st1" d="M712.8,418.4h1.6v8.1h-1.7l-0.2-0.7c-0.7,0.6-1.6,1-2.6,1c-0.8,0-1.5-0.2-2.2-0.6c-0.6-0.4-1.2-0.9-1.5-1.5
			c-0.4-0.7-0.5-1.4-0.5-2.2c0-0.8,0.2-1.5,0.5-2.2c0.4-0.7,0.9-1.2,1.5-1.5c0.6-0.4,1.4-0.6,2.2-0.6c1,0,1.9,0.3,2.7,1L712.8,418.4
			z M708.5,424c0.4,0.4,0.9,0.6,1.6,0.6s1.2-0.2,1.6-0.6c0.4-0.4,0.6-0.9,0.6-1.6s-0.2-1.2-0.6-1.6c-0.4-0.4-0.9-0.6-1.6-0.6
			s-1.2,0.2-1.6,0.6c-0.4,0.4-0.6,1-0.6,1.6S708.1,423.6,708.5,424z"/>
		<path class="st1" d="M723.1,418.4h1.4v7.2c0,1.3-0.4,2.3-1.1,3c-0.7,0.7-1.7,1.1-3,1.1c-1.1,0-2-0.3-2.7-0.8s-1.2-1.3-1.4-2.2h2.2
			c0.1,0.3,0.4,0.6,0.7,0.8c0.4,0.2,0.8,0.3,1.2,0.3c0.6,0,1.1-0.2,1.4-0.5c0.4-0.3,0.6-0.8,0.6-1.4v-0.3c-0.7,0.5-1.5,0.7-2.3,0.7
			c-0.7,0-1.4-0.2-2-0.5c-0.6-0.4-1.1-0.8-1.5-1.5c-0.4-0.6-0.5-1.3-0.5-2.1c0-0.7,0.2-1.4,0.5-2c0.4-0.6,0.8-1.1,1.5-1.5
			c0.6-0.4,1.3-0.5,2-0.5c1,0,1.9,0.3,2.7,1L723.1,418.4z M720.3,424.3c0.6,0,1.1-0.2,1.5-0.6c0.4-0.4,0.6-0.9,0.6-1.5
			c0-0.6-0.2-1.1-0.6-1.5c-0.4-0.4-0.9-0.6-1.5-0.6c-0.6,0-1.1,0.2-1.5,0.6c-0.4,0.4-0.6,0.9-0.6,1.5c0,0.6,0.2,1.1,0.6,1.5
			C719.2,424.1,719.7,424.3,720.3,424.3z"/>
		<path class="st1" d="M734.5,422.4c0,0.2,0,0.4,0,0.6h-6.1c0.1,0.6,0.3,1,0.7,1.3c0.3,0.3,0.8,0.4,1.3,0.4c0.4,0,0.7-0.1,1-0.3
			c0.3-0.2,0.5-0.4,0.7-0.7h2.3c-0.3,0.9-0.8,1.6-1.5,2.1c-0.7,0.5-1.6,0.8-2.5,0.8c-0.8,0-1.5-0.2-2.1-0.6
			c-0.6-0.4-1.1-0.9-1.5-1.5s-0.5-1.4-0.5-2.2c0-0.8,0.2-1.5,0.5-2.2c0.4-0.7,0.9-1.2,1.5-1.5c0.6-0.4,1.4-0.6,2.2-0.6
			c0.8,0,1.5,0.2,2.2,0.6c0.6,0.4,1.1,0.9,1.5,1.5S734.5,421.6,734.5,422.4z M730.3,420c-0.5,0-0.9,0.1-1.2,0.4
			c-0.3,0.3-0.6,0.6-0.7,1.1h3.9c-0.2-0.5-0.4-0.9-0.7-1.1C731.2,420.2,730.8,420,730.3,420z"/>
		<path class="st1" d="M740.1,418.4h0.7v2.1h-0.9c-0.6,0-1.1,0.1-1.3,0.4c-0.3,0.3-0.4,0.8-0.4,1.4v4.2H736v-8.1h1.4l0.4,1
			C738.4,418.7,739.1,418.4,740.1,418.4z"/>
	</g>
</g>
<g>
	<g class="st0">
		<path class="st1" d="M84.8,677.8c0.7,0,1.3,0.2,1.9,0.5c0.6,0.3,1,0.7,1.3,1.3c0.3,0.6,0.5,1.2,0.5,1.8c0,1-0.4,1.9-1.1,2.6
			c-0.7,0.7-1.6,1-2.6,1h-1.8v3.3h-2.3v-10.5H84.8z M84.7,682.9c0.4,0,0.8-0.1,1.1-0.4c0.3-0.3,0.4-0.6,0.4-1.1s-0.1-0.8-0.4-1.1
			c-0.3-0.3-0.6-0.4-1.1-0.4h-1.7v3H84.7z"/>
		<path class="st1" d="M90,679.1v-2h2.2v2H90z M90,688.3v-8.1h2.2v8.1H90z"/>
		<path class="st1" d="M98,688.5c-0.6,0-1.2-0.1-1.7-0.3c-0.5-0.2-1-0.5-1.4-0.9s-0.7-0.8-0.9-1.4c-0.2-0.5-0.3-1.1-0.3-1.7
			s0.1-1.2,0.3-1.7s0.5-1,0.9-1.4s0.8-0.7,1.4-0.9c0.5-0.2,1.1-0.3,1.7-0.3c1,0,1.9,0.3,2.7,0.9c0.7,0.6,1.2,1.4,1.4,2.4H100
			c-0.2-0.4-0.4-0.7-0.8-0.9c-0.3-0.2-0.7-0.3-1.2-0.3c-0.6,0-1.1,0.2-1.5,0.6c-0.4,0.4-0.6,0.9-0.6,1.6s0.2,1.2,0.6,1.6
			c0.4,0.4,0.9,0.6,1.5,0.6c0.4,0,0.8-0.1,1.2-0.4s0.6-0.6,0.8-1h2.2c-0.2,1-0.7,1.8-1.4,2.5C100,688.2,99.1,688.5,98,688.5z"/>
		<path class="st1" d="M111.3,688.3h-2.7l-2.6-3.9v3.9h-2.2v-11h2.2v6.5l2.4-3.6h2.5l-2.7,3.9L111.3,688.3z"/>
		<path class="st1" d="M111.6,685.1V683h4.9v2.1H111.6z"/>
		<path class="st1" d="M122.2,688.5c-1.1,0-2.1-0.3-2.8-1s-1.1-1.5-1.1-2.6v-4.7h2.2v4.4c0,0.6,0.1,1,0.4,1.4
			c0.3,0.3,0.7,0.5,1.2,0.5s0.9-0.2,1.2-0.5c0.3-0.3,0.4-0.8,0.4-1.3v-4.4h2.2v4.7c0,1.1-0.3,2-1,2.6S123.3,688.5,122.2,688.5z"/>
		<path class="st1" d="M132.4,680c0.8,0,1.5,0.2,2.2,0.6c0.6,0.4,1.2,0.9,1.5,1.5c0.4,0.7,0.5,1.4,0.5,2.2c0,0.8-0.2,1.5-0.5,2.2
			c-0.4,0.7-0.9,1.2-1.5,1.5c-0.6,0.4-1.4,0.6-2.2,0.6c-0.8,0-1.6-0.2-2.2-0.7v3.4H128v-11h1.4l0.4,0.7
			C130.5,680.3,131.4,680,132.4,680z M130.6,685.8c0.4,0.4,0.9,0.6,1.6,0.6s1.2-0.2,1.6-0.6c0.4-0.4,0.6-0.9,0.6-1.6
			c0-0.6-0.2-1.2-0.6-1.6c-0.4-0.4-0.9-0.6-1.6-0.6s-1.2,0.2-1.6,0.6c-0.4,0.4-0.6,1-0.6,1.6C130,684.9,130.2,685.4,130.6,685.8z"/>
		<path class="st1" d="M148.4,680.2h1.6v8.1h-1.7l-0.2-0.7c-0.7,0.6-1.6,1-2.6,1c-0.8,0-1.5-0.2-2.2-0.6c-0.6-0.4-1.2-0.9-1.5-1.5
			c-0.4-0.7-0.5-1.4-0.5-2.2c0-0.8,0.2-1.5,0.5-2.2c0.4-0.7,0.9-1.2,1.5-1.5c0.6-0.4,1.4-0.6,2.2-0.6c1,0,1.9,0.3,2.7,1L148.4,680.2
			z M144.1,685.8c0.4,0.4,0.9,0.6,1.6,0.6s1.2-0.2,1.6-0.6c0.4-0.4,0.6-0.9,0.6-1.6s-0.2-1.2-0.6-1.6c-0.4-0.4-0.9-0.6-1.6-0.6
			s-1.2,0.2-1.6,0.6c-0.4,0.4-0.6,1-0.6,1.6S143.6,685.4,144.1,685.8z"/>
		<path class="st1" d="M156.1,686.3h1v1.9h-1.6c-0.9,0-1.6-0.3-2.1-0.8c-0.5-0.5-0.8-1.2-0.8-2.1V682h-1.5v-0.5l3.2-3.4h0.4v2.1h2.2
			v1.8h-2.2v3.2c0,0.4,0.1,0.7,0.3,0.9S155.7,686.3,156.1,686.3z"/>
		<path class="st1" d="M166.2,677.8c0.8,0,1.5,0.1,2.1,0.4c0.7,0.3,1.2,0.6,1.7,1.1c0.5,0.5,0.8,1,1.1,1.7c0.3,0.6,0.4,1.3,0.4,2.1
			c0,0.8-0.1,1.5-0.4,2.1c-0.3,0.7-0.6,1.2-1.1,1.7c-0.5,0.5-1,0.8-1.7,1.1c-0.7,0.3-1.4,0.4-2.1,0.4h-4v-10.5H166.2z M166.2,686.2
			c0.9,0,1.6-0.3,2.2-0.9c0.6-0.6,0.9-1.3,0.9-2.3s-0.3-1.7-0.9-2.3c-0.6-0.6-1.3-0.9-2.2-0.9h-1.6v6.3H166.2z"/>
		<path class="st1" d="M177.1,688.5c-0.8,0-1.6-0.2-2.2-0.6c-0.7-0.4-1.2-0.9-1.6-1.5c-0.4-0.7-0.6-1.4-0.6-2.2
			c0-0.8,0.2-1.5,0.6-2.2c0.4-0.7,0.9-1.2,1.6-1.5c0.7-0.4,1.4-0.6,2.2-0.6c0.8,0,1.6,0.2,2.2,0.6c0.7,0.4,1.2,0.9,1.6,1.5
			s0.6,1.4,0.6,2.2c0,0.8-0.2,1.5-0.6,2.2s-0.9,1.2-1.6,1.5C178.7,688.3,177.9,688.5,177.1,688.5z M175.5,685.8
			c0.4,0.4,0.9,0.6,1.6,0.6c0.6,0,1.1-0.2,1.6-0.6c0.4-0.4,0.6-0.9,0.6-1.6c0-0.7-0.2-1.2-0.6-1.6c-0.4-0.4-0.9-0.6-1.6-0.6
			c-0.6,0-1.1,0.2-1.6,0.6c-0.4,0.4-0.6,0.9-0.6,1.6C174.9,684.9,175.1,685.4,175.5,685.8z"/>
		<path class="st1" d="M186.9,688.5c-0.8,0-1.6-0.2-2.2-0.6c-0.7-0.4-1.2-0.9-1.6-1.5c-0.4-0.7-0.6-1.4-0.6-2.2
			c0-0.8,0.2-1.5,0.6-2.2c0.4-0.7,0.9-1.2,1.6-1.5c0.7-0.4,1.4-0.6,2.2-0.6c0.8,0,1.6,0.2,2.2,0.6c0.7,0.4,1.2,0.9,1.6,1.5
			s0.6,1.4,0.6,2.2c0,0.8-0.2,1.5-0.6,2.2s-0.9,1.2-1.6,1.5C188.4,688.3,187.7,688.5,186.9,688.5z M185.3,685.8
			c0.4,0.4,0.9,0.6,1.6,0.6c0.6,0,1.1-0.2,1.6-0.6c0.4-0.4,0.6-0.9,0.6-1.6c0-0.7-0.2-1.2-0.6-1.6c-0.4-0.4-0.9-0.6-1.6-0.6
			c-0.6,0-1.1,0.2-1.6,0.6c-0.4,0.4-0.6,0.9-0.6,1.6C184.7,684.9,184.9,685.4,185.3,685.8z"/>
		<path class="st1" d="M197,680.2h0.7v2.1h-0.9c-0.6,0-1.1,0.1-1.3,0.4c-0.3,0.3-0.4,0.8-0.4,1.4v4.2h-2.2v-8.1h1.4l0.4,1
			C195.2,680.5,196,680.2,197,680.2z"/>
		<path class="st1" d="M205.8,686.3h1v1.9h-1.6c-0.9,0-1.6-0.3-2.1-0.8c-0.5-0.5-0.8-1.2-0.8-2.1V682h-1.5v-0.5l3.2-3.4h0.4v2.1h2.2
			v1.8h-2.2v3.2c0,0.4,0.1,0.7,0.3,0.9S205.4,686.3,205.8,686.3z"/>
		<path class="st1" d="M212.1,688.5c-0.8,0-1.6-0.2-2.2-0.6c-0.7-0.4-1.2-0.9-1.6-1.5c-0.4-0.7-0.6-1.4-0.6-2.2
			c0-0.8,0.2-1.5,0.6-2.2c0.4-0.7,0.9-1.2,1.6-1.5c0.7-0.4,1.4-0.6,2.2-0.6c0.8,0,1.6,0.2,2.2,0.6c0.7,0.4,1.2,0.9,1.6,1.5
			s0.6,1.4,0.6,2.2c0,0.8-0.2,1.5-0.6,2.2s-0.9,1.2-1.6,1.5C213.6,688.3,212.9,688.5,212.1,688.5z M210.5,685.8
			c0.4,0.4,0.9,0.6,1.6,0.6c0.6,0,1.1-0.2,1.6-0.6c0.4-0.4,0.6-0.9,0.6-1.6c0-0.7-0.2-1.2-0.6-1.6c-0.4-0.4-0.9-0.6-1.6-0.6
			c-0.6,0-1.1,0.2-1.6,0.6c-0.4,0.4-0.6,0.9-0.6,1.6C209.9,684.9,210.1,685.4,210.5,685.8z"/>
		<path class="st1" d="M225.7,677.8c0.8,0,1.5,0.1,2.1,0.4c0.7,0.3,1.2,0.6,1.7,1.1c0.5,0.5,0.8,1,1.1,1.7c0.3,0.6,0.4,1.3,0.4,2.1
			c0,0.8-0.1,1.5-0.4,2.1c-0.3,0.7-0.6,1.2-1.1,1.7c-0.5,0.5-1,0.8-1.7,1.1c-0.7,0.3-1.4,0.4-2.1,0.4h-4v-10.5H225.7z M225.7,686.2
			c0.9,0,1.6-0.3,2.2-0.9c0.6-0.6,0.9-1.3,0.9-2.3s-0.3-1.7-0.9-2.3c-0.6-0.6-1.3-0.9-2.2-0.9H224v6.3H225.7z"/>
		<path class="st1" d="M236.8,680.2h0.7v2.1h-0.9c-0.6,0-1.1,0.1-1.3,0.4c-0.3,0.3-0.4,0.8-0.4,1.4v4.2h-2.2v-8.1h1.4l0.4,1
			C235,680.5,235.8,680.2,236.8,680.2z"/>
		<path class="st1" d="M242.4,688.5c-0.8,0-1.6-0.2-2.2-0.6c-0.7-0.4-1.2-0.9-1.6-1.5c-0.4-0.7-0.6-1.4-0.6-2.2
			c0-0.8,0.2-1.5,0.6-2.2c0.4-0.7,0.9-1.2,1.6-1.5c0.7-0.4,1.4-0.6,2.2-0.6c0.8,0,1.6,0.2,2.2,0.6c0.7,0.4,1.2,0.9,1.6,1.5
			s0.6,1.4,0.6,2.2c0,0.8-0.2,1.5-0.6,2.2s-0.9,1.2-1.6,1.5C244,688.3,243.2,688.5,242.4,688.5z M240.9,685.8
			c0.4,0.4,0.9,0.6,1.6,0.6c0.6,0,1.1-0.2,1.6-0.6c0.4-0.4,0.6-0.9,0.6-1.6c0-0.7-0.2-1.2-0.6-1.6c-0.4-0.4-0.9-0.6-1.6-0.6
			c-0.6,0-1.1,0.2-1.6,0.6c-0.4,0.4-0.6,0.9-0.6,1.6C240.3,684.9,240.5,685.4,240.9,685.8z"/>
		<path class="st1" d="M252.8,680c0.8,0,1.5,0.2,2.2,0.6c0.6,0.4,1.2,0.9,1.5,1.5c0.4,0.7,0.5,1.4,0.5,2.2c0,0.8-0.2,1.5-0.5,2.2
			c-0.4,0.7-0.9,1.2-1.5,1.5c-0.6,0.4-1.4,0.6-2.2,0.6c-0.8,0-1.6-0.2-2.2-0.7v3.4h-2.2v-11h1.4l0.4,0.7
			C250.9,680.3,251.8,680,252.8,680z M251,685.8c0.4,0.4,0.9,0.6,1.6,0.6s1.2-0.2,1.6-0.6c0.4-0.4,0.6-0.9,0.6-1.6
			c0-0.6-0.2-1.2-0.6-1.6c-0.4-0.4-0.9-0.6-1.6-0.6s-1.2,0.2-1.6,0.6c-0.4,0.4-0.6,1-0.6,1.6C250.4,684.9,250.6,685.4,251,685.8z"/>
		<path class="st1" d="M268.8,680.2h1.6v8.1h-1.7l-0.2-0.7c-0.7,0.6-1.6,1-2.6,1c-0.8,0-1.5-0.2-2.2-0.6c-0.6-0.4-1.2-0.9-1.5-1.5
			c-0.4-0.7-0.5-1.4-0.5-2.2c0-0.8,0.2-1.5,0.5-2.2c0.4-0.7,0.9-1.2,1.5-1.5c0.6-0.4,1.4-0.6,2.2-0.6c1,0,1.9,0.3,2.7,1L268.8,680.2
			z M264.5,685.8c0.4,0.4,0.9,0.6,1.6,0.6s1.2-0.2,1.6-0.6c0.4-0.4,0.6-0.9,0.6-1.6s-0.2-1.2-0.6-1.6c-0.4-0.4-0.9-0.6-1.6-0.6
			s-1.2,0.2-1.6,0.6c-0.4,0.4-0.6,1-0.6,1.6S264.1,685.4,264.5,685.8z"/>
		<path class="st1" d="M276.5,686.3h1v1.9h-1.6c-0.9,0-1.6-0.3-2.1-0.8c-0.5-0.5-0.8-1.2-0.8-2.1V682h-1.5v-0.5l3.2-3.4h0.4v2.1h2.2
			v1.8h-2.2v3.2c0,0.4,0.1,0.7,0.3,0.9S276.1,686.3,276.5,686.3z"/>
		<path class="st1" d="M286.7,677.8c0.8,0,1.5,0.1,2.1,0.4c0.7,0.3,1.2,0.6,1.7,1.1c0.5,0.5,0.8,1,1.1,1.7c0.3,0.6,0.4,1.3,0.4,2.1
			c0,0.8-0.1,1.5-0.4,2.1c-0.3,0.7-0.6,1.2-1.1,1.7c-0.5,0.5-1,0.8-1.7,1.1c-0.7,0.3-1.4,0.4-2.1,0.4h-4v-10.5H286.7z M286.6,686.2
			c0.9,0,1.6-0.3,2.2-0.9c0.6-0.6,0.9-1.3,0.9-2.3s-0.3-1.7-0.9-2.3c-0.6-0.6-1.3-0.9-2.2-0.9H285v6.3H286.6z"/>
		<path class="st1" d="M297.5,688.5c-0.8,0-1.6-0.2-2.2-0.6c-0.7-0.4-1.2-0.9-1.6-1.5c-0.4-0.7-0.6-1.4-0.6-2.2
			c0-0.8,0.2-1.5,0.6-2.2c0.4-0.7,0.9-1.2,1.6-1.5c0.7-0.4,1.4-0.6,2.2-0.6c0.8,0,1.6,0.2,2.2,0.6c0.7,0.4,1.2,0.9,1.6,1.5
			s0.6,1.4,0.6,2.2c0,0.8-0.2,1.5-0.6,2.2s-0.9,1.2-1.6,1.5C299.1,688.3,298.3,688.5,297.5,688.5z M295.9,685.8
			c0.4,0.4,0.9,0.6,1.6,0.6c0.6,0,1.1-0.2,1.6-0.6c0.4-0.4,0.6-0.9,0.6-1.6c0-0.7-0.2-1.2-0.6-1.6c-0.4-0.4-0.9-0.6-1.6-0.6
			c-0.6,0-1.1,0.2-1.6,0.6c-0.4,0.4-0.6,0.9-0.6,1.6C295.3,684.9,295.5,685.4,295.9,685.8z"/>
		<path class="st1" d="M307.3,688.5c-0.8,0-1.6-0.2-2.2-0.6c-0.7-0.4-1.2-0.9-1.6-1.5c-0.4-0.7-0.6-1.4-0.6-2.2
			c0-0.8,0.2-1.5,0.6-2.2c0.4-0.7,0.9-1.2,1.6-1.5c0.7-0.4,1.4-0.6,2.2-0.6c0.8,0,1.6,0.2,2.2,0.6c0.7,0.4,1.2,0.9,1.6,1.5
			s0.6,1.4,0.6,2.2c0,0.8-0.2,1.5-0.6,2.2s-0.9,1.2-1.6,1.5C308.9,688.3,308.1,688.5,307.3,688.5z M305.7,685.8
			c0.4,0.4,0.9,0.6,1.6,0.6c0.6,0,1.1-0.2,1.6-0.6c0.4-0.4,0.6-0.9,0.6-1.6c0-0.7-0.2-1.2-0.6-1.6c-0.4-0.4-0.9-0.6-1.6-0.6
			c-0.6,0-1.1,0.2-1.6,0.6c-0.4,0.4-0.6,0.9-0.6,1.6C305.1,684.9,305.3,685.4,305.7,685.8z"/>
		<path class="st1" d="M317.4,680.2h0.7v2.1h-0.9c-0.6,0-1.1,0.1-1.3,0.4c-0.3,0.3-0.4,0.8-0.4,1.4v4.2h-2.2v-8.1h1.4l0.4,1
			C315.6,680.5,316.4,680.2,317.4,680.2z"/>
	</g>
</g>
<g class="st0">
	<path class="st1" d="M365.6,252c0.8,0,1.5,0.1,2.1,0.4s1.2,0.6,1.7,1.1c0.5,0.5,0.8,1,1.1,1.7c0.3,0.6,0.4,1.3,0.4,2.1
		c0,0.8-0.1,1.5-0.4,2.1c-0.3,0.7-0.6,1.2-1.1,1.7c-0.5,0.5-1,0.8-1.7,1.1c-0.7,0.3-1.4,0.4-2.1,0.4h-4V252H365.6z M365.5,260.4
		c0.9,0,1.6-0.3,2.2-0.9c0.6-0.6,0.9-1.3,0.9-2.3s-0.3-1.7-0.9-2.3c-0.6-0.6-1.3-0.9-2.2-0.9h-1.6v6.3H365.5z"/>
	<path class="st1" d="M380.4,258.4c0,0.2,0,0.4,0,0.6h-6.1c0.1,0.6,0.3,1,0.7,1.3c0.3,0.3,0.8,0.4,1.3,0.4c0.4,0,0.7-0.1,1-0.3
		c0.3-0.2,0.5-0.4,0.7-0.7h2.3c-0.3,0.9-0.8,1.6-1.5,2.1c-0.7,0.5-1.6,0.8-2.5,0.8c-0.8,0-1.5-0.2-2.1-0.6c-0.6-0.4-1.1-0.9-1.5-1.5
		s-0.5-1.4-0.5-2.2c0-0.8,0.2-1.5,0.5-2.2s0.9-1.2,1.5-1.5c0.6-0.4,1.4-0.6,2.1-0.6c0.8,0,1.5,0.2,2.2,0.6c0.6,0.4,1.1,0.9,1.5,1.5
		S380.4,257.6,380.4,258.4z M376.3,256c-0.5,0-0.9,0.1-1.2,0.4s-0.6,0.6-0.7,1.1h3.9c-0.2-0.5-0.4-0.9-0.7-1.1
		C377.2,256.2,376.7,256,376.3,256z"/>
	<path class="st1" d="M384.9,262.7c-1,0-1.8-0.3-2.5-0.8c-0.6-0.5-0.9-1.2-0.9-2.1h2.1c0,0.3,0.1,0.6,0.4,0.8c0.2,0.2,0.6,0.3,1,0.3
		c0.3,0,0.6-0.1,0.8-0.2s0.3-0.3,0.3-0.6c0-0.1,0-0.2-0.1-0.3s-0.2-0.2-0.4-0.2c-0.2-0.1-0.3-0.1-0.5-0.2c-0.2,0-0.4-0.1-0.6-0.1
		c-0.2,0-0.4-0.1-0.6-0.1c-0.2,0-0.3-0.1-0.6-0.1s-0.4-0.1-0.6-0.2c-0.2-0.1-0.3-0.2-0.5-0.3c-0.2-0.1-0.3-0.3-0.4-0.4
		c-0.1-0.2-0.2-0.3-0.2-0.6c-0.1-0.2-0.1-0.5-0.1-0.7c0-0.8,0.3-1.4,0.9-1.9c0.6-0.5,1.4-0.7,2.4-0.7c1,0,1.8,0.2,2.4,0.7
		c0.6,0.5,0.9,1.1,0.9,2H386c0-0.3-0.1-0.6-0.3-0.7c-0.2-0.2-0.5-0.2-0.9-0.2c-0.3,0-0.6,0.1-0.8,0.2s-0.3,0.3-0.3,0.6
		c0,0.1,0,0.2,0,0.2c0,0.1,0.1,0.1,0.2,0.2c0.1,0.1,0.2,0.1,0.2,0.1c0.1,0,0.2,0.1,0.3,0.1c0.1,0,0.3,0.1,0.4,0.1
		c0.1,0,0.2,0,0.4,0.1c0.8,0.1,1.4,0.3,1.7,0.4c0.9,0.4,1.3,1.1,1.3,2.1c0,0.8-0.3,1.5-0.9,2C386.7,262.5,385.9,262.7,384.9,262.7z"
		/>
	<path class="st1" d="M389.9,253.3v-2h2.2v2H389.9z M389.9,262.5v-8.1h2.2v8.1H389.9z"/>
	<path class="st1" d="M400.7,254.4h1.4v7.2c0,1.3-0.4,2.3-1.1,3c-0.7,0.7-1.7,1.1-3,1.1c-1.1,0-2-0.3-2.7-0.8s-1.2-1.3-1.4-2.2h2.2
		c0.1,0.3,0.4,0.6,0.7,0.8c0.4,0.2,0.8,0.3,1.2,0.3c0.6,0,1.1-0.2,1.4-0.5c0.4-0.3,0.6-0.8,0.6-1.4v-0.3c-0.7,0.5-1.5,0.7-2.3,0.7
		c-0.7,0-1.4-0.2-2-0.5c-0.6-0.4-1.1-0.8-1.5-1.5c-0.4-0.6-0.5-1.3-0.5-2.1c0-0.7,0.2-1.4,0.5-2c0.4-0.6,0.8-1.1,1.5-1.5
		c0.6-0.4,1.3-0.5,2-0.5c1,0,1.9,0.3,2.7,1L400.7,254.4z M397.9,260.3c0.6,0,1.1-0.2,1.5-0.6c0.4-0.4,0.6-0.9,0.6-1.5
		c0-0.6-0.2-1.1-0.6-1.5c-0.4-0.4-0.9-0.6-1.5-0.6c-0.6,0-1.1,0.2-1.5,0.6c-0.4,0.4-0.6,0.9-0.6,1.5c0,0.6,0.2,1.1,0.6,1.5
		C396.8,260.1,397.3,260.3,397.9,260.3z"/>
	<path class="st1" d="M408.8,254.2c0.9,0,1.6,0.3,2.2,0.9c0.5,0.6,0.8,1.4,0.8,2.5v4.9h-2.2v-4.6c0-1.2-0.5-1.8-1.4-1.8
		c-0.6,0-1,0.2-1.3,0.6c-0.3,0.4-0.5,0.9-0.5,1.5v4.3h-2.2v-8.1h1.5l0.4,1c0.3-0.4,0.7-0.7,1.2-0.9
		C407.8,254.3,408.3,254.2,408.8,254.2z"/>
	<path class="st1" d="M413.8,253.3v-2h2.2v2H413.8z M413.8,262.5v-8.1h2.2v8.1H413.8z"/>
	<path class="st1" d="M422.7,254.2c0.9,0,1.6,0.3,2.2,0.9c0.5,0.6,0.8,1.4,0.8,2.5v4.9h-2.2v-4.6c0-1.2-0.5-1.8-1.4-1.8
		c-0.6,0-1,0.2-1.3,0.6c-0.3,0.4-0.5,0.9-0.5,1.5v4.3h-2.2v-8.1h1.5l0.4,1c0.3-0.4,0.7-0.7,1.2-0.9
		C421.7,254.3,422.2,254.2,422.7,254.2z"/>
	<path class="st1" d="M434.3,254.4h1.4v7.2c0,1.3-0.4,2.3-1.1,3c-0.7,0.7-1.7,1.1-3,1.1c-1.1,0-2-0.3-2.7-0.8s-1.2-1.3-1.4-2.2h2.2
		c0.1,0.3,0.4,0.6,0.7,0.8c0.4,0.2,0.8,0.3,1.2,0.3c0.6,0,1.1-0.2,1.4-0.5c0.4-0.3,0.6-0.8,0.6-1.4v-0.3c-0.7,0.5-1.5,0.7-2.3,0.7
		c-0.7,0-1.4-0.2-2-0.5c-0.6-0.4-1.1-0.8-1.5-1.5c-0.4-0.6-0.5-1.3-0.5-2.1c0-0.7,0.2-1.4,0.5-2c0.4-0.6,0.8-1.1,1.5-1.5
		c0.6-0.4,1.3-0.5,2-0.5c1,0,1.9,0.3,2.7,1L434.3,254.4z M431.5,260.3c0.6,0,1.1-0.2,1.5-0.6c0.4-0.4,0.6-0.9,0.6-1.5
		c0-0.6-0.2-1.1-0.6-1.5c-0.4-0.4-0.9-0.6-1.5-0.6c-0.6,0-1.1,0.2-1.5,0.6c-0.4,0.4-0.6,0.9-0.6,1.5c0,0.6,0.2,1.1,0.6,1.5
		C430.4,260.1,430.9,260.3,431.5,260.3z"/>
	<path class="st1" d="M445.1,260.6h1v1.9h-1.6c-0.9,0-1.6-0.3-2.1-0.8c-0.5-0.5-0.8-1.2-0.8-2.1v-3.5h-1.5v-0.5l3.2-3.4h0.4v2.1h2.2
		v1.8h-2.2v3.2c0,0.4,0.1,0.7,0.3,0.9S444.7,260.6,445.1,260.6z"/>
	<path class="st1" d="M452.2,254.2c0.9,0,1.6,0.3,2.2,0.9c0.5,0.6,0.8,1.4,0.8,2.5v4.9H453v-4.6c0-0.6-0.1-1.1-0.3-1.4
		c-0.2-0.3-0.6-0.4-1.1-0.4c-0.6,0-1,0.2-1.3,0.6c-0.3,0.4-0.5,0.9-0.5,1.5v4.3h-2.2v-11h2.2v3.7
		C450.4,254.5,451.2,254.2,452.2,254.2z"/>
	<path class="st1" d="M465,258.4c0,0.2,0,0.4,0,0.6h-6.1c0.1,0.6,0.3,1,0.7,1.3c0.3,0.3,0.8,0.4,1.3,0.4c0.4,0,0.7-0.1,1-0.3
		c0.3-0.2,0.5-0.4,0.7-0.7h2.3c-0.3,0.9-0.8,1.6-1.5,2.1c-0.7,0.5-1.6,0.8-2.5,0.8c-0.8,0-1.5-0.2-2.1-0.6c-0.6-0.4-1.1-0.9-1.5-1.5
		s-0.5-1.4-0.5-2.2c0-0.8,0.2-1.5,0.5-2.2c0.4-0.7,0.9-1.2,1.5-1.5c0.6-0.4,1.4-0.6,2.2-0.6c0.8,0,1.5,0.2,2.2,0.6
		c0.6,0.4,1.1,0.9,1.5,1.5S465,257.6,465,258.4z M460.8,256c-0.5,0-0.9,0.1-1.2,0.4c-0.3,0.3-0.6,0.6-0.7,1.1h3.9
		c-0.2-0.5-0.4-0.9-0.7-1.1C461.8,256.2,461.3,256,460.8,256z"/>
</g>
<g class="st0">
	<path class="st1" d="M294,275v2.1h-2.9v8.4h-2.3v-8.4h-2.9V275H294z"/>
	<path class="st1" d="M298.1,285.7c-0.8,0-1.6-0.2-2.2-0.6c-0.7-0.4-1.2-0.9-1.6-1.5c-0.4-0.7-0.6-1.4-0.6-2.2
		c0-0.8,0.2-1.5,0.6-2.2c0.4-0.7,0.9-1.2,1.6-1.5c0.7-0.4,1.4-0.6,2.2-0.6c0.8,0,1.6,0.2,2.2,0.6c0.7,0.4,1.2,0.9,1.6,1.5
		s0.6,1.4,0.6,2.2c0,0.8-0.2,1.5-0.6,2.2s-0.9,1.2-1.6,1.5C299.7,285.5,299,285.7,298.1,285.7z M296.6,283c0.4,0.4,0.9,0.6,1.6,0.6
		s1.1-0.2,1.6-0.6c0.4-0.4,0.6-0.9,0.6-1.6c0-0.7-0.2-1.2-0.6-1.6c-0.4-0.4-0.9-0.6-1.6-0.6s-1.1,0.2-1.6,0.6
		c-0.4,0.4-0.6,0.9-0.6,1.6C296,282.1,296.2,282.6,296.6,283z"/>
	<path class="st1" d="M307.8,285.7c-1.1,0-2.1-0.3-2.8-1s-1.1-1.5-1.1-2.6v-4.7h2.2v4.4c0,0.6,0.1,1,0.4,1.4
		c0.3,0.3,0.7,0.5,1.2,0.5s0.9-0.2,1.2-0.5c0.3-0.3,0.4-0.8,0.4-1.3v-4.4h2.2v4.7c0,1.1-0.3,2-1,2.6S308.9,285.7,307.8,285.7z"/>
	<path class="st1" d="M317.7,277.4h0.7v2.1h-0.9c-0.6,0-1.1,0.1-1.3,0.4c-0.3,0.3-0.4,0.8-0.4,1.4v4.2h-2.2v-8.1h1.4l0.4,1
		C315.9,277.7,316.7,277.4,317.7,277.4z"/>
	<path class="st1" d="M325.3,283.4h4.2v2.1H323V275h6.3v2.1h-4v2.1h3.6v2.1h-3.6V283.4z"/>
	<path class="st1" d="M338.4,285.5h-2.5l-1.6-2.7l-1.6,2.7h-2.4l2.8-4.2l-2.6-3.9h2.5l1.4,2.3l1.5-2.3h2.4l-2.6,3.8L338.4,285.5z"/>
	<path class="st1" d="M343.8,277.2c0.8,0,1.5,0.2,2.2,0.6c0.6,0.4,1.2,0.9,1.5,1.5c0.4,0.7,0.5,1.4,0.5,2.2c0,0.8-0.2,1.5-0.5,2.2
		c-0.4,0.7-0.9,1.2-1.5,1.5c-0.6,0.4-1.4,0.6-2.2,0.6c-0.8,0-1.6-0.2-2.2-0.7v3.4h-2.2v-11h1.4l0.4,0.7
		C342,277.5,342.8,277.2,343.8,277.2z M342.1,283c0.4,0.4,0.9,0.6,1.6,0.6s1.2-0.2,1.6-0.6c0.4-0.4,0.6-0.9,0.6-1.6
		c0-0.6-0.2-1.2-0.6-1.6c-0.4-0.4-0.9-0.6-1.6-0.6s-1.2,0.2-1.6,0.6c-0.4,0.4-0.6,1-0.6,1.6C341.5,282.1,341.7,282.6,342.1,283z"/>
	<path class="st1" d="M357.5,281.4c0,0.2,0,0.4,0,0.6h-6.1c0.1,0.6,0.3,1,0.7,1.3c0.3,0.3,0.8,0.4,1.3,0.4c0.4,0,0.7-0.1,1-0.3
		c0.3-0.2,0.5-0.4,0.7-0.7h2.3c-0.3,0.9-0.8,1.6-1.5,2.1c-0.7,0.5-1.6,0.8-2.5,0.8c-0.8,0-1.5-0.2-2.1-0.6c-0.6-0.4-1.1-0.9-1.5-1.5
		s-0.5-1.4-0.5-2.2c0-0.8,0.2-1.5,0.5-2.2c0.4-0.7,0.9-1.2,1.5-1.5c0.6-0.4,1.4-0.6,2.2-0.6c0.8,0,1.5,0.2,2.2,0.6
		c0.6,0.4,1.1,0.9,1.5,1.5S357.5,280.6,357.5,281.4z M353.3,279c-0.5,0-0.9,0.1-1.2,0.4c-0.3,0.3-0.6,0.6-0.7,1.1h3.9
		c-0.2-0.5-0.4-0.9-0.7-1.1C354.2,279.2,353.8,279,353.3,279z"/>
	<path class="st1" d="M363.2,277.4h0.7v2.1H363c-0.6,0-1.1,0.1-1.3,0.4c-0.3,0.3-0.4,0.8-0.4,1.4v4.2h-2.2v-8.1h1.4l0.4,1
		C361.4,277.7,362.2,277.4,363.2,277.4z"/>
	<path class="st1" d="M365.2,276.3v-2h2.2v2H365.2z M365.2,285.5v-8.1h2.2v8.1H365.2z"/>
	<path class="st1" d="M377.3,281.4c0,0.2,0,0.4,0,0.6h-6.1c0.1,0.6,0.3,1,0.7,1.3c0.3,0.3,0.8,0.4,1.3,0.4c0.4,0,0.7-0.1,1-0.3
		c0.3-0.2,0.5-0.4,0.7-0.7h2.3c-0.3,0.9-0.8,1.6-1.5,2.1c-0.7,0.5-1.6,0.8-2.5,0.8c-0.8,0-1.5-0.2-2.1-0.6c-0.6-0.4-1.1-0.9-1.5-1.5
		s-0.5-1.4-0.5-2.2c0-0.8,0.2-1.5,0.5-2.2c0.4-0.7,0.9-1.2,1.5-1.5c0.6-0.4,1.4-0.6,2.2-0.6c0.8,0,1.5,0.2,2.2,0.6
		c0.6,0.4,1.1,0.9,1.5,1.5S377.3,280.6,377.3,281.4z M373.1,279c-0.5,0-0.9,0.1-1.2,0.4c-0.3,0.3-0.6,0.6-0.7,1.1h3.9
		c-0.2-0.5-0.4-0.9-0.7-1.1C374,279.2,373.6,279,373.1,279z"/>
	<path class="st1" d="M383.5,277.2c0.9,0,1.6,0.3,2.2,0.9c0.5,0.6,0.8,1.4,0.8,2.5v4.9h-2.2v-4.6c0-1.2-0.5-1.8-1.4-1.8
		c-0.6,0-1,0.2-1.3,0.6c-0.3,0.4-0.5,0.9-0.5,1.5v4.3h-2.2v-8.1h1.5l0.4,1c0.3-0.4,0.7-0.7,1.2-0.9
		C382.4,277.3,382.9,277.2,383.5,277.2z"/>
	<path class="st1" d="M392.3,285.7c-0.6,0-1.2-0.1-1.7-0.3c-0.5-0.2-1-0.5-1.4-0.9s-0.7-0.8-0.9-1.4c-0.2-0.5-0.3-1.1-0.3-1.7
		s0.1-1.2,0.3-1.7s0.5-1,0.9-1.4s0.8-0.7,1.4-0.9c0.5-0.2,1.1-0.3,1.7-0.3c1,0,1.9,0.3,2.7,0.9c0.8,0.6,1.2,1.4,1.4,2.4h-2.2
		c-0.2-0.4-0.4-0.7-0.8-0.9c-0.3-0.2-0.7-0.3-1.2-0.3c-0.6,0-1.1,0.2-1.5,0.6c-0.4,0.4-0.6,0.9-0.6,1.6s0.2,1.2,0.6,1.6
		c0.4,0.4,0.9,0.6,1.5,0.6c0.4,0,0.8-0.1,1.2-0.4s0.6-0.6,0.8-1h2.2c-0.2,1-0.7,1.8-1.4,2.5C394.2,285.4,393.3,285.7,392.3,285.7z"
		/>
	<path class="st1" d="M405.7,281.4c0,0.2,0,0.4,0,0.6h-6.1c0.1,0.6,0.3,1,0.7,1.3c0.3,0.3,0.8,0.4,1.3,0.4c0.4,0,0.7-0.1,1-0.3
		c0.3-0.2,0.5-0.4,0.7-0.7h2.3c-0.3,0.9-0.8,1.6-1.5,2.1c-0.7,0.5-1.6,0.8-2.5,0.8c-0.8,0-1.5-0.2-2.1-0.6c-0.6-0.4-1.1-0.9-1.5-1.5
		s-0.5-1.4-0.5-2.2c0-0.8,0.2-1.5,0.5-2.2c0.4-0.7,0.9-1.2,1.5-1.5c0.6-0.4,1.4-0.6,2.2-0.6c0.8,0,1.5,0.2,2.2,0.6
		c0.6,0.4,1.1,0.9,1.5,1.5S405.7,280.6,405.7,281.4z M401.5,279c-0.5,0-0.9,0.1-1.2,0.4c-0.3,0.3-0.6,0.6-0.7,1.1h3.9
		c-0.2-0.5-0.4-0.9-0.7-1.1C402.4,279.2,402,279,401.5,279z"/>
	<path class="st1" d="M415.8,277.5v1.8h-2v6.2h-2.2v-6.2h-1.4v-1.8h1.4v-0.7c0-0.8,0.2-1.4,0.7-1.9c0.4-0.5,1.1-0.7,1.9-0.7h1.6v1.7
		h-1.2c-0.6,0-0.9,0.3-0.9,0.9v0.7H415.8z"/>
	<path class="st1" d="M420.8,285.7c-0.8,0-1.6-0.2-2.2-0.6c-0.7-0.4-1.2-0.9-1.6-1.5c-0.4-0.7-0.6-1.4-0.6-2.2
		c0-0.8,0.2-1.5,0.6-2.2c0.4-0.7,0.9-1.2,1.6-1.5c0.7-0.4,1.4-0.6,2.2-0.6c0.8,0,1.6,0.2,2.2,0.6c0.7,0.4,1.2,0.9,1.6,1.5
		s0.6,1.4,0.6,2.2c0,0.8-0.2,1.5-0.6,2.2s-0.9,1.2-1.6,1.5C422.3,285.5,421.6,285.7,420.8,285.7z M419.2,283
		c0.4,0.4,0.9,0.6,1.6,0.6c0.6,0,1.1-0.2,1.6-0.6c0.4-0.4,0.6-0.9,0.6-1.6c0-0.7-0.2-1.2-0.6-1.6c-0.4-0.4-0.9-0.6-1.6-0.6
		c-0.6,0-1.1,0.2-1.6,0.6c-0.4,0.4-0.6,0.9-0.6,1.6C418.6,282.1,418.8,282.6,419.2,283z"/>
	<path class="st1" d="M430.8,277.4h0.7v2.1h-0.9c-0.6,0-1.1,0.1-1.3,0.4c-0.3,0.3-0.4,0.8-0.4,1.4v4.2h-2.2v-8.1h1.4l0.4,1
		C429.1,277.7,429.8,277.4,430.8,277.4z"/>
	<path class="st1" d="M439.7,283.6h1v1.9h-1.6c-0.9,0-1.6-0.3-2.1-0.8c-0.5-0.5-0.8-1.2-0.8-2.1v-3.5h-1.5v-0.5l3.2-3.4h0.4v2.1h2.2
		v1.8h-2.2v3.2c0,0.4,0.1,0.7,0.3,0.9S439.3,283.6,439.7,283.6z"/>
	<path class="st1" d="M446.8,277.2c0.9,0,1.6,0.3,2.2,0.9c0.5,0.6,0.8,1.4,0.8,2.5v4.9h-2.2v-4.6c0-0.6-0.1-1.1-0.3-1.4
		c-0.2-0.3-0.6-0.4-1.1-0.4c-0.6,0-1,0.2-1.3,0.6c-0.3,0.4-0.5,0.9-0.5,1.5v4.3h-2.2v-11h2.2v3.7C445,277.5,445.9,277.2,446.8,277.2
		z"/>
	<path class="st1" d="M459.7,281.4c0,0.2,0,0.4,0,0.6h-6.1c0.1,0.6,0.3,1,0.7,1.3c0.3,0.3,0.8,0.4,1.3,0.4c0.4,0,0.7-0.1,1-0.3
		c0.3-0.2,0.5-0.4,0.7-0.7h2.3c-0.3,0.9-0.8,1.6-1.5,2.1c-0.7,0.5-1.6,0.8-2.5,0.8c-0.8,0-1.5-0.2-2.1-0.6c-0.6-0.4-1.1-0.9-1.5-1.5
		s-0.5-1.4-0.5-2.2c0-0.8,0.2-1.5,0.5-2.2c0.4-0.7,0.9-1.2,1.5-1.5c0.6-0.4,1.4-0.6,2.2-0.6c0.8,0,1.5,0.2,2.2,0.6
		c0.6,0.4,1.1,0.9,1.5,1.5S459.7,280.6,459.7,281.4z M455.5,279c-0.5,0-0.9,0.1-1.2,0.4c-0.3,0.3-0.6,0.6-0.7,1.1h3.9
		c-0.2-0.5-0.4-0.9-0.7-1.1C456.4,279.2,456,279,455.5,279z"/>
	<path class="st1" d="M469.6,280h5.6c0,1.1-0.2,2.1-0.7,2.9c-0.5,0.9-1.1,1.6-1.9,2c-0.8,0.5-1.7,0.7-2.8,0.7
		c-0.8,0-1.5-0.1-2.1-0.4c-0.7-0.3-1.2-0.7-1.7-1.1c-0.5-0.5-0.9-1.1-1.1-1.7c-0.3-0.7-0.4-1.4-0.4-2.2c0-0.8,0.1-1.5,0.4-2.2
		c0.3-0.7,0.6-1.3,1.1-1.7c0.5-0.5,1-0.9,1.7-1.1s1.4-0.4,2.2-0.4c0.9,0,1.7,0.2,2.4,0.5c0.7,0.3,1.4,0.8,1.9,1.4
		c0.5,0.6,0.8,1.3,1,2.1h-2.3c-0.2-0.6-0.6-1-1.1-1.3c-0.5-0.3-1.1-0.5-1.8-0.5c-0.9,0-1.7,0.3-2.3,0.9c-0.6,0.6-0.9,1.4-0.9,2.4
		c0,1,0.3,1.8,0.9,2.4c0.6,0.6,1.3,0.9,2.3,0.9c0.7,0,1.3-0.2,1.8-0.5c0.5-0.3,0.9-0.8,1.1-1.3h-3.1V280z"/>
	<path class="st1" d="M480.5,285.7c-1.1,0-2.1-0.3-2.8-1c-0.7-0.7-1.1-1.5-1.1-2.6v-4.7h2.2v4.4c0,0.6,0.1,1,0.4,1.4
		c0.3,0.3,0.7,0.5,1.2,0.5c0.5,0,0.9-0.2,1.2-0.5c0.3-0.3,0.4-0.8,0.4-1.3v-4.4h2.2v4.7c0,1.1-0.3,2-1,2.6S481.6,285.7,480.5,285.7z
		"/>
	<path class="st1" d="M494.1,281.4c0,0.2,0,0.4,0,0.6h-6.1c0.1,0.6,0.3,1,0.7,1.3c0.3,0.3,0.8,0.4,1.3,0.4c0.4,0,0.7-0.1,1-0.3
		c0.3-0.2,0.5-0.4,0.7-0.7h2.3c-0.3,0.9-0.8,1.6-1.5,2.1c-0.7,0.5-1.6,0.8-2.5,0.8c-0.8,0-1.5-0.2-2.1-0.6c-0.6-0.4-1.1-0.9-1.5-1.5
		s-0.5-1.4-0.5-2.2c0-0.8,0.2-1.5,0.5-2.2c0.4-0.7,0.9-1.2,1.5-1.5c0.6-0.4,1.4-0.6,2.2-0.6c0.8,0,1.5,0.2,2.2,0.6
		c0.6,0.4,1.1,0.9,1.5,1.5S494.1,280.6,494.1,281.4z M489.9,279c-0.5,0-0.9,0.1-1.2,0.4c-0.3,0.3-0.6,0.6-0.7,1.1h3.9
		c-0.2-0.5-0.4-0.9-0.7-1.1C490.8,279.2,490.4,279,489.9,279z"/>
	<path class="st1" d="M498.5,285.7c-1,0-1.8-0.3-2.5-0.8c-0.6-0.5-0.9-1.2-0.9-2.1h2.1c0,0.3,0.1,0.6,0.4,0.8c0.2,0.2,0.6,0.3,1,0.3
		c0.3,0,0.6-0.1,0.8-0.2c0.2-0.1,0.3-0.3,0.3-0.6c0-0.1,0-0.2-0.1-0.3c-0.1-0.1-0.2-0.2-0.4-0.2c-0.2-0.1-0.3-0.1-0.5-0.2
		c-0.2,0-0.4-0.1-0.6-0.1c-0.2,0-0.4-0.1-0.6-0.1c-0.2,0-0.3-0.1-0.6-0.1c-0.2-0.1-0.4-0.1-0.6-0.2c-0.2-0.1-0.3-0.2-0.5-0.3
		c-0.2-0.1-0.3-0.3-0.4-0.4c-0.1-0.2-0.2-0.3-0.2-0.6c-0.1-0.2-0.1-0.5-0.1-0.7c0-0.8,0.3-1.4,0.9-1.9c0.6-0.5,1.4-0.7,2.4-0.7
		c1,0,1.8,0.2,2.4,0.7c0.6,0.5,0.9,1.1,0.9,2h-2.1c0-0.3-0.1-0.6-0.3-0.7c-0.2-0.2-0.5-0.2-0.9-0.2c-0.3,0-0.6,0.1-0.8,0.2
		c-0.2,0.1-0.3,0.3-0.3,0.6c0,0.1,0,0.2,0,0.2c0,0.1,0.1,0.1,0.2,0.2c0.1,0.1,0.2,0.1,0.2,0.1c0.1,0,0.2,0.1,0.3,0.1
		c0.1,0,0.3,0.1,0.4,0.1c0.1,0,0.2,0,0.4,0.1c0.8,0.1,1.4,0.3,1.7,0.4c0.9,0.4,1.3,1.1,1.3,2.1c0,0.8-0.3,1.5-0.9,2
		C500.4,285.5,499.6,285.7,498.5,285.7z"/>
	<path class="st1" d="M507.4,283.6h1v1.9h-1.6c-0.9,0-1.6-0.3-2.1-0.8c-0.5-0.5-0.8-1.2-0.8-2.1v-3.5h-1.5v-0.5l3.2-3.4h0.4v2.1h2.2
		v1.8h-2.2v3.2c0,0.4,0.1,0.7,0.3,0.9S507,283.6,507.4,283.6z"/>
</g>
<g>
	<g class="st0">
		<path class="st1" d="M429,688.3l-2.1-3.6h-1.5v3.6h-2.3v-10.5h4.2c1.1,0,1.9,0.3,2.6,1c0.7,0.7,1,1.5,1,2.5c0,0.7-0.2,1.3-0.5,1.8
			c-0.3,0.5-0.8,0.9-1.4,1.2l2.3,4H429z M425.5,679.9v2.7h1.8c0.5,0,0.8-0.1,1.1-0.4c0.3-0.3,0.4-0.6,0.4-1c0-0.4-0.1-0.7-0.4-1
			s-0.6-0.4-1.1-0.4H425.5z"/>
		<path class="st1" d="M440.6,684.2c0,0.2,0,0.4,0,0.6h-6.1c0.1,0.6,0.3,1,0.7,1.3c0.3,0.3,0.8,0.4,1.3,0.4c0.4,0,0.7-0.1,1-0.3
			c0.3-0.2,0.5-0.4,0.7-0.7h2.3c-0.3,0.9-0.8,1.6-1.5,2.1c-0.7,0.5-1.6,0.8-2.5,0.8c-0.8,0-1.5-0.2-2.1-0.6
			c-0.6-0.4-1.1-0.9-1.5-1.5s-0.5-1.4-0.5-2.2c0-0.8,0.2-1.5,0.5-2.2c0.4-0.7,0.9-1.2,1.5-1.5c0.6-0.4,1.4-0.6,2.1-0.6
			c0.8,0,1.5,0.2,2.2,0.6c0.6,0.4,1.1,0.9,1.5,1.5S440.6,683.4,440.6,684.2z M436.4,681.8c-0.5,0-0.9,0.1-1.2,0.4s-0.6,0.6-0.7,1.1
			h3.9c-0.2-0.5-0.4-0.9-0.7-1.1C437.4,682,436.9,681.8,436.4,681.8z"/>
		<path class="st1" d="M442.1,685.1V683h4.9v2.1H442.1z"/>
		<path class="st1" d="M453.1,680.2h0.7v2.1h-0.9c-0.6,0-1.1,0.1-1.3,0.4c-0.3,0.3-0.4,0.8-0.4,1.4v4.2h-2.2v-8.1h1.4l0.4,1
			C451.3,680.5,452.1,680.2,453.1,680.2z"/>
		<path class="st1" d="M458.7,688.5c-0.8,0-1.6-0.2-2.2-0.6c-0.7-0.4-1.2-0.9-1.6-1.5c-0.4-0.7-0.6-1.4-0.6-2.2
			c0-0.8,0.2-1.5,0.6-2.2c0.4-0.7,0.9-1.2,1.6-1.5c0.7-0.4,1.4-0.6,2.2-0.6c0.8,0,1.6,0.2,2.2,0.6c0.7,0.4,1.2,0.9,1.6,1.5
			s0.6,1.4,0.6,2.2c0,0.8-0.2,1.5-0.6,2.2s-0.9,1.2-1.6,1.5C460.3,688.3,459.5,688.5,458.7,688.5z M457.1,685.8
			c0.4,0.4,0.9,0.6,1.6,0.6s1.1-0.2,1.6-0.6c0.4-0.4,0.6-0.9,0.6-1.6c0-0.7-0.2-1.2-0.6-1.6c-0.4-0.4-0.9-0.6-1.6-0.6
			s-1.1,0.2-1.6,0.6c-0.4,0.4-0.6,0.9-0.6,1.6C456.5,684.9,456.7,685.4,457.1,685.8z"/>
		<path class="st1" d="M468.3,688.5c-1.1,0-2.1-0.3-2.8-1c-0.7-0.7-1.1-1.5-1.1-2.6v-4.7h2.2v4.4c0,0.6,0.1,1,0.4,1.4
			c0.3,0.3,0.7,0.5,1.2,0.5s0.9-0.2,1.2-0.5c0.3-0.3,0.4-0.8,0.4-1.3v-4.4h2.2v4.7c0,1.1-0.3,2-1,2.6S469.5,688.5,468.3,688.5z"/>
		<path class="st1" d="M478.1,686.3h1v1.9h-1.6c-0.9,0-1.6-0.3-2.1-0.8c-0.5-0.5-0.8-1.2-0.8-2.1V682h-1.5v-0.5l3.2-3.4h0.4v2.1h2.2
			v1.8h-2.2v3.2c0,0.4,0.1,0.7,0.3,0.9S477.7,686.3,478.1,686.3z"/>
		<path class="st1" d="M480.6,679.1v-2h2.2v2H480.6z M480.6,688.3v-8.1h2.2v8.1H480.6z"/>
		<path class="st1" d="M489.5,680c0.9,0,1.6,0.3,2.2,0.9c0.5,0.6,0.8,1.4,0.8,2.5v4.9h-2.2v-4.6c0-1.2-0.5-1.8-1.4-1.8
			c-0.6,0-1,0.2-1.3,0.6c-0.3,0.4-0.5,0.9-0.5,1.5v4.3h-2.2v-8.1h1.5l0.4,1c0.3-0.4,0.7-0.7,1.2-0.9
			C488.4,680.1,488.9,680,489.5,680z"/>
		<path class="st1" d="M501,680.2h1.4v7.2c0,1.3-0.4,2.3-1.1,3c-0.7,0.7-1.7,1.1-3,1.1c-1.1,0-2-0.3-2.7-0.8s-1.2-1.3-1.4-2.2h2.2
			c0.1,0.3,0.4,0.6,0.7,0.8c0.4,0.2,0.8,0.3,1.2,0.3c0.6,0,1.1-0.2,1.4-0.5c0.4-0.3,0.6-0.8,0.6-1.4v-0.3c-0.7,0.5-1.5,0.7-2.3,0.7
			c-0.7,0-1.4-0.2-2-0.5c-0.6-0.4-1.1-0.8-1.5-1.5c-0.4-0.6-0.5-1.3-0.5-2.1c0-0.7,0.2-1.4,0.5-2c0.4-0.6,0.8-1.1,1.5-1.5
			c0.6-0.4,1.3-0.5,2-0.5c1,0,1.9,0.3,2.7,1L501,680.2z M498.2,686.1c0.6,0,1.1-0.2,1.5-0.6c0.4-0.4,0.6-0.9,0.6-1.5
			c0-0.6-0.2-1.1-0.6-1.5c-0.4-0.4-0.9-0.6-1.5-0.6c-0.6,0-1.1,0.2-1.5,0.6c-0.4,0.4-0.6,0.9-0.6,1.5c0,0.6,0.2,1.1,0.6,1.5
			C497.1,685.9,497.6,686.1,498.2,686.1z"/>
		<path class="st1" d="M517.5,680.2h2.2l-2.7,8.1h-1.8l-1.8-4.2l-1.8,4.2h-1.8l-2.7-8.1h2.2l1.6,4.8l2.1-4.8h0.6l2.2,4.8
			L517.5,680.2z"/>
		<path class="st1" d="M525.5,680c0.9,0,1.6,0.3,2.2,0.9c0.5,0.6,0.8,1.4,0.8,2.5v4.9h-2.2v-4.6c0-0.6-0.1-1.1-0.3-1.4
			c-0.2-0.3-0.6-0.4-1.1-0.4c-0.6,0-1,0.2-1.3,0.6c-0.3,0.4-0.5,0.9-0.5,1.5v4.3h-2.2v-11h2.2v3.7C523.7,680.3,524.5,680,525.5,680z
			"/>
		<path class="st1" d="M538.3,684.2c0,0.2,0,0.4,0,0.6h-6.1c0.1,0.6,0.3,1,0.7,1.3c0.3,0.3,0.8,0.4,1.3,0.4c0.4,0,0.7-0.1,1-0.3
			c0.3-0.2,0.5-0.4,0.7-0.7h2.3c-0.3,0.9-0.8,1.6-1.5,2.1c-0.7,0.5-1.6,0.8-2.5,0.8c-0.8,0-1.5-0.2-2.1-0.6
			c-0.6-0.4-1.1-0.9-1.5-1.5s-0.5-1.4-0.5-2.2c0-0.8,0.2-1.5,0.5-2.2c0.4-0.7,0.9-1.2,1.5-1.5c0.6-0.4,1.4-0.6,2.2-0.6
			c0.8,0,1.5,0.2,2.2,0.6c0.6,0.4,1.1,0.9,1.5,1.5S538.3,683.4,538.3,684.2z M534.1,681.8c-0.5,0-0.9,0.1-1.2,0.4
			c-0.3,0.3-0.6,0.6-0.7,1.1h3.9c-0.2-0.5-0.4-0.9-0.7-1.1C535,682,534.6,681.8,534.1,681.8z"/>
		<path class="st1" d="M544.5,680c0.9,0,1.6,0.3,2.2,0.9c0.5,0.6,0.8,1.4,0.8,2.5v4.9h-2.2v-4.6c0-1.2-0.5-1.8-1.4-1.8
			c-0.6,0-1,0.2-1.3,0.6c-0.3,0.4-0.5,0.9-0.5,1.5v4.3h-2.2v-8.1h1.5l0.4,1c0.3-0.4,0.7-0.7,1.2-0.9
			C543.4,680.1,543.9,680,544.5,680z"/>
		<path class="st1" d="M557.2,680.2h0.7v2.1H557c-0.6,0-1.1,0.1-1.3,0.4c-0.3,0.3-0.4,0.8-0.4,1.4v4.2h-2.2v-8.1h1.4l0.4,1
			C555.4,680.5,556.2,680.2,557.2,680.2z"/>
		<path class="st1" d="M566.8,684.2c0,0.2,0,0.4,0,0.6h-6.1c0.1,0.6,0.3,1,0.7,1.3c0.3,0.3,0.8,0.4,1.3,0.4c0.4,0,0.7-0.1,1-0.3
			c0.3-0.2,0.5-0.4,0.7-0.7h2.3c-0.3,0.9-0.8,1.6-1.5,2.1c-0.7,0.5-1.6,0.8-2.5,0.8c-0.8,0-1.5-0.2-2.1-0.6
			c-0.6-0.4-1.1-0.9-1.5-1.5s-0.5-1.4-0.5-2.2c0-0.8,0.2-1.5,0.5-2.2c0.4-0.7,0.9-1.2,1.5-1.5c0.6-0.4,1.4-0.6,2.2-0.6
			c0.8,0,1.5,0.2,2.2,0.6c0.6,0.4,1.1,0.9,1.5,1.5S566.8,683.4,566.8,684.2z M562.7,681.8c-0.5,0-0.9,0.1-1.2,0.4
			c-0.3,0.3-0.6,0.6-0.7,1.1h3.9c-0.2-0.5-0.4-0.9-0.7-1.1C563.6,682,563.1,681.8,562.7,681.8z"/>
		<path class="st1" d="M575.1,680.2h1.5v11h-2.2v-3.4c-0.7,0.5-1.4,0.7-2.2,0.7c-0.8,0-1.5-0.2-2.2-0.6c-0.6-0.4-1.2-0.9-1.5-1.5
			c-0.4-0.7-0.5-1.4-0.5-2.2c0-0.8,0.2-1.5,0.5-2.2c0.4-0.7,0.9-1.2,1.5-1.5c0.6-0.4,1.4-0.6,2.2-0.6c1,0,1.9,0.3,2.6,1L575.1,680.2
			z M570.7,685.8c0.4,0.4,0.9,0.6,1.6,0.6s1.2-0.2,1.6-0.6c0.4-0.4,0.6-1,0.6-1.6c0-0.6-0.2-1.2-0.6-1.6c-0.4-0.4-0.9-0.6-1.6-0.6
			s-1.2,0.2-1.6,0.6c-0.4,0.4-0.6,1-0.6,1.6C570.1,684.9,570.3,685.4,570.7,685.8z"/>
		<path class="st1" d="M582.3,688.5c-1.1,0-2.1-0.3-2.8-1c-0.7-0.7-1.1-1.5-1.1-2.6v-4.7h2.2v4.4c0,0.6,0.1,1,0.4,1.4
			c0.3,0.3,0.7,0.5,1.2,0.5c0.5,0,0.9-0.2,1.2-0.5c0.3-0.3,0.4-0.8,0.4-1.3v-4.4h2.2v4.7c0,1.1-0.3,2-1,2.6S583.5,688.5,582.3,688.5
			z"/>
		<path class="st1" d="M588.1,679.1v-2h2.2v2H588.1z M588.1,688.3v-8.1h2.2v8.1H588.1z"/>
		<path class="st1" d="M596.5,680.2h0.7v2.1h-0.9c-0.6,0-1.1,0.1-1.3,0.4c-0.3,0.3-0.4,0.8-0.4,1.4v4.2h-2.2v-8.1h1.4l0.4,1
			C594.7,680.5,595.5,680.2,596.5,680.2z"/>
		<path class="st1" d="M606.2,684.2c0,0.2,0,0.4,0,0.6H600c0.1,0.6,0.3,1,0.7,1.3c0.3,0.3,0.8,0.4,1.3,0.4c0.4,0,0.7-0.1,1-0.3
			c0.3-0.2,0.5-0.4,0.7-0.7h2.3c-0.3,0.9-0.8,1.6-1.5,2.1c-0.7,0.5-1.6,0.8-2.5,0.8c-0.8,0-1.5-0.2-2.1-0.6
			c-0.6-0.4-1.1-0.9-1.5-1.5s-0.5-1.4-0.5-2.2c0-0.8,0.2-1.5,0.5-2.2c0.4-0.7,0.9-1.2,1.5-1.5c0.6-0.4,1.4-0.6,2.2-0.6
			c0.8,0,1.5,0.2,2.2,0.6c0.6,0.4,1.1,0.9,1.5,1.5S606.2,683.4,606.2,684.2z M602,681.8c-0.5,0-0.9,0.1-1.2,0.4
			c-0.3,0.3-0.6,0.6-0.7,1.1h3.9c-0.2-0.5-0.4-0.9-0.7-1.1C602.9,682,602.5,681.8,602,681.8z"/>
		<path class="st1" d="M613.7,677.3h2.2v11h-1.6l-0.3-0.7c-0.7,0.6-1.6,0.9-2.5,0.9c-1.2,0-2.2-0.4-3-1.2s-1.2-1.8-1.2-3.1
			c0-0.6,0.1-1.2,0.3-1.7c0.2-0.5,0.5-1,0.9-1.4c0.4-0.4,0.8-0.7,1.4-0.9c0.5-0.2,1.1-0.3,1.7-0.3c0.8,0,1.6,0.2,2.2,0.7V677.3z
			 M610.1,685.8c0.4,0.4,0.9,0.6,1.6,0.6c0.6,0,1.2-0.2,1.6-0.6c0.4-0.4,0.6-1,0.6-1.6c0-0.6-0.2-1.2-0.6-1.6
			c-0.4-0.4-0.9-0.6-1.6-0.6c-0.6,0-1.2,0.2-1.6,0.6c-0.4,0.4-0.6,1-0.6,1.6C609.4,684.9,609.6,685.4,610.1,685.8z"/>
	</g>
</g>
<g id="Group_300">
	<path id="Union_58" class="st2" d="M34.8,249.5c0-54.1,43.9-98,98.1-98c16.6,0,33,4.2,47.6,12.3l16.7-13.5l-8.7-10.7l71.5,2.1
		L247.1,212l-8.5-10.6L224,213.3c19.9,50.3-4.7,107.3-55,127.2c-50.3,19.9-107.3-4.7-127.2-55C37.1,274.1,34.8,261.8,34.8,249.5z"/>
	<g transform="matrix(1, 0, 0, 1, -2780, 1330.5)">
		<circle id="Ellipse_76-2_1_" class="st3" cx="2913" cy="-1081" r="90"/>
	</g>
	<g id="_002-deal" transform="translate(-2771 1362.667)">
		<g id="Group_267" transform="translate(84 107.535)">
			<path id="Path_2193" class="st4" d="M2857-1241.6c-0.4-0.3-1-0.4-1.5-0.2l-13.2,4.8c-1.6,0.6-2.9,1.8-3.7,3.4
				c-0.1,0.3-0.2,0.6-0.3,0.9c-3.7-1-7.2-2.4-10.7-4.1c-5.4-2.8-10-2.4-15.2,1.5c-2.1,0-5,0.3-7.9,0.5c-1.8,0.2-3.5,0.3-4.9,0.4
				c-0.1-2.6-1.8-4.9-4.3-5.8l-13.2-4.8c-0.8-0.3-1.8,0.1-2.1,1c-0.1,0.2-0.1,0.4-0.1,0.5v32.4c0,0.9,0.7,1.6,1.6,1.6l0,0h4.7
				c2,0,3.9-0.9,5.1-2.5c0.6,0.5,1.4,1.1,2.2,1.7c1.9,1.4,4,3,4.9,3.7c6,5,13.3,10.5,14.7,11.4c1.7,1.1,3.6,1.7,5.6,1.8
				c1.4,0.1,2.7-0.3,3.8-1.1c1.3,0.5,2.8,0.5,4.1-0.1s2.4-1.7,3-3c1.4,0.3,2.8,0,4-0.6s2.1-1.5,2.6-2.6c1.3,0.1,2.5-0.3,3.5-1.1
				c1.5-1.1,2.3-2.9,2.1-4.8l4.1-2.3c1.2,1.7,3.1,2.7,5.2,2.7h4.7c0.9,0,1.6-0.7,1.6-1.6l0,0v-32.4
				C2857.7-1240.8,2857.4-1241.3,2857-1241.6z M2838-1204.5c-0.5,0.4-1.3,0.7-1.7,0.3c0,0,0,0-0.1,0c0,0,0-0.1-0.1-0.1
				c-1.2-0.9-6.3-6.2-9.5-9.6c-0.6-0.7-1.6-0.7-2.3-0.1s-0.7,1.6-0.1,2.3c0,0,0,0,0.1,0.1c0.8,0.8,6.8,7.1,9.2,9.3
				c-0.2,0.6-0.6,1.1-1.2,1.3c-0.8,0.5-1.7,0.5-2.5,0.1l0,0c0,0,0,0,0-0.1c-1.9-1.6-6.8-6.7-7.9-7.9c-0.6-0.7-1.6-0.7-2.3-0.1
				c-0.6,0.6-0.7,1.6-0.1,2.3c0.1,0.1,4.8,5.2,7.5,7.6c-0.2,0.7-0.8,1.4-1.5,1.7c-0.7,0.3-1.6,0.2-2.2-0.3c-2.3-2-7-6.9-7.9-7.9
				c-0.6-0.7-1.6-0.7-2.3-0.1s-0.7,1.6-0.1,2.3c1.1,1.2,4.3,4.6,6.7,6.9c-0.3,0-0.6,0.1-0.8,0.1c-1.4-0.1-2.7-0.6-3.8-1.3
				c-1.1-0.7-8.3-6.1-14.4-11.2c-0.9-0.8-3.1-2.4-5-3.8c-1-0.8-2-1.5-2.7-2l6.1-16.2c1.6-0.1,3.7-0.3,5.9-0.4
				c1.3-0.1,2.5-0.2,3.7-0.3c-1.8,1.9-4.6,5.3-4.2,8.5c0.2,1.5,1,2.8,2.3,3.5c0.8,0.5,1.8,0.7,2.8,0.7c2.7-0.1,5.3-1.3,7.1-3.3
				c1.3-0.2,2.5-0.6,3.7-1.2c1.9,1.8,4.4,3.9,7.1,6.1c4.7,3.8,9.9,8.2,11.3,10.6C2839.1-1206.2,2838.8-1205,2838-1204.5z"/>
		</g>
	</g>
</g>
<g id="Group_301">
	<g id="Group_295">
		<path id="Union_60" class="st5" d="M729.7,221c15.8,51.8-13.3,106.6-65.1,122.4c-15.9,4.9-32.8,5.6-49.1,2.1l-12,17.8l11.4,7.7
			l-69,18.9l-8.3-71l11.3,7.6l10.5-15.6c-33.8-42.3-26.9-104,15.4-137.8s104-26.9,137.8,15.4C720.3,198.1,726.1,209.1,729.7,221z"/>
		<g transform="matrix(1, 0, 0, 1, -2780, 1330.5)">
			<circle id="Ellipse_80-2_1_" class="st3" cx="3416" cy="-1081" r="90"/>
		</g>
	</g>
	<g id="Group_293" transform="translate(-7)">
		<path id="Path_2308" class="st6" d="M642,286.4c0,0.6-0.5,1.1-1.1,1.1l0,0h-3.7c-0.6,0-1.1-0.5-1.1-1.1c0-0.2,0-0.3,0.1-0.5
			c0.4-0.7,0.7-1.4,1-2.2c2-4.9,2.6-10.3,1.6-15.5c-0.1-0.6,0.3-1.1,0.9-1.2s1.1,0.3,1.2,0.9c1,5.3,0.5,10.8-1.4,15.8
			c-0.2,0.5-0.4,1.1-0.7,1.6h2C641.5,285.4,642,285.9,642,286.4L642,286.4z"/>
		<path id="Path_2309" class="st6" d="M635.1,286.4c0,0.6-0.5,1.1-1.1,1.1l0,0h-3.7c-0.6,0-1.1-0.5-1.1-1.1c0-0.2,0-0.3,0.1-0.5
			c0.4-0.7,0.7-1.4,1-2.2c2-4.9,2.6-10.3,1.6-15.5c-0.1-0.6,0.3-1.1,0.9-1.2s1.1,0.3,1.2,0.9l0,0c1,5.3,0.5,10.8-1.4,15.8
			c-0.2,0.5-0.4,1.1-0.7,1.6h2C634.6,285.4,635.1,285.8,635.1,286.4L635.1,286.4z"/>
		<path id="Path_2310" class="st6" d="M624.2,286.4c0,0.6-0.5,1.1-1.1,1.1l0,0h-3.7c-0.6,0-1.1-0.5-1.1-1.1c0-0.2,0-0.3,0.1-0.5
			c0.4-0.7,0.7-1.4,1-2.2c2-4.9,2.6-10.3,1.6-15.5c-0.1-0.6,0.3-1.1,0.9-1.2c0.6-0.1,1.1,0.3,1.2,0.9c1,5.3,0.5,10.8-1.4,15.8
			c-0.2,0.5-0.4,1.1-0.7,1.6h2C623.8,285.4,624.2,285.9,624.2,286.4L624.2,286.4z"/>
		<path id="Path_2311" class="st6" d="M617.3,286.4c0,0.6-0.5,1.1-1.1,1.1l0,0h-3.7c-0.6,0-1.1-0.5-1.1-1.1c0-0.2,0-0.3,0.1-0.5
			c0.4-0.7,0.7-1.4,1-2.2c2-4.9,2.6-10.3,1.6-15.5c-0.1-0.6,0.3-1.1,0.9-1.2s1.1,0.3,1.2,0.9c1,5.3,0.5,10.8-1.4,15.8
			c-0.2,0.5-0.4,1.1-0.7,1.6h2C616.9,285.4,617.3,285.8,617.3,286.4L617.3,286.4z"/>
		<path id="Path_2312" class="st7" d="M646.4,267.9c-4.9,1.1-10,1.4-15.1,0.8c-1.8-0.2-3.5-0.6-5.2-1.1c0-18.8,7.3-27.6,7.3-27.6
			l1.6,0.2l4.7,0.5C640.7,251.5,646.4,267.9,646.4,267.9z"/>
		<path id="Path_2313" class="st8" d="M631.3,268.7c-1.8-0.2-3.5-0.6-5.2-1.1c0-18.8,7.3-27.6,7.3-27.6l1.6,0.2l0.3,0.6
			C635.4,240.8,628.9,254.9,631.3,268.7z"/>
		<path id="Path_2314" class="st9" d="M646.4,224.7l-13.6,4.2l-6,1.9c-3.3-8.4-0.5-13.6,9-13.6C645.3,217.1,646.4,221.4,646.4,224.7
			z"/>
		<path id="Path_2315" class="st10" d="M632.8,228.9l-6,1.9c-3.3-8.4-0.5-13.6,9-13.6C632.4,218.1,630.3,225.1,632.8,228.9z"/>
		<path id="Path_2316" class="st6" d="M646.4,224.6v7.5c0,4.9-4,8.9-8.9,8.9c-4.4,0-8.2-3.3-8.8-7.6c-1.5-0.5-2.3-2.2-1.8-3.7
			s2.2-2.3,3.7-1.8c0.4,0.1,0.8,0.4,1.1,0.7c0.1-1,0.5-1.9,1-2.8C634.4,223.2,638.5,220.3,646.4,224.6z"/>
		<path id="Path_2317" class="st11" d="M635.4,240.8c-3.5-0.9-6.2-3.8-6.7-7.4c-1.5-0.5-2.3-2.2-1.8-3.7s2.2-2.3,3.7-1.8
			c0.4,0.1,0.8,0.4,1.1,0.7c0.1-1,0.5-1.9,1-2.8C631.9,231,632,238.6,635.4,240.8z"/>
		<g id="Group_284" transform="translate(-2142.225 1558.047)">
			<path id="Path_2227" class="st12" d="M2781.1-1326.9c-0.6,0-1.1-0.5-1.1-1.1l0,0v-1.5c0-0.6,0.5-1.1,1.1-1.1s1.1,0.5,1.1,1.1v1.5
				C2782.1-1327.4,2781.6-1326.9,2781.1-1326.9L2781.1-1326.9z"/>
			<path id="Path_2228" class="st12" d="M2784.9-1326.9c-0.6,0-1.1-0.5-1.1-1.1l0,0v-1.5c0-0.6,0.5-1.1,1.1-1.1s1.1,0.5,1.1,1.1v1.5
				C2785.9-1327.4,2785.5-1326.9,2784.9-1326.9L2784.9-1326.9z"/>
		</g>
		<path id="Path_2318" class="st3" d="M639.2,237.8L639.2,237.8c-1.9,0-3.6-1-4.6-2.6c-0.3-0.5-0.1-1.2,0.4-1.5s1.2-0.1,1.5,0.4l0,0
			c0.6,1,1.6,1.6,2.8,1.5c0.6,0,1,0.5,1,1.1C640.3,237.3,639.8,237.8,639.2,237.8L639.2,237.8z"/>
		<path id="Path_2319" class="st13" d="M628.7,224.7c0.7-2.7,0.4-7.5-7-7.5c-7.5,0-14.9,0.6-16.4,11.6c-1.6,11,5.7,21.4,5.7,21.4"/>
		<path id="Path_2320" class="st14" d="M610.9,250.1l2.2-3.1c-0.6-6.2-2.2-29.1,3.7-29.7c-5.6,0.6-10.3,2.8-11.5,11.4
			C603.7,239.8,610.9,250.1,610.9,250.1z"/>
		<path id="Path_2321" class="st15" d="M628.7,267.9c-4.9,1.1-10,1.4-15.1,0.8c-1.8-0.2-3.5-0.6-5.2-1.1c0-18.8,7.3-27.6,7.3-27.6
			l1.6,0.2l4.7,0.5C623,251.5,628.7,267.9,628.7,267.9z"/>
		<path id="Path_2322" class="st16" d="M613.6,268.7c-1.8-0.2-3.5-0.6-5.2-1.1c0-18.8,7.3-27.6,7.3-27.6l1.6,0.2l0.3,0.6
			C617.7,240.8,611.1,254.9,613.6,268.7z"/>
		<path id="Path_2323" class="st6" d="M614.8,260.3c-0.6,0-1.2-0.1-1.8-0.4c-0.9-0.4-1.5-1.1-1.8-2.1c-1-3.6,3.5-10,4-10.7
			c0.3-0.5,1-0.6,1.5-0.3s0.6,1,0.3,1.5l0,0c-1.7,2.4-4.2,6.9-3.7,8.9c0.1,0.3,0.3,0.6,0.6,0.7c1.3,0.6,2.1-0.1,3.4-1.2
			c0.9-0.8,1.9-1.6,3.1-1.5c0.9,0.1,1.6,0.6,2.1,1.3c0.4,0.5,0.3,1.1-0.1,1.5c-0.5,0.4-1.1,0.3-1.5-0.1l0,0
			c-0.2-0.2-0.4-0.4-0.7-0.5c-0.3,0-1,0.5-1.6,1C617.7,259.4,616.3,260.1,614.8,260.3z"/>
		<path id="Path_2324" class="st6" d="M632.2,260.3c-0.6,0-1.2-0.1-1.8-0.4c-0.9-0.4-1.5-1.1-1.8-2.1c-1-3.6,3.5-10,4-10.7
			c0.3-0.5,1-0.6,1.5-0.3s0.6,1,0.3,1.5l0,0c-1.7,2.4-4.2,6.9-3.7,8.9c0.1,0.3,0.3,0.6,0.6,0.7c1.3,0.6,2.1-0.1,3.4-1.2
			c0.9-0.8,1.9-1.6,3.1-1.5c0.9,0.1,1.6,0.6,2.1,1.3c0.4,0.5,0.3,1.1-0.1,1.5c-0.5,0.4-1.1,0.3-1.5-0.1c-0.2-0.2-0.4-0.4-0.7-0.5
			c-0.3,0-1,0.5-1.6,1C635.1,259.4,633.7,260.1,632.2,260.3z"/>
		<path id="Path_2325" class="st6" d="M609.9,232.7c0.3,0.3,0.7,0.5,1.1,0.7c0.7,4.9,5.2,8.2,10.1,7.5c4.4-0.6,7.6-4.4,7.6-8.8v-7.5
			c0,0-3.9,0.1-5.5-1.4c-1.7,2.2-4.4,3.5-7.1,3.2l0,0c-0.7,0-1.4-0.2-2.1-0.4v2.6l0,0c-1.1-1.1-2.9-1.1-4.1,0
			C608.8,229.8,608.8,231.6,609.9,232.7L609.9,232.7z"/>
		<path id="Path_2326" class="st11" d="M609.9,232.7c0.3,0.3,0.7,0.5,1.1,0.7c0.5,3.6,3.2,6.6,6.7,7.4c-4.6-2.5-1.7-14.2-1.6-14.3
			l0,0c-0.7,0-1.4-0.2-2.1-0.4v2.6l0,0c-1.1-1.1-2.9-1.1-4.1,0C608.8,229.8,608.8,231.6,609.9,232.7L609.9,232.7z"/>
		<g id="Group_285" transform="translate(-2159.966 1558.047)">
			<path id="Path_2239" class="st12" d="M2781.1-1326.9c-0.6,0-1.1-0.5-1.1-1.1v-1.5c0-0.6,0.5-1.1,1.1-1.1s1.1,0.5,1.1,1.1v1.5
				C2782.1-1327.4,2781.6-1326.9,2781.1-1326.9L2781.1-1326.9z"/>
			<path id="Path_2240" class="st12" d="M2784.9-1326.9c-0.6,0-1.1-0.5-1.1-1.1l0,0v-1.5c0-0.6,0.5-1.1,1.1-1.1s1.1,0.5,1.1,1.1v1.5
				C2785.9-1327.4,2785.5-1326.9,2784.9-1326.9z"/>
		</g>
		<path id="Path_2327" class="st3" d="M621.5,237.8L621.5,237.8c-1.9,0-3.6-1-4.6-2.6c-0.3-0.5-0.1-1.2,0.4-1.5s1.2-0.1,1.5,0.4l0,0
			c0.6,1,1.6,1.6,2.8,1.5c0.6,0,1,0.5,1,1.1C622.5,237.3,622.1,237.8,621.5,237.8L621.5,237.8z"/>
		<g id="Group_286" transform="translate(-2168.469 1614.285)">
			<path id="Path_2242" class="st15" d="M2785.8-1327.8c0,0.6-0.5,1.1-1.1,1.1l0,0h-3.7c-0.6,0-1.1-0.5-1.1-1.1c0-0.2,0-0.3,0.1-0.5
				c0.4-0.7,0.7-1.4,1-2.2h2.3c-0.2,0.5-0.4,1.1-0.7,1.6h2C2785.3-1328.9,2785.8-1328.4,2785.8-1327.8L2785.8-1327.8z"/>
			<path id="Path_2243" class="st15" d="M2792.7-1327.8c0,0.6-0.5,1.1-1.1,1.1l0,0h-3.7c-0.6,0-1.1-0.5-1.1-1.1c0-0.2,0-0.3,0.1-0.5
				c0.4-0.7,0.7-1.4,1-2.2h2.3c-0.2,0.5-0.4,1.1-0.7,1.6h2C2792.2-1328.9,2792.7-1328.4,2792.7-1327.8L2792.7-1327.8z"/>
		</g>
		<g id="Group_287" transform="translate(-2150.728 1614.285)">
			<path id="Path_2244" class="st13" d="M2785.8-1327.8c0,0.6-0.5,1.1-1.1,1.1l0,0h-3.7c-0.6,0-1.1-0.5-1.1-1.1c0-0.2,0-0.3,0.1-0.5
				c0.4-0.7,0.7-1.4,1-2.2h2.3c-0.2,0.5-0.4,1.1-0.7,1.6h2C2785.3-1328.9,2785.8-1328.4,2785.8-1327.8L2785.8-1327.8z"/>
			<path id="Path_2245" class="st13" d="M2792.7-1327.8c0,0.6-0.5,1.1-1.1,1.1l0,0h-3.7c-0.6,0-1.1-0.5-1.1-1.1c0-0.2,0-0.3,0.1-0.5
				c0.4-0.7,0.7-1.4,1-2.2h2.3c-0.2,0.5-0.4,1.1-0.7,1.6h2C2792.2-1328.9,2792.7-1328.4,2792.7-1327.8L2792.7-1327.8z"/>
		</g>
		<g id="Group_288" transform="translate(-3086 -228)">
			<path id="Path_2205" class="st17" d="M3758,514.4c0,0.6-0.5,1.1-1.1,1.1l0,0h-3.7c-0.6,0-1.1-0.5-1.1-1.1c0-0.2,0-0.3,0.1-0.5
				c0.4-0.7,0.7-1.4,1-2.2c1.8-4.3,2.4-9.1,1.9-13.8c-0.3-2.4-0.8-4.8-1.8-7c-0.2-0.5,0-1.2,0.5-1.4c0.5-0.2,1.2,0,1.4,0.5l0,0
				c1,2.4,1.7,5,1.9,7.6c0.6,4.8,0,9.6-1.7,14.1c-0.2,0.5-0.4,1.1-0.7,1.6h2C3757.5,513.4,3758,513.8,3758,514.4L3758,514.4z"/>
			<path id="Path_2206" class="st17" d="M3748.2,514.4c0,0.6-0.5,1.1-1.1,1.1h-3.7c-0.6,0-1.1-0.5-1.1-1.1c0-0.2,0-0.3,0.1-0.5
				c0.4-0.7,0.7-1.4,1-2.2c2.7-6.7,2.8-14.1,0.1-20.8c-0.2-0.5,0-1.2,0.5-1.4c0.5-0.2,1.2,0,1.4,0.5c1,2.4,1.7,5,1.9,7.6
				c0.6,4.8,0,9.6-1.7,14.1c-0.2,0.5-0.4,1.1-0.7,1.6h2C3747.8,513.4,3748.2,513.9,3748.2,514.4L3748.2,514.4z"/>
			<path id="Path_2211" class="st6" d="M3766.1,474.3c-0.3-0.1-0.6-0.1-0.9,0v-1.1c0-0.6-0.5-1.1-1.1-1.1s-1.1,0.5-1.1,1.1v2
				c-1.1,1-1.9,2.2-2.3,3.7c-0.2,1-1.1,1.8-2.2,1.9c-1.6,0.1-3.1-0.6-4.1-1.9c-0.3-0.5-0.9-0.7-1.4-0.4c-0.5,0.3-0.7,0.9-0.4,1.4
				l0,0c1.3,1.8,3.3,2.9,5.6,3c0.2,0,0.3,0,0.5,0c1.9-0.2,3.5-1.5,4-3.3c0.2-0.7,0.6-1.4,1-2l1.9,0.2c0.6,0.1,1.1-0.3,1.1-0.9
				l0.2-1.2C3767,474.9,3766.7,474.4,3766.1,474.3z"/>
			<path id="Path_2212" class="st9" d="M3757.5,490.5c0,0-5.5,2.7-11,1.7c-2.3-0.4-4.3-1.5-5.9-3.1c0,0,1.7-11.6,5-18.3
				c0.4-0.8,0.8-1.6,1.4-2.4l2,0.2l4.1,0.3c0,0.6,0.1,1.7,0.2,3.1C3753.7,476.8,3755.1,485.7,3757.5,490.5z"/>
			<path id="Path_2213" class="st10" d="M3746.5,492.1c-2.3-0.4-4.3-1.5-5.9-3.1c0,0,2.2-14.9,6.3-20.7l2,0.2l0.6,0.6
				C3748,472.1,3744.5,484.1,3746.5,492.1z"/>
			<path id="Path_2214" class="st6" d="M3759.5,449.4v10.7c0,4.9-4,8.9-8.9,8.9c-1.3,0-2.5-0.3-3.7-0.8l0,0
				c-2.8-1.3-4.7-3.9-5.1-6.9c-1.5-0.5-2.3-2.2-1.8-3.7s2.2-2.3,3.7-1.8c0.4,0.1,0.8,0.4,1.1,0.7l0.7-4.3l0.5-2.9L3759.5,449.4z"/>
			<path id="Path_2215" class="st11" d="M3746.9,468.3c-2.8-1.3-4.7-3.9-5.1-6.9c-1.5-0.5-2.3-2.2-1.8-3.7s2.2-2.3,3.7-1.8
				c0.4,0.1,0.8,0.4,1.1,0.7l0.7-4.3l2.3,0.5C3746.9,454.5,3742.7,460.7,3746.9,468.3z"/>
			<path id="Path_2216" class="st17" d="M3763.7,445.1c0,4.3-3.5,7.7-7.7,7.7h-8.1v0.7c0,1.7-1.4,3.1-3.1,3.1l0,0
				c-0.8-0.8-2-1.1-3.1-0.6v-3.2c0-4.3,3.5-7.7,7.7-7.7H3763.7z"/>
			<path id="Path_2217" class="st12" d="M3755.8,445.1h-6.3c-4.3,0-7.7,3.5-7.7,7.7v3.2c1.1-0.4,2.3-0.2,3.1,0.6
				c1.7,0,3.1-1.4,3.1-3.1l0,0v-0.7h0.2C3748,448.6,3751.5,445.1,3755.8,445.1z"/>
			<path id="Path_2218" class="st12" d="M3751.9,459.1c-0.6,0-1.1-0.5-1.1-1.1l0,0v-1.5c0-0.6,0.5-1.1,1.1-1.1s1.1,0.5,1.1,1.1v1.5
				C3753,458.7,3752.5,459.1,3751.9,459.1L3751.9,459.1z"/>
			<path id="Path_2219" class="st12" d="M3755.8,459.1c-0.6,0-1.1-0.5-1.1-1.1l0,0v-1.5c0-0.6,0.5-1.1,1.1-1.1s1.1,0.5,1.1,1.1v1.5
				C3756.8,458.7,3756.3,459.1,3755.8,459.1L3755.8,459.1z"/>
			<path id="Path_2220" class="st3" d="M3752.3,465.8L3752.3,465.8c-1.9,0-3.6-1-4.6-2.6c-0.3-0.5-0.1-1.2,0.4-1.5s1.2-0.1,1.5,0.4
				l0,0c0.6,1,1.6,1.6,2.8,1.5c0.6,0,1,0.5,1,1.1S3752.9,465.8,3752.3,465.8L3752.3,465.8z"/>
			<path id="Path_2236" class="st6" d="M3746.8,488.3c-0.6,0-1.2-0.1-1.8-0.4c-0.9-0.4-1.5-1.1-1.8-2.1c-1-3.6,3.5-10,4-10.7
				c0.3-0.5,1-0.6,1.5-0.3c0.5,0.3,0.6,1,0.3,1.5l0,0c-1.7,2.4-4.2,6.9-3.7,8.9c0.1,0.3,0.3,0.6,0.6,0.7c1.3,0.6,2.1-0.1,3.4-1.2
				c0.9-0.8,1.9-1.6,3.1-1.5c0.9,0.1,1.6,0.6,2.1,1.3c0.4,0.5,0.3,1.1-0.1,1.5c-0.4,0.4-1.1,0.3-1.5-0.1c-0.2-0.2-0.4-0.4-0.7-0.5
				c-0.3,0-1,0.5-1.6,1C3749.6,487.4,3748.3,488.1,3746.8,488.3z"/>
			<path id="Path_2246" class="st9" d="M3748.2,514.4c0,0.6-0.5,1.1-1.1,1.1h-3.7c-0.6,0-1.1-0.5-1.1-1.1c0-0.2,0-0.3,0.1-0.5
				c0.4-0.7,0.7-1.4,1-2.2h2.3c-0.2,0.5-0.4,1.1-0.7,1.6h2C3747.8,513.4,3748.2,513.9,3748.2,514.4L3748.2,514.4z"/>
			<path id="Path_2247" class="st9" d="M3758,514.4c0,0.6-0.5,1.1-1.1,1.1l0,0h-3.7c-0.6,0-1.1-0.5-1.1-1.1c0-0.2,0-0.3,0.1-0.5
				c0.4-0.7,0.7-1.4,1-2.2h2.3c-0.2,0.5-0.4,1.1-0.7,1.6h2C3757.5,513.4,3758,513.8,3758,514.4L3758,514.4z"/>
		</g>
	</g>
</g>
<g id="Group_299">
	<path id="Union_59" class="st18" d="M402.8,9.8c54.1,0,98,43.9,98,98.1c0,16.6-4.2,33-12.3,47.6l13.5,16.7l10.7-8.7l-2.1,71.5
		l-70.4-12.8l10.6-8.5L439,199c-50.3,19.9-107.3-4.7-127.2-55c-19.9-50.3,4.7-107.3,55-127.2C378.2,12.2,390.5,9.8,402.8,9.8z"/>
	<g id="Group_298">
		<g transform="matrix(1, 0, 0, 1, -2780, 1330.5)">
			<circle id="Ellipse_77-2_1_" class="st3" cx="3182.2" cy="-1222.8" r="90.2"/>
		</g>
		<g id="Group_297" transform="translate(4 6.501)">
			<g id="_006-user-experience" transform="translate(-2420 1396.849)">
				<path id="Path_2256" class="st19" d="M2825-1277.9c-2.1,1.7-4.8,2.6-7.5,2.6l0,0c-2.6,0-5.2-0.9-7.3-2.5
					c-8.9,3.2-14.8,11.6-14.8,21.1v2.1h44.8v-2.1C2840.2-1266.3,2834.1-1274.8,2825-1277.9z"/>
				<path id="Path_2257" class="st20" d="M2789.9-1318.3l2.3,4.7l5.2,0.8l-3.7,3.6l0.9,5.1l-4.6-2.4l-4.6,2.4l0.9-5.1l-3.7-3.6
					l5.2-0.8L2789.9-1318.3z"/>
				<path id="Path_2301" class="st20" d="M2799.9-1334.3l2.3,4.7l5.2,0.8l-3.7,3.6l0.9,5.1l-4.6-2.4l-4.6,2.4l0.9-5.1l-3.7-3.6
					l5.2-0.8L2799.9-1334.3z"/>
				<path id="Path_2303" class="st20" d="M2835.9-1334.3l2.3,4.7l5.2,0.8l-3.7,3.6l0.9,5.1l-4.6-2.4l-4.6,2.4l0.9-5.1l-3.7-3.6
					l5.2-0.8L2835.9-1334.3z"/>
				<path id="Path_2258" class="st21" d="M2829.5-1297.9h-24.6c-1.9,0-3.4-1.5-3.4-3.4l0,0c0-3,2.4-5.4,5.4-5.4l0,0h18.2
					c2.5,0,4.5,2,4.5,4.5L2829.5-1297.9L2829.5-1297.9z"/>
				<g id="Group_277" transform="translate(29.991 2.622)">
					<path id="Path_2259" class="st20" d="M2816-1321.1l2.3,4.7l5.2,0.8l-3.7,3.6l0.9,5.1l-4.6-2.4l-4.6,2.4l0.9-5.1l-3.7-3.6
						l5.2-0.8L2816-1321.1z"/>
					<path id="Path_2260" class="st20" d="M2787.5-1330.5l2.3,4.7l5.2,0.8l-3.7,3.6l0.9,5.1l-4.6-2.4l-4.6,2.4l0.9-5.1l-3.7-3.6
						l5.2-0.8L2787.5-1330.5z"/>
				</g>
				<path id="Path_2261" class="st22" d="M2828-1276.6c-1-0.5-2-0.9-3-1.3c-2.1,1.7-4.8,2.6-7.5,2.6l0,0c-2.6,0-5.2-0.9-7.3-2.5
					c-1,0.4-2,0.8-3,1.4C2813-1270.9,2822.3-1271,2828-1276.6L2828-1276.6z"/>
				<path id="Path_2262" class="st23" d="M2817.5-1275.3L2817.5-1275.3c-6.7,0-12.1-5.4-12.1-12.1v-10.5h24.1v10.5
					C2829.5-1280.7,2824.1-1275.3,2817.5-1275.3L2817.5-1275.3z"/>
				<rect id="Rectangle_1195" x="2805.4" y="-1297.9" class="st24" width="24.1" height="3"/>
				<path id="Path_2263" class="st25" d="M2829.5-1297.9h-24.6c-1.9,0-3.4-1.5-3.4-3.4h24.6
					C2828-1301.3,2829.5-1299.8,2829.5-1297.9z"/>
				<rect id="Rectangle_1196" x="2802.6" y="-1261.4" width="2.2" height="6.9"/>
				<rect id="Rectangle_1197" x="2830.8" y="-1261.4" width="2.2" height="6.9"/>
				<path id="Rectangle_1198" d="M2812.3-1291.5h0.6c0.6,0,1,0.4,1,1v1.2c0,0.6-0.4,1-1,1h-0.6c-0.6,0-1-0.4-1-1v-1.2
					C2811.3-1291.1,2811.7-1291.5,2812.3-1291.5z"/>
				<path id="Rectangle_1210" d="M2822.3-1291.5h0.6c0.6,0,1,0.4,1,1v1.2c0,0.6-0.4,1-1,1h-0.6c-0.6,0-1-0.4-1-1v-1.2
					C2821.3-1291.1,2821.7-1291.5,2822.3-1291.5z"/>
				<path id="Path_2265" d="M2789.9-1305.3l6.1,3.2l-1.2-6.8l4.9-4.8l-6.8-1l-3-6.2l-3.1,6.2l-6.8,1l4.9,4.8l-1.2,6.8L2789.9-1305.3
					z M2784.8-1312.1l3.5-0.5l1.6-3.2l1.6,3.2l3.5,0.5l-2.5,2.5l0.6,3.5l-3.1-1.6l-3.1,1.6l0.6-3.5L2784.8-1312.1z"/>
				<path id="Path_2302" d="M2799.9-1321.3l6.1,3.2l-1.2-6.8l4.9-4.8l-6.8-1l-3-6.2l-3.1,6.2l-6.8,1l4.9,4.8l-1.2,6.8L2799.9-1321.3
					z M2794.8-1328.1l3.5-0.5l1.6-3.2l1.6,3.2l3.5,0.5l-2.5,2.5l0.6,3.5l-3.1-1.6l-3.1,1.6l0.6-3.5L2794.8-1328.1z"/>
				<path id="Path_2304" d="M2835.9-1321.3l6.1,3.2l-1.2-6.8l4.9-4.8l-6.8-1l-3-6.2l-3.1,6.2l-6.8,1l4.9,4.8l-1.2,6.8L2835.9-1321.3
					z M2830.8-1328.1l3.5-0.5l1.6-3.2l1.6,3.2l3.5,0.5l-2.5,2.5l0.6,3.5l-3.1-1.6l-3.1,1.6l0.6-3.5L2830.8-1328.1z"/>
				<path id="Path_2266" d="M2855.9-1313.9l-6.8-1l-3.1-6.2l-3.1,6.2l-6.8,1l4.9,4.8l-1.2,6.8l6.1-3.2l6.1,3.2l-1.2-6.8
					L2855.9-1313.9z M2846-1308l-3.1,1.6l0.6-3.5l-2.5-2.5l3.5-0.5l1.6-3.2l1.6,3.2l3.5,0.5l-2.5,2.5l0.6,3.5L2846-1308z"/>
				<path id="Path_2267" d="M2811.4-1311.6l6.1-3.2l6.1,3.2l-1.2-6.8l4.9-4.8l-6.8-1l-3-6.2l-3.1,6.2l-6.8,1l4.9,4.8L2811.4-1311.6z
					 M2812.4-1321.7l3.5-0.5l1.6-3.2l1.6,3.2l3.5,0.5l-2.5,2.5l0.6,3.5l-3.1-1.6l-3.1,1.6l0.6-3.5L2812.4-1321.7z"/>
				<rect id="Rectangle_1200" x="2788.8" y="-1281.7" width="2.2" height="2.2"/>
				<rect id="Rectangle_1201" x="2788.8" y="-1277.2" width="2.2" height="6.9"/>
				<rect id="Rectangle_1202" x="2788.8" y="-1286.2" width="2.2" height="2.2"/>
				<rect id="Rectangle_1203" x="2788.8" y="-1295.9" width="2.2" height="7.5"/>
				<rect id="Rectangle_1204" x="2788.8" y="-1300.4" width="2.2" height="2.2"/>
				<rect id="Rectangle_1205" x="2844.9" y="-1273.5" width="2.2" height="2.2"/>
				<rect id="Rectangle_1206" x="2844.9" y="-1269" width="2.2" height="2.2"/>
				<rect id="Rectangle_1207" x="2844.9" y="-1300.7" width="2.2" height="2.2"/>
				<rect id="Rectangle_1208" x="2844.9" y="-1291.7" width="2.2" height="16"/>
				<rect id="Rectangle_1209" x="2844.9" y="-1296.2" width="2.2" height="2.2"/>
				<g id="Group_278" transform="translate(21.199 57.321)">
					<path id="Path_2268" class="st3" d="M2810.2-1323.9c-1.4-1.9-3.2-3.5-5.2-4.7l1.1-1.9c2.3,1.3,4.3,3.1,5.9,5.3L2810.2-1323.9z"
						/>
					<path id="Path_2269" class="st3" d="M2782-1322.2l-2-1.1c1.4-2.5,3.4-4.7,5.8-6.4l1.3,1.8
						C2785-1326.4,2783.2-1324.4,2782-1322.2z"/>
				</g>
			</g>
			<g id="Group_296">
				<path id="Path_2306" class="st3" d="M401.1,115.5L401.1,115.5c-2.2,1.2-4.9,1.2-7-0.1c-0.7-0.4-0.9-1.3-0.5-1.9
					c0.4-0.7,1.3-0.9,1.9-0.5c0,0,0,0,0.1,0c1.3,0.8,2.9,0.8,4.2,0c0.7-0.4,1.5-0.1,1.9,0.6C402,114.3,401.7,115.2,401.1,115.5
					L401.1,115.5z"/>
				<path id="Path_2307" class="st3" d="M400.5,116.1L400.5,116.1c-1.7,1.1-3.7,1.3-5.5,0.3c-0.6-0.3-0.9-1-0.7-1.6
					c0.2-0.5,0.7-0.8,1.2-0.6c0.1,0,0.1,0.1,0.2,0.1c1,0.6,2.3,0.5,3.3-0.2c0.6-0.3,1.3-0.1,1.6,0.4
					C401,115.1,401,115.7,400.5,116.1z"/>
			</g>
		</g>
	</g>
</g>
<g id="Group_303">
	<path id="Union_61" class="st26" d="M631.6,603.4c-32.6,43.2-94.1,51.9-137.3,19.3c-13.3-10-23.8-23.3-30.6-38.5l-21.5,0.7
		l0.5,13.7L386.9,554l52.6-48.5l0.5,13.6l18.8-0.7c14.4-52.2,68.3-82.9,120.5-68.5s82.9,68.3,68.5,120.5
		C644.5,582.4,639,593.5,631.6,603.4z"/>
	<g transform="matrix(1, 0, 0, 1, -2780, 1330.5)">
		<circle id="Ellipse_81-2_1_" class="st3" cx="3333.1" cy="-786.7" r="90.2"/>
	</g>
	<g id="_003-way" transform="translate(-2251 1833.647)">
		<path id="Path_2194" class="st27" d="M2791.2-1293.2c4.9,0,8.9-1.9,8.9-4.2s-4-4.2-8.9-4.2s-8.9,1.9-8.9,4.2
			S2786.3-1293.2,2791.2-1293.2z"/>
		<path id="Path_2195" class="st28" d="M2791.2-1329.1c5.4,0,9.8,4.4,9.8,9.8c0,1.4-0.3,2.7-0.8,3.9l-9,18l-9-18
			c-2.2-5,0.1-10.7,5-12.9C2788.5-1328.8,2789.8-1329.1,2791.2-1329.1z"/>
		<path id="Path_2196" class="st29" d="M2791.2-1315.1c2.4,0,4.3-1.9,4.3-4.3s-1.9-4.3-4.3-4.3c-2.4,0-4.3,1.9-4.3,4.3l0,0
			C2786.9-1317,2788.8-1315.1,2791.2-1315.1z"/>
		<path id="Path_2197" class="st30" d="M2829.1-1284.8c4.9,0,8.9-1.9,8.9-4.2s-4-4.2-8.9-4.2s-8.9,1.9-8.9,4.2
			S2824.2-1284.8,2829.1-1284.8z"/>
		<path id="Path_2198" class="st31" d="M2806.5-1261.5c4.9,0,8.9-1.9,8.9-4.2s-4-4.2-8.9-4.2s-8.9,1.9-8.9,4.2
			S2801.6-1261.5,2806.5-1261.5z"/>
		<path id="Path_2199" class="st32" d="M2796.8-1319.3c0-3.1-2.5-5.6-5.6-5.6s-5.6,2.5-5.6,5.6s2.5,5.6,5.6,5.6l0,0
			C2794.3-1313.7,2796.8-1316.2,2796.8-1319.3z M2788.3-1319.3c0-1.6,1.3-2.9,2.9-2.9c1.6,0,2.9,1.3,2.9,2.9s-1.3,2.9-2.9,2.9
			S2788.3-1317.7,2788.3-1319.3z"/>
		<path id="Path_2200" class="st32" d="M2829.1-1294.5c-3.5,0-6.6,0.9-8.4,2.3l-4.9-1.1c-0.7-0.2-1.5,0.3-1.6,1
			c-0.2,0.7,0.3,1.5,1,1.6l0,0l3.8,0.8c-0.1,0.3-0.1,0.6-0.1,0.8c0,1.9,1.5,3.5,4,4.5l-2.2,2.3c-0.5,0.5-0.5,1.4,0,1.9
			s1.4,0.5,1.9,0l3.3-3.3c1.1,0.2,2.1,0.3,3.2,0.3c5.8,0,10.2-2.4,10.2-5.6C2839.3-1292.1,2834.9-1294.5,2829.1-1294.5z
			 M2829.1-1286.1c-4.5,0-7.5-1.7-7.5-2.8c0-0.3,0.2-0.6,0.4-0.8l0.1-0.1c1-1,3.6-1.9,7-1.9c4.5,0,7.5,1.7,7.5,2.8
			C2836.6-1287.8,2833.6-1286.1,2829.1-1286.1L2829.1-1286.1z"/>
		<path id="Path_2201" class="st32" d="M2812.8-1270.2l2.2-2.3c0.5-0.5,0.5-1.4,0-1.9s-1.4-0.5-1.9,0l-3.3,3.3
			c-1.1-0.2-2.1-0.3-3.2-0.3c-5.8,0-10.2,2.4-10.2,5.6s4.4,5.6,10.2,5.6s10.2-2.4,10.2-5.6
			C2816.7-1267.6,2815.2-1269.2,2812.8-1270.2z M2806.5-1262.9c-4.5,0-7.5-1.7-7.5-2.8c0-1.1,3-2.8,7.5-2.8s7.5,1.7,7.5,2.8
			S2811-1262.9,2806.5-1262.9L2806.5-1262.9z"/>
		<path id="Path_2202" class="st32" d="M2804.5-1293c0.7,0.2,1.5-0.3,1.6-1c0.2-0.7-0.3-1.5-1-1.6l-3.8-0.8c0.1-0.3,0.1-0.6,0.1-0.8
			c0-2.6-2.9-4.3-6.1-5.1l6.1-12.3v-0.1c2.5-5.7-0.1-12.3-5.7-14.7c-5.7-2.5-12.3,0.1-14.7,5.7c-0.6,1.4-0.9,2.9-0.9,4.5
			c0,1.5,0.3,3.1,0.9,4.5c0,0,0,0,0,0.1l6.1,12.3c-3.3,0.8-6.2,2.5-6.2,5.1c0,3.2,4.4,5.6,10.2,5.6c3.5,0,6.6-0.9,8.4-2.3
			L2804.5-1293z M2782.7-1319.3c0-4.7,3.8-8.4,8.4-8.4c4.7,0,8.4,3.8,8.4,8.4c0,1.2-0.2,2.3-0.7,3.4l-7.7,15.5l-7.7-15.5
			C2783-1317,2782.7-1318.2,2782.7-1319.3L2782.7-1319.3z M2783.7-1297.4c0-0.7,1.8-2,4.7-2.6l1.6,3.2c0.3,0.7,1.2,1,1.8,0.6
			c0.3-0.1,0.5-0.3,0.6-0.6l1.6-3.2c2.9,0.6,4.7,1.8,4.7,2.6c0,0.3-0.2,0.6-0.4,0.8l-0.1,0.1c-1,1-3.6,1.9-7,1.9
			C2786.7-1294.6,2783.7-1296.3,2783.7-1297.4z"/>
		<path id="Path_2203" class="st32" d="M2817.8-1278.7c-0.8,0-1.4,0.6-1.4,1.4s0.6,1.4,1.4,1.4s1.4-0.6,1.4-1.4l0,0
			C2819.2-1278.1,2818.6-1278.7,2817.8-1278.7z"/>
		<path id="Path_2204" class="st32" d="M2810.1-1291.8c0.8,0,1.4-0.6,1.4-1.4s-0.6-1.4-1.4-1.4s-1.4,0.6-1.4,1.4l0,0
			C2808.8-1292.4,2809.4-1291.8,2810.1-1291.8z"/>
	</g>
</g>
<g id="Group_302">
	<circle id="Ellipse_82" class="st33" cx="200.2" cy="547.4" r="98"/>
	<g transform="matrix(1, 0, 0, 1, -2780, 1330.5)">
		<ellipse id="Ellipse_83-2_1_" class="st3" cx="2979.5" cy="-784" rx="90.5" ry="90"/>
	</g>
	<g id="Group_292" transform="translate(8.734 -7.75)">
		<g id="Group_291" transform="translate(-2593.743 1858.573)">
			<path id="Path_2277" class="st34" d="M2819.4-1314.6h-8.9v-5.7h8.9c1.6,0,2.8,1.3,2.8,2.8
				C2822.3-1315.8,2821-1314.6,2819.4-1314.6z"/>
			<path id="Path_2281" class="st35" d="M2816-1312.6h0.1l-11.2-16.9h-25v20.6h30.8L2816-1312.6z"/>
			<path id="Path_2282" class="st34" d="M2816-1312.6l-5.2,3.7H2780v22.5h34.9c2.3,0,4.3-1.9,4.3-4.3v-17.4l-3-4.5L2816-1312.6z"/>
			<path id="Path_2283" class="st36" d="M2811.1-1296.7h-8.2c-1.4,0-2.5-1.2-2.5-2.5c0-1.2,0.8-2.2,2-2.4l8.1-1.6
				c1.8-0.4,3.5,0.8,3.9,2.6c0.4,1.8-0.8,3.5-2.6,3.9C2811.6-1296.7,2811.4-1296.7,2811.1-1296.7L2811.1-1296.7z"/>
			<path id="Path_2284" class="st37" d="M2806.4-1273c3.4,0,6.2-2.8,6.2-6.2l0,0v-7.1h-12.5v7.1
				C2800.1-1275.8,2802.9-1273,2806.4-1273z"/>
			<path id="Path_2285" class="st38" d="M2814.9-1289.3H2780v3h34.9c2.3,0,4.3-1.9,4.3-4.3v-3
				C2819.1-1291.2,2817.2-1289.3,2814.9-1289.3L2814.9-1289.3z"/>
			<path id="Path_2286" class="st39" d="M2800.1-1286.3h12.5v2.8h-12.5V-1286.3z"/>
			<path id="Path_2290" d="M2811.1-1295.6c2.4,0,4.4-2,4.4-4.4s-2-4.4-4.4-4.4c-0.3,0-0.6,0-0.9,0.1l-8.1,1.6
				c-1.9,0.4-3.2,2.3-2.8,4.2c0.3,1.7,1.8,2.9,3.5,2.9L2811.1-1295.6z M2801.5-1299.2c0-0.7,0.5-1.3,1.1-1.4l8.1-1.6
				c0.1,0,0.3,0,0.4,0c1.2,0,2.3,1,2.3,2.3s-1,2.3-2.3,2.3h-8.2C2802.1-1297.8,2801.5-1298.4,2801.5-1299.2L2801.5-1299.2z"/>
			<path id="Path_2291" d="M2780-1302h15.6v2.1H2780V-1302z"/>
			<path id="Path_2292" d="M2780-1297.5h15.6v2.1H2780V-1297.5z"/>
			<path id="Path_2293" d="M2780-1293.1h15.6v2.1H2780V-1293.1z"/>
			<path id="Path_2294" d="M2819.4-1321.3h-7.8l-6.1-9.2H2780v2.1h24.4l10.3,15.5l-4.2,3H2780v2.1h31.1l4.7-3.3l2.3,3.4v17.1
				c0,1.8-1.4,3.2-3.2,3.2H2780v2.1h19.1v6c0,4,3.3,7.3,7.3,7.3s7.3-3.3,7.3-7.3v-6h1.2c2.9,0,5.3-2.4,5.3-5.3v-17.8l-3.4-5.1h2.6
				c2.2,0,3.9-1.7,3.9-3.9C2823.3-1319.5,2821.6-1321.3,2819.4-1321.3L2819.4-1321.3L2819.4-1321.3z M2811.6-1279.2
				c0,2.9-2.2,5.2-5.1,5.2c-2.9,0-5.2-2.2-5.2-5.1v-0.1v-6h10.4L2811.6-1279.2z M2819.4-1315.6h-4l-2.3-3.5h6.4c1,0,1.8,0.8,1.7,1.8
				C2821.1-1316.4,2820.4-1315.6,2819.4-1315.6L2819.4-1315.6z"/>
			<path id="Path_2297" class="st3" d="M2812.2-1292.4h2.1v2.1h-2.1V-1292.4z"/>
		</g>
		<g id="Group_289" transform="translate(-2628 1858.573)">
			<path id="Path_2277-2" class="st34" d="M2783.9-1314.6h8.9v-5.7h-8.9c-1.6,0-2.8,1.3-2.8,2.8S2782.3-1314.6,2783.9-1314.6
				L2783.9-1314.6z"/>
			<path id="Path_2281-2" class="st35" d="M2787.3-1312.6h-0.1l11.2-16.9h25v20.6h-30.8L2787.3-1312.6z"/>
			<path id="Path_2282-2" class="st34" d="M2787.3-1312.6l5.2,3.7h30.8v22.5h-34.9c-2.3,0-4.3-1.9-4.3-4.3v-17.4l3-4.5
				L2787.3-1312.6z"/>
			<path id="Path_2283-2" class="st36" d="M2792.2-1296.7h8.2c1.4,0,2.5-1.2,2.5-2.5c0-1.2-0.8-2.2-2-2.4l-8.1-1.6
				c-1.8-0.4-3.5,0.8-3.9,2.6c-0.4,1.8,0.8,3.5,2.6,3.9C2791.7-1296.7,2792-1296.7,2792.2-1296.7L2792.2-1296.7z"/>
			<path id="Path_2284-2" class="st37" d="M2796.9-1273c-3.4,0-6.2-2.8-6.2-6.2l0,0v-7.1h12.5v7.1
				C2803.2-1275.8,2800.4-1273,2796.9-1273z"/>
			<path id="Path_2285-2" class="st38" d="M2788.4-1289.3h34.9v3h-34.9c-2.3,0-4.3-1.9-4.3-4.3v-3
				C2784.2-1291.2,2786.1-1289.3,2788.4-1289.3z"/>
			<path id="Path_2286-2" class="st39" d="M2803.2-1286.3h-12.5v2.8h12.5V-1286.3z"/>
			<path id="Path_2290-2" d="M2792.2-1295.6c-2.4,0-4.4-2-4.4-4.4s2-4.4,4.4-4.4c0.3,0,0.6,0,0.9,0.1l8.1,1.6
				c1.9,0.4,3.2,2.3,2.8,4.2c-0.3,1.7-1.8,2.9-3.5,2.9L2792.2-1295.6z M2801.8-1299.2c0-0.7-0.5-1.3-1.1-1.4l-8.1-1.6
				c-0.1,0-0.3,0-0.4,0c-1.2,0-2.3,1-2.3,2.3c0,1.2,1,2.3,2.3,2.3h8.2C2801.2-1297.8,2801.8-1298.4,2801.8-1299.2L2801.8-1299.2
				L2801.8-1299.2z"/>
			<path id="Path_2291-2" d="M2823.3-1302h-15.6v2.1h15.6V-1302z"/>
			<path id="Path_2292-2" d="M2823.3-1297.5h-15.6v2.1h15.6V-1297.5z"/>
			<path id="Path_2293-2" d="M2823.3-1293.1h-15.6v2.1h15.6V-1293.1z"/>
			<path id="Path_2294-2" d="M2783.9-1321.3h7.8l6.1-9.2h25.5v2.1h-24.4l-10.3,15.5l4.2,3h30.4v2.1h-31.1l-4.7-3.3l-2.3,3.4v17.1
				c0,1.8,1.4,3.2,3.2,3.2h34.9v2.1h-19.1v6c0,4-3.3,7.3-7.3,7.3s-7.3-3.3-7.3-7.3v-6h-1.2c-2.9,0-5.3-2.4-5.3-5.3v-17.8l3.4-5.1
				h-2.6c-2.2,0-3.9-1.7-3.9-3.9C2780-1319.5,2781.7-1321.3,2783.9-1321.3L2783.9-1321.3z M2791.8-1279.2c0,2.9,2.2,5.2,5.1,5.2
				c2.9,0,5.2-2.2,5.2-5.1v-0.1v-6h-10.4L2791.8-1279.2L2791.8-1279.2z M2783.9-1315.6h4l2.3-3.5h-6.4c-1,0-1.8,0.8-1.7,1.8
				C2782.2-1316.4,2783-1315.6,2783.9-1315.6z"/>
			<path id="Path_2305" class="st3" d="M2831.1-1315.7l1.5-1.5l-4.4-4.4l-1.5,1.5L2831.1-1315.7z M2825.2-1321.6l1.5-1.5l-1.5-1.5
				l-1.5,1.5L2825.2-1321.6z"/>
			<path id="Path_2296" class="st3" d="M2810-1315.7l1.5-1.5l-4.4-4.4l-1.5,1.5L2810-1315.7z M2804.1-1321.6l1.5-1.5l-1.5-1.5
				l-1.5,1.5L2804.1-1321.6z"/>
			<path id="Path_2297-2" class="st3" d="M2791.1-1292.4h-2.1v2.1h2.1V-1292.4z"/>
		</g>
	</g>
</g>
</svg>
