<svg xmlns="http://www.w3.org/2000/svg" xmlns:xlink="http://www.w3.org/1999/xlink" width="1275" height="354.389" viewBox="0 0 1275 354.389">
  <defs>
    <filter id="Ellipse_64" x="10.5" y="88.889" width="225" height="225" filterUnits="userSpaceOnUse">
      <feOffset dx="-10" dy="5" input="SourceAlpha"/>
      <feGaussianBlur stdDeviation="7.5" result="blur"/>
      <feFlood flood-opacity="0.263"/>
      <feComposite operator="in" in2="blur"/>
      <feComposite in="SourceGraphic"/>
    </filter>
    <filter id="Ellipse_67" x="496.5" y="88.889" width="225" height="225" filterUnits="userSpaceOnUse">
      <feOffset dx="-10" dy="5" input="SourceAlpha"/>
      <feGaussianBlur stdDeviation="7.5" result="blur-2"/>
      <feFlood flood-opacity="0.263"/>
      <feComposite operator="in" in2="blur-2"/>
      <feComposite in="SourceGraphic"/>
    </filter>
    <filter id="Ellipse_70" x="969.5" y="88.889" width="226" height="225" filterUnits="userSpaceOnUse">
      <feOffset dx="-10" dy="5" input="SourceAlpha"/>
      <feGaussianBlur stdDeviation="7.5" result="blur-3"/>
      <feFlood flood-opacity="0.263"/>
      <feComposite operator="in" in2="blur-3"/>
      <feComposite in="SourceGraphic"/>
    </filter>
    <filter id="Ellipse_65" x="260.097" y="0" width="225.478" height="225.478" filterUnits="userSpaceOnUse">
      <feOffset dx="-10" dy="5" input="SourceAlpha"/>
      <feGaussianBlur stdDeviation="7.5" result="blur-4"/>
      <feFlood flood-opacity="0.263"/>
      <feComposite operator="in" in2="blur-4"/>
      <feComposite in="SourceGraphic"/>
    </filter>
    <filter id="Ellipse_69" x="733.403" y="0" width="225.478" height="225.478" filterUnits="userSpaceOnUse">
      <feOffset dx="-10" dy="5" input="SourceAlpha"/>
      <feGaussianBlur stdDeviation="7.5" result="blur-5"/>
      <feFlood flood-opacity="0.263"/>
      <feComposite operator="in" in2="blur-5"/>
      <feComposite in="SourceGraphic"/>
    </filter>
  </defs>
  <g id="Group_294" data-name="Group 294" transform="translate(-323 -1611.611)">
    <path id="Union_52" data-name="Union 52" d="M0,109.886A98.036,98.036,0,0,1,145.618,24.2l16.689-13.515L153.655,0l71.495,2.086L212.325,72.45,203.781,61.9,189.14,73.755A98.019,98.019,0,1,1,0,109.886Z" transform="translate(357.766 1698.098)" fill="none" stroke="#7750a6" stroke-width="3"/>
    <path id="Union_54" data-name="Union 54" d="M0,109.886A98.036,98.036,0,0,1,145.618,24.2l16.689-13.515L153.655,0l71.495,2.086L212.325,72.45,203.781,61.9,189.14,73.755A98.019,98.019,0,1,1,0,109.886Z" transform="translate(844.22 1698.098)" fill="none" stroke="#0ba2a7" stroke-width="3"/>
    <circle id="Ellipse_71" data-name="Ellipse 71" cx="98.008" cy="98.008" r="98.008" transform="translate(1317.526 1709.977)" fill="none" stroke="#fd9d32" stroke-width="3"/>
    <path id="Union_53" data-name="Union 53" d="M0,109.886A98.036,98.036,0,0,1,145.618,24.2l16.689-13.515L153.655,0l71.495,2.086L212.325,72.45,203.781,61.9,189.14,73.755A98.019,98.019,0,1,1,0,109.886Z" transform="translate(815.722 1621.343) rotate(90)" fill="none" stroke="#0cc8be" stroke-width="3"/>
    <path id="Union_56" data-name="Union 56" d="M0,109.886A98.036,98.036,0,0,1,145.618,24.2l16.689-13.515L153.655,0l71.495,2.086L212.325,72.45,203.781,61.9,189.14,73.755A98.019,98.019,0,1,1,0,109.886Z" transform="translate(1289.029 1621.343) rotate(90)" fill="none" stroke="#95ce59" stroke-width="3"/>
    <g transform="matrix(1, 0, 0, 1, 323, 1611.61)" filter="url(#Ellipse_64)">
      <circle id="Ellipse_64-2" data-name="Ellipse 64" cx="90" cy="90" r="90" transform="translate(43 106.39)" fill="#fff"/>
    </g>
    <g transform="matrix(1, 0, 0, 1, 323, 1611.61)" filter="url(#Ellipse_67)">
      <circle id="Ellipse_67-2" data-name="Ellipse 67" cx="90" cy="90" r="90" transform="translate(529 106.39)" fill="#fff"/>
    </g>
    <g transform="matrix(1, 0, 0, 1, 323, 1611.61)" filter="url(#Ellipse_70)">
      <ellipse id="Ellipse_70-2" data-name="Ellipse 70" cx="90.5" cy="90" rx="90.5" ry="90" transform="translate(1002 106.39)" fill="#fff"/>
    </g>
    <g transform="matrix(1, 0, 0, 1, 323, 1611.61)" filter="url(#Ellipse_65)">
      <circle id="Ellipse_65-2" data-name="Ellipse 65" cx="90.239" cy="90.239" r="90.239" transform="translate(473.07 17.5) rotate(90)" fill="#fff"/>
    </g>
    <g transform="matrix(1, 0, 0, 1, 323, 1611.61)" filter="url(#Ellipse_69)">
      <circle id="Ellipse_69-2" data-name="Ellipse 69" cx="90.239" cy="90.239" r="90.239" transform="translate(946.38 17.5) rotate(90)" fill="#fff"/>
    </g>
    <text id="Understanding_the_Customer" data-name="Understanding the Customer" transform="translate(323 1960)" fill="#161616" font-size="19" font-family="Mont-Bold, Mont" font-weight="700"><tspan x="0" y="0">Understanding the Customer</tspan></text>
    <text id="Assigning_a_Travel_Manager" data-name="Assigning a Travel Manager" transform="translate(816 1960)" fill="#161616" font-size="19" font-family="Mont-Bold, Mont" font-weight="700"><tspan x="0" y="0">Assigning a Travel Manager</tspan></text>
    <text id="Pick-up_at_Door_to_Drop_at_Door" data-name="Pick-up at Door to Drop at Door" transform="translate(1295 1960)" fill="#161616" font-size="19" font-family="Mont-Bold, Mont" font-weight="700"><tspan x="0" y="0">Pick-up at Door to Drop at Door</tspan></text>
    <text id="Designing_the_Tour_Experience_for_the_Guest" data-name="Designing the
Tour Experience for the Guest" transform="translate(705 1892)" fill="#161616" font-size="19" font-family="Mont-Bold, Mont" font-weight="700"><tspan x="-66.574" y="0">Designing the</tspan><tspan x="-141.396" y="23">Tour Experience for the Guest</tspan></text>
    <text id="Re-routing_when_required" data-name="Re-routing when required" transform="translate(1179 1892)" fill="#161616" font-size="19" font-family="Mont-Bold, Mont" font-weight="700"><tspan x="-123.444" y="0">Re-routing when required</tspan></text>
    <g id="_002-deal" data-name="002-deal" transform="translate(332 1590.667)">
      <g id="Group_267" data-name="Group 267" transform="translate(84 107.535)">
        <path id="Path_2193" data-name="Path 2193" d="M77.008,88.863a1.606,1.606,0,0,0-1.481-.194l-13.2,4.8a6.427,6.427,0,0,0-3.667,3.373,6.5,6.5,0,0,0-.316.912,59.822,59.822,0,0,1-10.662-4.146c-5.4-2.783-9.97-2.427-15.206,1.509-2.105.035-5.046.288-7.932.543-1.815.16-3.53.307-4.92.392a6.476,6.476,0,0,0-4.258-5.821l-13.2-4.8A1.618,1.618,0,0,0,0,86.951v32.375a1.618,1.618,0,0,0,1.619,1.619H6.347a6.51,6.51,0,0,0,5.091-2.48c.644.49,1.407,1.064,2.207,1.664,1.889,1.421,3.957,2.972,4.864,3.732,6.028,5.046,13.274,10.495,14.717,11.443a11.881,11.881,0,0,0,5.623,1.827,5.943,5.943,0,0,0,3.819-1.08,5.2,5.2,0,0,0,4.056-.09,6.068,6.068,0,0,0,3-3,6.3,6.3,0,0,0,4.034-.591,5.518,5.518,0,0,0,2.63-2.648,5.086,5.086,0,0,0,3.536-1.129,5.245,5.245,0,0,0,2.121-4.8l4.106-2.272a6.485,6.485,0,0,0,5.2,2.664H76.08a1.618,1.618,0,0,0,1.619-1.619V90.189A1.619,1.619,0,0,0,77.008,88.863ZM57.963,126.019c-.549.421-1.317.655-1.658.313-.017-.017-.044-.016-.062-.032s-.046-.067-.08-.094c-1.157-.914-6.342-6.219-9.546-9.561a1.618,1.618,0,1,0-2.336,2.238c.752.785,6.79,7.073,9.206,9.272a2.235,2.235,0,0,1-1.174,1.318,2.494,2.494,0,0,1-2.523.057c-.012-.011-.03-.011-.042-.022s-.029-.042-.049-.059c-1.941-1.551-6.812-6.726-7.913-7.925a1.619,1.619,0,0,0-2.384,2.191c.053.058,4.826,5.206,7.507,7.6A2.845,2.845,0,0,1,45.418,133a2.113,2.113,0,0,1-2.211-.33c-2.325-1.971-6.99-6.937-7.907-7.919a1.618,1.618,0,0,0-2.365,2.21c1.088,1.164,4.3,4.572,6.747,6.88a7,7,0,0,1-.832.052,8.9,8.9,0,0,1-3.844-1.3c-1.135-.746-8.261-6.064-14.415-11.217-.931-.781-3.056-2.379-5-3.84-1.042-.782-2-1.5-2.71-2.048l6.061-16.164c1.573-.069,3.671-.25,5.89-.446,1.255-.111,2.512-.219,3.713-.312-1.846,1.894-4.59,5.289-4.228,8.47a4.666,4.666,0,0,0,2.294,3.489,5.167,5.167,0,0,0,2.779.714A9.711,9.711,0,0,0,36.51,107.9a11.246,11.246,0,0,0,3.672-1.165c1.9,1.783,4.44,3.879,7.112,6.081,4.651,3.832,9.923,8.176,11.317,10.612A1.951,1.951,0,0,1,57.963,126.019Z" fill="#4962ab"/>
      </g>
    </g>
    <g id="_006-user-experience" data-name="006-user-experience" transform="translate(668 1677.849)">
      <path id="Path_2256" data-name="Path 2256" d="M133.444,354.19a12.009,12.009,0,0,1-7.5,2.622h0a12.007,12.007,0,0,1-7.292-2.455,22.411,22.411,0,0,0-14.766,21.066v2.148h44.806v-2.148A22.412,22.412,0,0,0,133.444,354.19Z" transform="translate(-88.48 -301.603)" fill="#f44336"/>
      <path id="Path_2257" data-name="Path 2257" d="M23.7,81.637l2.308,4.676,5.16.75L27.437,90.7l.882,5.139L23.7,93.415l-4.615,2.426L19.97,90.7l-3.734-3.64,5.16-.75Z" transform="translate(-13.829 -69.457)" fill="#fdcc15"/>
      <path id="Path_2301" data-name="Path 2301" d="M23.7,81.637l2.308,4.676,5.16.75L27.437,90.7l.882,5.139L23.7,93.415l-4.615,2.426L19.97,90.7l-3.734-3.64,5.16-.75Z" transform="translate(-3.829 -85.457)" fill="#fdcc15"/>
      <path id="Path_2303" data-name="Path 2303" d="M23.7,81.637l2.308,4.676,5.16.75L27.437,90.7l.882,5.139L23.7,93.415l-4.615,2.426L19.97,90.7l-3.734-3.64,5.16-.75Z" transform="translate(32.171 -85.457)" fill="#fdcc15"/>
      <path id="Path_2258" data-name="Path 2258" d="M172.8,169.111h-24.63a3.435,3.435,0,0,1-3.435-3.435h0a5.354,5.354,0,0,1,5.354-5.354h18.231a4.48,4.48,0,0,1,4.48,4.48v4.309Z" transform="translate(-123.275 -136.476)" fill="#d56826"/>
      <g id="Group_277" data-name="Group 277" transform="translate(29.991 2.622)">
        <path id="Path_2259" data-name="Path 2259" d="M402.491,80.368l2.308,4.676,5.16.75-3.734,3.639.882,5.139-4.615-2.426-4.615,2.426.882-5.139-3.734-3.639,5.16-.75Z" transform="translate(-366.45 -70.998)" fill="#fdcc15"/>
        <path id="Path_2260" data-name="Path 2260" d="M209.763,17.163l2.308,4.676,5.16.75-3.734,3.64.881,5.139-4.615-2.426-4.615,2.426.881-5.139-3.734-3.64,5.16-.75Z" transform="translate(-202.295 -17.163)" fill="#fdcc15"/>
      </g>
      <path id="Path_2261" data-name="Path 2261" d="M204.025,355.474a22.268,22.268,0,0,0-3.042-1.285,12.009,12.009,0,0,1-7.5,2.622h0a12.007,12.007,0,0,1-7.292-2.455,22.27,22.27,0,0,0-3.01,1.352,15.022,15.022,0,0,0,20.849-.235Z" transform="translate(-156.02 -301.602)" fill="#d32f2f"/>
      <path id="Path_2262" data-name="Path 2262" d="M183.362,242.179h0A12.063,12.063,0,0,1,171.3,230.116V219.6h24.126v10.512A12.063,12.063,0,0,1,183.362,242.179Z" transform="translate(-145.903 -186.969)" fill="#ffe0b2"/>
      <rect id="Rectangle_1195" data-name="Rectangle 1195" width="24.126" height="2.987" transform="translate(25.396 32.635)" fill="#ffcc80"/>
      <path id="Path_2263" data-name="Path 2263" d="M172.8,199.869h-24.63a3.435,3.435,0,0,1-3.435-3.435h24.63a3.435,3.435,0,0,1,3.435,3.435Z" transform="translate(-123.275 -167.234)" fill="#d15a18"/>
      <rect id="Rectangle_1196" data-name="Rectangle 1196" width="2.24" height="6.87" transform="translate(22.552 69.099)"/>
      <rect id="Rectangle_1197" data-name="Rectangle 1197" width="2.24" height="6.87" transform="translate(50.814 69.099)"/>
      <rect id="Rectangle_1198" data-name="Rectangle 1198" width="2.585" height="3.24" rx="1" transform="translate(31.255 38.959)"/>
      <rect id="Rectangle_1210" data-name="Rectangle 1210" width="2.585" height="3.24" rx="1" transform="translate(41.255 38.959)"/>
      <path id="Path_2265" data-name="Path 2265" d="M9.875,80.139l6.1,3.208-1.166-6.8,4.937-4.813-6.823-.992L9.875,64.565,6.823,70.748,0,71.739l4.937,4.813-1.166,6.8ZM4.814,73.3l3.5-.508,1.564-3.168L11.438,72.8l3.5.508L12.4,75.77l.6,3.483L9.875,77.608,6.747,79.253l.6-3.483Z" transform="translate(0 -54.916)"/>
      <path id="Path_2302" data-name="Path 2302" d="M9.875,80.139l6.1,3.208-1.166-6.8,4.937-4.813-6.823-.992L9.875,64.565,6.823,70.748,0,71.739l4.937,4.813-1.166,6.8ZM4.814,73.3l3.5-.508,1.564-3.168L11.438,72.8l3.5.508L12.4,75.77l.6,3.483L9.875,77.608,6.747,79.253l.6-3.483Z" transform="translate(10 -70.916)"/>
      <path id="Path_2304" data-name="Path 2304" d="M9.875,80.139l6.1,3.208-1.166-6.8,4.937-4.813-6.823-.992L9.875,64.565,6.823,70.748,0,71.739l4.937,4.813-1.166,6.8ZM4.814,73.3l3.5-.508,1.564-3.168L11.438,72.8l3.5.508L12.4,75.77l.6,3.483L9.875,77.608,6.747,79.253l.6-3.483Z" transform="translate(46 -70.916)"/>
      <path id="Path_2266" data-name="Path 2266" d="M398.535,70.47l-6.823-.992L388.661,63.3l-3.051,6.183-6.823.992,4.937,4.813-1.166,6.8,6.1-3.209,6.1,3.209-1.166-6.8Zm-9.875,5.869-3.128,1.644.6-3.483-2.53-2.466,3.5-.508,1.564-3.168,1.564,3.168,3.5.508-2.53,2.466.6,3.483Z" transform="translate(-322.63 -53.835)"/>
      <path id="Path_2267" data-name="Path 2267" d="M189.83,18.874l6.1-3.209,6.1,3.209-1.166-6.8,4.937-4.813-6.823-.992L195.933.091l-3.051,6.183-6.823.992L191,12.078ZM190.872,8.83l3.5-.508,1.564-3.168L197.5,8.322l3.5.508-2.53,2.466.6,3.483-3.127-1.644-3.128,1.644.6-3.483Z" transform="translate(-158.474 0)"/>
      <rect id="Rectangle_1200" data-name="Rectangle 1200" width="2.24" height="2.24" transform="translate(8.755 48.787)"/>
      <rect id="Rectangle_1201" data-name="Rectangle 1201" width="2.24" height="6.87" transform="translate(8.755 53.268)"/>
      <rect id="Rectangle_1202" data-name="Rectangle 1202" width="2.24" height="2.24" transform="translate(8.755 44.307)"/>
      <rect id="Rectangle_1203" data-name="Rectangle 1203" width="2.24" height="7.468" transform="translate(8.755 34.599)"/>
      <rect id="Rectangle_1204" data-name="Rectangle 1204" width="2.24" height="2.24" transform="translate(8.755 30.118)"/>
      <rect id="Rectangle_1205" data-name="Rectangle 1205" width="2.24" height="2.24" transform="translate(64.911 57.001)"/>
      <rect id="Rectangle_1206" data-name="Rectangle 1206" width="2.24" height="2.24" transform="translate(64.911 61.482)"/>
      <rect id="Rectangle_1207" data-name="Rectangle 1207" width="2.24" height="2.24" transform="translate(64.911 29.819)"/>
      <rect id="Rectangle_1208" data-name="Rectangle 1208" width="2.24" height="15.981" transform="translate(64.911 38.781)"/>
      <rect id="Rectangle_1209" data-name="Rectangle 1209" width="2.24" height="2.24" transform="translate(64.911 34.3)"/>
      <g id="Group_278" data-name="Group 278" transform="translate(21.199 57.321)">
        <path id="Path_2268" data-name="Path 2268" d="M316.855,392.73a16.667,16.667,0,0,0-5.191-4.671l1.119-1.941a18.888,18.888,0,0,1,5.884,5.3Z" transform="translate(-286.658 -386.118)" fill="#fff"/>
        <path id="Path_2269" data-name="Path 2269" d="M144.947,399.181l-1.954-1.1a19.252,19.252,0,0,1,5.789-6.368l1.276,1.841A17,17,0,0,0,144.947,399.181Z" transform="translate(-142.993 -390.887)" fill="#fff"/>
      </g>
    </g>
    <path id="Path_2207" data-name="Path 2207" d="M248.8,382.752a1.061,1.061,0,0,1-1.061,1.061h-3.677a1.061,1.061,0,0,1-.941-1.551q.564-1.089,1.009-2.165a27.7,27.7,0,0,0,1.637-15.472,1.061,1.061,0,0,1,2.09-.369,29.853,29.853,0,0,1-1.442,15.842q-.3.792-.661,1.593h1.985A1.059,1.059,0,0,1,248.8,382.752Z" transform="translate(699.189 1462.187)" fill="#fcd2be"/>
    <path id="Path_2208" data-name="Path 2208" d="M198.5,382.734a1.061,1.061,0,0,1-1.061,1.061H193.76a1.061,1.061,0,0,1-.941-1.551q.567-1.089,1.01-2.165a27.693,27.693,0,0,0,1.634-15.475,1.061,1.061,0,0,1,2.09-.371,29.837,29.837,0,0,1-1.44,15.846q-.3.791-.661,1.593h1.986A1.06,1.06,0,0,1,198.5,382.734Z" transform="translate(742.573 1462.205)" fill="#fcd2be"/>
    <path id="Path_2209" data-name="Path 2209" d="M119.767,382.752a1.061,1.061,0,0,1-1.061,1.061h-3.677a1.061,1.061,0,0,1-.941-1.551q.567-1.089,1.01-2.165a27.7,27.7,0,0,0,1.636-15.472,1.061,1.061,0,0,1,2.09-.369,29.853,29.853,0,0,1-1.442,15.842q-.3.792-.661,1.593h1.985A1.059,1.059,0,0,1,119.767,382.752Z" transform="translate(810.479 1462.187)" fill="#fcd2be"/>
    <path id="Path_2210" data-name="Path 2210" d="M69.469,382.734a1.061,1.061,0,0,1-1.061,1.061H64.73a1.061,1.061,0,0,1-.941-1.551q.567-1.089,1.01-2.165A27.693,27.693,0,0,0,66.433,364.6a1.061,1.061,0,0,1,2.09-.371,29.837,29.837,0,0,1-1.44,15.846q-.3.791-.661,1.593h1.986A1.06,1.06,0,0,1,69.469,382.734Z" transform="translate(853.863 1462.205)" fill="#fcd2be"/>
    <path id="Path_2221" data-name="Path 2221" d="M190.378,194.879a43.29,43.29,0,0,1-15.055.8,27.9,27.9,0,0,1-5.177-1.085c0-18.817,7.289-27.593,7.289-27.593l1.617.178,4.7.521C184.692,178.388,190.378,194.879,190.378,194.879Z" transform="translate(762.025 1631.564)" fill="#00c7a9"/>
    <path id="Path_2222" data-name="Path 2222" d="M175.323,195.68a27.9,27.9,0,0,1-5.177-1.085c0-18.817,7.289-27.593,7.289-27.593l1.617.178.348.555S172.841,181.791,175.323,195.68Z" transform="translate(762.025 1631.564)" fill="#04af92"/>
    <path id="Path_2223" data-name="Path 2223" d="M185.948,7.589,172.364,11.8l-6.043,1.873C162.99,5.322,165.832.052,175.313.052S185.948,4.335,185.948,7.589Z" transform="translate(766.479 1775.561)" fill="#f9ce55"/>
    <path id="Path_2224" data-name="Path 2224" d="M172.364,11.8l-6.043,1.873C162.99,5.322,165.832.052,175.313.052,171.943,1.013,169.808,8.049,172.364,11.8Z" transform="translate(766.479 1775.561)" fill="#e2a11e"/>
    <path id="Path_2225" data-name="Path 2225" d="M194.342,40.94v7.508a8.894,8.894,0,0,1-17.7,1.22,2.869,2.869,0,1,1,2.974-4.738,5.988,5.988,0,0,1,1.023-2.767C182.356,39.464,186.447,36.626,194.342,40.94Z" transform="translate(758.085 1742.21)" fill="#fcd2be"/>
    <path id="Path_2226" data-name="Path 2226" d="M183.341,78.687a8.9,8.9,0,0,1-6.7-7.422,2.869,2.869,0,1,1,2.974-4.738,5.987,5.987,0,0,1,1.023-2.767C179.828,68.855,179.954,76.49,183.341,78.687Z" transform="translate(758.085 1720.613)" fill="#fab998"/>
    <g id="Group_271" data-name="Group 271" transform="translate(943.775 1786.047)">
      <path id="Path_2227" data-name="Path 2227" d="M255.6,79.538a1.061,1.061,0,0,1-1.061-1.061V77.006a1.061,1.061,0,1,1,2.122,0v1.471A1.061,1.061,0,0,1,255.6,79.538Z" transform="translate(-254.542 -75.945)" fill="#393a42"/>
      <path id="Path_2228" data-name="Path 2228" d="M283.421,79.538a1.061,1.061,0,0,1-1.061-1.061V77.006a1.061,1.061,0,0,1,2.122,0v1.471A1.061,1.061,0,0,1,283.421,79.538Z" transform="translate(-278.535 -75.945)" fill="#393a42"/>
    </g>
    <path id="Path_2229" data-name="Path 2229" d="M235.7,124.134l-.057,0a5.221,5.221,0,0,1-4.506-2.6,1.061,1.061,0,1,1,1.842-1.053,3.118,3.118,0,0,0,2.776,1.533,1.061,1.061,0,0,1-.055,2.121Z" transform="translate(709.537 1672.151)" fill="#fff"/>
    <path id="Path_2230" data-name="Path 2230" d="M39.85,7.59C40.577,4.9,40.294.053,32.8.053s-14.855.6-16.412,11.64,5.683,21.364,5.683,21.364" transform="translate(894.836 1775.56)" fill="#3facc9"/>
    <path id="Path_2231" data-name="Path 2231" d="M22.068,34.272l2.163-3.1C23.68,24.959,22.048,2.06,27.917,1.462c-5.582.58-10.32,2.844-11.532,11.446C14.829,23.943,22.068,34.272,22.068,34.272Z" transform="translate(894.835 1774.344)" fill="#369ab2"/>
    <path id="Path_2232" data-name="Path 2232" d="M61.347,194.879a43.29,43.29,0,0,1-15.055.8,27.9,27.9,0,0,1-5.177-1.085C41.115,175.779,48.4,167,48.4,167l1.617.178,4.7.521C55.661,178.388,61.347,194.879,61.347,194.879Z" transform="translate(873.316 1631.564)" fill="#ef4a6e"/>
    <path id="Path_2233" data-name="Path 2233" d="M46.292,195.68a27.9,27.9,0,0,1-5.177-1.085C41.115,175.778,48.4,167,48.4,167l1.617.178.348.555S43.81,181.791,46.292,195.68Z" transform="translate(873.316 1631.564)" fill="#d8254f"/>
    <path id="Path_2234" data-name="Path 2234" d="M64.634,228.685a4.258,4.258,0,0,1-1.762-.4,3.076,3.076,0,0,1-1.755-2.06c-.967-3.557,3.472-9.957,3.982-10.675a1.061,1.061,0,0,1,1.731,1.228h0c-1.7,2.4-4.2,6.933-3.665,8.89a.955.955,0,0,0,.578.682c1.276.574,2.135-.083,3.43-1.2.926-.8,1.883-1.626,3.116-1.525a3.116,3.116,0,0,1,2.134,1.274,1.061,1.061,0,0,1-1.63,1.359,1.3,1.3,0,0,0-.678-.518c-.341-.028-.988.527-1.555,1.016A6.213,6.213,0,0,1,64.634,228.685Z" transform="translate(856.183 1590.078)" fill="#fcd2be"/>
    <path id="Path_2235" data-name="Path 2235" d="M191.205,228.685a4.258,4.258,0,0,1-1.762-.4,3.076,3.076,0,0,1-1.755-2.06c-.967-3.557,3.472-9.957,3.982-10.675a1.061,1.061,0,0,1,1.731,1.228h0c-1.7,2.4-4.2,6.933-3.665,8.89a.955.955,0,0,0,.578.682c1.276.574,2.135-.083,3.43-1.2.926-.8,1.883-1.626,3.116-1.525a3.116,3.116,0,0,1,2.134,1.274,1.061,1.061,0,0,1-1.63,1.359,1.3,1.3,0,0,0-.678-.518c-.341-.028-.988.527-1.555,1.016A6.213,6.213,0,0,1,191.205,228.685Z" transform="translate(747.014 1590.078)" fill="#fcd2be"/>
    <path id="Path_2237" data-name="Path 2237" d="M46.529,54.04a2.873,2.873,0,0,0,1.082.682,8.895,8.895,0,0,0,17.7-1.22V45.994s-3.943.141-5.5-1.415a8.033,8.033,0,0,1-7.142,3.215h0a8.448,8.448,0,0,1-2.088-.383v2.576h0a2.868,2.868,0,0,0-4.056,4.056Z" transform="translate(869.371 1737.156)" fill="#fcd2be"/>
    <path id="Path_2238" data-name="Path 2238" d="M46.529,71.79a2.873,2.873,0,0,0,1.082.682,8.9,8.9,0,0,0,6.7,7.422C49.7,77.36,52.635,65.7,52.675,65.544h0a8.448,8.448,0,0,1-2.088-.383v2.576h0a2.868,2.868,0,0,0-4.056,4.056Z" transform="translate(869.371 1719.405)" fill="#fab998"/>
    <g id="Group_273" data-name="Group 273" transform="translate(926.034 1786.047)">
      <path id="Path_2239" data-name="Path 2239" d="M126.574,79.538a1.061,1.061,0,0,1-1.061-1.061V77.006a1.061,1.061,0,0,1,2.122,0v1.471A1.061,1.061,0,0,1,126.574,79.538Z" transform="translate(-125.513 -75.945)" fill="#393a42"/>
      <path id="Path_2240" data-name="Path 2240" d="M154.392,79.538a1.061,1.061,0,0,1-1.061-1.061V77.006a1.061,1.061,0,0,1,2.122,0v1.471A1.061,1.061,0,0,1,154.392,79.538Z" transform="translate(-149.506 -75.945)" fill="#393a42"/>
    </g>
    <path id="Path_2241" data-name="Path 2241" d="M106.674,124.134l-.057,0a5.221,5.221,0,0,1-4.506-2.6,1.061,1.061,0,1,1,1.842-1.053,3.118,3.118,0,0,0,2.776,1.533,1.061,1.061,0,0,1-.055,2.121Z" transform="translate(820.827 1672.151)" fill="#fff"/>
    <g id="Group_274" data-name="Group 274" transform="translate(917.532 1842.285)">
      <path id="Path_2242" data-name="Path 2242" d="M69.469,487.632a1.061,1.061,0,0,1-1.061,1.061H64.73a1.061,1.061,0,0,1-.941-1.551q.567-1.089,1.01-2.165h2.284q-.3.792-.661,1.593h1.986A1.06,1.06,0,0,1,69.469,487.632Z" transform="translate(-63.669 -484.978)" fill="#ef4a6e"/>
      <path id="Path_2243" data-name="Path 2243" d="M119.767,487.632a1.061,1.061,0,0,1-1.061,1.061h-3.677a1.061,1.061,0,0,1-.941-1.551q.567-1.089,1.01-2.165h2.284q-.3.792-.661,1.593h1.985A1.06,1.06,0,0,1,119.767,487.632Z" transform="translate(-107.052 -484.978)" fill="#ef4a6e"/>
    </g>
    <g id="Group_275" data-name="Group 275" transform="translate(935.272 1842.285)">
      <path id="Path_2244" data-name="Path 2244" d="M198.5,487.632a1.061,1.061,0,0,1-1.061,1.061H193.76a1.061,1.061,0,0,1-.941-1.551q.567-1.089,1.01-2.165h2.284q-.3.792-.661,1.593h1.986A1.06,1.06,0,0,1,198.5,487.632Z" transform="translate(-192.699 -484.978)" fill="#3facc9"/>
      <path id="Path_2245" data-name="Path 2245" d="M248.8,487.632a1.061,1.061,0,0,1-1.061,1.061h-3.677a1.061,1.061,0,0,1-.941-1.551q.564-1.089,1.009-2.165h2.285q-.3.792-.661,1.593h1.985A1.06,1.06,0,0,1,248.8,487.632Z" transform="translate(-236.082 -484.978)" fill="#3facc9"/>
    </g>
    <g id="Group_279" data-name="Group 279">
      <path id="Path_2205" data-name="Path 2205" d="M394.27,347.844a1.061,1.061,0,0,1-1.061,1.061h-3.677a1.062,1.062,0,0,1-.942-1.551c.378-.726.712-1.449,1.007-2.165a27.668,27.668,0,0,0,1.89-13.752,25.417,25.417,0,0,0-1.773-7.023,1.061,1.061,0,0,1,1.924-.9,26.966,26.966,0,0,1,1.947,7.589,29.861,29.861,0,0,1-1.7,14.082q-.3.791-.659,1.593h1.986A1.06,1.06,0,0,1,394.27,347.844Z" transform="translate(583.718 1497.095)" fill="#50515b"/>
      <path id="Path_2206" data-name="Path 2206" d="M323.411,347.839a1.062,1.062,0,0,1-1.061,1.061h-3.677a1.062,1.062,0,0,1-.942-1.551q.564-1.089,1.009-2.165a27.874,27.874,0,0,0,.116-20.774,1.061,1.061,0,1,1,1.923-.9,26.887,26.887,0,0,1,1.948,7.589,29.861,29.861,0,0,1-1.7,14.082q-.3.792-.659,1.593h1.986A1.06,1.06,0,0,1,323.411,347.839Z" transform="translate(644.835 1497.1)" fill="#50515b"/>
      <path id="Path_2211" data-name="Path 2211" d="M404.606,197.922a3.071,3.071,0,0,0-.95-.049v-1.138a1.061,1.061,0,1,0-2.122,0v1.993a7.475,7.475,0,0,0-2.34,3.654,2.448,2.448,0,0,1-2.164,1.884,4.791,4.791,0,0,1-4.053-1.895,1.061,1.061,0,1,0-1.839,1.059,6.943,6.943,0,0,0,5.578,2.973q.261,0,.52-.025a4.551,4.551,0,0,0,3.967-3.312,7.019,7.019,0,0,1,1.006-2.007l1.851.175a1.061,1.061,0,0,0,1.148-.9l.189-1.226A1.061,1.061,0,0,0,404.606,197.922Z" transform="translate(581.54 1606.835)" fill="#fcd2be"/>
      <path id="Path_2212" data-name="Path 2212" d="M321.094,190.568s-5.453,2.726-10.973,1.66a11.246,11.246,0,0,1-5.944-3.13s1.727-11.572,4.965-18.335a17.031,17.031,0,0,1,1.371-2.4l2.013.156,4.069.316c0,.566.072,1.674.221,3.118C317.319,176.891,318.7,185.787,321.094,190.568Z" transform="translate(656.422 1630.392)" fill="#f9ce55"/>
      <path id="Path_2213" data-name="Path 2213" d="M310.122,192.226a11.246,11.246,0,0,1-5.944-3.13s2.217-14.853,6.336-20.737l2.013.156.583.576C311.6,172.186,308.074,184.159,310.122,192.226Z" transform="translate(656.421 1630.393)" fill="#e2a11e"/>
      <path id="Path_2214" data-name="Path 2214" d="M318.64,31.54V42.256a8.9,8.9,0,0,1-12.582,8.1h0a8.9,8.9,0,0,1-5.123-6.875,2.869,2.869,0,1,1,2.975-4.737l.747-4.283.509-2.916Z" transform="translate(660.876 1748.402)" fill="#fcd2be"/>
      <path id="Path_2215" data-name="Path 2215" d="M306.058,68.642a8.9,8.9,0,0,1-5.123-6.875,2.869,2.869,0,1,1,2.975-4.737l.747-4.283,2.341.475C306.014,54.925,301.856,61.138,306.058,68.642Z" transform="translate(660.876 1730.11)" fill="#fab998"/>
      <path id="Path_2216" data-name="Path 2216" d="M334.337,0a7.728,7.728,0,0,1-7.728,7.728h-8.071v.717a3.089,3.089,0,0,1-3.09,3.089,2.869,2.869,0,0,0-3.057-.649V7.728A7.729,7.729,0,0,1,320.118,0Z" transform="translate(649.338 1775.605)" fill="#50515b"/>
      <path id="Path_2217" data-name="Path 2217" d="M326.425,0h-6.307a7.729,7.729,0,0,0-7.728,7.728v3.156a2.87,2.87,0,0,1,3.057.649,3.089,3.089,0,0,0,3.09-3.089V7.728h.16A7.729,7.729,0,0,1,326.425,0Z" transform="translate(649.338 1775.605)" fill="#393a42"/>
      <path id="Path_2218" data-name="Path 2218" d="M379.9,79.537a1.061,1.061,0,0,1-1.061-1.061V77.005a1.061,1.061,0,1,1,2.122,0v1.471A1.061,1.061,0,0,1,379.9,79.537Z" transform="translate(592.023 1710.103)" fill="#393a42"/>
      <path id="Path_2219" data-name="Path 2219" d="M407.72,79.537a1.061,1.061,0,0,1-1.061-1.061V77.005a1.061,1.061,0,1,1,2.122,0v1.471A1.061,1.061,0,0,1,407.72,79.537Z" transform="translate(568.03 1710.103)" fill="#393a42"/>
      <path id="Path_2220" data-name="Path 2220" d="M360,124.133l-.057,0a5.221,5.221,0,0,1-4.506-2.6,1.061,1.061,0,1,1,1.842-1.053,3.157,3.157,0,0,0,2.776,1.533,1.061,1.061,0,0,1-.055,2.121Z" transform="translate(612.328 1672.152)" fill="#fff"/>
      <path id="Path_2236" data-name="Path 2236" d="M326.008,228.685a4.258,4.258,0,0,1-1.762-.4,3.076,3.076,0,0,1-1.755-2.06c-.967-3.557,3.472-9.957,3.982-10.675a1.061,1.061,0,0,1,1.731,1.228h0c-1.7,2.4-4.2,6.933-3.665,8.89a.955.955,0,0,0,.578.682c1.276.574,2.135-.083,3.43-1.2.926-.8,1.883-1.626,3.116-1.525A3.116,3.116,0,0,1,333.8,224.9a1.061,1.061,0,0,1-1.63,1.359,1.3,1.3,0,0,0-.678-.518c-.341-.028-.988.527-1.555,1.016A6.212,6.212,0,0,1,326.008,228.685Z" transform="translate(640.745 1590.078)" fill="#fcd2be"/>
      <path id="Path_2246" data-name="Path 2246" d="M323.411,487.632a1.062,1.062,0,0,1-1.061,1.061h-3.677a1.062,1.062,0,0,1-.942-1.551q.564-1.089,1.009-2.165h2.284q-.3.792-.659,1.593h1.986A1.06,1.06,0,0,1,323.411,487.632Z" transform="translate(644.835 1357.307)" fill="#f9ce55"/>
      <path id="Path_2247" data-name="Path 2247" d="M394.27,487.632a1.061,1.061,0,0,1-1.061,1.061h-3.677a1.062,1.062,0,0,1-.942-1.551c.378-.726.712-1.449,1.007-2.165h2.285q-.3.792-.659,1.593h1.986A1.059,1.059,0,0,1,394.27,487.632Z" transform="translate(583.718 1357.307)" fill="#f9ce55"/>
    </g>
    <g id="Group_280" data-name="Group 280" transform="translate(1425.889 1767.605)">
      <path id="Path_2205-2" data-name="Path 2205" d="M388.47,347.844a1.061,1.061,0,0,0,1.061,1.061h3.677a1.062,1.062,0,0,0,.942-1.551c-.378-.726-.712-1.449-1.007-2.165a27.668,27.668,0,0,1-1.89-13.752,25.417,25.417,0,0,1,1.773-7.023,1.061,1.061,0,0,0-1.924-.9,26.966,26.966,0,0,0-1.947,7.589,29.861,29.861,0,0,0,1.7,14.082q.3.791.659,1.593h-1.986A1.06,1.06,0,0,0,388.47,347.844Z" transform="translate(-379.508 -278.51)" fill="#50515b"/>
      <path id="Path_2206-2" data-name="Path 2206" d="M317.611,347.839a1.062,1.062,0,0,0,1.061,1.061h3.677a1.062,1.062,0,0,0,.942-1.551q-.564-1.089-1.009-2.165a27.874,27.874,0,0,1-.116-20.774,1.061,1.061,0,1,0-1.923-.9A26.887,26.887,0,0,0,318.3,331.1a29.861,29.861,0,0,0,1.7,14.082q.3.792.659,1.593h-1.986A1.06,1.06,0,0,0,317.611,347.839Z" transform="translate(-298.907 -278.505)" fill="#50515b"/>
      <path id="Path_2211-2" data-name="Path 2211" d="M391.8,197.922a3.071,3.071,0,0,1,.95-.049v-1.138a1.061,1.061,0,1,1,2.122,0v1.993a7.475,7.475,0,0,1,2.34,3.654,2.448,2.448,0,0,0,2.164,1.884,4.791,4.791,0,0,0,4.053-1.895,1.061,1.061,0,1,1,1.839,1.059,6.943,6.943,0,0,1-5.578,2.973q-.261,0-.52-.025a4.551,4.551,0,0,1-3.967-3.312,7.019,7.019,0,0,0-1.006-2.007l-1.851.175a1.061,1.061,0,0,1-1.148-.9l-.189-1.226A1.061,1.061,0,0,1,391.8,197.922Z" transform="translate(-390.995 -168.771)" fill="#fcd2be"/>
      <path id="Path_2212-2" data-name="Path 2212" d="M304.177,190.568s5.453,2.726,10.973,1.66a11.246,11.246,0,0,0,5.944-3.13s-1.727-11.572-4.965-18.335a17.031,17.031,0,0,0-1.371-2.4l-2.013.156-4.069.316c0,.566-.072,1.674-.221,3.118C307.952,176.891,306.568,185.787,304.177,190.568Z" transform="translate(-294.743 -145.213)" fill="#f9ce55"/>
      <path id="Path_2213-2" data-name="Path 2213" d="M307.166,192.226a11.246,11.246,0,0,0,5.944-3.13s-2.217-14.853-6.336-20.737l-2.013.156-.583.576C305.685,172.186,309.213,184.159,307.166,192.226Z" transform="translate(-286.759 -145.212)" fill="#e2a11e"/>
      <path id="Path_2214-2" data-name="Path 2214" d="M299.013,31.54V42.256a8.9,8.9,0,0,0,12.582,8.1h0a8.9,8.9,0,0,0,5.123-6.875,2.869,2.869,0,1,0-2.975-4.737L313,34.456l-.509-2.916Z" transform="translate(-291.579 -27.204)" fill="#fcd2be"/>
      <path id="Path_2215-2" data-name="Path 2215" d="M299.953,68.642a8.9,8.9,0,0,0,5.123-6.875,2.869,2.869,0,1,0-2.975-4.737l-.747-4.283-2.341.475C300,54.925,304.155,61.138,299.953,68.642Z" transform="translate(-279.938 -45.496)" fill="#fab998"/>
      <path id="Path_2216-2" data-name="Path 2216" d="M312.39,0a7.728,7.728,0,0,0,7.728,7.728h8.071v.717a3.089,3.089,0,0,0,3.09,3.089,2.869,2.869,0,0,1,3.057-.649V7.728A7.729,7.729,0,0,0,326.609,0Z" transform="translate(-309.115)" fill="#50515b"/>
      <path id="Path_2217-2" data-name="Path 2217" d="M312.39,0H318.7a7.729,7.729,0,0,1,7.728,7.728v3.156a2.87,2.87,0,0,0-3.057.649,3.089,3.089,0,0,1-3.09-3.089V7.728h-.16A7.729,7.729,0,0,0,312.39,0Z" transform="translate(-301.203)" fill="#393a42"/>
      <path id="Path_2218-2" data-name="Path 2218" d="M379.9,79.537a1.061,1.061,0,0,0,1.061-1.061V77.005a1.061,1.061,0,1,0-2.122,0v1.471A1.061,1.061,0,0,0,379.9,79.537Z" transform="translate(-364.878 -65.502)" fill="#393a42"/>
      <path id="Path_2219-2" data-name="Path 2219" d="M407.72,79.537a1.061,1.061,0,0,0,1.061-1.061V77.005a1.061,1.061,0,1,0-2.122,0v1.471A1.061,1.061,0,0,0,407.72,79.537Z" transform="translate(-396.52 -65.502)" fill="#393a42"/>
      <path id="Path_2220-2" data-name="Path 2220" d="M356.359,124.133l.057,0a5.221,5.221,0,0,0,4.505-2.6,1.061,1.061,0,1,0-1.842-1.053,3.157,3.157,0,0,1-2.776,1.533,1.061,1.061,0,0,0,.055,2.121Z" transform="translate(-341.74 -103.454)" fill="#fff"/>
      <path id="Path_2236-2" data-name="Path 2236" d="M330.388,228.685a4.258,4.258,0,0,0,1.762-.4,3.076,3.076,0,0,0,1.755-2.06c.967-3.557-3.472-9.957-3.982-10.675a1.061,1.061,0,0,0-1.731,1.228h0c1.7,2.4,4.2,6.933,3.665,8.89a.955.955,0,0,1-.578.682c-1.276.574-2.135-.083-3.43-1.2-.926-.8-1.883-1.626-3.116-1.525A3.116,3.116,0,0,0,322.6,224.9a1.061,1.061,0,0,0,1.63,1.359,1.3,1.3,0,0,1,.678-.518c.341-.028.988.527,1.555,1.016A6.212,6.212,0,0,0,330.388,228.685Z" transform="translate(-310.191 -185.528)" fill="#fcd2be"/>
      <path id="Path_2246-2" data-name="Path 2246" d="M317.611,487.632a1.062,1.062,0,0,0,1.061,1.061h3.677a1.062,1.062,0,0,0,.942-1.551q-.564-1.089-1.009-2.165H320q.3.792.659,1.593h-1.986A1.06,1.06,0,0,0,317.611,487.632Z" transform="translate(-298.907 -418.299)" fill="#f9ce55"/>
      <path id="Path_2247-2" data-name="Path 2247" d="M388.47,487.632a1.061,1.061,0,0,0,1.061,1.061h3.677a1.062,1.062,0,0,0,.942-1.551c-.378-.726-.712-1.449-1.007-2.165h-2.285q.3.792.659,1.593h-1.986A1.059,1.059,0,0,0,388.47,487.632Z" transform="translate(-379.508 -418.299)" fill="#f9ce55"/>
    </g>
    <path id="Path_2299" data-name="Path 2299" d="M108.236,125.525l-.077,0a6.955,6.955,0,0,1-6-3.463,1.413,1.413,0,1,1,2.454-1.4,4.154,4.154,0,0,0,3.7,2.042,1.413,1.413,0,0,1-.074,2.825Z" transform="matrix(0.875, -0.485, 0.485, 0.875, 553.47, 1669.678)" fill="#fff"/>
    <path id="Path_2300" data-name="Path 2300" d="M106.647,124.847l-.057,0a5.118,5.118,0,0,1-4.48-3.042,1.366,1.366,0,0,1,.393-1.694.974.974,0,0,1,1.439.462,3.04,3.04,0,0,0,2.76,1.794,1.184,1.184,0,0,1,1,1.306A1.148,1.148,0,0,1,106.647,124.847Z" transform="matrix(0.799, -0.602, 0.602, 0.799, 548.134, 1692.098)" fill="#fff"/>
    <g id="_003-way" data-name="003-way" transform="translate(1155 1678.647)">
      <path id="Path_2194" data-name="Path 2194" d="M25.808,218.917c4.875,0,8.851-1.878,8.851-4.181s-3.976-4.181-8.851-4.181-8.851,1.878-8.851,4.181S20.933,218.917,25.808,218.917Zm0,0" transform="translate(-14.627 -181.623)" fill="#fec96b" fill-rule="evenodd"/>
      <path id="Path_2195" data-name="Path 2195" d="M19.807,10a9.811,9.811,0,0,1,8.982,13.749l-8.982,17.99-8.982-17.99A9.811,9.811,0,0,1,19.807,10Zm0,0" transform="translate(-8.626 -8.626)" fill="#f841a2" fill-rule="evenodd"/>
      <path id="Path_2196" data-name="Path 2196" d="M54.577,58.846a4.269,4.269,0,1,0-4.268-4.269A4.277,4.277,0,0,0,54.577,58.846Zm0,0" transform="translate(-43.396 -43.396)" fill="#fff" fill-rule="evenodd"/>
      <path id="Path_2197" data-name="Path 2197" d="M301.8,280.367c4.875,0,8.851-1.879,8.851-4.181S306.676,272,301.8,272s-8.851,1.878-8.851,4.181S296.926,280.367,301.8,280.367Zm0,0" transform="translate(-252.695 -234.628)" fill="#95ce59" fill-rule="evenodd"/>
      <path id="Path_2198" data-name="Path 2198" d="M137.406,449.5c4.875,0,8.851-1.879,8.851-4.181s-3.976-4.181-8.851-4.181-8.851,1.879-8.851,4.181S132.53,449.5,137.406,449.5Zm0,0" transform="translate(-110.89 -380.524)" fill="#0cc8be" fill-rule="evenodd"/>
      <path id="Path_2199" data-name="Path 2199" d="M51.594,45.951a5.643,5.643,0,1,0-5.643,5.642A5.649,5.649,0,0,0,51.594,45.951Zm-8.537,0a2.894,2.894,0,1,1,2.894,2.894A2.9,2.9,0,0,1,43.057,45.951Zm0,0" transform="translate(-34.77 -34.77)" fill-rule="evenodd"/>
      <path id="Path_2200" data-name="Path 2200" d="M263.386,262c-3.541,0-6.551.882-8.37,2.284l-4.928-1.1a1.374,1.374,0,1,0-.6,2.682l3.777.841a3.394,3.394,0,0,0-.108.845c0,1.867,1.528,3.462,3.976,4.458l-2.2,2.264a1.374,1.374,0,0,0,1.971,1.916l3.251-3.345a19.415,19.415,0,0,0,3.228.262c5.829,0,10.225-2.389,10.225-5.555S269.215,262,263.386,262Zm0,8.363c-4.495,0-7.477-1.69-7.477-2.807a1.169,1.169,0,0,1,.379-.756,1.189,1.189,0,0,0,.12-.119c1.026-.958,3.565-1.932,6.978-1.932,4.495,0,7.477,1.69,7.477,2.807S267.881,270.367,263.386,270.367Zm0,0" transform="translate(-214.281 -226.002)" fill-rule="evenodd"/>
      <path id="Path_2201" data-name="Path 2201" d="M135.029,410.28l2.2-2.264a1.374,1.374,0,0,0-1.971-1.915l-3.251,3.344a19.415,19.415,0,0,0-3.228-.262c-5.829,0-10.225,2.389-10.225,5.555s4.4,5.555,10.225,5.555,10.225-2.389,10.225-5.555C139.005,412.871,137.477,411.275,135.029,410.28Zm-6.249,7.265c-4.495,0-7.477-1.69-7.477-2.807s2.982-2.807,7.477-2.807,7.477,1.69,7.477,2.807S133.275,417.545,128.78,417.545Zm0,0" transform="translate(-102.264 -349.939)" fill-rule="evenodd"/>
      <path id="Path_2202" data-name="Path 2202" d="M24.479,37.482a1.374,1.374,0,1,0,.6-2.682L21.3,33.958a3.366,3.366,0,0,0,.108-.845c0-2.575-2.864-4.314-6.145-5.1l6.131-12.28.028-.061A11.182,11.182,0,1,0,0,11.181a11.1,11.1,0,0,0,.941,4.495c.009.02.018.041.028.061L7.107,28.029c-3.289.8-6.151,2.54-6.151,5.084,0,3.167,4.4,5.555,10.225,5.555,3.541,0,6.551-.882,8.37-2.284Zm-21.73-26.3a8.433,8.433,0,1,1,16.17,3.359l-7.737,15.5L3.444,14.54A8.364,8.364,0,0,1,2.748,11.181ZM3.7,33.113c0-.722,1.79-1.977,4.668-2.55l1.58,3.164a1.374,1.374,0,0,0,2.459,0l1.583-3.172c2.911.552,4.664,1.8,4.664,2.558a1.174,1.174,0,0,1-.382.758,1.362,1.362,0,0,0-.119.118c-1.026.958-3.565,1.931-6.977,1.931C6.686,35.92,3.7,34.231,3.7,33.113Zm0,0" fill-rule="evenodd"/>
      <path id="Path_2203" data-name="Path 2203" d="M266.538,377a1.374,1.374,0,1,0,1.374,1.374A1.376,1.376,0,0,0,266.538,377Zm0,0" transform="translate(-228.728 -325.2)" fill-rule="evenodd"/>
      <path id="Path_2204" data-name="Path 2204" d="M210.741,264.455a1.374,1.374,0,1,0-1.374-1.374A1.377,1.377,0,0,0,210.741,264.455Zm0,0" transform="translate(-180.598 -225.746)" fill-rule="evenodd"/>
    </g>
    <g id="Group_282" data-name="Group 282" transform="translate(1393.19 1789.573)">
      <path id="Path_2277" data-name="Path 2277" d="M221.358,175.5h-6.569v-4.171h6.569a2.085,2.085,0,0,1,0,4.171Zm0,0" transform="translate(-192.371 -163.772)" fill="#d74947"/>
      <path id="Path_2281" data-name="Path 2281" d="M26.485,118.8l.082,0-8.216-12.406H0v15.119H22.627Zm0,0" transform="translate(0 -105.613)" fill="#70a5f3"/>
      <path id="Path_2282" data-name="Path 2282" d="M26.485,225.26l-3.858,2.711H0V244.55H25.651a3.128,3.128,0,0,0,3.128-3.128V228.6l-2.211-3.339Zm0,0" transform="translate(0 -212.07)" fill="#d74947"/>
      <path id="Path_2283" data-name="Path 2283" d="M151.742,295.1h-6.048a1.835,1.835,0,0,1-.363-3.634l5.928-1.2a2.44,2.44,0,1,1,.483,4.832Zm0,0" transform="translate(-128.844 -270.248)" fill="#fcbe57"/>
      <path id="Path_2284" data-name="Path 2284" d="M146.451,419.9a4.588,4.588,0,0,0,4.588-4.588V410.1h-9.176v5.214A4.588,4.588,0,0,0,146.451,419.9Zm0,0" transform="translate(-127.056 -377.617)" fill="#3e313d"/>
      <path id="Path_2285" data-name="Path 2285" d="M25.651,362.277H0v2.189H25.651a3.128,3.128,0,0,0,3.128-3.128v-2.19A3.128,3.128,0,0,1,25.651,362.277Zm0,0" transform="translate(0 -331.986)" fill="#ce3636"/>
      <path id="Path_2286" data-name="Path 2286" d="M141.863,410.1h9.176v2.085h-9.176Zm0,0" transform="translate(-127.056 -377.617)" fill="#332533"/>
      <path id="Path_2290" data-name="Path 2290" d="M145.032,289.172a3.222,3.222,0,1,0-.638-6.38l-5.928,1.2a2.617,2.617,0,0,0,.518,5.183Zm-7.1-2.617a1.056,1.056,0,0,1,.845-1.032l5.928-1.2a1.688,1.688,0,0,1,.331-.033,1.658,1.658,0,0,1,0,3.316h-6.048A1.055,1.055,0,0,1,137.931,286.554Zm0,0" transform="translate(-122.134 -263.541)"/>
      <path id="Path_2291" data-name="Path 2291" d="M0,300.039H11.47V301.6H0Zm0,0" transform="translate(0 -279.046)"/>
      <path id="Path_2292" data-name="Path 2292" d="M0,331.676H11.47v1.564H0Zm0,0" transform="translate(0 -307.38)"/>
      <path id="Path_2293" data-name="Path 2293" d="M0,362.645H11.47v1.564H0Zm0,0" transform="translate(0 -335.117)"/>
      <path id="Path_2294" data-name="Path 2294" d="M28.988,105.68H23.26L18.772,98.9H0v1.564H17.932L25.47,111.85l-3.091,2.172H0v1.564H22.874l3.46-2.431L28,115.665v12.59a2.349,2.349,0,0,1-2.346,2.346H0v1.564H14.024V136.6a5.37,5.37,0,0,0,10.74,0v-4.431h.886a3.915,3.915,0,0,0,3.91-3.91V115.194l-2.5-3.779h1.929a2.867,2.867,0,1,0,0-5.735ZM23.2,136.6a3.806,3.806,0,1,1-7.612,0v-4.431H23.2Zm5.787-26.746H26.022L24.3,107.244h4.692a1.3,1.3,0,0,1,0,2.607Zm0,0" transform="translate(0 -98.902)"/>
      <path id="Path_2297" data-name="Path 2297" d="M226.777,367.641h1.564V369.2h-1.564Zm0,0" transform="translate(-203.108 -339.591)" fill="#fff"/>
    </g>
    <g id="Group_283" data-name="Group 283" transform="translate(1368 1789.573)">
      <path id="Path_2277-2" data-name="Path 2277" d="M216.875,175.5h6.569v-4.171h-6.569a2.085,2.085,0,1,0,0,4.171Zm0,0" transform="translate(-214.007 -163.772)" fill="#d74947"/>
      <path id="Path_2281-2" data-name="Path 2281" d="M.082,118.8,0,118.8l8.216-12.406H26.568v15.119H3.941Zm0,0" transform="translate(5.288 -105.613)" fill="#70a5f3"/>
      <path id="Path_2282-2" data-name="Path 2282" d="M2.294,225.26l3.858,2.711H28.779V244.55H3.128A3.128,3.128,0,0,1,0,241.422V228.6l2.211-3.339Zm0,0" transform="translate(3.076 -212.07)" fill="#d74947"/>
      <path id="Path_2283-2" data-name="Path 2283" d="M146.3,295.1h6.048a1.835,1.835,0,0,0,.363-3.634l-5.928-1.2a2.44,2.44,0,1,0-.483,4.832Zm0,0" transform="translate(-137.343 -270.248)" fill="#fcbe57"/>
      <path id="Path_2284-2" data-name="Path 2284" d="M146.451,419.9a4.588,4.588,0,0,1-4.588-4.588V410.1h9.176v5.214A4.588,4.588,0,0,1,146.451,419.9Zm0,0" transform="translate(-133.991 -377.617)" fill="#3e313d"/>
      <path id="Path_2285-2" data-name="Path 2285" d="M3.128,362.277H28.779v2.189H3.128A3.128,3.128,0,0,1,0,361.338v-2.19A3.128,3.128,0,0,0,3.128,362.277Zm0,0" transform="translate(3.076 -331.986)" fill="#ce3636"/>
      <path id="Path_2286-2" data-name="Path 2286" d="M151.039,410.1h-9.176v2.085h9.176Zm0,0" transform="translate(-133.991 -377.617)" fill="#332533"/>
      <path id="Path_2290-2" data-name="Path 2290" d="M139.589,289.172a3.222,3.222,0,1,1,.638-6.38l5.928,1.2a2.617,2.617,0,0,1-.518,5.183Zm7.1-2.617a1.056,1.056,0,0,0-.845-1.032l-5.928-1.2a1.688,1.688,0,0,0-.331-.033,1.658,1.658,0,0,0,0,3.316h6.048A1.055,1.055,0,0,0,146.69,286.554Zm0,0" transform="translate(-130.632 -263.541)"/>
      <path id="Path_2291-2" data-name="Path 2291" d="M11.47,300.039H0V301.6H11.47Zm0,0" transform="translate(20.385 -279.046)"/>
      <path id="Path_2292-2" data-name="Path 2292" d="M11.47,331.676H0v1.564H11.47Zm0,0" transform="translate(20.385 -307.38)"/>
      <path id="Path_2293-2" data-name="Path 2293" d="M11.47,362.645H0v1.564H11.47Zm0,0" transform="translate(20.385 -335.117)"/>
      <path id="Path_2294-2" data-name="Path 2294" d="M2.867,105.68H8.595L13.083,98.9H31.855v1.564H13.923L6.385,111.85l3.091,2.172h22.38v1.564H8.981l-3.46-2.431-1.663,2.51v12.59A2.349,2.349,0,0,0,6.2,130.6H31.855v1.564H17.831V136.6a5.37,5.37,0,0,1-10.74,0v-4.431H6.2a3.915,3.915,0,0,1-3.91-3.91V115.194l2.5-3.779H2.867a2.867,2.867,0,1,1,0-5.735ZM8.655,136.6a3.806,3.806,0,1,0,7.612,0v-4.431H8.655ZM2.867,109.851H5.833l1.726-2.607H2.867a1.3,1.3,0,0,0,0,2.607Zm0,0" transform="translate(0 -98.902)"/>
      <path id="Path_2305" data-name="Path 2305" d="M34.624,146.8l1.106-1.106-3.244-3.244-1.106,1.106Zm-4.35-4.35,1.106-1.106-1.106-1.106-1.106,1.106Zm0,0" transform="translate(2.938 -135.92)" fill="#fff"/>
      <path id="Path_2296" data-name="Path 2296" d="M88.574,146.8l1.106-1.106-3.244-3.244-1.106,1.106Zm-4.35-4.35,1.106-1.106-1.106-1.106-1.106,1.106Zm0,0" transform="translate(-66.499 -135.92)" fill="#fff"/>
      <path id="Path_2297-2" data-name="Path 2297" d="M228.342,367.641h-1.564V369.2h1.564Zm0,0" transform="translate(-220.156 -339.591)" fill="#fff"/>
    </g>
  </g>
</svg>
