<svg xmlns="http://www.w3.org/2000/svg" xmlns:xlink="http://www.w3.org/1999/xlink" width="773" height="704.5" viewBox="0 0 773 704.5">
  <defs>
    <filter id="Ellipse_76" x="10.5" y="142" width="225" height="225" filterUnits="userSpaceOnUse">
      <feOffset dx="-10" dy="5" input="SourceAlpha"/>
      <feGaussianBlur stdDeviation="7.5" result="blur"/>
      <feFlood flood-opacity="0.263"/>
      <feComposite operator="in" in2="blur"/>
      <feComposite in="SourceGraphic"/>
    </filter>
    <filter id="Ellipse_80" x="513.5" y="142" width="225" height="225" filterUnits="userSpaceOnUse">
      <feOffset dx="-10" dy="5" input="SourceAlpha"/>
      <feGaussianBlur stdDeviation="7.5" result="blur-2"/>
      <feFlood flood-opacity="0.263"/>
      <feComposite operator="in" in2="blur-2"/>
      <feComposite in="SourceGraphic"/>
    </filter>
    <filter id="Ellipse_77" x="279.5" y="0" width="225.478" height="225.478" filterUnits="userSpaceOnUse">
      <feOffset dx="-10" dy="5" input="SourceAlpha"/>
      <feGaussianBlur stdDeviation="7.5" result="blur-3"/>
      <feFlood flood-opacity="0.263"/>
      <feComposite operator="in" in2="blur-3"/>
      <feComposite in="SourceGraphic"/>
    </filter>
    <filter id="Ellipse_81" x="430.403" y="436.111" width="225.478" height="225.478" filterUnits="userSpaceOnUse">
      <feOffset dx="-10" dy="5" input="SourceAlpha"/>
      <feGaussianBlur stdDeviation="7.5" result="blur-4"/>
      <feFlood flood-opacity="0.263"/>
      <feComposite operator="in" in2="blur-4"/>
      <feComposite in="SourceGraphic"/>
    </filter>
    <filter id="Ellipse_83" x="76.5" y="439" width="226" height="225" filterUnits="userSpaceOnUse">
      <feOffset dx="-10" dy="5" input="SourceAlpha"/>
      <feGaussianBlur stdDeviation="7.5" result="blur-5"/>
      <feFlood flood-opacity="0.263"/>
      <feComposite operator="in" in2="blur-5"/>
      <feComposite in="SourceGraphic"/>
    </filter>
  </defs>
  <g id="Group_304" data-name="Group 304" transform="translate(2780 -1330.5)">
    <text id="Understanding_the_Customer" data-name="Understanding the Customer" transform="translate(-2780 1726)" fill="#161616" font-size="19" font-family="Mont-Bold, Mont" font-weight="700"><tspan x="0" y="0">Understanding the Customer</tspan></text>
    <text id="Assigning_a_Travel_Manager" data-name="Assigning a Travel Manager" transform="translate(-2276 1757)" fill="#161616" font-size="19" font-family="Mont-Bold, Mont" font-weight="700"><tspan x="0" y="0">Assigning a Travel Manager</tspan></text>
    <text id="Pick-up_at_Door_to_Drop_at_Door" data-name="Pick-up at Door to Drop at Door" transform="translate(-2701 2029)" fill="#161616" font-size="19" font-family="Mont-Bold, Mont" font-weight="700"><tspan x="0" y="0">Pick-up at Door to Drop at Door</tspan></text>
    <text id="Designing_the_Tour_Experience_for_the_Guest" data-name="Designing the
Tour Experience for the Guest" transform="translate(-2394 1593)" fill="#161616" font-size="19" font-family="Mont-Bold, Mont" font-weight="700"><tspan x="-66.574" y="0">Designing the</tspan><tspan x="-141.396" y="23">Tour Experience for the Guest</tspan></text>
    <text id="Re-routing_when_required" data-name="Re-routing when required" transform="translate(-2222 2029)" fill="#161616" font-size="19" font-family="Mont-Bold, Mont" font-weight="700"><tspan x="-123.444" y="0">Re-routing when required</tspan></text>
    <g id="Group_300" data-name="Group 300">
      <path id="Union_58" data-name="Union 58" d="M0,109.886A98.036,98.036,0,0,1,145.618,24.2l16.689-13.515L153.655,0l71.495,2.086L212.325,72.45,203.781,61.9,189.14,73.755A98.019,98.019,0,1,1,0,109.886Z" transform="translate(-2745.234 1470.098)" fill="none" stroke="#7750a6" stroke-width="3"/>
      <g transform="matrix(1, 0, 0, 1, -2780, 1330.5)" filter="url(#Ellipse_76)">
        <circle id="Ellipse_76-2" data-name="Ellipse 76" cx="90" cy="90" r="90" transform="translate(43 159.5)" fill="#fff"/>
      </g>
      <g id="_002-deal" data-name="002-deal" transform="translate(-2771 1362.667)">
        <g id="Group_267" data-name="Group 267" transform="translate(84 107.535)">
          <path id="Path_2193" data-name="Path 2193" d="M77.008,88.863a1.606,1.606,0,0,0-1.481-.194l-13.2,4.8a6.427,6.427,0,0,0-3.667,3.373,6.5,6.5,0,0,0-.316.912,59.822,59.822,0,0,1-10.662-4.146c-5.4-2.783-9.97-2.427-15.206,1.509-2.105.035-5.046.288-7.932.543-1.815.16-3.53.307-4.92.392a6.476,6.476,0,0,0-4.258-5.821l-13.2-4.8A1.618,1.618,0,0,0,0,86.951v32.375a1.618,1.618,0,0,0,1.619,1.619H6.347a6.51,6.51,0,0,0,5.091-2.48c.644.49,1.407,1.064,2.207,1.664,1.889,1.421,3.957,2.972,4.864,3.732,6.028,5.046,13.274,10.495,14.717,11.443a11.881,11.881,0,0,0,5.623,1.827,5.943,5.943,0,0,0,3.819-1.08,5.2,5.2,0,0,0,4.056-.09,6.068,6.068,0,0,0,3-3,6.3,6.3,0,0,0,4.034-.591,5.518,5.518,0,0,0,2.63-2.648,5.086,5.086,0,0,0,3.536-1.129,5.245,5.245,0,0,0,2.121-4.8l4.106-2.272a6.485,6.485,0,0,0,5.2,2.664H76.08a1.618,1.618,0,0,0,1.619-1.619V90.189A1.619,1.619,0,0,0,77.008,88.863ZM57.963,126.019c-.549.421-1.317.655-1.658.313-.017-.017-.044-.016-.062-.032s-.046-.067-.08-.094c-1.157-.914-6.342-6.219-9.546-9.561a1.618,1.618,0,1,0-2.336,2.238c.752.785,6.79,7.073,9.206,9.272a2.235,2.235,0,0,1-1.174,1.318,2.494,2.494,0,0,1-2.523.057c-.012-.011-.03-.011-.042-.022s-.029-.042-.049-.059c-1.941-1.551-6.812-6.726-7.913-7.925a1.619,1.619,0,0,0-2.384,2.191c.053.058,4.826,5.206,7.507,7.6A2.845,2.845,0,0,1,45.418,133a2.113,2.113,0,0,1-2.211-.33c-2.325-1.971-6.99-6.937-7.907-7.919a1.618,1.618,0,0,0-2.365,2.21c1.088,1.164,4.3,4.572,6.747,6.88a7,7,0,0,1-.832.052,8.9,8.9,0,0,1-3.844-1.3c-1.135-.746-8.261-6.064-14.415-11.217-.931-.781-3.056-2.379-5-3.84-1.042-.782-2-1.5-2.71-2.048l6.061-16.164c1.573-.069,3.671-.25,5.89-.446,1.255-.111,2.512-.219,3.713-.312-1.846,1.894-4.59,5.289-4.228,8.47a4.666,4.666,0,0,0,2.294,3.489,5.167,5.167,0,0,0,2.779.714A9.711,9.711,0,0,0,36.51,107.9a11.246,11.246,0,0,0,3.672-1.165c1.9,1.783,4.44,3.879,7.112,6.081,4.651,3.832,9.923,8.176,11.317,10.612A1.951,1.951,0,0,1,57.963,126.019Z" fill="#4962ab"/>
        </g>
      </g>
    </g>
    <g id="Group_301" data-name="Group 301">
      <g id="Group_295" data-name="Group 295">
        <path id="Union_60" data-name="Union 60" d="M0,109.886A98.036,98.036,0,0,1,145.618,24.2l16.689-13.515L153.655,0l71.495,2.086L212.325,72.45,203.781,61.9,189.14,73.755A98.019,98.019,0,1,1,0,109.886Z" transform="translate(-2018.158 1656.536) rotate(163)" fill="none" stroke="#0ba2a7" stroke-width="3"/>
        <g transform="matrix(1, 0, 0, 1, -2780, 1330.5)" filter="url(#Ellipse_80)">
          <circle id="Ellipse_80-2" data-name="Ellipse 80" cx="90" cy="90" r="90" transform="translate(546 159.5)" fill="#fff"/>
        </g>
      </g>
      <g id="Group_293" data-name="Group 293" transform="translate(-7)">
        <path id="Path_2308" data-name="Path 2308" d="M248.8,382.752a1.061,1.061,0,0,1-1.061,1.061h-3.677a1.061,1.061,0,0,1-.941-1.551q.564-1.089,1.009-2.165a27.7,27.7,0,0,0,1.637-15.472,1.061,1.061,0,0,1,2.09-.369,29.853,29.853,0,0,1-1.442,15.842q-.3.792-.661,1.593h1.985A1.059,1.059,0,0,1,248.8,382.752Z" transform="translate(-2386.811 1234.187)" fill="#fcd2be"/>
        <path id="Path_2309" data-name="Path 2309" d="M198.5,382.734a1.061,1.061,0,0,1-1.061,1.061H193.76a1.061,1.061,0,0,1-.941-1.551q.567-1.089,1.01-2.165a27.693,27.693,0,0,0,1.634-15.475,1.061,1.061,0,0,1,2.09-.371,29.837,29.837,0,0,1-1.44,15.846q-.3.791-.661,1.593h1.986A1.06,1.06,0,0,1,198.5,382.734Z" transform="translate(-2343.427 1234.205)" fill="#fcd2be"/>
        <path id="Path_2310" data-name="Path 2310" d="M119.767,382.752a1.061,1.061,0,0,1-1.061,1.061h-3.677a1.061,1.061,0,0,1-.941-1.551q.567-1.089,1.01-2.165a27.7,27.7,0,0,0,1.636-15.472,1.061,1.061,0,0,1,2.09-.369,29.853,29.853,0,0,1-1.442,15.842q-.3.792-.661,1.593h1.985A1.059,1.059,0,0,1,119.767,382.752Z" transform="translate(-2275.521 1234.187)" fill="#fcd2be"/>
        <path id="Path_2311" data-name="Path 2311" d="M69.469,382.734a1.061,1.061,0,0,1-1.061,1.061H64.73a1.061,1.061,0,0,1-.941-1.551q.567-1.089,1.01-2.165A27.693,27.693,0,0,0,66.433,364.6a1.061,1.061,0,0,1,2.09-.371,29.837,29.837,0,0,1-1.44,15.846q-.3.791-.661,1.593h1.986A1.06,1.06,0,0,1,69.469,382.734Z" transform="translate(-2232.137 1234.205)" fill="#fcd2be"/>
        <path id="Path_2312" data-name="Path 2312" d="M190.378,194.879a43.29,43.29,0,0,1-15.055.8,27.9,27.9,0,0,1-5.177-1.085c0-18.817,7.289-27.593,7.289-27.593l1.617.178,4.7.521C184.692,178.388,190.378,194.879,190.378,194.879Z" transform="translate(-2323.975 1403.564)" fill="#00c7a9"/>
        <path id="Path_2313" data-name="Path 2313" d="M175.323,195.68a27.9,27.9,0,0,1-5.177-1.085c0-18.817,7.289-27.593,7.289-27.593l1.617.178.348.555S172.841,181.791,175.323,195.68Z" transform="translate(-2323.975 1403.564)" fill="#04af92"/>
        <path id="Path_2314" data-name="Path 2314" d="M185.948,7.589,172.364,11.8l-6.043,1.873C162.99,5.322,165.832.052,175.313.052S185.948,4.335,185.948,7.589Z" transform="translate(-2319.521 1547.561)" fill="#f9ce55"/>
        <path id="Path_2315" data-name="Path 2315" d="M172.364,11.8l-6.043,1.873C162.99,5.322,165.832.052,175.313.052,171.943,1.013,169.808,8.049,172.364,11.8Z" transform="translate(-2319.521 1547.561)" fill="#e2a11e"/>
        <path id="Path_2316" data-name="Path 2316" d="M194.342,40.94v7.508a8.894,8.894,0,0,1-17.7,1.22,2.869,2.869,0,1,1,2.974-4.738,5.988,5.988,0,0,1,1.023-2.767C182.356,39.464,186.447,36.626,194.342,40.94Z" transform="translate(-2327.915 1514.21)" fill="#fcd2be"/>
        <path id="Path_2317" data-name="Path 2317" d="M183.341,78.687a8.9,8.9,0,0,1-6.7-7.422,2.869,2.869,0,1,1,2.974-4.738,5.987,5.987,0,0,1,1.023-2.767C179.828,68.855,179.954,76.49,183.341,78.687Z" transform="translate(-2327.915 1492.613)" fill="#fab998"/>
        <g id="Group_284" data-name="Group 284" transform="translate(-2142.225 1558.047)">
          <path id="Path_2227" data-name="Path 2227" d="M255.6,79.538a1.061,1.061,0,0,1-1.061-1.061V77.006a1.061,1.061,0,1,1,2.122,0v1.471A1.061,1.061,0,0,1,255.6,79.538Z" transform="translate(-254.542 -75.945)" fill="#393a42"/>
          <path id="Path_2228" data-name="Path 2228" d="M283.421,79.538a1.061,1.061,0,0,1-1.061-1.061V77.006a1.061,1.061,0,0,1,2.122,0v1.471A1.061,1.061,0,0,1,283.421,79.538Z" transform="translate(-278.535 -75.945)" fill="#393a42"/>
        </g>
        <path id="Path_2318" data-name="Path 2318" d="M235.7,124.134l-.057,0a5.221,5.221,0,0,1-4.506-2.6,1.061,1.061,0,1,1,1.842-1.053,3.118,3.118,0,0,0,2.776,1.533,1.061,1.061,0,0,1-.055,2.121Z" transform="translate(-2376.463 1444.151)" fill="#fff"/>
        <path id="Path_2319" data-name="Path 2319" d="M39.85,7.59C40.577,4.9,40.294.053,32.8.053s-14.855.6-16.412,11.64,5.683,21.364,5.683,21.364" transform="translate(-2191.164 1547.56)" fill="#3facc9"/>
        <path id="Path_2320" data-name="Path 2320" d="M22.068,34.272l2.163-3.1C23.68,24.959,22.048,2.06,27.917,1.462c-5.582.58-10.32,2.844-11.532,11.446C14.829,23.943,22.068,34.272,22.068,34.272Z" transform="translate(-2191.165 1546.344)" fill="#369ab2"/>
        <path id="Path_2321" data-name="Path 2321" d="M61.347,194.879a43.29,43.29,0,0,1-15.055.8,27.9,27.9,0,0,1-5.177-1.085C41.115,175.779,48.4,167,48.4,167l1.617.178,4.7.521C55.661,178.388,61.347,194.879,61.347,194.879Z" transform="translate(-2212.684 1403.564)" fill="#ef4a6e"/>
        <path id="Path_2322" data-name="Path 2322" d="M46.292,195.68a27.9,27.9,0,0,1-5.177-1.085C41.115,175.778,48.4,167,48.4,167l1.617.178.348.555S43.81,181.791,46.292,195.68Z" transform="translate(-2212.684 1403.564)" fill="#d8254f"/>
        <path id="Path_2323" data-name="Path 2323" d="M64.634,228.685a4.258,4.258,0,0,1-1.762-.4,3.076,3.076,0,0,1-1.755-2.06c-.967-3.557,3.472-9.957,3.982-10.675a1.061,1.061,0,0,1,1.731,1.228h0c-1.7,2.4-4.2,6.933-3.665,8.89a.955.955,0,0,0,.578.682c1.276.574,2.135-.083,3.43-1.2.926-.8,1.883-1.626,3.116-1.525a3.116,3.116,0,0,1,2.134,1.274,1.061,1.061,0,0,1-1.63,1.359,1.3,1.3,0,0,0-.678-.518c-.341-.028-.988.527-1.555,1.016A6.213,6.213,0,0,1,64.634,228.685Z" transform="translate(-2229.817 1362.078)" fill="#fcd2be"/>
        <path id="Path_2324" data-name="Path 2324" d="M191.205,228.685a4.258,4.258,0,0,1-1.762-.4,3.076,3.076,0,0,1-1.755-2.06c-.967-3.557,3.472-9.957,3.982-10.675a1.061,1.061,0,0,1,1.731,1.228h0c-1.7,2.4-4.2,6.933-3.665,8.89a.955.955,0,0,0,.578.682c1.276.574,2.135-.083,3.43-1.2.926-.8,1.883-1.626,3.116-1.525a3.116,3.116,0,0,1,2.134,1.274,1.061,1.061,0,0,1-1.63,1.359,1.3,1.3,0,0,0-.678-.518c-.341-.028-.988.527-1.555,1.016A6.213,6.213,0,0,1,191.205,228.685Z" transform="translate(-2338.986 1362.078)" fill="#fcd2be"/>
        <path id="Path_2325" data-name="Path 2325" d="M46.529,54.04a2.873,2.873,0,0,0,1.082.682,8.895,8.895,0,0,0,17.7-1.22V45.994s-3.943.141-5.5-1.415a8.033,8.033,0,0,1-7.142,3.215h0a8.448,8.448,0,0,1-2.088-.383v2.576h0a2.868,2.868,0,0,0-4.056,4.056Z" transform="translate(-2216.629 1509.156)" fill="#fcd2be"/>
        <path id="Path_2326" data-name="Path 2326" d="M46.529,71.79a2.873,2.873,0,0,0,1.082.682,8.9,8.9,0,0,0,6.7,7.422C49.7,77.36,52.635,65.7,52.675,65.544h0a8.448,8.448,0,0,1-2.088-.383v2.576h0a2.868,2.868,0,0,0-4.056,4.056Z" transform="translate(-2216.629 1491.405)" fill="#fab998"/>
        <g id="Group_285" data-name="Group 285" transform="translate(-2159.966 1558.047)">
          <path id="Path_2239" data-name="Path 2239" d="M126.574,79.538a1.061,1.061,0,0,1-1.061-1.061V77.006a1.061,1.061,0,0,1,2.122,0v1.471A1.061,1.061,0,0,1,126.574,79.538Z" transform="translate(-125.513 -75.945)" fill="#393a42"/>
          <path id="Path_2240" data-name="Path 2240" d="M154.392,79.538a1.061,1.061,0,0,1-1.061-1.061V77.006a1.061,1.061,0,0,1,2.122,0v1.471A1.061,1.061,0,0,1,154.392,79.538Z" transform="translate(-149.506 -75.945)" fill="#393a42"/>
        </g>
        <path id="Path_2327" data-name="Path 2327" d="M106.674,124.134l-.057,0a5.221,5.221,0,0,1-4.506-2.6,1.061,1.061,0,1,1,1.842-1.053,3.118,3.118,0,0,0,2.776,1.533,1.061,1.061,0,0,1-.055,2.121Z" transform="translate(-2265.173 1444.151)" fill="#fff"/>
        <g id="Group_286" data-name="Group 286" transform="translate(-2168.469 1614.285)">
          <path id="Path_2242" data-name="Path 2242" d="M69.469,487.632a1.061,1.061,0,0,1-1.061,1.061H64.73a1.061,1.061,0,0,1-.941-1.551q.567-1.089,1.01-2.165h2.284q-.3.792-.661,1.593h1.986A1.06,1.06,0,0,1,69.469,487.632Z" transform="translate(-63.669 -484.978)" fill="#ef4a6e"/>
          <path id="Path_2243" data-name="Path 2243" d="M119.767,487.632a1.061,1.061,0,0,1-1.061,1.061h-3.677a1.061,1.061,0,0,1-.941-1.551q.567-1.089,1.01-2.165h2.284q-.3.792-.661,1.593h1.985A1.06,1.06,0,0,1,119.767,487.632Z" transform="translate(-107.052 -484.978)" fill="#ef4a6e"/>
        </g>
        <g id="Group_287" data-name="Group 287" transform="translate(-2150.728 1614.285)">
          <path id="Path_2244" data-name="Path 2244" d="M198.5,487.632a1.061,1.061,0,0,1-1.061,1.061H193.76a1.061,1.061,0,0,1-.941-1.551q.567-1.089,1.01-2.165h2.284q-.3.792-.661,1.593h1.986A1.06,1.06,0,0,1,198.5,487.632Z" transform="translate(-192.699 -484.978)" fill="#3facc9"/>
          <path id="Path_2245" data-name="Path 2245" d="M248.8,487.632a1.061,1.061,0,0,1-1.061,1.061h-3.677a1.061,1.061,0,0,1-.941-1.551q.564-1.089,1.009-2.165h2.285q-.3.792-.661,1.593h1.985A1.06,1.06,0,0,1,248.8,487.632Z" transform="translate(-236.082 -484.978)" fill="#3facc9"/>
        </g>
        <g id="Group_288" data-name="Group 288" transform="translate(-3086 -228)">
          <path id="Path_2205" data-name="Path 2205" d="M394.27,347.844a1.061,1.061,0,0,1-1.061,1.061h-3.677a1.062,1.062,0,0,1-.942-1.551c.378-.726.712-1.449,1.007-2.165a27.668,27.668,0,0,0,1.89-13.752,25.417,25.417,0,0,0-1.773-7.023,1.061,1.061,0,0,1,1.924-.9,26.966,26.966,0,0,1,1.947,7.589,29.861,29.861,0,0,1-1.7,14.082q-.3.791-.659,1.593h1.986A1.06,1.06,0,0,1,394.27,347.844Z" transform="translate(583.718 1497.095)" fill="#50515b"/>
          <path id="Path_2206" data-name="Path 2206" d="M323.411,347.839a1.062,1.062,0,0,1-1.061,1.061h-3.677a1.062,1.062,0,0,1-.942-1.551q.564-1.089,1.009-2.165a27.874,27.874,0,0,0,.116-20.774,1.061,1.061,0,1,1,1.923-.9,26.887,26.887,0,0,1,1.948,7.589,29.861,29.861,0,0,1-1.7,14.082q-.3.792-.659,1.593h1.986A1.06,1.06,0,0,1,323.411,347.839Z" transform="translate(644.835 1497.1)" fill="#50515b"/>
          <path id="Path_2211" data-name="Path 2211" d="M404.606,197.922a3.071,3.071,0,0,0-.95-.049v-1.138a1.061,1.061,0,1,0-2.122,0v1.993a7.475,7.475,0,0,0-2.34,3.654,2.448,2.448,0,0,1-2.164,1.884,4.791,4.791,0,0,1-4.053-1.895,1.061,1.061,0,1,0-1.839,1.059,6.943,6.943,0,0,0,5.578,2.973q.261,0,.52-.025a4.551,4.551,0,0,0,3.967-3.312,7.019,7.019,0,0,1,1.006-2.007l1.851.175a1.061,1.061,0,0,0,1.148-.9l.189-1.226A1.061,1.061,0,0,0,404.606,197.922Z" transform="translate(581.54 1606.835)" fill="#fcd2be"/>
          <path id="Path_2212" data-name="Path 2212" d="M321.094,190.568s-5.453,2.726-10.973,1.66a11.246,11.246,0,0,1-5.944-3.13s1.727-11.572,4.965-18.335a17.031,17.031,0,0,1,1.371-2.4l2.013.156,4.069.316c0,.566.072,1.674.221,3.118C317.319,176.891,318.7,185.787,321.094,190.568Z" transform="translate(656.422 1630.392)" fill="#f9ce55"/>
          <path id="Path_2213" data-name="Path 2213" d="M310.122,192.226a11.246,11.246,0,0,1-5.944-3.13s2.217-14.853,6.336-20.737l2.013.156.583.576C311.6,172.186,308.074,184.159,310.122,192.226Z" transform="translate(656.421 1630.393)" fill="#e2a11e"/>
          <path id="Path_2214" data-name="Path 2214" d="M318.64,31.54V42.256a8.9,8.9,0,0,1-12.582,8.1h0a8.9,8.9,0,0,1-5.123-6.875,2.869,2.869,0,1,1,2.975-4.737l.747-4.283.509-2.916Z" transform="translate(660.876 1748.402)" fill="#fcd2be"/>
          <path id="Path_2215" data-name="Path 2215" d="M306.058,68.642a8.9,8.9,0,0,1-5.123-6.875,2.869,2.869,0,1,1,2.975-4.737l.747-4.283,2.341.475C306.014,54.925,301.856,61.138,306.058,68.642Z" transform="translate(660.876 1730.11)" fill="#fab998"/>
          <path id="Path_2216" data-name="Path 2216" d="M334.337,0a7.728,7.728,0,0,1-7.728,7.728h-8.071v.717a3.089,3.089,0,0,1-3.09,3.089,2.869,2.869,0,0,0-3.057-.649V7.728A7.729,7.729,0,0,1,320.118,0Z" transform="translate(649.338 1775.605)" fill="#50515b"/>
          <path id="Path_2217" data-name="Path 2217" d="M326.425,0h-6.307a7.729,7.729,0,0,0-7.728,7.728v3.156a2.87,2.87,0,0,1,3.057.649,3.089,3.089,0,0,0,3.09-3.089V7.728h.16A7.729,7.729,0,0,1,326.425,0Z" transform="translate(649.338 1775.605)" fill="#393a42"/>
          <path id="Path_2218" data-name="Path 2218" d="M379.9,79.537a1.061,1.061,0,0,1-1.061-1.061V77.005a1.061,1.061,0,1,1,2.122,0v1.471A1.061,1.061,0,0,1,379.9,79.537Z" transform="translate(592.023 1710.103)" fill="#393a42"/>
          <path id="Path_2219" data-name="Path 2219" d="M407.72,79.537a1.061,1.061,0,0,1-1.061-1.061V77.005a1.061,1.061,0,1,1,2.122,0v1.471A1.061,1.061,0,0,1,407.72,79.537Z" transform="translate(568.03 1710.103)" fill="#393a42"/>
          <path id="Path_2220" data-name="Path 2220" d="M360,124.133l-.057,0a5.221,5.221,0,0,1-4.506-2.6,1.061,1.061,0,1,1,1.842-1.053,3.157,3.157,0,0,0,2.776,1.533,1.061,1.061,0,0,1-.055,2.121Z" transform="translate(612.328 1672.152)" fill="#fff"/>
          <path id="Path_2236" data-name="Path 2236" d="M326.008,228.685a4.258,4.258,0,0,1-1.762-.4,3.076,3.076,0,0,1-1.755-2.06c-.967-3.557,3.472-9.957,3.982-10.675a1.061,1.061,0,0,1,1.731,1.228h0c-1.7,2.4-4.2,6.933-3.665,8.89a.955.955,0,0,0,.578.682c1.276.574,2.135-.083,3.43-1.2.926-.8,1.883-1.626,3.116-1.525A3.116,3.116,0,0,1,333.8,224.9a1.061,1.061,0,0,1-1.63,1.359,1.3,1.3,0,0,0-.678-.518c-.341-.028-.988.527-1.555,1.016A6.212,6.212,0,0,1,326.008,228.685Z" transform="translate(640.745 1590.078)" fill="#fcd2be"/>
          <path id="Path_2246" data-name="Path 2246" d="M323.411,487.632a1.062,1.062,0,0,1-1.061,1.061h-3.677a1.062,1.062,0,0,1-.942-1.551q.564-1.089,1.009-2.165h2.284q-.3.792-.659,1.593h1.986A1.06,1.06,0,0,1,323.411,487.632Z" transform="translate(644.835 1357.307)" fill="#f9ce55"/>
          <path id="Path_2247" data-name="Path 2247" d="M394.27,487.632a1.061,1.061,0,0,1-1.061,1.061h-3.677a1.062,1.062,0,0,1-.942-1.551c.378-.726.712-1.449,1.007-2.165h2.285q-.3.792-.659,1.593h1.986A1.059,1.059,0,0,1,394.27,487.632Z" transform="translate(583.718 1357.307)" fill="#f9ce55"/>
        </g>
      </g>
    </g>
    <g id="Group_299" data-name="Group 299">
      <path id="Union_59" data-name="Union 59" d="M0,109.886A98.036,98.036,0,0,1,145.618,24.2l16.689-13.515L153.655,0l71.495,2.086L212.325,72.45,203.781,61.9,189.14,73.755A98.019,98.019,0,1,1,0,109.886Z" transform="translate(-2267.278 1340.343) rotate(90)" fill="none" stroke="#0cc8be" stroke-width="3"/>
      <g id="Group_298" data-name="Group 298">
        <g transform="matrix(1, 0, 0, 1, -2780, 1330.5)" filter="url(#Ellipse_77)">
          <circle id="Ellipse_77-2" data-name="Ellipse 77" cx="90.239" cy="90.239" r="90.239" transform="translate(492.48 17.5) rotate(90)" fill="#fff"/>
        </g>
        <g id="Group_297" data-name="Group 297" transform="translate(4 6.501)">
          <g id="_006-user-experience" data-name="006-user-experience" transform="translate(-2420 1396.849)">
            <path id="Path_2256" data-name="Path 2256" d="M133.444,354.19a12.009,12.009,0,0,1-7.5,2.622h0a12.007,12.007,0,0,1-7.292-2.455,22.411,22.411,0,0,0-14.766,21.066v2.148h44.806v-2.148A22.412,22.412,0,0,0,133.444,354.19Z" transform="translate(-88.48 -301.603)" fill="#f44336"/>
            <path id="Path_2257" data-name="Path 2257" d="M23.7,81.637l2.308,4.676,5.16.75L27.437,90.7l.882,5.139L23.7,93.415l-4.615,2.426L19.97,90.7l-3.734-3.64,5.16-.75Z" transform="translate(-13.829 -69.457)" fill="#fdcc15"/>
            <path id="Path_2301" data-name="Path 2301" d="M23.7,81.637l2.308,4.676,5.16.75L27.437,90.7l.882,5.139L23.7,93.415l-4.615,2.426L19.97,90.7l-3.734-3.64,5.16-.75Z" transform="translate(-3.829 -85.457)" fill="#fdcc15"/>
            <path id="Path_2303" data-name="Path 2303" d="M23.7,81.637l2.308,4.676,5.16.75L27.437,90.7l.882,5.139L23.7,93.415l-4.615,2.426L19.97,90.7l-3.734-3.64,5.16-.75Z" transform="translate(32.171 -85.457)" fill="#fdcc15"/>
            <path id="Path_2258" data-name="Path 2258" d="M172.8,169.111h-24.63a3.435,3.435,0,0,1-3.435-3.435h0a5.354,5.354,0,0,1,5.354-5.354h18.231a4.48,4.48,0,0,1,4.48,4.48v4.309Z" transform="translate(-123.275 -136.476)" fill="#d56826"/>
            <g id="Group_277" data-name="Group 277" transform="translate(29.991 2.622)">
              <path id="Path_2259" data-name="Path 2259" d="M402.491,80.368l2.308,4.676,5.16.75-3.734,3.639.882,5.139-4.615-2.426-4.615,2.426.882-5.139-3.734-3.639,5.16-.75Z" transform="translate(-366.45 -70.998)" fill="#fdcc15"/>
              <path id="Path_2260" data-name="Path 2260" d="M209.763,17.163l2.308,4.676,5.16.75-3.734,3.64.881,5.139-4.615-2.426-4.615,2.426.881-5.139-3.734-3.64,5.16-.75Z" transform="translate(-202.295 -17.163)" fill="#fdcc15"/>
            </g>
            <path id="Path_2261" data-name="Path 2261" d="M204.025,355.474a22.268,22.268,0,0,0-3.042-1.285,12.009,12.009,0,0,1-7.5,2.622h0a12.007,12.007,0,0,1-7.292-2.455,22.27,22.27,0,0,0-3.01,1.352,15.022,15.022,0,0,0,20.849-.235Z" transform="translate(-156.02 -301.602)" fill="#d32f2f"/>
            <path id="Path_2262" data-name="Path 2262" d="M183.362,242.179h0A12.063,12.063,0,0,1,171.3,230.116V219.6h24.126v10.512A12.063,12.063,0,0,1,183.362,242.179Z" transform="translate(-145.903 -186.969)" fill="#ffe0b2"/>
            <rect id="Rectangle_1195" data-name="Rectangle 1195" width="24.126" height="2.987" transform="translate(25.396 32.635)" fill="#ffcc80"/>
            <path id="Path_2263" data-name="Path 2263" d="M172.8,199.869h-24.63a3.435,3.435,0,0,1-3.435-3.435h24.63a3.435,3.435,0,0,1,3.435,3.435Z" transform="translate(-123.275 -167.234)" fill="#d15a18"/>
            <rect id="Rectangle_1196" data-name="Rectangle 1196" width="2.24" height="6.87" transform="translate(22.552 69.099)"/>
            <rect id="Rectangle_1197" data-name="Rectangle 1197" width="2.24" height="6.87" transform="translate(50.814 69.099)"/>
            <rect id="Rectangle_1198" data-name="Rectangle 1198" width="2.585" height="3.24" rx="1" transform="translate(31.255 38.959)"/>
            <rect id="Rectangle_1210" data-name="Rectangle 1210" width="2.585" height="3.24" rx="1" transform="translate(41.255 38.959)"/>
            <path id="Path_2265" data-name="Path 2265" d="M9.875,80.139l6.1,3.208-1.166-6.8,4.937-4.813-6.823-.992L9.875,64.565,6.823,70.748,0,71.739l4.937,4.813-1.166,6.8ZM4.814,73.3l3.5-.508,1.564-3.168L11.438,72.8l3.5.508L12.4,75.77l.6,3.483L9.875,77.608,6.747,79.253l.6-3.483Z" transform="translate(0 -54.916)"/>
            <path id="Path_2302" data-name="Path 2302" d="M9.875,80.139l6.1,3.208-1.166-6.8,4.937-4.813-6.823-.992L9.875,64.565,6.823,70.748,0,71.739l4.937,4.813-1.166,6.8ZM4.814,73.3l3.5-.508,1.564-3.168L11.438,72.8l3.5.508L12.4,75.77l.6,3.483L9.875,77.608,6.747,79.253l.6-3.483Z" transform="translate(10 -70.916)"/>
            <path id="Path_2304" data-name="Path 2304" d="M9.875,80.139l6.1,3.208-1.166-6.8,4.937-4.813-6.823-.992L9.875,64.565,6.823,70.748,0,71.739l4.937,4.813-1.166,6.8ZM4.814,73.3l3.5-.508,1.564-3.168L11.438,72.8l3.5.508L12.4,75.77l.6,3.483L9.875,77.608,6.747,79.253l.6-3.483Z" transform="translate(46 -70.916)"/>
            <path id="Path_2266" data-name="Path 2266" d="M398.535,70.47l-6.823-.992L388.661,63.3l-3.051,6.183-6.823.992,4.937,4.813-1.166,6.8,6.1-3.209,6.1,3.209-1.166-6.8Zm-9.875,5.869-3.128,1.644.6-3.483-2.53-2.466,3.5-.508,1.564-3.168,1.564,3.168,3.5.508-2.53,2.466.6,3.483Z" transform="translate(-322.63 -53.835)"/>
            <path id="Path_2267" data-name="Path 2267" d="M189.83,18.874l6.1-3.209,6.1,3.209-1.166-6.8,4.937-4.813-6.823-.992L195.933.091l-3.051,6.183-6.823.992L191,12.078ZM190.872,8.83l3.5-.508,1.564-3.168L197.5,8.322l3.5.508-2.53,2.466.6,3.483-3.127-1.644-3.128,1.644.6-3.483Z" transform="translate(-158.474 0)"/>
            <rect id="Rectangle_1200" data-name="Rectangle 1200" width="2.24" height="2.24" transform="translate(8.755 48.787)"/>
            <rect id="Rectangle_1201" data-name="Rectangle 1201" width="2.24" height="6.87" transform="translate(8.755 53.268)"/>
            <rect id="Rectangle_1202" data-name="Rectangle 1202" width="2.24" height="2.24" transform="translate(8.755 44.307)"/>
            <rect id="Rectangle_1203" data-name="Rectangle 1203" width="2.24" height="7.468" transform="translate(8.755 34.599)"/>
            <rect id="Rectangle_1204" data-name="Rectangle 1204" width="2.24" height="2.24" transform="translate(8.755 30.118)"/>
            <rect id="Rectangle_1205" data-name="Rectangle 1205" width="2.24" height="2.24" transform="translate(64.911 57.001)"/>
            <rect id="Rectangle_1206" data-name="Rectangle 1206" width="2.24" height="2.24" transform="translate(64.911 61.482)"/>
            <rect id="Rectangle_1207" data-name="Rectangle 1207" width="2.24" height="2.24" transform="translate(64.911 29.819)"/>
            <rect id="Rectangle_1208" data-name="Rectangle 1208" width="2.24" height="15.981" transform="translate(64.911 38.781)"/>
            <rect id="Rectangle_1209" data-name="Rectangle 1209" width="2.24" height="2.24" transform="translate(64.911 34.3)"/>
            <g id="Group_278" data-name="Group 278" transform="translate(21.199 57.321)">
              <path id="Path_2268" data-name="Path 2268" d="M316.855,392.73a16.667,16.667,0,0,0-5.191-4.671l1.119-1.941a18.888,18.888,0,0,1,5.884,5.3Z" transform="translate(-286.658 -386.118)" fill="#fff"/>
              <path id="Path_2269" data-name="Path 2269" d="M144.947,399.181l-1.954-1.1a19.252,19.252,0,0,1,5.789-6.368l1.276,1.841A17,17,0,0,0,144.947,399.181Z" transform="translate(-142.993 -390.887)" fill="#fff"/>
            </g>
          </g>
          <g id="Group_296" data-name="Group 296">
            <path id="Path_2306" data-name="Path 2306" d="M108.236,125.525l-.077,0a6.955,6.955,0,0,1-6-3.463,1.413,1.413,0,1,1,2.454-1.4,4.154,4.154,0,0,0,3.7,2.042,1.413,1.413,0,0,1-.074,2.825Z" transform="matrix(0.875, -0.485, 0.485, 0.875, -2534.53, 1388.678)" fill="#fff"/>
            <path id="Path_2307" data-name="Path 2307" d="M106.647,124.847l-.057,0a5.118,5.118,0,0,1-4.48-3.042,1.366,1.366,0,0,1,.393-1.694.974.974,0,0,1,1.439.462,3.04,3.04,0,0,0,2.76,1.794,1.184,1.184,0,0,1,1,1.306A1.148,1.148,0,0,1,106.647,124.847Z" transform="matrix(0.799, -0.602, 0.602, 0.799, -2539.866, 1411.098)" fill="#fff"/>
          </g>
        </g>
      </g>
    </g>
    <g id="Group_303" data-name="Group 303">
      <path id="Union_61" data-name="Union 61" d="M0,109.886A98.036,98.036,0,0,1,145.618,24.2l16.689-13.515L153.655,0l71.495,2.086L212.325,72.45,203.781,61.9,189.14,73.755A98.019,98.019,0,1,1,0,109.886Z" transform="translate(-2214.569 2021.682) rotate(-143)" fill="none" stroke="#95ce59" stroke-width="3"/>
      <g transform="matrix(1, 0, 0, 1, -2780, 1330.5)" filter="url(#Ellipse_81)">
        <circle id="Ellipse_81-2" data-name="Ellipse 81" cx="90.239" cy="90.239" r="90.239" transform="translate(643.38 453.61) rotate(90)" fill="#fff"/>
      </g>
      <g id="_003-way" data-name="003-way" transform="translate(-2251 1833.647)">
        <path id="Path_2194" data-name="Path 2194" d="M25.808,218.917c4.875,0,8.851-1.878,8.851-4.181s-3.976-4.181-8.851-4.181-8.851,1.878-8.851,4.181S20.933,218.917,25.808,218.917Zm0,0" transform="translate(-14.627 -181.623)" fill="#fec96b" fill-rule="evenodd"/>
        <path id="Path_2195" data-name="Path 2195" d="M19.807,10a9.811,9.811,0,0,1,8.982,13.749l-8.982,17.99-8.982-17.99A9.811,9.811,0,0,1,19.807,10Zm0,0" transform="translate(-8.626 -8.626)" fill="#f841a2" fill-rule="evenodd"/>
        <path id="Path_2196" data-name="Path 2196" d="M54.577,58.846a4.269,4.269,0,1,0-4.268-4.269A4.277,4.277,0,0,0,54.577,58.846Zm0,0" transform="translate(-43.396 -43.396)" fill="#fff" fill-rule="evenodd"/>
        <path id="Path_2197" data-name="Path 2197" d="M301.8,280.367c4.875,0,8.851-1.879,8.851-4.181S306.676,272,301.8,272s-8.851,1.878-8.851,4.181S296.926,280.367,301.8,280.367Zm0,0" transform="translate(-252.695 -234.628)" fill="#95ce59" fill-rule="evenodd"/>
        <path id="Path_2198" data-name="Path 2198" d="M137.406,449.5c4.875,0,8.851-1.879,8.851-4.181s-3.976-4.181-8.851-4.181-8.851,1.879-8.851,4.181S132.53,449.5,137.406,449.5Zm0,0" transform="translate(-110.89 -380.524)" fill="#0cc8be" fill-rule="evenodd"/>
        <path id="Path_2199" data-name="Path 2199" d="M51.594,45.951a5.643,5.643,0,1,0-5.643,5.642A5.649,5.649,0,0,0,51.594,45.951Zm-8.537,0a2.894,2.894,0,1,1,2.894,2.894A2.9,2.9,0,0,1,43.057,45.951Zm0,0" transform="translate(-34.77 -34.77)" fill-rule="evenodd"/>
        <path id="Path_2200" data-name="Path 2200" d="M263.386,262c-3.541,0-6.551.882-8.37,2.284l-4.928-1.1a1.374,1.374,0,1,0-.6,2.682l3.777.841a3.394,3.394,0,0,0-.108.845c0,1.867,1.528,3.462,3.976,4.458l-2.2,2.264a1.374,1.374,0,0,0,1.971,1.916l3.251-3.345a19.415,19.415,0,0,0,3.228.262c5.829,0,10.225-2.389,10.225-5.555S269.215,262,263.386,262Zm0,8.363c-4.495,0-7.477-1.69-7.477-2.807a1.169,1.169,0,0,1,.379-.756,1.189,1.189,0,0,0,.12-.119c1.026-.958,3.565-1.932,6.978-1.932,4.495,0,7.477,1.69,7.477,2.807S267.881,270.367,263.386,270.367Zm0,0" transform="translate(-214.281 -226.002)" fill-rule="evenodd"/>
        <path id="Path_2201" data-name="Path 2201" d="M135.029,410.28l2.2-2.264a1.374,1.374,0,0,0-1.971-1.915l-3.251,3.344a19.415,19.415,0,0,0-3.228-.262c-5.829,0-10.225,2.389-10.225,5.555s4.4,5.555,10.225,5.555,10.225-2.389,10.225-5.555C139.005,412.871,137.477,411.275,135.029,410.28Zm-6.249,7.265c-4.495,0-7.477-1.69-7.477-2.807s2.982-2.807,7.477-2.807,7.477,1.69,7.477,2.807S133.275,417.545,128.78,417.545Zm0,0" transform="translate(-102.264 -349.939)" fill-rule="evenodd"/>
        <path id="Path_2202" data-name="Path 2202" d="M24.479,37.482a1.374,1.374,0,1,0,.6-2.682L21.3,33.958a3.366,3.366,0,0,0,.108-.845c0-2.575-2.864-4.314-6.145-5.1l6.131-12.28.028-.061A11.182,11.182,0,1,0,0,11.181a11.1,11.1,0,0,0,.941,4.495c.009.02.018.041.028.061L7.107,28.029c-3.289.8-6.151,2.54-6.151,5.084,0,3.167,4.4,5.555,10.225,5.555,3.541,0,6.551-.882,8.37-2.284Zm-21.73-26.3a8.433,8.433,0,1,1,16.17,3.359l-7.737,15.5L3.444,14.54A8.364,8.364,0,0,1,2.748,11.181ZM3.7,33.113c0-.722,1.79-1.977,4.668-2.55l1.58,3.164a1.374,1.374,0,0,0,2.459,0l1.583-3.172c2.911.552,4.664,1.8,4.664,2.558a1.174,1.174,0,0,1-.382.758,1.362,1.362,0,0,0-.119.118c-1.026.958-3.565,1.931-6.977,1.931C6.686,35.92,3.7,34.231,3.7,33.113Zm0,0" fill-rule="evenodd"/>
        <path id="Path_2203" data-name="Path 2203" d="M266.538,377a1.374,1.374,0,1,0,1.374,1.374A1.376,1.376,0,0,0,266.538,377Zm0,0" transform="translate(-228.728 -325.2)" fill-rule="evenodd"/>
        <path id="Path_2204" data-name="Path 2204" d="M210.741,264.455a1.374,1.374,0,1,0-1.374-1.374A1.377,1.377,0,0,0,210.741,264.455Zm0,0" transform="translate(-180.598 -225.746)" fill-rule="evenodd"/>
      </g>
    </g>
    <g id="Group_302" data-name="Group 302">
      <circle id="Ellipse_82" data-name="Ellipse 82" cx="98.008" cy="98.008" r="98.008" transform="translate(-2553.371 1741.799) rotate(56)" fill="none" stroke="#fd9d32" stroke-width="3"/>
      <g transform="matrix(1, 0, 0, 1, -2780, 1330.5)" filter="url(#Ellipse_83)">
        <ellipse id="Ellipse_83-2" data-name="Ellipse 83" cx="90.5" cy="90" rx="90.5" ry="90" transform="translate(109 456.5)" fill="#fff"/>
      </g>
      <g id="Group_292" data-name="Group 292" transform="translate(8.734 -7.75)">
        <g id="Group_291" data-name="Group 291" transform="translate(-2593.743 1858.573)">
          <path id="Path_2277" data-name="Path 2277" d="M223.723,177h-8.934v-5.672h8.934a2.836,2.836,0,0,1,0,5.672Zm0,0" transform="translate(-184.302 -161.051)" fill="#d74947"/>
          <path id="Path_2281" data-name="Path 2281" d="M36.018,123.269l.112,0L24.957,106.395H0v20.561H30.771Zm0,0" transform="translate(0 -105.331)" fill="#70a5f3"/>
          <path id="Path_2282" data-name="Path 2282" d="M36.018,225.261l-5.247,3.687H0v22.546H34.883a4.254,4.254,0,0,0,4.254-4.254V229.8l-3.007-4.541Zm0,0" transform="translate(0 -207.323)" fill="#d74947"/>
          <path id="Path_2283" data-name="Path 2283" d="M154.58,296.854h-8.225a2.5,2.5,0,0,1-.494-4.942l8.062-1.628a3.318,3.318,0,1,1,.657,6.571Zm0,0" transform="translate(-123.44 -263.061)" fill="#fcbe57"/>
          <path id="Path_2284" data-name="Path 2284" d="M148.1,423.427a6.239,6.239,0,0,0,6.239-6.239V410.1H141.863v7.09A6.239,6.239,0,0,0,148.1,423.427Zm0,0" transform="translate(-121.727 -365.927)" fill="#3e313d"/>
          <path id="Path_2285" data-name="Path 2285" d="M34.883,363.4H0v2.977H34.883a4.254,4.254,0,0,0,4.254-4.254v-2.978A4.254,4.254,0,0,1,34.883,363.4Zm0,0" transform="translate(0 -322.209)" fill="#ce3636"/>
          <path id="Path_2286" data-name="Path 2286" d="M141.863,410.1h12.478v2.836H141.863Zm0,0" transform="translate(-121.727 -365.927)" fill="#332533"/>
          <path id="Path_2290" data-name="Path 2290" d="M148.151,291.491a4.382,4.382,0,1,0-.868-8.677l-8.062,1.628a3.559,3.559,0,0,0,.7,7.048Zm-9.657-3.56a1.436,1.436,0,0,1,1.149-1.4L147.7,284.9a2.293,2.293,0,0,1,.45-.045,2.255,2.255,0,0,1,0,4.51h-8.225A1.434,1.434,0,0,1,138.494,287.932Zm0,0" transform="translate(-117.011 -256.635)"/>
          <path id="Path_2291" data-name="Path 2291" d="M0,300.039H15.6v2.127H0Zm0,0" transform="translate(0 -271.49)"/>
          <path id="Path_2292" data-name="Path 2292" d="M0,331.676H15.6V333.8H0Zm0,0" transform="translate(0 -298.636)"/>
          <path id="Path_2293" data-name="Path 2293" d="M0,362.645H15.6v2.127H0Zm0,0" transform="translate(0 -325.209)"/>
          <path id="Path_2294" data-name="Path 2294" d="M39.421,108.12H31.632l-6.1-9.217H0v2.127H24.386l10.252,15.48-4.2,2.954H0v2.127H31.107l4.706-3.306,2.261,3.414v17.121a3.194,3.194,0,0,1-3.19,3.19H0v2.127H19.072v6.026a7.3,7.3,0,0,0,14.606,0v-6.026h1.205a5.324,5.324,0,0,0,5.317-5.318V121.058l-3.4-5.139h2.624a3.9,3.9,0,1,0,0-7.8Zm-7.87,42.044a5.176,5.176,0,1,1-10.351,0v-6.026H31.55Zm7.87-36.372H35.388l-2.348-3.545h6.38a1.773,1.773,0,0,1,0,3.545Zm0,0" transform="translate(0 -98.902)"/>
          <path id="Path_2297" data-name="Path 2297" d="M226.777,367.641H228.9v2.127h-2.127Zm0,0" transform="translate(-194.589 -329.496)" fill="#fff"/>
        </g>
        <g id="Group_289" data-name="Group 289" transform="translate(-2628 1858.573)">
          <path id="Path_2277-2" data-name="Path 2277" d="M217.625,177h8.934v-5.672h-8.934a2.836,2.836,0,1,0,0,5.672Zm0,0" transform="translate(-213.726 -161.051)" fill="#d74947"/>
          <path id="Path_2281-2" data-name="Path 2281" d="M.112,123.269l-.112,0,11.173-16.871H36.13v20.561H5.359Zm0,0" transform="translate(7.191 -105.331)" fill="#70a5f3"/>
          <path id="Path_2282-2" data-name="Path 2282" d="M3.119,225.261l5.247,3.687H39.137v22.546H4.254A4.254,4.254,0,0,1,0,247.24V229.8l3.007-4.541Zm0,0" transform="translate(4.183 -207.323)" fill="#d74947"/>
          <path id="Path_2283-2" data-name="Path 2283" d="M147.178,296.854H155.4a2.5,2.5,0,0,0,.494-4.942l-8.062-1.628a3.318,3.318,0,1,0-.657,6.571Zm0,0" transform="translate(-134.997 -263.061)" fill="#fcbe57"/>
          <path id="Path_2284-2" data-name="Path 2284" d="M148.1,423.427a6.239,6.239,0,0,1-6.239-6.239V410.1h12.478v7.09A6.239,6.239,0,0,1,148.1,423.427Zm0,0" transform="translate(-131.157 -365.927)" fill="#3e313d"/>
          <path id="Path_2285-2" data-name="Path 2285" d="M4.254,363.4H39.137v2.977H4.254A4.254,4.254,0,0,1,0,362.126v-2.978A4.254,4.254,0,0,0,4.254,363.4Zm0,0" transform="translate(4.183 -322.209)" fill="#ce3636"/>
          <path id="Path_2286-2" data-name="Path 2286" d="M154.342,410.1H141.863v2.836h12.478Zm0,0" transform="translate(-131.157 -365.927)" fill="#332533"/>
          <path id="Path_2290-2" data-name="Path 2290" d="M140.748,291.491a4.382,4.382,0,1,1,.868-8.677l8.062,1.628a3.559,3.559,0,0,1-.7,7.048Zm9.657-3.56a1.436,1.436,0,0,0-1.149-1.4l-8.062-1.629a2.293,2.293,0,0,0-.45-.045,2.255,2.255,0,0,0,0,4.51h8.225A1.434,1.434,0,0,0,150.405,287.932Zm0,0" transform="translate(-128.568 -256.635)"/>
          <path id="Path_2291-2" data-name="Path 2291" d="M15.6,300.039H0v2.127H15.6Zm0,0" transform="translate(27.722 -271.49)"/>
          <path id="Path_2292-2" data-name="Path 2292" d="M15.6,331.676H0V333.8H15.6Zm0,0" transform="translate(27.722 -298.636)"/>
          <path id="Path_2293-2" data-name="Path 2293" d="M15.6,362.645H0v2.127H15.6Zm0,0" transform="translate(27.722 -325.209)"/>
          <path id="Path_2294-2" data-name="Path 2294" d="M3.9,108.12h7.789l6.1-9.217H43.32v2.127H18.934L8.683,116.51l4.2,2.954H43.32v2.127H12.213l-4.706-3.306L5.247,121.7v17.121a3.194,3.194,0,0,0,3.19,3.19H43.32v2.127H24.248v6.026a7.3,7.3,0,0,1-14.606,0v-6.026H8.437a5.324,5.324,0,0,1-5.317-5.318V121.058l3.4-5.139H3.9a3.9,3.9,0,1,1,0-7.8Zm7.87,42.044a5.176,5.176,0,1,0,10.351,0v-6.026H11.77ZM3.9,113.792H7.932l2.348-3.545H3.9a1.773,1.773,0,0,0,0,3.545Zm0,0" transform="translate(0 -98.902)"/>
          <path id="Path_2305" data-name="Path 2305" d="M36.588,149.158l1.5-1.5-4.412-4.412-1.5,1.5Zm-5.916-5.916,1.5-1.5-1.5-1.5-1.5,1.5Zm0,0" transform="translate(14.493 -134.368)" fill="#fff"/>
          <path id="Path_2296" data-name="Path 2296" d="M90.537,149.158l1.5-1.5-4.412-4.412-1.5,1.5Zm-5.916-5.916,1.5-1.5-1.5-1.5-1.5,1.5Zm0,0" transform="translate(-60.518 -134.368)" fill="#fff"/>
          <path id="Path_2297-2" data-name="Path 2297" d="M228.9,367.641h-2.127v2.127H228.9Zm0,0" transform="translate(-217.773 -329.496)" fill="#fff"/>
        </g>
      </g>
    </g>
  </g>
</svg>
