<?xml version="1.0" encoding="utf-8"?>
<!-- Generator: Adobe Illustrator 24.0.2, SVG Export Plug-In . SVG Version: 6.00 Build 0)  -->
<svg version="1.1" id="Layer_1" xmlns="http://www.w3.org/2000/svg" xmlns:xlink="http://www.w3.org/1999/xlink" x="0px" y="0px"
	 viewBox="0 0 1275 354.4" style="enable-background:new 0 0 1275 354.4;" xml:space="preserve">
<style type="text/css">
	.st0{fill:none;stroke:#7750A6;stroke-width:3;}
	.st1{fill:none;stroke:#0BA2A7;stroke-width:3;}
	.st2{fill:none;stroke:#FD9D32;stroke-width:3;}
	.st3{fill:none;stroke:#0CC8BE;stroke-width:3;}
	.st4{fill:none;stroke:#95CE59;stroke-width:3;}
	.st5{fill:#FFFFFF;}
	.st6{enable-background:new    ;}
	.st7{fill:#161616;}
	.st8{fill:#4962AB;}
	.st9{fill:#F44336;}
	.st10{fill:#FDCC15;}
	.st11{fill:#D56826;}
	.st12{fill:#D32F2F;}
	.st13{fill:#FFE0B2;}
	.st14{fill:#FFCC80;}
	.st15{fill:#D15A18;}
	.st16{fill:#FCD2BE;}
	.st17{fill:#00C7A9;}
	.st18{fill:#04AF92;}
	.st19{fill:#F9CE55;}
	.st20{fill:#E2A11E;}
	.st21{fill:#FAB998;}
	.st22{fill:#393A42;}
	.st23{fill:#3FACC9;}
	.st24{fill:#369AB2;}
	.st25{fill:#EF4A6E;}
	.st26{fill:#D8254F;}
	.st27{fill:#50515B;}
	.st28{fill-rule:evenodd;clip-rule:evenodd;fill:#FEC96B;}
	.st29{fill-rule:evenodd;clip-rule:evenodd;fill:#F841A2;}
	.st30{fill-rule:evenodd;clip-rule:evenodd;fill:#FFFFFF;}
	.st31{fill-rule:evenodd;clip-rule:evenodd;fill:#95CE59;}
	.st32{fill-rule:evenodd;clip-rule:evenodd;fill:#0CC8BE;}
	.st33{fill-rule:evenodd;clip-rule:evenodd;}
	.st34{fill:#D74947;}
	.st35{fill:#70A5F3;}
	.st36{fill:#FCBE57;}
	.st37{fill:#3E313D;}
	.st38{fill:#CE3636;}
	.st39{fill:#332533;}
</style>
<path id="Union_52" class="st0" d="M34.8,196.4c0-54.1,43.9-98,98.1-98c16.6,0,33,4.2,47.6,12.3l16.7-13.5l-8.7-10.7l71.5,2.1
	L247.2,159l-8.5-10.6l-14.6,11.9c19.9,50.3-4.7,107.3-55,127.2c-50.3,19.9-107.3-4.7-127.2-55C37.1,221,34.8,208.7,34.8,196.4z"/>
<path id="Union_54" class="st1" d="M521.2,196.4c0-54.1,43.9-98,98.1-98c16.6,0,33,4.2,47.6,12.3l16.7-13.5l-8.7-10.7l71.5,2.1
	L733.6,159l-8.5-10.6l-14.6,11.9c19.9,50.3-4.7,107.3-55,127.2c-50.3,19.9-107.3-4.7-127.2-55C523.6,221,521.2,208.7,521.2,196.4z"
	/>
<circle id="Ellipse_71" class="st2" cx="1092.5" cy="196.4" r="98"/>
<path id="Union_53" class="st3" d="M382.8,9.7c54.1,0,98,43.9,98,98.1c0,16.6-4.2,33-12.3,47.6L482,172l10.7-8.7l-2.1,71.5
	L420.2,222l10.6-8.5L419,198.9c-50.3,19.9-107.3-4.7-127.2-55c-19.9-50.3,4.7-107.3,55-127.2C358.2,12.1,370.5,9.7,382.8,9.7z"/>
<path id="Union_56" class="st4" d="M856.1,9.7c54.1,0,98,43.9,98,98.1c0,16.6-4.2,33-12.3,47.6l13.5,16.7l10.7-8.7l-2.1,71.5
	l-70.4-12.8l10.5-8.5L892.1,199c-50.3,19.9-107.3-4.7-127.2-55s4.7-107.3,55-127.2C831.5,12.1,843.8,9.7,856.1,9.7z"/>
<g transform="matrix(1, 0, 0, 1, 323, 1611.61)">
	<circle id="Ellipse_64-2" class="st5" cx="-190" cy="-1415.2" r="90"/>
</g>
<g transform="matrix(1, 0, 0, 1, 323, 1611.61)">
	<circle id="Ellipse_67-2" class="st5" cx="296" cy="-1415.2" r="90"/>
</g>
<g transform="matrix(1, 0, 0, 1, 323, 1611.61)">
	<ellipse id="Ellipse_70-2" class="st5" cx="769.5" cy="-1415.2" rx="90.5" ry="90"/>
</g>
<g transform="matrix(1, 0, 0, 1, 323, 1611.61)">
	<circle id="Ellipse_65-2" class="st5" cx="59.8" cy="-1503.9" r="90.2"/>
</g>
<g transform="matrix(1, 0, 0, 1, 323, 1611.61)">
	<circle id="Ellipse_69-2" class="st5" cx="533.1" cy="-1503.9" r="90.2"/>
</g>
<g class="st6">
	<path class="st7" d="M45.3,347.4c-0.8,0.8-1.9,1.2-3.1,1.2s-2.3-0.4-3.1-1.2c-0.8-0.8-1.2-1.8-1.2-3v-6.5h2.3v6.4
		c0,0.6,0.2,1.2,0.6,1.6c0.4,0.4,0.9,0.6,1.5,0.6s1.1-0.2,1.5-0.6c0.4-0.4,0.6-0.9,0.6-1.6v-6.4h2.3v6.5
		C46.5,345.7,46.1,346.7,45.3,347.4z"/>
	<path class="st7" d="M53.1,340.1c0.9,0,1.6,0.3,2.2,0.9c0.5,0.6,0.8,1.4,0.8,2.5v4.9h-2.2v-4.6c0-1.2-0.5-1.8-1.4-1.8
		c-0.6,0-1,0.2-1.3,0.6c-0.3,0.4-0.5,0.9-0.5,1.5v4.3h-2.2v-8.1H50l0.4,1c0.3-0.4,0.7-0.7,1.2-0.9C52.1,340.2,52.6,340.1,53.1,340.1
		z"/>
	<path class="st7" d="M64.1,337.4h2.2v11h-1.6l-0.3-0.7c-0.7,0.6-1.6,0.9-2.5,0.9c-1.2,0-2.2-0.4-3-1.2s-1.2-1.8-1.2-3.1
		c0-0.6,0.1-1.2,0.3-1.7c0.2-0.5,0.5-1,0.9-1.4c0.4-0.4,0.8-0.7,1.4-0.9c0.5-0.2,1.1-0.3,1.7-0.3c0.8,0,1.6,0.2,2.2,0.7V337.4z
		 M60.5,345.9c0.4,0.4,0.9,0.6,1.6,0.6s1.2-0.2,1.6-0.6c0.4-0.4,0.6-1,0.6-1.6c0-0.6-0.2-1.2-0.6-1.6c-0.4-0.4-0.9-0.6-1.6-0.6
		s-1.2,0.2-1.6,0.6c-0.4,0.4-0.6,1-0.6,1.6C59.8,345,60,345.5,60.5,345.9z"/>
	<path class="st7" d="M76.2,344.3c0,0.2,0,0.4,0,0.6h-6.1c0.1,0.6,0.3,1,0.7,1.3c0.3,0.3,0.8,0.4,1.3,0.4c0.4,0,0.7-0.1,1-0.3
		c0.3-0.2,0.5-0.4,0.7-0.7h2.3c-0.3,0.9-0.8,1.6-1.5,2.1c-0.7,0.5-1.6,0.8-2.5,0.8c-0.8,0-1.5-0.2-2.1-0.6c-0.6-0.4-1.1-0.9-1.5-1.5
		s-0.5-1.4-0.5-2.2c0-0.8,0.2-1.5,0.5-2.2s0.9-1.2,1.5-1.5c0.6-0.4,1.4-0.6,2.1-0.6c0.8,0,1.5,0.2,2.2,0.6c0.6,0.4,1.1,0.9,1.5,1.5
		S76.2,343.5,76.2,344.3z M72,341.9c-0.5,0-0.9,0.1-1.2,0.4s-0.6,0.6-0.7,1.1H74c-0.2-0.5-0.4-0.9-0.7-1.1
		C72.9,342.1,72.5,341.9,72,341.9z"/>
	<path class="st7" d="M81.9,340.2h0.7v2.1h-0.9c-0.6,0-1.1,0.1-1.3,0.4c-0.3,0.3-0.4,0.8-0.4,1.4v4.2h-2.2v-8.1h1.4l0.4,1
		C80.1,340.6,80.9,340.2,81.9,340.2z"/>
	<path class="st7" d="M86.7,348.6c-1,0-1.8-0.3-2.5-0.8c-0.6-0.5-0.9-1.2-0.9-2.1h2.1c0,0.3,0.1,0.6,0.4,0.8c0.2,0.2,0.6,0.3,1,0.3
		c0.3,0,0.6-0.1,0.8-0.2s0.3-0.3,0.3-0.6c0-0.1,0-0.2-0.1-0.3c-0.1-0.1-0.2-0.2-0.4-0.2c-0.2-0.1-0.3-0.1-0.5-0.2
		c-0.2,0-0.4-0.1-0.6-0.1c-0.2,0-0.4-0.1-0.6-0.1c-0.2,0-0.3-0.1-0.6-0.1s-0.4-0.1-0.6-0.2c-0.2-0.1-0.3-0.2-0.5-0.3
		c-0.2-0.1-0.3-0.3-0.4-0.4c-0.1-0.2-0.2-0.3-0.2-0.6c-0.1-0.2-0.1-0.5-0.1-0.7c0-0.8,0.3-1.4,0.9-1.9c0.6-0.5,1.4-0.7,2.4-0.7
		c1,0,1.8,0.2,2.4,0.7c0.6,0.5,0.9,1.1,0.9,2h-2.1c0-0.3-0.1-0.6-0.3-0.7c-0.2-0.2-0.5-0.2-0.9-0.2c-0.3,0-0.6,0.1-0.8,0.2
		s-0.3,0.3-0.3,0.6c0,0.1,0,0.2,0,0.2c0,0.1,0.1,0.1,0.2,0.2c0.1,0.1,0.2,0.1,0.2,0.1c0.1,0,0.2,0.1,0.3,0.1c0.1,0,0.3,0.1,0.4,0.1
		c0.1,0,0.2,0,0.4,0.1c0.8,0.1,1.4,0.3,1.7,0.4c0.9,0.4,1.3,1.1,1.3,2.1c0,0.8-0.3,1.5-0.9,2C88.5,348.4,87.7,348.6,86.7,348.6z"/>
	<path class="st7" d="M95.6,346.4h1v1.9H95c-0.9,0-1.6-0.3-2.1-0.8c-0.5-0.5-0.8-1.2-0.8-2.1V342h-1.5v-0.5l3.2-3.4h0.4v2.1h2.2v1.8
		h-2.2v3.2c0,0.4,0.1,0.7,0.3,0.9S95.2,346.4,95.6,346.4z"/>
	<path class="st7" d="M104.6,340.3h1.6v8.1h-1.7l-0.2-0.7c-0.7,0.6-1.6,1-2.6,1c-0.8,0-1.5-0.2-2.2-0.6c-0.6-0.4-1.2-0.9-1.5-1.5
		c-0.4-0.7-0.5-1.4-0.5-2.2c0-0.8,0.2-1.5,0.5-2.2c0.4-0.7,0.9-1.2,1.5-1.5c0.6-0.4,1.4-0.6,2.2-0.6c1,0,1.9,0.3,2.7,1L104.6,340.3z
		 M100.3,345.9c0.4,0.4,0.9,0.6,1.6,0.6s1.2-0.2,1.6-0.6c0.4-0.4,0.6-0.9,0.6-1.6s-0.2-1.2-0.6-1.6c-0.4-0.4-0.9-0.6-1.6-0.6
		s-1.2,0.2-1.6,0.6c-0.4,0.4-0.6,1-0.6,1.6S99.9,345.5,100.3,345.9z"/>
	<path class="st7" d="M113,340.1c0.9,0,1.6,0.3,2.2,0.9c0.5,0.6,0.8,1.4,0.8,2.5v4.9h-2.2v-4.6c0-1.2-0.5-1.8-1.4-1.8
		c-0.6,0-1,0.2-1.3,0.6c-0.3,0.4-0.5,0.9-0.5,1.5v4.3h-2.2v-8.1h1.5l0.4,1c0.3-0.4,0.7-0.7,1.2-0.9
		C111.9,340.2,112.4,340.1,113,340.1z"/>
	<path class="st7" d="M123.9,337.4h2.2v11h-1.6l-0.3-0.7c-0.7,0.6-1.6,0.9-2.5,0.9c-1.2,0-2.2-0.4-3-1.2s-1.2-1.8-1.2-3.1
		c0-0.6,0.1-1.2,0.3-1.7c0.2-0.5,0.5-1,0.9-1.4c0.4-0.4,0.8-0.7,1.4-0.9c0.5-0.2,1.1-0.3,1.7-0.3c0.8,0,1.6,0.2,2.2,0.7V337.4z
		 M120.3,345.9c0.4,0.4,0.9,0.6,1.6,0.6c0.6,0,1.2-0.2,1.6-0.6c0.4-0.4,0.6-1,0.6-1.6c0-0.6-0.2-1.2-0.6-1.6
		c-0.4-0.4-0.9-0.6-1.6-0.6c-0.6,0-1.2,0.2-1.6,0.6c-0.4,0.4-0.6,1-0.6,1.6C119.7,345,119.9,345.5,120.3,345.9z"/>
	<path class="st7" d="M128.2,339.2v-2h2.2v2H128.2z M128.2,348.4v-8.1h2.2v8.1H128.2z"/>
	<path class="st7" d="M137.1,340.1c0.9,0,1.6,0.3,2.2,0.9c0.5,0.6,0.8,1.4,0.8,2.5v4.9h-2.2v-4.6c0-1.2-0.5-1.8-1.4-1.8
		c-0.6,0-1,0.2-1.3,0.6c-0.3,0.4-0.5,0.9-0.5,1.5v4.3h-2.2v-8.1h1.5l0.4,1c0.3-0.4,0.7-0.7,1.2-0.9
		C136,340.2,136.5,340.1,137.1,340.1z"/>
	<path class="st7" d="M148.6,340.3h1.4v7.2c0,1.3-0.4,2.3-1.1,3c-0.7,0.7-1.7,1.1-3,1.1c-1.1,0-2-0.3-2.7-0.8s-1.2-1.3-1.4-2.2h2.2
		c0.1,0.3,0.4,0.6,0.7,0.8c0.4,0.2,0.8,0.3,1.2,0.3c0.6,0,1.1-0.2,1.4-0.5c0.4-0.3,0.6-0.8,0.6-1.4v-0.3c-0.7,0.5-1.5,0.7-2.3,0.7
		c-0.7,0-1.4-0.2-2-0.5c-0.6-0.4-1.1-0.8-1.5-1.5c-0.4-0.6-0.5-1.3-0.5-2.1c0-0.7,0.2-1.4,0.5-2c0.4-0.6,0.8-1.1,1.5-1.5
		c0.6-0.4,1.3-0.5,2-0.5c1,0,1.9,0.3,2.7,1L148.6,340.3z M145.8,346.2c0.6,0,1.1-0.2,1.5-0.6c0.4-0.4,0.6-0.9,0.6-1.5
		c0-0.6-0.2-1.1-0.6-1.5c-0.4-0.4-0.9-0.6-1.5-0.6c-0.6,0-1.1,0.2-1.5,0.6c-0.4,0.4-0.6,0.9-0.6,1.5c0,0.6,0.2,1.1,0.6,1.5
		C144.7,346,145.2,346.2,145.8,346.2z"/>
	<path class="st7" d="M159.4,346.4h1v1.9h-1.6c-0.9,0-1.6-0.3-2.1-0.8c-0.5-0.5-0.8-1.2-0.8-2.1V342h-1.5v-0.5l3.2-3.4h0.4v2.1h2.2
		v1.8h-2.2v3.2c0,0.4,0.1,0.7,0.3,0.9S159,346.4,159.4,346.4z"/>
	<path class="st7" d="M166.6,340.1c0.9,0,1.6,0.3,2.2,0.9c0.5,0.6,0.8,1.4,0.8,2.5v4.9h-2.2v-4.6c0-0.6-0.1-1.1-0.3-1.4
		c-0.2-0.3-0.6-0.4-1.1-0.4c-0.6,0-1,0.2-1.3,0.6c-0.3,0.4-0.5,0.9-0.5,1.5v4.3h-2.2v-11h2.2v3.7
		C164.8,340.4,165.6,340.1,166.6,340.1z"/>
	<path class="st7" d="M179.4,344.3c0,0.2,0,0.4,0,0.6h-6.1c0.1,0.6,0.3,1,0.7,1.3c0.3,0.3,0.8,0.4,1.3,0.4c0.4,0,0.7-0.1,1-0.3
		c0.3-0.2,0.5-0.4,0.7-0.7h2.3c-0.3,0.9-0.8,1.6-1.5,2.1c-0.7,0.5-1.6,0.8-2.5,0.8c-0.8,0-1.5-0.2-2.1-0.6c-0.6-0.4-1.1-0.9-1.5-1.5
		s-0.5-1.4-0.5-2.2c0-0.8,0.2-1.5,0.5-2.2c0.4-0.7,0.9-1.2,1.5-1.5c0.6-0.4,1.4-0.6,2.2-0.6c0.8,0,1.5,0.2,2.2,0.6
		c0.6,0.4,1.1,0.9,1.5,1.5S179.4,343.5,179.4,344.3z M175.2,341.9c-0.5,0-0.9,0.1-1.2,0.4c-0.3,0.3-0.6,0.6-0.7,1.1h3.9
		c-0.2-0.5-0.4-0.9-0.7-1.1C176.1,342.1,175.7,341.9,175.2,341.9z"/>
	<path class="st7" d="M189.5,348.6c-0.8,0-1.5-0.1-2.1-0.4c-0.7-0.3-1.2-0.7-1.7-1.1c-0.5-0.5-0.9-1.1-1.1-1.7
		c-0.3-0.7-0.4-1.4-0.4-2.2c0-0.8,0.1-1.5,0.4-2.2s0.7-1.3,1.1-1.7c0.5-0.5,1.1-0.9,1.7-1.1c0.7-0.3,1.4-0.4,2.1-0.4
		c1.3,0,2.4,0.4,3.3,1.2c0.9,0.8,1.5,1.8,1.8,3h-2.3c-0.2-0.6-0.6-1.1-1.1-1.5c-0.5-0.4-1.1-0.5-1.7-0.5c-0.9,0-1.6,0.3-2.2,0.9
		c-0.6,0.6-0.9,1.4-0.9,2.4c0,0.9,0.3,1.7,0.9,2.4c0.6,0.6,1.3,0.9,2.2,0.9c0.7,0,1.3-0.2,1.8-0.6c0.5-0.4,0.8-0.9,1-1.6h2.3
		c-0.2,1.3-0.8,2.3-1.8,3.1S190.8,348.6,189.5,348.6z"/>
	<path class="st7" d="M199.8,348.6c-1.1,0-2.1-0.3-2.8-1c-0.7-0.7-1.1-1.5-1.1-2.6v-4.7h2.2v4.4c0,0.6,0.1,1,0.4,1.4
		c0.3,0.3,0.7,0.5,1.2,0.5c0.5,0,0.9-0.2,1.2-0.5c0.3-0.3,0.4-0.8,0.4-1.3v-4.4h2.2v4.7c0,1.1-0.3,2-1,2.6S200.9,348.6,199.8,348.6z
		"/>
	<path class="st7" d="M208.5,348.6c-1,0-1.8-0.3-2.5-0.8c-0.6-0.5-0.9-1.2-0.9-2.1h2.1c0,0.3,0.1,0.6,0.4,0.8c0.2,0.2,0.6,0.3,1,0.3
		c0.3,0,0.6-0.1,0.8-0.2c0.2-0.1,0.3-0.3,0.3-0.6c0-0.1,0-0.2-0.1-0.3c-0.1-0.1-0.2-0.2-0.4-0.2c-0.2-0.1-0.3-0.1-0.5-0.2
		c-0.2,0-0.4-0.1-0.6-0.1c-0.2,0-0.4-0.1-0.6-0.1c-0.2,0-0.3-0.1-0.6-0.1c-0.2-0.1-0.4-0.1-0.6-0.2c-0.2-0.1-0.3-0.2-0.5-0.3
		c-0.2-0.1-0.3-0.3-0.4-0.4c-0.1-0.2-0.2-0.3-0.2-0.6c-0.1-0.2-0.1-0.5-0.1-0.7c0-0.8,0.3-1.4,0.9-1.9c0.6-0.5,1.4-0.7,2.4-0.7
		c1,0,1.8,0.2,2.4,0.7c0.6,0.5,0.9,1.1,0.9,2h-2.1c0-0.3-0.1-0.6-0.3-0.7c-0.2-0.2-0.5-0.2-0.9-0.2c-0.3,0-0.6,0.1-0.8,0.2
		c-0.2,0.1-0.3,0.3-0.3,0.6c0,0.1,0,0.2,0,0.2c0,0.1,0.1,0.1,0.2,0.2c0.1,0.1,0.2,0.1,0.2,0.1c0.1,0,0.2,0.1,0.3,0.1
		c0.1,0,0.3,0.1,0.4,0.1c0.1,0,0.2,0,0.4,0.1c0.8,0.1,1.4,0.3,1.7,0.4c0.9,0.4,1.3,1.1,1.3,2.1c0,0.8-0.3,1.5-0.9,2
		C210.3,348.4,209.5,348.6,208.5,348.6z"/>
	<path class="st7" d="M217.3,346.4h1v1.9h-1.6c-0.9,0-1.6-0.3-2.1-0.8c-0.5-0.5-0.8-1.2-0.8-2.1V342h-1.5v-0.5l3.2-3.4h0.4v2.1h2.2
		v1.8h-2.2v3.2c0,0.4,0.1,0.7,0.3,0.9S216.9,346.4,217.3,346.4z"/>
	<path class="st7" d="M223.6,348.6c-0.8,0-1.6-0.2-2.2-0.6c-0.7-0.4-1.2-0.9-1.6-1.5c-0.4-0.7-0.6-1.4-0.6-2.2
		c0-0.8,0.2-1.5,0.6-2.2c0.4-0.7,0.9-1.2,1.6-1.5c0.7-0.4,1.4-0.6,2.2-0.6c0.8,0,1.6,0.2,2.2,0.6c0.7,0.4,1.2,0.9,1.6,1.5
		s0.6,1.4,0.6,2.2c0,0.8-0.2,1.5-0.6,2.2s-0.9,1.2-1.6,1.5C225.2,348.4,224.4,348.6,223.6,348.6z M222.1,345.9
		c0.4,0.4,0.9,0.6,1.6,0.6c0.6,0,1.1-0.2,1.6-0.6c0.4-0.4,0.6-0.9,0.6-1.6c0-0.7-0.2-1.2-0.6-1.6c-0.4-0.4-0.9-0.6-1.6-0.6
		c-0.6,0-1.1,0.2-1.6,0.6c-0.4,0.4-0.6,0.9-0.6,1.6C221.5,345,221.7,345.5,222.1,345.9z"/>
	<path class="st7" d="M238.8,340.1c0.8,0,1.5,0.3,2.1,0.9c0.5,0.6,0.8,1.4,0.8,2.3v5.1h-2.2v-4.7c0-0.5-0.1-1-0.3-1.2
		c-0.2-0.3-0.5-0.4-0.9-0.4c-0.5,0-0.9,0.2-1.1,0.5c-0.3,0.3-0.4,0.8-0.4,1.5v4.4h-2.1v-4.7c0-0.5-0.1-1-0.3-1.2
		c-0.2-0.3-0.5-0.4-0.9-0.4c-0.5,0-0.9,0.2-1.2,0.5c-0.3,0.3-0.4,0.8-0.4,1.5v4.4h-2.2v-8.1h1.5l0.4,1c0.3-0.4,0.6-0.7,1.1-0.9
		c0.4-0.2,0.9-0.3,1.3-0.3c0.5,0,1,0.1,1.4,0.3c0.4,0.2,0.7,0.5,1,1c0.3-0.4,0.6-0.7,1.1-0.9C237.8,340.2,238.3,340.1,238.8,340.1z"
		/>
	<path class="st7" d="M251.5,344.3c0,0.2,0,0.4,0,0.6h-6.1c0.1,0.6,0.3,1,0.7,1.3c0.3,0.3,0.8,0.4,1.3,0.4c0.4,0,0.7-0.1,1-0.3
		c0.3-0.2,0.5-0.4,0.7-0.7h2.3c-0.3,0.9-0.8,1.6-1.5,2.1c-0.7,0.5-1.6,0.8-2.5,0.8c-0.8,0-1.5-0.2-2.1-0.6c-0.6-0.4-1.1-0.9-1.5-1.5
		s-0.5-1.4-0.5-2.2c0-0.8,0.2-1.5,0.5-2.2c0.4-0.7,0.9-1.2,1.5-1.5c0.6-0.4,1.4-0.6,2.2-0.6c0.8,0,1.5,0.2,2.2,0.6
		c0.6,0.4,1.1,0.9,1.5,1.5S251.5,343.5,251.5,344.3z M247.3,341.9c-0.5,0-0.9,0.1-1.2,0.4c-0.3,0.3-0.6,0.6-0.7,1.1h3.9
		c-0.2-0.5-0.4-0.9-0.7-1.1C248.2,342.1,247.8,341.9,247.3,341.9z"/>
	<path class="st7" d="M257.2,340.2h0.7v2.1H257c-0.6,0-1.1,0.1-1.3,0.4c-0.3,0.3-0.4,0.8-0.4,1.4v4.2H253v-8.1h1.4l0.4,1
		C255.4,340.6,256.2,340.2,257.2,340.2z"/>
</g>
<g class="st6">
	<path class="st7" d="M522,348.4l-0.7-2h-4.2l-0.7,2H514l4.1-10.5h2.1l4.2,10.5H522z M519.2,340.7l-1.4,3.8h2.8L519.2,340.7z"/>
	<path class="st7" d="M528.3,348.6c-1,0-1.8-0.3-2.5-0.8c-0.6-0.5-0.9-1.2-0.9-2.1h2.1c0,0.3,0.1,0.6,0.4,0.8c0.2,0.2,0.6,0.3,1,0.3
		c0.3,0,0.6-0.1,0.8-0.2s0.3-0.3,0.3-0.6c0-0.1,0-0.2-0.1-0.3s-0.2-0.2-0.4-0.2c-0.2-0.1-0.3-0.1-0.5-0.2c-0.2,0-0.4-0.1-0.6-0.1
		c-0.2,0-0.4-0.1-0.6-0.1c-0.2,0-0.3-0.1-0.6-0.1s-0.4-0.1-0.6-0.2c-0.2-0.1-0.3-0.2-0.5-0.3c-0.2-0.1-0.3-0.3-0.4-0.4
		c-0.1-0.2-0.2-0.3-0.2-0.6c-0.1-0.2-0.1-0.5-0.1-0.7c0-0.8,0.3-1.4,0.9-1.9c0.6-0.5,1.4-0.7,2.4-0.7c1,0,1.8,0.2,2.4,0.7
		c0.6,0.5,0.9,1.1,0.9,2h-2.1c0-0.3-0.1-0.6-0.3-0.7c-0.2-0.2-0.5-0.2-0.9-0.2c-0.3,0-0.6,0.1-0.8,0.2s-0.3,0.3-0.3,0.6
		c0,0.1,0,0.2,0,0.2c0,0.1,0.1,0.1,0.2,0.2c0.1,0.1,0.2,0.1,0.2,0.1c0.1,0,0.2,0.1,0.3,0.1c0.1,0,0.3,0.1,0.4,0.1
		c0.1,0,0.2,0,0.4,0.1c0.8,0.1,1.4,0.3,1.7,0.4c0.9,0.4,1.3,1.1,1.3,2.1c0,0.8-0.3,1.5-0.9,2C530.2,348.4,529.4,348.6,528.3,348.6z"
		/>
	<path class="st7" d="M536.2,348.6c-1,0-1.8-0.3-2.5-0.8c-0.6-0.5-0.9-1.2-0.9-2.1h2.1c0,0.3,0.1,0.6,0.4,0.8c0.2,0.2,0.6,0.3,1,0.3
		c0.3,0,0.6-0.1,0.8-0.2s0.3-0.3,0.3-0.6c0-0.1,0-0.2-0.1-0.3s-0.2-0.2-0.4-0.2c-0.2-0.1-0.3-0.1-0.5-0.2c-0.2,0-0.4-0.1-0.6-0.1
		c-0.2,0-0.4-0.1-0.6-0.1c-0.2,0-0.3-0.1-0.6-0.1s-0.4-0.1-0.6-0.2c-0.2-0.1-0.3-0.2-0.5-0.3c-0.2-0.1-0.3-0.3-0.4-0.4
		c-0.1-0.2-0.2-0.3-0.2-0.6c-0.1-0.2-0.1-0.5-0.1-0.7c0-0.8,0.3-1.4,0.9-1.9c0.6-0.5,1.4-0.7,2.4-0.7c1,0,1.8,0.2,2.4,0.7
		c0.6,0.5,0.9,1.1,0.9,2h-2.1c0-0.3-0.1-0.6-0.3-0.7c-0.2-0.2-0.5-0.2-0.9-0.2c-0.3,0-0.6,0.1-0.8,0.2s-0.3,0.3-0.3,0.6
		c0,0.1,0,0.2,0,0.2c0,0.1,0.1,0.1,0.2,0.2c0.1,0.1,0.2,0.1,0.2,0.1c0.1,0,0.2,0.1,0.3,0.1c0.1,0,0.3,0.1,0.4,0.1
		c0.1,0,0.2,0,0.4,0.1c0.8,0.1,1.4,0.3,1.7,0.4c0.9,0.4,1.3,1.1,1.3,2.1c0,0.8-0.3,1.5-0.9,2C538.1,348.4,537.2,348.6,536.2,348.6z"
		/>
	<path class="st7" d="M541.2,339.2v-2h2.2v2H541.2z M541.2,348.4v-8.1h2.2v8.1H541.2z"/>
	<path class="st7" d="M552,340.3h1.4v7.2c0,1.3-0.4,2.3-1.1,3c-0.7,0.7-1.7,1.1-3,1.1c-1.1,0-2-0.3-2.7-0.8s-1.2-1.3-1.4-2.2h2.2
		c0.1,0.3,0.4,0.6,0.7,0.8c0.4,0.2,0.8,0.3,1.2,0.3c0.6,0,1.1-0.2,1.4-0.5c0.4-0.3,0.6-0.8,0.6-1.4v-0.3c-0.7,0.5-1.5,0.7-2.3,0.7
		c-0.7,0-1.4-0.2-2-0.5c-0.6-0.4-1.1-0.8-1.5-1.5c-0.4-0.6-0.5-1.3-0.5-2.1c0-0.7,0.2-1.4,0.5-2c0.4-0.6,0.8-1.1,1.5-1.5
		c0.6-0.4,1.3-0.5,2-0.5c1,0,1.9,0.3,2.7,1L552,340.3z M549.3,346.2c0.6,0,1.1-0.2,1.5-0.6c0.4-0.4,0.6-0.9,0.6-1.5
		c0-0.6-0.2-1.1-0.6-1.5c-0.4-0.4-0.9-0.6-1.5-0.6c-0.6,0-1.1,0.2-1.5,0.6c-0.4,0.4-0.6,0.9-0.6,1.5c0,0.6,0.2,1.1,0.6,1.5
		C548.2,346,548.7,346.2,549.3,346.2z"/>
	<path class="st7" d="M560.2,340.1c0.9,0,1.6,0.3,2.2,0.9c0.5,0.6,0.8,1.4,0.8,2.5v4.9H561v-4.6c0-1.2-0.5-1.8-1.4-1.8
		c-0.6,0-1,0.2-1.3,0.6c-0.3,0.4-0.5,0.9-0.5,1.5v4.3h-2.2v-8.1h1.5l0.4,1c0.3-0.4,0.7-0.7,1.2-0.9
		C559.1,340.2,559.6,340.1,560.2,340.1z"/>
	<path class="st7" d="M565.2,339.2v-2h2.2v2H565.2z M565.2,348.4v-8.1h2.2v8.1H565.2z"/>
	<path class="st7" d="M574.1,340.1c0.9,0,1.6,0.3,2.2,0.9c0.5,0.6,0.8,1.4,0.8,2.5v4.9h-2.2v-4.6c0-1.2-0.5-1.8-1.4-1.8
		c-0.6,0-1,0.2-1.3,0.6c-0.3,0.4-0.5,0.9-0.5,1.5v4.3h-2.2v-8.1h1.5l0.4,1c0.3-0.4,0.7-0.7,1.2-0.9
		C573,340.2,573.5,340.1,574.1,340.1z"/>
	<path class="st7" d="M585.6,340.3h1.4v7.2c0,1.3-0.4,2.3-1.1,3c-0.7,0.7-1.7,1.1-3,1.1c-1.1,0-2-0.3-2.7-0.8s-1.2-1.3-1.4-2.2h2.2
		c0.1,0.3,0.4,0.6,0.7,0.8c0.4,0.2,0.8,0.3,1.2,0.3c0.6,0,1.1-0.2,1.4-0.5c0.4-0.3,0.6-0.8,0.6-1.4v-0.3c-0.7,0.5-1.5,0.7-2.3,0.7
		c-0.7,0-1.4-0.2-2-0.5c-0.6-0.4-1.1-0.8-1.5-1.5c-0.4-0.6-0.5-1.3-0.5-2.1c0-0.7,0.2-1.4,0.5-2c0.4-0.6,0.8-1.1,1.5-1.5
		c0.6-0.4,1.3-0.5,2-0.5c1,0,1.9,0.3,2.7,1L585.6,340.3z M582.8,346.2c0.6,0,1.1-0.2,1.5-0.6c0.4-0.4,0.6-0.9,0.6-1.5
		c0-0.6-0.2-1.1-0.6-1.5c-0.4-0.4-0.9-0.6-1.5-0.6c-0.6,0-1.1,0.2-1.5,0.6c-0.4,0.4-0.6,0.9-0.6,1.5c0,0.6,0.2,1.1,0.6,1.5
		C581.7,346,582.2,346.2,582.8,346.2z"/>
	<path class="st7" d="M599.3,340.3h1.6v8.1h-1.7l-0.2-0.7c-0.7,0.6-1.6,1-2.6,1c-0.8,0-1.5-0.2-2.2-0.6c-0.6-0.4-1.2-0.9-1.5-1.5
		c-0.4-0.7-0.5-1.4-0.5-2.2c0-0.8,0.2-1.5,0.5-2.2c0.4-0.7,0.9-1.2,1.5-1.5c0.6-0.4,1.4-0.6,2.2-0.6c1,0,1.9,0.3,2.7,1L599.3,340.3z
		 M595,345.9c0.4,0.4,0.9,0.6,1.6,0.6s1.2-0.2,1.6-0.6c0.4-0.4,0.6-0.9,0.6-1.6s-0.2-1.2-0.6-1.6c-0.4-0.4-0.9-0.6-1.6-0.6
		s-1.2,0.2-1.6,0.6c-0.4,0.4-0.6,1-0.6,1.6S594.6,345.5,595,345.9z"/>
	<path class="st7" d="M613.6,337.9v2.1h-2.9v8.4h-2.3V340h-2.9v-2.1H613.6z"/>
	<path class="st7" d="M618.6,340.2h0.7v2.1h-0.9c-0.6,0-1.1,0.1-1.3,0.4c-0.3,0.3-0.4,0.8-0.4,1.4v4.2h-2.2v-8.1h1.4l0.4,1
		C616.8,340.6,617.6,340.2,618.6,340.2z"/>
	<path class="st7" d="M627,340.3h1.6v8.1h-1.7l-0.2-0.7c-0.7,0.6-1.6,1-2.6,1c-0.8,0-1.5-0.2-2.2-0.6c-0.6-0.4-1.2-0.9-1.5-1.5
		c-0.4-0.7-0.5-1.4-0.5-2.2c0-0.8,0.2-1.5,0.5-2.2c0.4-0.7,0.9-1.2,1.5-1.5c0.6-0.4,1.4-0.6,2.2-0.6c1,0,1.9,0.3,2.7,1L627,340.3z
		 M622.7,345.9c0.4,0.4,0.9,0.6,1.6,0.6s1.2-0.2,1.6-0.6c0.4-0.4,0.6-0.9,0.6-1.6s-0.2-1.2-0.6-1.6c-0.4-0.4-0.9-0.6-1.6-0.6
		s-1.2,0.2-1.6,0.6c-0.4,0.4-0.6,1-0.6,1.6S622.3,345.5,622.7,345.9z"/>
	<path class="st7" d="M636,340.3h2.3l-3.2,8.1h-2l-3.3-8.1h2.3l2,5.4L636,340.3z"/>
	<path class="st7" d="M647,344.3c0,0.2,0,0.4,0,0.6h-6.1c0.1,0.6,0.3,1,0.7,1.3c0.3,0.3,0.8,0.4,1.3,0.4c0.4,0,0.7-0.1,1-0.3
		c0.3-0.2,0.5-0.4,0.7-0.7h2.3c-0.3,0.9-0.8,1.6-1.5,2.1c-0.7,0.5-1.6,0.8-2.5,0.8c-0.8,0-1.5-0.2-2.1-0.6c-0.6-0.4-1.1-0.9-1.5-1.5
		s-0.5-1.4-0.5-2.2c0-0.8,0.2-1.5,0.5-2.2c0.4-0.7,0.9-1.2,1.5-1.5c0.6-0.4,1.4-0.6,2.2-0.6c0.8,0,1.5,0.2,2.2,0.6
		c0.6,0.4,1.1,0.9,1.5,1.5S647,343.5,647,344.3z M642.9,341.9c-0.5,0-0.9,0.1-1.2,0.4c-0.3,0.3-0.6,0.6-0.7,1.1h3.9
		c-0.2-0.5-0.4-0.9-0.7-1.1C643.8,342.1,643.3,341.9,642.9,341.9z"/>
	<path class="st7" d="M648.6,348.4v-11h2.2v11H648.6z"/>
	<path class="st7" d="M669.5,348.4h-2.3l-1-6.9l-3.1,6.8h-0.6l-3.1-6.8l-1,6.8H656l1.6-10.5h2.3l2.8,6.4l2.8-6.4h2.3L669.5,348.4z"
		/>
	<path class="st7" d="M677.6,340.3h1.6v8.1h-1.7l-0.2-0.7c-0.7,0.6-1.6,1-2.6,1c-0.8,0-1.5-0.2-2.2-0.6c-0.6-0.4-1.2-0.9-1.5-1.5
		c-0.4-0.7-0.5-1.4-0.5-2.2c0-0.8,0.2-1.5,0.5-2.2c0.4-0.7,0.9-1.2,1.5-1.5c0.6-0.4,1.4-0.6,2.2-0.6c1,0,1.9,0.3,2.7,1L677.6,340.3z
		 M673.3,345.9c0.4,0.4,0.9,0.6,1.6,0.6s1.2-0.2,1.6-0.6c0.4-0.4,0.6-0.9,0.6-1.6s-0.2-1.2-0.6-1.6c-0.4-0.4-0.9-0.6-1.6-0.6
		s-1.2,0.2-1.6,0.6c-0.4,0.4-0.6,1-0.6,1.6S672.9,345.5,673.3,345.9z"/>
	<path class="st7" d="M685.9,340.1c0.9,0,1.6,0.3,2.2,0.9c0.5,0.6,0.8,1.4,0.8,2.5v4.9h-2.2v-4.6c0-1.2-0.5-1.8-1.4-1.8
		c-0.6,0-1,0.2-1.3,0.6c-0.3,0.4-0.5,0.9-0.5,1.5v4.3h-2.2v-8.1h1.5l0.4,1c0.3-0.4,0.7-0.7,1.2-0.9
		C684.9,340.2,685.4,340.1,685.9,340.1z"/>
	<path class="st7" d="M697.6,340.3h1.6v8.1h-1.7l-0.2-0.7c-0.7,0.6-1.6,1-2.6,1c-0.8,0-1.5-0.2-2.2-0.6c-0.6-0.4-1.2-0.9-1.5-1.5
		c-0.4-0.7-0.5-1.4-0.5-2.2c0-0.8,0.2-1.5,0.5-2.2c0.4-0.7,0.9-1.2,1.5-1.5c0.6-0.4,1.4-0.6,2.2-0.6c1,0,1.9,0.3,2.7,1L697.6,340.3z
		 M693.3,345.9c0.4,0.4,0.9,0.6,1.6,0.6s1.2-0.2,1.6-0.6c0.4-0.4,0.6-0.9,0.6-1.6s-0.2-1.2-0.6-1.6c-0.4-0.4-0.9-0.6-1.6-0.6
		s-1.2,0.2-1.6,0.6c-0.4,0.4-0.6,1-0.6,1.6S692.8,345.5,693.3,345.9z"/>
	<path class="st7" d="M707.8,340.3h1.4v7.2c0,1.3-0.4,2.3-1.1,3c-0.7,0.7-1.7,1.1-3,1.1c-1.1,0-2-0.3-2.7-0.8s-1.2-1.3-1.4-2.2h2.2
		c0.1,0.3,0.4,0.6,0.7,0.8c0.4,0.2,0.8,0.3,1.2,0.3c0.6,0,1.1-0.2,1.4-0.5c0.4-0.3,0.6-0.8,0.6-1.4v-0.3c-0.7,0.5-1.5,0.7-2.3,0.7
		c-0.7,0-1.4-0.2-2-0.5c-0.6-0.4-1.1-0.8-1.5-1.5c-0.4-0.6-0.5-1.3-0.5-2.1c0-0.7,0.2-1.4,0.5-2c0.4-0.6,0.8-1.1,1.5-1.5
		c0.6-0.4,1.3-0.5,2-0.5c1,0,1.9,0.3,2.7,1L707.8,340.3z M705,346.2c0.6,0,1.1-0.2,1.5-0.6c0.4-0.4,0.6-0.9,0.6-1.5
		c0-0.6-0.2-1.1-0.6-1.5c-0.4-0.4-0.9-0.6-1.5-0.6c-0.6,0-1.1,0.2-1.5,0.6c-0.4,0.4-0.6,0.9-0.6,1.5c0,0.6,0.2,1.1,0.6,1.5
		C704,346,704.4,346.2,705,346.2z"/>
	<path class="st7" d="M719.2,344.3c0,0.2,0,0.4,0,0.6H713c0.1,0.6,0.3,1,0.7,1.3c0.3,0.3,0.8,0.4,1.3,0.4c0.4,0,0.7-0.1,1-0.3
		c0.3-0.2,0.5-0.4,0.7-0.7h2.3c-0.3,0.9-0.8,1.6-1.5,2.1c-0.7,0.5-1.6,0.8-2.5,0.8c-0.8,0-1.5-0.2-2.1-0.6c-0.6-0.4-1.1-0.9-1.5-1.5
		s-0.5-1.4-0.5-2.2c0-0.8,0.2-1.5,0.5-2.2c0.4-0.7,0.9-1.2,1.5-1.5c0.6-0.4,1.4-0.6,2.2-0.6c0.8,0,1.5,0.2,2.2,0.6
		c0.6,0.4,1.1,0.9,1.5,1.5S719.2,343.5,719.2,344.3z M715,341.9c-0.5,0-0.9,0.1-1.2,0.4c-0.3,0.3-0.6,0.6-0.7,1.1h3.9
		c-0.2-0.5-0.4-0.9-0.7-1.1C715.9,342.1,715.5,341.9,715,341.9z"/>
	<path class="st7" d="M724.9,340.2h0.7v2.1h-0.9c-0.6,0-1.1,0.1-1.3,0.4c-0.3,0.3-0.4,0.8-0.4,1.4v4.2h-2.2v-8.1h1.4l0.4,1
		C723.1,340.6,723.9,340.2,724.9,340.2z"/>
</g>
<g class="st6">
	<path class="st7" d="M966.8,337.9c0.7,0,1.3,0.2,1.9,0.5c0.6,0.3,1,0.7,1.3,1.3c0.3,0.6,0.5,1.2,0.5,1.8c0,1-0.4,1.9-1.1,2.6
		c-0.7,0.7-1.6,1-2.6,1H965v3.3h-2.3v-10.5H966.8z M966.6,343c0.4,0,0.8-0.1,1.1-0.4c0.3-0.3,0.4-0.6,0.4-1.1s-0.1-0.8-0.4-1.1
		c-0.3-0.3-0.6-0.4-1.1-0.4H965v3H966.6z"/>
	<path class="st7" d="M971.9,339.2v-2h2.2v2H971.9z M971.9,348.4v-8.1h2.2v8.1H971.9z"/>
	<path class="st7" d="M979.9,348.6c-0.6,0-1.2-0.1-1.7-0.3c-0.5-0.2-1-0.5-1.4-0.9s-0.7-0.8-0.9-1.4c-0.2-0.5-0.3-1.1-0.3-1.7
		s0.1-1.2,0.3-1.7s0.5-1,0.9-1.4s0.8-0.7,1.4-0.9c0.5-0.2,1.1-0.3,1.7-0.3c1,0,1.9,0.3,2.7,0.9c0.7,0.6,1.2,1.4,1.4,2.4h-2.2
		c-0.2-0.4-0.4-0.7-0.8-0.9c-0.3-0.2-0.7-0.3-1.2-0.3c-0.6,0-1.1,0.2-1.5,0.6c-0.4,0.4-0.6,0.9-0.6,1.6s0.2,1.2,0.6,1.6
		c0.4,0.4,0.9,0.6,1.5,0.6c0.4,0,0.8-0.1,1.2-0.4s0.6-0.6,0.8-1h2.2c-0.2,1-0.7,1.8-1.4,2.5C981.9,348.3,981,348.6,979.9,348.6z"/>
	<path class="st7" d="M993.2,348.4h-2.7l-2.6-3.9v3.9h-2.2v-11h2.2v6.5l2.4-3.6h2.5l-2.7,3.9L993.2,348.4z"/>
	<path class="st7" d="M993.5,345.2v-2.1h4.9v2.1H993.5z"/>
	<path class="st7" d="M1004.1,348.6c-1.1,0-2.1-0.3-2.8-1c-0.7-0.7-1.1-1.5-1.1-2.6v-4.7h2.2v4.4c0,0.6,0.1,1,0.4,1.4
		c0.3,0.3,0.7,0.5,1.2,0.5s0.9-0.2,1.2-0.5c0.3-0.3,0.4-0.8,0.4-1.3v-4.4h2.2v4.7c0,1.1-0.3,2-1,2.6S1005.2,348.6,1004.1,348.6z"/>
	<path class="st7" d="M1014.3,340.1c0.8,0,1.5,0.2,2.2,0.6c0.6,0.4,1.2,0.9,1.5,1.5c0.4,0.7,0.5,1.4,0.5,2.2c0,0.8-0.2,1.5-0.5,2.2
		c-0.4,0.7-0.9,1.2-1.5,1.5c-0.6,0.4-1.4,0.6-2.2,0.6c-0.8,0-1.6-0.2-2.2-0.7v3.4h-2.2v-11h1.4l0.4,0.7
		C1012.4,340.4,1013.3,340.1,1014.3,340.1z M1012.5,345.9c0.4,0.4,0.9,0.6,1.6,0.6s1.2-0.2,1.6-0.6c0.4-0.4,0.6-0.9,0.6-1.6
		c0-0.6-0.2-1.2-0.6-1.6c-0.4-0.4-0.9-0.6-1.6-0.6s-1.2,0.2-1.6,0.6c-0.4,0.4-0.6,1-0.6,1.6C1011.9,345,1012.1,345.5,1012.5,345.9z"
		/>
	<path class="st7" d="M1030.3,340.3h1.6v8.1h-1.7l-0.2-0.7c-0.7,0.6-1.6,1-2.6,1c-0.8,0-1.5-0.2-2.2-0.6c-0.6-0.4-1.2-0.9-1.5-1.5
		c-0.4-0.7-0.5-1.4-0.5-2.2c0-0.8,0.2-1.5,0.5-2.2c0.4-0.7,0.9-1.2,1.5-1.5c0.6-0.4,1.4-0.6,2.2-0.6c1,0,1.9,0.3,2.7,1L1030.3,340.3
		z M1026,345.9c0.4,0.4,0.9,0.6,1.6,0.6s1.2-0.2,1.6-0.6c0.4-0.4,0.6-0.9,0.6-1.6s-0.2-1.2-0.6-1.6c-0.4-0.4-0.9-0.6-1.6-0.6
		s-1.2,0.2-1.6,0.6c-0.4,0.4-0.6,1-0.6,1.6S1025.6,345.5,1026,345.9z"/>
	<path class="st7" d="M1038,346.4h1v1.9h-1.6c-0.9,0-1.6-0.3-2.1-0.8c-0.5-0.5-0.8-1.2-0.8-2.1V342h-1.5v-0.5l3.2-3.4h0.4v2.1h2.2
		v1.8h-2.2v3.2c0,0.4,0.1,0.7,0.3,0.9S1037.6,346.4,1038,346.4z"/>
	<path class="st7" d="M1048.2,337.9c0.8,0,1.5,0.1,2.1,0.4c0.7,0.3,1.2,0.6,1.7,1.1c0.5,0.5,0.8,1,1.1,1.7c0.3,0.6,0.4,1.3,0.4,2.1
		c0,0.8-0.1,1.5-0.4,2.1c-0.3,0.7-0.6,1.2-1.1,1.7c-0.5,0.5-1,0.8-1.7,1.1c-0.7,0.3-1.4,0.4-2.1,0.4h-4v-10.5H1048.2z M1048.1,346.3
		c0.9,0,1.6-0.3,2.2-0.9c0.6-0.6,0.9-1.3,0.9-2.3s-0.3-1.7-0.9-2.3c-0.6-0.6-1.3-0.9-2.2-0.9h-1.6v6.3H1048.1z"/>
	<path class="st7" d="M1059,348.6c-0.8,0-1.6-0.2-2.2-0.6c-0.7-0.4-1.2-0.9-1.6-1.5c-0.4-0.7-0.6-1.4-0.6-2.2c0-0.8,0.2-1.5,0.6-2.2
		c0.4-0.7,0.9-1.2,1.6-1.5c0.7-0.4,1.4-0.6,2.2-0.6c0.8,0,1.6,0.2,2.2,0.6c0.7,0.4,1.2,0.9,1.6,1.5s0.6,1.4,0.6,2.2
		c0,0.8-0.2,1.5-0.6,2.2s-0.9,1.2-1.6,1.5C1060.6,348.4,1059.8,348.6,1059,348.6z M1057.4,345.9c0.4,0.4,0.9,0.6,1.6,0.6
		c0.6,0,1.1-0.2,1.6-0.6c0.4-0.4,0.6-0.9,0.6-1.6c0-0.7-0.2-1.2-0.6-1.6c-0.4-0.4-0.9-0.6-1.6-0.6c-0.6,0-1.1,0.2-1.6,0.6
		c-0.4,0.4-0.6,0.9-0.6,1.6C1056.8,345,1057,345.5,1057.4,345.9z"/>
	<path class="st7" d="M1068.8,348.6c-0.8,0-1.6-0.2-2.2-0.6c-0.7-0.4-1.2-0.9-1.6-1.5c-0.4-0.7-0.6-1.4-0.6-2.2
		c0-0.8,0.2-1.5,0.6-2.2c0.4-0.7,0.9-1.2,1.6-1.5c0.7-0.4,1.4-0.6,2.2-0.6c0.8,0,1.6,0.2,2.2,0.6c0.7,0.4,1.2,0.9,1.6,1.5
		s0.6,1.4,0.6,2.2c0,0.8-0.2,1.5-0.6,2.2s-0.9,1.2-1.6,1.5C1070.4,348.4,1069.6,348.6,1068.8,348.6z M1067.2,345.9
		c0.4,0.4,0.9,0.6,1.6,0.6c0.6,0,1.1-0.2,1.6-0.6c0.4-0.4,0.6-0.9,0.6-1.6c0-0.7-0.2-1.2-0.6-1.6c-0.4-0.4-0.9-0.6-1.6-0.6
		c-0.6,0-1.1,0.2-1.6,0.6c-0.4,0.4-0.6,0.9-0.6,1.6C1066.6,345,1066.8,345.5,1067.2,345.9z"/>
	<path class="st7" d="M1078.9,340.2h0.7v2.1h-0.9c-0.6,0-1.1,0.1-1.3,0.4c-0.3,0.3-0.4,0.8-0.4,1.4v4.2h-2.2v-8.1h1.4l0.4,1
		C1077.1,340.6,1077.9,340.2,1078.9,340.2z"/>
	<path class="st7" d="M1087.7,346.4h1v1.9h-1.6c-0.9,0-1.6-0.3-2.1-0.8c-0.5-0.5-0.8-1.2-0.8-2.1V342h-1.5v-0.5l3.2-3.4h0.4v2.1h2.2
		v1.8h-2.2v3.2c0,0.4,0.1,0.7,0.3,0.9S1087.3,346.4,1087.7,346.4z"/>
	<path class="st7" d="M1094,348.6c-0.8,0-1.6-0.2-2.2-0.6c-0.7-0.4-1.2-0.9-1.6-1.5c-0.4-0.7-0.6-1.4-0.6-2.2c0-0.8,0.2-1.5,0.6-2.2
		c0.4-0.7,0.9-1.2,1.6-1.5c0.7-0.4,1.4-0.6,2.2-0.6c0.8,0,1.6,0.2,2.2,0.6c0.7,0.4,1.2,0.9,1.6,1.5s0.6,1.4,0.6,2.2
		c0,0.8-0.2,1.5-0.6,2.2s-0.9,1.2-1.6,1.5C1095.6,348.4,1094.8,348.6,1094,348.6z M1092.4,345.9c0.4,0.4,0.9,0.6,1.6,0.6
		c0.6,0,1.1-0.2,1.6-0.6c0.4-0.4,0.6-0.9,0.6-1.6c0-0.7-0.2-1.2-0.6-1.6c-0.4-0.4-0.9-0.6-1.6-0.6c-0.6,0-1.1,0.2-1.6,0.6
		c-0.4,0.4-0.6,0.9-0.6,1.6C1091.8,345,1092,345.5,1092.4,345.9z"/>
	<path class="st7" d="M1107.6,337.9c0.8,0,1.5,0.1,2.1,0.4c0.7,0.3,1.2,0.6,1.7,1.1c0.5,0.5,0.8,1,1.1,1.7c0.3,0.6,0.4,1.3,0.4,2.1
		c0,0.8-0.1,1.5-0.4,2.1c-0.3,0.7-0.6,1.2-1.1,1.7c-0.5,0.5-1,0.8-1.7,1.1c-0.7,0.3-1.4,0.4-2.1,0.4h-4v-10.5H1107.6z M1107.6,346.3
		c0.9,0,1.6-0.3,2.2-0.9c0.6-0.6,0.9-1.3,0.9-2.3s-0.3-1.7-0.9-2.3c-0.6-0.6-1.3-0.9-2.2-0.9h-1.6v6.3H1107.6z"/>
	<path class="st7" d="M1118.7,340.2h0.7v2.1h-0.9c-0.6,0-1.1,0.1-1.3,0.4c-0.3,0.3-0.4,0.8-0.4,1.4v4.2h-2.2v-8.1h1.4l0.4,1
		C1116.9,340.6,1117.7,340.2,1118.7,340.2z"/>
	<path class="st7" d="M1124.3,348.6c-0.8,0-1.6-0.2-2.2-0.6c-0.7-0.4-1.2-0.9-1.6-1.5c-0.4-0.7-0.6-1.4-0.6-2.2
		c0-0.8,0.2-1.5,0.6-2.2c0.4-0.7,0.9-1.2,1.6-1.5c0.7-0.4,1.4-0.6,2.2-0.6c0.8,0,1.6,0.2,2.2,0.6c0.7,0.4,1.2,0.9,1.6,1.5
		s0.6,1.4,0.6,2.2c0,0.8-0.2,1.5-0.6,2.2s-0.9,1.2-1.6,1.5C1125.9,348.4,1125.1,348.6,1124.3,348.6z M1122.8,345.9
		c0.4,0.4,0.9,0.6,1.6,0.6c0.6,0,1.1-0.2,1.6-0.6c0.4-0.4,0.6-0.9,0.6-1.6c0-0.7-0.2-1.2-0.6-1.6c-0.4-0.4-0.9-0.6-1.6-0.6
		c-0.6,0-1.1,0.2-1.6,0.6c-0.4,0.4-0.6,0.9-0.6,1.6C1122.2,345,1122.4,345.5,1122.8,345.9z"/>
	<path class="st7" d="M1134.7,340.1c0.8,0,1.5,0.2,2.2,0.6c0.6,0.4,1.2,0.9,1.5,1.5c0.4,0.7,0.5,1.4,0.5,2.2c0,0.8-0.2,1.5-0.5,2.2
		c-0.4,0.7-0.9,1.2-1.5,1.5c-0.6,0.4-1.4,0.6-2.2,0.6c-0.8,0-1.6-0.2-2.2-0.7v3.4h-2.2v-11h1.4l0.4,0.7
		C1132.8,340.4,1133.7,340.1,1134.7,340.1z M1132.9,345.9c0.4,0.4,0.9,0.6,1.6,0.6s1.2-0.2,1.6-0.6c0.4-0.4,0.6-0.9,0.6-1.6
		c0-0.6-0.2-1.2-0.6-1.6c-0.4-0.4-0.9-0.6-1.6-0.6s-1.2,0.2-1.6,0.6c-0.4,0.4-0.6,1-0.6,1.6C1132.3,345,1132.5,345.5,1132.9,345.9z"
		/>
	<path class="st7" d="M1150.7,340.3h1.6v8.1h-1.7l-0.2-0.7c-0.7,0.6-1.6,1-2.6,1c-0.8,0-1.5-0.2-2.2-0.6c-0.6-0.4-1.2-0.9-1.5-1.5
		c-0.4-0.7-0.5-1.4-0.5-2.2c0-0.8,0.2-1.5,0.5-2.2c0.4-0.7,0.9-1.2,1.5-1.5c0.6-0.4,1.4-0.6,2.2-0.6c1,0,1.9,0.3,2.7,1L1150.7,340.3
		z M1146.4,345.9c0.4,0.4,0.9,0.6,1.6,0.6s1.2-0.2,1.6-0.6c0.4-0.4,0.6-0.9,0.6-1.6s-0.2-1.2-0.6-1.6c-0.4-0.4-0.9-0.6-1.6-0.6
		s-1.2,0.2-1.6,0.6c-0.4,0.4-0.6,1-0.6,1.6S1146,345.5,1146.4,345.9z"/>
	<path class="st7" d="M1158.4,346.4h1v1.9h-1.6c-0.9,0-1.6-0.3-2.1-0.8c-0.5-0.5-0.8-1.2-0.8-2.1V342h-1.5v-0.5l3.2-3.4h0.4v2.1h2.2
		v1.8h-2.2v3.2c0,0.4,0.1,0.7,0.3,0.9S1158,346.4,1158.4,346.4z"/>
	<path class="st7" d="M1168.6,337.9c0.8,0,1.5,0.1,2.1,0.4c0.7,0.3,1.2,0.6,1.7,1.1c0.5,0.5,0.8,1,1.1,1.7c0.3,0.6,0.4,1.3,0.4,2.1
		c0,0.8-0.1,1.5-0.4,2.1c-0.3,0.7-0.6,1.2-1.1,1.7c-0.5,0.5-1,0.8-1.7,1.1c-0.7,0.3-1.4,0.4-2.1,0.4h-4v-10.5H1168.6z M1168.5,346.3
		c0.9,0,1.6-0.3,2.2-0.9c0.6-0.6,0.9-1.3,0.9-2.3s-0.3-1.7-0.9-2.3c-0.6-0.6-1.3-0.9-2.2-0.9h-1.6v6.3H1168.5z"/>
	<path class="st7" d="M1179.4,348.6c-0.8,0-1.6-0.2-2.2-0.6c-0.7-0.4-1.2-0.9-1.6-1.5c-0.4-0.7-0.6-1.4-0.6-2.2
		c0-0.8,0.2-1.5,0.6-2.2c0.4-0.7,0.9-1.2,1.6-1.5c0.7-0.4,1.4-0.6,2.2-0.6c0.8,0,1.6,0.2,2.2,0.6c0.7,0.4,1.2,0.9,1.6,1.5
		s0.6,1.4,0.6,2.2c0,0.8-0.2,1.5-0.6,2.2s-0.9,1.2-1.6,1.5C1181,348.4,1180.2,348.6,1179.4,348.6z M1177.9,345.9
		c0.4,0.4,0.9,0.6,1.6,0.6c0.6,0,1.1-0.2,1.6-0.6c0.4-0.4,0.6-0.9,0.6-1.6c0-0.7-0.2-1.2-0.6-1.6c-0.4-0.4-0.9-0.6-1.6-0.6
		c-0.6,0-1.1,0.2-1.6,0.6c-0.4,0.4-0.6,0.9-0.6,1.6C1177.2,345,1177.5,345.5,1177.9,345.9z"/>
	<path class="st7" d="M1189.2,348.6c-0.8,0-1.6-0.2-2.2-0.6c-0.7-0.4-1.2-0.9-1.6-1.5c-0.4-0.7-0.6-1.4-0.6-2.2
		c0-0.8,0.2-1.5,0.6-2.2c0.4-0.7,0.9-1.2,1.6-1.5c0.7-0.4,1.4-0.6,2.2-0.6c0.8,0,1.6,0.2,2.2,0.6c0.7,0.4,1.2,0.9,1.6,1.5
		s0.6,1.4,0.6,2.2c0,0.8-0.2,1.5-0.6,2.2s-0.9,1.2-1.6,1.5C1190.8,348.4,1190,348.6,1189.2,348.6z M1187.6,345.9
		c0.4,0.4,0.9,0.6,1.6,0.6c0.6,0,1.1-0.2,1.6-0.6c0.4-0.4,0.6-0.9,0.6-1.6c0-0.7-0.2-1.2-0.6-1.6c-0.4-0.4-0.9-0.6-1.6-0.6
		c-0.6,0-1.1,0.2-1.6,0.6c-0.4,0.4-0.6,0.9-0.6,1.6C1187,345,1187.2,345.5,1187.6,345.9z"/>
	<path class="st7" d="M1199.3,340.2h0.7v2.1h-0.9c-0.6,0-1.1,0.1-1.3,0.4c-0.3,0.3-0.4,0.8-0.4,1.4v4.2h-2.2v-8.1h1.4l0.4,1
		C1197.5,340.6,1198.3,340.2,1199.3,340.2z"/>
</g>
<g class="st6">
	<path class="st7" d="M344.7,269.9c0.8,0,1.5,0.1,2.1,0.4s1.2,0.6,1.7,1.1c0.5,0.5,0.8,1,1.1,1.7c0.3,0.6,0.4,1.3,0.4,2.1
		c0,0.8-0.1,1.5-0.4,2.1c-0.3,0.7-0.6,1.2-1.1,1.7c-0.5,0.5-1,0.8-1.7,1.1c-0.7,0.3-1.4,0.4-2.1,0.4h-4v-10.5H344.7z M344.6,278.3
		c0.9,0,1.6-0.3,2.2-0.9c0.6-0.6,0.9-1.3,0.9-2.3s-0.3-1.7-0.9-2.3c-0.6-0.6-1.3-0.9-2.2-0.9H343v6.3H344.6z"/>
	<path class="st7" d="M359.5,276.3c0,0.2,0,0.4,0,0.6h-6.1c0.1,0.6,0.3,1,0.7,1.3c0.3,0.3,0.8,0.4,1.3,0.4c0.4,0,0.7-0.1,1-0.3
		c0.3-0.2,0.5-0.4,0.7-0.7h2.3c-0.3,0.9-0.8,1.6-1.5,2.1c-0.7,0.5-1.6,0.8-2.5,0.8c-0.8,0-1.5-0.2-2.1-0.6c-0.6-0.4-1.1-0.9-1.5-1.5
		s-0.5-1.4-0.5-2.2c0-0.8,0.2-1.5,0.5-2.2s0.9-1.2,1.5-1.5c0.6-0.4,1.4-0.6,2.1-0.6c0.8,0,1.5,0.2,2.2,0.6c0.6,0.4,1.1,0.9,1.5,1.5
		S359.5,275.5,359.5,276.3z M355.3,273.9c-0.5,0-0.9,0.1-1.2,0.4s-0.6,0.6-0.7,1.1h3.9c-0.2-0.5-0.4-0.9-0.7-1.1
		C356.2,274.1,355.8,273.9,355.3,273.9z"/>
	<path class="st7" d="M363.9,280.6c-1,0-1.8-0.3-2.5-0.8c-0.6-0.5-0.9-1.2-0.9-2.1h2.1c0,0.3,0.1,0.6,0.4,0.8c0.2,0.2,0.6,0.3,1,0.3
		c0.3,0,0.6-0.1,0.8-0.2s0.3-0.3,0.3-0.6c0-0.1,0-0.2-0.1-0.3s-0.2-0.2-0.4-0.2c-0.2-0.1-0.3-0.1-0.5-0.2c-0.2,0-0.4-0.1-0.6-0.1
		c-0.2,0-0.4-0.1-0.6-0.1c-0.2,0-0.3-0.1-0.6-0.1s-0.4-0.1-0.6-0.2c-0.2-0.1-0.3-0.2-0.5-0.3c-0.2-0.1-0.3-0.3-0.4-0.4
		c-0.1-0.2-0.2-0.3-0.2-0.6c-0.1-0.2-0.1-0.5-0.1-0.7c0-0.8,0.3-1.4,0.9-1.9c0.6-0.5,1.4-0.7,2.4-0.7c1,0,1.8,0.2,2.4,0.7
		c0.6,0.5,0.9,1.1,0.9,2h-2.1c0-0.3-0.1-0.6-0.3-0.7c-0.2-0.2-0.5-0.2-0.9-0.2c-0.3,0-0.6,0.1-0.8,0.2s-0.3,0.3-0.3,0.6
		c0,0.1,0,0.2,0,0.2c0,0.1,0.1,0.1,0.2,0.2c0.1,0.1,0.2,0.1,0.2,0.1c0.1,0,0.2,0.1,0.3,0.1c0.1,0,0.3,0.1,0.4,0.1
		c0.1,0,0.2,0,0.4,0.1c0.8,0.1,1.4,0.3,1.7,0.4c0.9,0.4,1.3,1.1,1.3,2.1c0,0.8-0.3,1.5-0.9,2C365.8,280.4,365,280.6,363.9,280.6z"/>
	<path class="st7" d="M368.9,271.2v-2h2.2v2H368.9z M368.9,280.4v-8.1h2.2v8.1H368.9z"/>
	<path class="st7" d="M379.8,272.3h1.4v7.2c0,1.3-0.4,2.3-1.1,3c-0.7,0.7-1.7,1.1-3,1.1c-1.1,0-2-0.3-2.7-0.8s-1.2-1.3-1.4-2.2h2.2
		c0.1,0.3,0.4,0.6,0.7,0.8c0.4,0.2,0.8,0.3,1.2,0.3c0.6,0,1.1-0.2,1.4-0.5c0.4-0.3,0.6-0.8,0.6-1.4v-0.3c-0.7,0.5-1.5,0.7-2.3,0.7
		c-0.7,0-1.4-0.2-2-0.5c-0.6-0.4-1.1-0.8-1.5-1.5c-0.4-0.6-0.5-1.3-0.5-2.1c0-0.7,0.2-1.4,0.5-2c0.4-0.6,0.8-1.1,1.5-1.5
		c0.6-0.4,1.3-0.5,2-0.5c1,0,1.9,0.3,2.7,1L379.8,272.3z M377,278.2c0.6,0,1.1-0.2,1.5-0.6c0.4-0.4,0.6-0.9,0.6-1.5
		c0-0.6-0.2-1.1-0.6-1.5c-0.4-0.4-0.9-0.6-1.5-0.6c-0.6,0-1.1,0.2-1.5,0.6c-0.4,0.4-0.6,0.9-0.6,1.5c0,0.6,0.2,1.1,0.6,1.5
		C375.9,278,376.4,278.2,377,278.2z"/>
	<path class="st7" d="M387.9,272.1c0.9,0,1.6,0.3,2.2,0.9c0.5,0.6,0.8,1.4,0.8,2.5v4.9h-2.2v-4.6c0-1.2-0.5-1.8-1.4-1.8
		c-0.6,0-1,0.2-1.3,0.6c-0.3,0.4-0.5,0.9-0.5,1.5v4.3h-2.2v-8.1h1.5l0.4,1c0.3-0.4,0.7-0.7,1.2-0.9
		C386.9,272.2,387.4,272.1,387.9,272.1z"/>
	<path class="st7" d="M392.9,271.2v-2h2.2v2H392.9z M392.9,280.4v-8.1h2.2v8.1H392.9z"/>
	<path class="st7" d="M401.8,272.1c0.9,0,1.6,0.3,2.2,0.9c0.5,0.6,0.8,1.4,0.8,2.5v4.9h-2.2v-4.6c0-1.2-0.5-1.8-1.4-1.8
		c-0.6,0-1,0.2-1.3,0.6c-0.3,0.4-0.5,0.9-0.5,1.5v4.3h-2.2v-8.1h1.5l0.4,1c0.3-0.4,0.7-0.7,1.2-0.9
		C400.7,272.2,401.3,272.1,401.8,272.1z"/>
	<path class="st7" d="M413.3,272.3h1.4v7.2c0,1.3-0.4,2.3-1.1,3c-0.7,0.7-1.7,1.1-3,1.1c-1.1,0-2-0.3-2.7-0.8s-1.2-1.3-1.4-2.2h2.2
		c0.1,0.3,0.4,0.6,0.7,0.8c0.4,0.2,0.8,0.3,1.2,0.3c0.6,0,1.1-0.2,1.4-0.5c0.4-0.3,0.6-0.8,0.6-1.4v-0.3c-0.7,0.5-1.5,0.7-2.3,0.7
		c-0.7,0-1.4-0.2-2-0.5c-0.6-0.4-1.1-0.8-1.5-1.5c-0.4-0.6-0.5-1.3-0.5-2.1c0-0.7,0.2-1.4,0.5-2c0.4-0.6,0.8-1.1,1.5-1.5
		c0.6-0.4,1.3-0.5,2-0.5c1,0,1.9,0.3,2.7,1L413.3,272.3z M410.5,278.2c0.6,0,1.1-0.2,1.5-0.6c0.4-0.4,0.6-0.9,0.6-1.5
		c0-0.6-0.2-1.1-0.6-1.5c-0.4-0.4-0.9-0.6-1.5-0.6c-0.6,0-1.1,0.2-1.5,0.6c-0.4,0.4-0.6,0.9-0.6,1.5c0,0.6,0.2,1.1,0.6,1.5
		C409.5,278,409.9,278.2,410.5,278.2z"/>
	<path class="st7" d="M424.1,278.4h1v1.9h-1.6c-0.9,0-1.6-0.3-2.1-0.8c-0.5-0.5-0.8-1.2-0.8-2.1V274h-1.5v-0.5l3.2-3.4h0.4v2.1h2.2
		v1.8h-2.2v3.2c0,0.4,0.1,0.7,0.3,0.9S423.7,278.4,424.1,278.4z"/>
	<path class="st7" d="M431.3,272.1c0.9,0,1.6,0.3,2.2,0.9c0.5,0.6,0.8,1.4,0.8,2.5v4.9h-2.2v-4.6c0-0.6-0.1-1.1-0.3-1.4
		c-0.2-0.3-0.6-0.4-1.1-0.4c-0.6,0-1,0.2-1.3,0.6c-0.3,0.4-0.5,0.9-0.5,1.5v4.3h-2.2v-11h2.2v3.7
		C429.5,272.4,430.3,272.1,431.3,272.1z"/>
	<path class="st7" d="M444.1,276.3c0,0.2,0,0.4,0,0.6h-6.1c0.1,0.6,0.3,1,0.7,1.3c0.3,0.3,0.8,0.4,1.3,0.4c0.4,0,0.7-0.1,1-0.3
		c0.3-0.2,0.5-0.4,0.7-0.7h2.3c-0.3,0.9-0.8,1.6-1.5,2.1c-0.7,0.5-1.6,0.8-2.5,0.8c-0.8,0-1.5-0.2-2.1-0.6c-0.6-0.4-1.1-0.9-1.5-1.5
		s-0.5-1.4-0.5-2.2c0-0.8,0.2-1.5,0.5-2.2c0.4-0.7,0.9-1.2,1.5-1.5c0.6-0.4,1.4-0.6,2.2-0.6c0.8,0,1.5,0.2,2.2,0.6
		c0.6,0.4,1.1,0.9,1.5,1.5S444.1,275.5,444.1,276.3z M439.9,273.9c-0.5,0-0.9,0.1-1.2,0.4c-0.3,0.3-0.6,0.6-0.7,1.1h3.9
		c-0.2-0.5-0.4-0.9-0.7-1.1C440.8,274.1,440.4,273.9,439.9,273.9z"/>
</g>
<g class="st6">
	<path class="st7" d="M273.1,292.9v2.1h-2.9v8.4h-2.3V295H265v-2.1H273.1z"/>
	<path class="st7" d="M277.2,303.6c-0.8,0-1.6-0.2-2.2-0.6c-0.7-0.4-1.2-0.9-1.6-1.5c-0.4-0.7-0.6-1.4-0.6-2.2
		c0-0.8,0.2-1.5,0.6-2.2c0.4-0.7,0.9-1.2,1.6-1.5c0.7-0.4,1.4-0.6,2.2-0.6c0.8,0,1.6,0.2,2.2,0.6c0.7,0.4,1.2,0.9,1.6,1.5
		s0.6,1.4,0.6,2.2c0,0.8-0.2,1.5-0.6,2.2s-0.9,1.2-1.6,1.5C278.8,303.4,278,303.6,277.2,303.6z M275.7,300.9
		c0.4,0.4,0.9,0.6,1.6,0.6s1.1-0.2,1.6-0.6c0.4-0.4,0.6-0.9,0.6-1.6c0-0.7-0.2-1.2-0.6-1.6c-0.4-0.4-0.9-0.6-1.6-0.6
		s-1.1,0.2-1.6,0.6c-0.4,0.4-0.6,0.9-0.6,1.6C275.1,300,275.3,300.5,275.7,300.9z"/>
	<path class="st7" d="M286.9,303.6c-1.1,0-2.1-0.3-2.8-1s-1.1-1.5-1.1-2.6v-4.7h2.2v4.4c0,0.6,0.1,1,0.4,1.4
		c0.3,0.3,0.7,0.5,1.2,0.5s0.9-0.2,1.2-0.5c0.3-0.3,0.4-0.8,0.4-1.3v-4.4h2.2v4.7c0,1.1-0.3,2-1,2.6S288,303.6,286.9,303.6z"/>
	<path class="st7" d="M296.8,295.2h0.7v2.1h-0.9c-0.6,0-1.1,0.1-1.3,0.4c-0.3,0.3-0.4,0.8-0.4,1.4v4.2h-2.2v-8.1h1.4l0.4,1
		C295,295.6,295.8,295.2,296.8,295.2z"/>
	<path class="st7" d="M304.4,301.3h4.2v2.1h-6.5v-10.5h6.3v2.1h-4v2.1h3.6v2.1h-3.6V301.3z"/>
	<path class="st7" d="M317.4,303.4h-2.5l-1.6-2.7l-1.6,2.7h-2.4l2.8-4.2l-2.6-3.9h2.5l1.4,2.3l1.5-2.3h2.4l-2.6,3.8L317.4,303.4z"/>
	<path class="st7" d="M322.9,295.1c0.8,0,1.5,0.2,2.2,0.6c0.6,0.4,1.2,0.9,1.5,1.5c0.4,0.7,0.5,1.4,0.5,2.2c0,0.8-0.2,1.5-0.5,2.2
		c-0.4,0.7-0.9,1.2-1.5,1.5c-0.6,0.4-1.4,0.6-2.2,0.6c-0.8,0-1.6-0.2-2.2-0.7v3.4h-2.2v-11h1.4l0.4,0.7
		C321,295.4,321.9,295.1,322.9,295.1z M321.2,300.9c0.4,0.4,0.9,0.6,1.6,0.6s1.2-0.2,1.6-0.6c0.4-0.4,0.6-0.9,0.6-1.6
		c0-0.6-0.2-1.2-0.6-1.6c-0.4-0.4-0.9-0.6-1.6-0.6s-1.2,0.2-1.6,0.6c-0.4,0.4-0.6,1-0.6,1.6C320.5,300,320.7,300.5,321.2,300.9z"/>
	<path class="st7" d="M336.6,299.3c0,0.2,0,0.4,0,0.6h-6.1c0.1,0.6,0.3,1,0.7,1.3c0.3,0.3,0.8,0.4,1.3,0.4c0.4,0,0.7-0.1,1-0.3
		c0.3-0.2,0.5-0.4,0.7-0.7h2.3c-0.3,0.9-0.8,1.6-1.5,2.1c-0.7,0.5-1.6,0.8-2.5,0.8c-0.8,0-1.5-0.2-2.1-0.6c-0.6-0.4-1.1-0.9-1.5-1.5
		s-0.5-1.4-0.5-2.2c0-0.8,0.2-1.5,0.5-2.2c0.4-0.7,0.9-1.2,1.5-1.5c0.6-0.4,1.4-0.6,2.2-0.6c0.8,0,1.5,0.2,2.2,0.6
		c0.6,0.4,1.1,0.9,1.5,1.5S336.6,298.5,336.6,299.3z M332.4,296.9c-0.5,0-0.9,0.1-1.2,0.4c-0.3,0.3-0.6,0.6-0.7,1.1h3.9
		c-0.2-0.5-0.4-0.9-0.7-1.1C333.3,297.1,332.9,296.9,332.4,296.9z"/>
	<path class="st7" d="M342.3,295.2h0.7v2.1h-0.9c-0.6,0-1.1,0.1-1.3,0.4c-0.3,0.3-0.4,0.8-0.4,1.4v4.2h-2.2v-8.1h1.4l0.4,1
		C340.5,295.6,341.3,295.2,342.3,295.2z"/>
	<path class="st7" d="M344.2,294.2v-2h2.2v2H344.2z M344.2,303.4v-8.1h2.2v8.1H344.2z"/>
	<path class="st7" d="M356.4,299.3c0,0.2,0,0.4,0,0.6h-6.1c0.1,0.6,0.3,1,0.7,1.3c0.3,0.3,0.8,0.4,1.3,0.4c0.4,0,0.7-0.1,1-0.3
		c0.3-0.2,0.5-0.4,0.7-0.7h2.3c-0.3,0.9-0.8,1.6-1.5,2.1c-0.7,0.5-1.6,0.8-2.5,0.8c-0.8,0-1.5-0.2-2.1-0.6c-0.6-0.4-1.1-0.9-1.5-1.5
		s-0.5-1.4-0.5-2.2c0-0.8,0.2-1.5,0.5-2.2c0.4-0.7,0.9-1.2,1.5-1.5c0.6-0.4,1.4-0.6,2.2-0.6c0.8,0,1.5,0.2,2.2,0.6
		c0.6,0.4,1.1,0.9,1.5,1.5S356.4,298.5,356.4,299.3z M352.2,296.9c-0.5,0-0.9,0.1-1.2,0.4c-0.3,0.3-0.6,0.6-0.7,1.1h3.9
		c-0.2-0.5-0.4-0.9-0.7-1.1C353.1,297.1,352.7,296.9,352.2,296.9z"/>
	<path class="st7" d="M362.6,295.1c0.9,0,1.6,0.3,2.2,0.9c0.5,0.6,0.8,1.4,0.8,2.5v4.9h-2.2v-4.6c0-1.2-0.5-1.8-1.4-1.8
		c-0.6,0-1,0.2-1.3,0.6c-0.3,0.4-0.5,0.9-0.5,1.5v4.3h-2.2v-8.1h1.5l0.4,1c0.3-0.4,0.7-0.7,1.2-0.9
		C361.5,295.2,362,295.1,362.6,295.1z"/>
	<path class="st7" d="M371.3,303.6c-0.6,0-1.2-0.1-1.7-0.3c-0.5-0.2-1-0.5-1.4-0.9s-0.7-0.8-0.9-1.4c-0.2-0.5-0.3-1.1-0.3-1.7
		s0.1-1.2,0.3-1.7s0.5-1,0.9-1.4s0.8-0.7,1.4-0.9c0.5-0.2,1.1-0.3,1.7-0.3c1,0,1.9,0.3,2.7,0.9c0.8,0.6,1.2,1.4,1.4,2.4h-2.2
		c-0.2-0.4-0.4-0.7-0.8-0.9c-0.3-0.2-0.7-0.3-1.2-0.3c-0.6,0-1.1,0.2-1.5,0.6c-0.4,0.4-0.6,0.9-0.6,1.6s0.2,1.2,0.6,1.6
		c0.4,0.4,0.9,0.6,1.5,0.6c0.4,0,0.8-0.1,1.2-0.4s0.6-0.6,0.8-1h2.2c-0.2,1-0.7,1.8-1.4,2.5C373.3,303.3,372.4,303.6,371.3,303.6z"
		/>
	<path class="st7" d="M384.8,299.3c0,0.2,0,0.4,0,0.6h-6.1c0.1,0.6,0.3,1,0.7,1.3c0.3,0.3,0.8,0.4,1.3,0.4c0.4,0,0.7-0.1,1-0.3
		c0.3-0.2,0.5-0.4,0.7-0.7h2.3c-0.3,0.9-0.8,1.6-1.5,2.1c-0.7,0.5-1.6,0.8-2.5,0.8c-0.8,0-1.5-0.2-2.1-0.6c-0.6-0.4-1.1-0.9-1.5-1.5
		s-0.5-1.4-0.5-2.2c0-0.8,0.2-1.5,0.5-2.2c0.4-0.7,0.9-1.2,1.5-1.5c0.6-0.4,1.4-0.6,2.2-0.6c0.8,0,1.5,0.2,2.2,0.6
		c0.6,0.4,1.1,0.9,1.5,1.5S384.8,298.5,384.8,299.3z M380.6,296.9c-0.5,0-0.9,0.1-1.2,0.4c-0.3,0.3-0.6,0.6-0.7,1.1h3.9
		c-0.2-0.5-0.4-0.9-0.7-1.1C381.5,297.1,381.1,296.9,380.6,296.9z"/>
	<path class="st7" d="M394.9,295.4v1.8h-2v6.2h-2.2v-6.2h-1.4v-1.8h1.4v-0.7c0-0.8,0.2-1.4,0.7-1.9c0.4-0.5,1.1-0.7,1.9-0.7h1.6v1.7
		h-1.2c-0.6,0-0.9,0.3-0.9,0.9v0.7H394.9z"/>
	<path class="st7" d="M399.8,303.6c-0.8,0-1.6-0.2-2.2-0.6c-0.7-0.4-1.2-0.9-1.6-1.5c-0.4-0.7-0.6-1.4-0.6-2.2
		c0-0.8,0.2-1.5,0.6-2.2c0.4-0.7,0.9-1.2,1.6-1.5c0.7-0.4,1.4-0.6,2.2-0.6c0.8,0,1.6,0.2,2.2,0.6c0.7,0.4,1.2,0.9,1.6,1.5
		s0.6,1.4,0.6,2.2c0,0.8-0.2,1.5-0.6,2.2s-0.9,1.2-1.6,1.5C401.4,303.4,400.6,303.6,399.8,303.6z M398.3,300.9
		c0.4,0.4,0.9,0.6,1.6,0.6c0.6,0,1.1-0.2,1.6-0.6c0.4-0.4,0.6-0.9,0.6-1.6c0-0.7-0.2-1.2-0.6-1.6c-0.4-0.4-0.9-0.6-1.6-0.6
		c-0.6,0-1.1,0.2-1.6,0.6c-0.4,0.4-0.6,0.9-0.6,1.6C397.7,300,397.9,300.5,398.3,300.9z"/>
	<path class="st7" d="M409.9,295.2h0.7v2.1h-0.9c-0.6,0-1.1,0.1-1.3,0.4c-0.3,0.3-0.4,0.8-0.4,1.4v4.2h-2.2v-8.1h1.4l0.4,1
		C408.1,295.6,408.9,295.2,409.9,295.2z"/>
	<path class="st7" d="M418.8,301.4h1v1.9h-1.6c-0.9,0-1.6-0.3-2.1-0.8c-0.5-0.5-0.8-1.2-0.8-2.1V297h-1.5v-0.5l3.2-3.4h0.4v2.1h2.2
		v1.8h-2.2v3.2c0,0.4,0.1,0.7,0.3,0.9S418.4,301.4,418.8,301.4z"/>
	<path class="st7" d="M425.9,295.1c0.9,0,1.6,0.3,2.2,0.9c0.5,0.6,0.8,1.4,0.8,2.5v4.9h-2.2v-4.6c0-0.6-0.1-1.1-0.3-1.4
		c-0.2-0.3-0.6-0.4-1.1-0.4c-0.6,0-1,0.2-1.3,0.6c-0.3,0.4-0.5,0.9-0.5,1.5v4.3h-2.2v-11h2.2v3.7
		C424.1,295.4,424.9,295.1,425.9,295.1z"/>
	<path class="st7" d="M438.7,299.3c0,0.2,0,0.4,0,0.6h-6.1c0.1,0.6,0.3,1,0.7,1.3c0.3,0.3,0.8,0.4,1.3,0.4c0.4,0,0.7-0.1,1-0.3
		c0.3-0.2,0.5-0.4,0.7-0.7h2.3c-0.3,0.9-0.8,1.6-1.5,2.1c-0.7,0.5-1.6,0.8-2.5,0.8c-0.8,0-1.5-0.2-2.1-0.6c-0.6-0.4-1.1-0.9-1.5-1.5
		s-0.5-1.4-0.5-2.2c0-0.8,0.2-1.5,0.5-2.2c0.4-0.7,0.9-1.2,1.5-1.5c0.6-0.4,1.4-0.6,2.2-0.6c0.8,0,1.5,0.2,2.2,0.6
		c0.6,0.4,1.1,0.9,1.5,1.5S438.7,298.5,438.7,299.3z M434.5,296.9c-0.5,0-0.9,0.1-1.2,0.4c-0.3,0.3-0.6,0.6-0.7,1.1h3.9
		c-0.2-0.5-0.4-0.9-0.7-1.1C435.4,297.1,435,296.9,434.5,296.9z"/>
	<path class="st7" d="M448.6,297.9h5.6c0,1.1-0.2,2.1-0.7,2.9c-0.5,0.9-1.1,1.6-1.9,2c-0.8,0.5-1.7,0.7-2.8,0.7
		c-0.8,0-1.5-0.1-2.1-0.4c-0.7-0.3-1.2-0.7-1.7-1.1c-0.5-0.5-0.9-1.1-1.1-1.7c-0.3-0.7-0.4-1.4-0.4-2.2c0-0.8,0.1-1.5,0.4-2.2
		c0.3-0.7,0.6-1.3,1.1-1.7c0.5-0.5,1-0.9,1.7-1.1s1.4-0.4,2.2-0.4c0.9,0,1.7,0.2,2.4,0.5c0.7,0.3,1.4,0.8,1.9,1.4
		c0.5,0.6,0.8,1.3,1,2.1h-2.3c-0.2-0.6-0.6-1-1.1-1.3c-0.5-0.3-1.1-0.5-1.8-0.5c-0.9,0-1.7,0.3-2.3,0.9c-0.6,0.6-0.9,1.4-0.9,2.4
		c0,1,0.3,1.8,0.9,2.4c0.6,0.6,1.3,0.9,2.3,0.9c0.7,0,1.3-0.2,1.8-0.5c0.5-0.3,0.9-0.8,1.1-1.3h-3.1V297.9z"/>
	<path class="st7" d="M459.5,303.6c-1.1,0-2.1-0.3-2.8-1c-0.7-0.7-1.1-1.5-1.1-2.6v-4.7h2.2v4.4c0,0.6,0.1,1,0.4,1.4
		c0.3,0.3,0.7,0.5,1.2,0.5c0.5,0,0.9-0.2,1.2-0.5c0.3-0.3,0.4-0.8,0.4-1.3v-4.4h2.2v4.7c0,1.1-0.3,2-1,2.6S460.7,303.6,459.5,303.6z
		"/>
	<path class="st7" d="M473.2,299.3c0,0.2,0,0.4,0,0.6H467c0.1,0.6,0.3,1,0.7,1.3c0.3,0.3,0.8,0.4,1.3,0.4c0.4,0,0.7-0.1,1-0.3
		c0.3-0.2,0.5-0.4,0.7-0.7h2.3c-0.3,0.9-0.8,1.6-1.5,2.1c-0.7,0.5-1.6,0.8-2.5,0.8c-0.8,0-1.5-0.2-2.1-0.6c-0.6-0.4-1.1-0.9-1.5-1.5
		s-0.5-1.4-0.5-2.2c0-0.8,0.2-1.5,0.5-2.2c0.4-0.7,0.9-1.2,1.5-1.5c0.6-0.4,1.4-0.6,2.2-0.6c0.8,0,1.5,0.2,2.2,0.6
		c0.6,0.4,1.1,0.9,1.5,1.5S473.2,298.5,473.2,299.3z M469,296.9c-0.5,0-0.9,0.1-1.2,0.4c-0.3,0.3-0.6,0.6-0.7,1.1h3.9
		c-0.2-0.5-0.4-0.9-0.7-1.1C469.9,297.1,469.5,296.9,469,296.9z"/>
	<path class="st7" d="M477.6,303.6c-1,0-1.8-0.3-2.5-0.8c-0.6-0.5-0.9-1.2-0.9-2.1h2.1c0,0.3,0.1,0.6,0.4,0.8c0.2,0.2,0.6,0.3,1,0.3
		c0.3,0,0.6-0.1,0.8-0.2c0.2-0.1,0.3-0.3,0.3-0.6c0-0.1,0-0.2-0.1-0.3c-0.1-0.1-0.2-0.2-0.4-0.2c-0.2-0.1-0.3-0.1-0.5-0.2
		c-0.2,0-0.4-0.1-0.6-0.1c-0.2,0-0.4-0.1-0.6-0.1c-0.2,0-0.3-0.1-0.6-0.1c-0.2-0.1-0.4-0.1-0.6-0.2c-0.2-0.1-0.3-0.2-0.5-0.3
		c-0.2-0.1-0.3-0.3-0.4-0.4c-0.1-0.2-0.2-0.3-0.2-0.6c-0.1-0.2-0.1-0.5-0.1-0.7c0-0.8,0.3-1.4,0.9-1.9c0.6-0.5,1.4-0.7,2.4-0.7
		c1,0,1.8,0.2,2.4,0.7c0.6,0.5,0.9,1.1,0.9,2h-2.1c0-0.3-0.1-0.6-0.3-0.7c-0.2-0.2-0.5-0.2-0.9-0.2c-0.3,0-0.6,0.1-0.8,0.2
		c-0.2,0.1-0.3,0.3-0.3,0.6c0,0.1,0,0.2,0,0.2c0,0.1,0.1,0.1,0.2,0.2c0.1,0.1,0.2,0.1,0.2,0.1c0.1,0,0.2,0.1,0.3,0.1
		c0.1,0,0.3,0.1,0.4,0.1c0.1,0,0.2,0,0.4,0.1c0.8,0.1,1.4,0.3,1.7,0.4c0.9,0.4,1.3,1.1,1.3,2.1c0,0.8-0.3,1.5-0.9,2
		C479.4,303.4,478.6,303.6,477.6,303.6z"/>
	<path class="st7" d="M486.5,301.4h1v1.9h-1.6c-0.9,0-1.6-0.3-2.1-0.8c-0.5-0.5-0.8-1.2-0.8-2.1V297h-1.5v-0.5l3.2-3.4h0.4v2.1h2.2
		v1.8h-2.2v3.2c0,0.4,0.1,0.7,0.3,0.9S486.1,301.4,486.5,301.4z"/>
</g>
<g class="st6">
	<path class="st7" d="M769,280.4l-2.1-3.6h-1.5v3.6h-2.3v-10.5h4.2c1.1,0,1.9,0.3,2.6,1c0.7,0.7,1,1.5,1,2.5c0,0.7-0.2,1.3-0.5,1.8
		c-0.3,0.5-0.8,0.9-1.4,1.2l2.3,4H769z M765.5,272v2.7h1.8c0.5,0,0.8-0.1,1.1-0.4c0.3-0.3,0.4-0.6,0.4-1c0-0.4-0.1-0.7-0.4-1
		s-0.6-0.4-1.1-0.4H765.5z"/>
	<path class="st7" d="M780.7,276.3c0,0.2,0,0.4,0,0.6h-6.1c0.1,0.6,0.3,1,0.7,1.3c0.3,0.3,0.8,0.4,1.3,0.4c0.4,0,0.7-0.1,1-0.3
		c0.3-0.2,0.5-0.4,0.7-0.7h2.3c-0.3,0.9-0.8,1.6-1.5,2.1c-0.7,0.5-1.6,0.8-2.5,0.8c-0.8,0-1.5-0.2-2.1-0.6c-0.6-0.4-1.1-0.9-1.5-1.5
		s-0.5-1.4-0.5-2.2c0-0.8,0.2-1.5,0.5-2.2c0.4-0.7,0.9-1.2,1.5-1.5c0.6-0.4,1.4-0.6,2.1-0.6c0.8,0,1.5,0.2,2.2,0.6
		c0.6,0.4,1.1,0.9,1.5,1.5S780.7,275.5,780.7,276.3z M776.5,273.9c-0.5,0-0.9,0.1-1.2,0.4s-0.6,0.6-0.7,1.1h3.9
		c-0.2-0.5-0.4-0.9-0.7-1.1C777.4,274.1,777,273.9,776.5,273.9z"/>
	<path class="st7" d="M782.1,277.2v-2.1h4.9v2.1H782.1z"/>
	<path class="st7" d="M793.1,272.2h0.7v2.1h-0.9c-0.6,0-1.1,0.1-1.3,0.4c-0.3,0.3-0.4,0.8-0.4,1.4v4.2H789v-8.1h1.4l0.4,1
		C791.3,272.6,792.1,272.2,793.1,272.2z"/>
	<path class="st7" d="M798.7,280.6c-0.8,0-1.6-0.2-2.2-0.6c-0.7-0.4-1.2-0.9-1.6-1.5c-0.4-0.7-0.6-1.4-0.6-2.2
		c0-0.8,0.2-1.5,0.6-2.2c0.4-0.7,0.9-1.2,1.6-1.5c0.7-0.4,1.4-0.6,2.2-0.6c0.8,0,1.6,0.2,2.2,0.6c0.7,0.4,1.2,0.9,1.6,1.5
		s0.6,1.4,0.6,2.2c0,0.8-0.2,1.5-0.6,2.2s-0.9,1.2-1.6,1.5C800.3,280.4,799.5,280.6,798.7,280.6z M797.2,277.9
		c0.4,0.4,0.9,0.6,1.6,0.6s1.1-0.2,1.6-0.6c0.4-0.4,0.6-0.9,0.6-1.6c0-0.7-0.2-1.2-0.6-1.6c-0.4-0.4-0.9-0.6-1.6-0.6
		s-1.1,0.2-1.6,0.6c-0.4,0.4-0.6,0.9-0.6,1.6C796.6,277,796.8,277.5,797.2,277.9z"/>
	<path class="st7" d="M808.4,280.6c-1.1,0-2.1-0.3-2.8-1c-0.7-0.7-1.1-1.5-1.1-2.6v-4.7h2.2v4.4c0,0.6,0.1,1,0.4,1.4
		c0.3,0.3,0.7,0.5,1.2,0.5s0.9-0.2,1.2-0.5c0.3-0.3,0.4-0.8,0.4-1.3v-4.4h2.2v4.7c0,1.1-0.3,2-1,2.6S809.5,280.6,808.4,280.6z"/>
	<path class="st7" d="M818.1,278.4h1v1.9h-1.6c-0.9,0-1.6-0.3-2.1-0.8c-0.5-0.5-0.8-1.2-0.8-2.1V274h-1.5v-0.5l3.2-3.4h0.4v2.1h2.2
		v1.8h-2.2v3.2c0,0.4,0.1,0.7,0.3,0.9S817.7,278.4,818.1,278.4z"/>
	<path class="st7" d="M820.6,271.2v-2h2.2v2H820.6z M820.6,280.4v-8.1h2.2v8.1H820.6z"/>
	<path class="st7" d="M829.5,272.1c0.9,0,1.6,0.3,2.2,0.9c0.5,0.6,0.8,1.4,0.8,2.5v4.9h-2.2v-4.6c0-1.2-0.5-1.8-1.4-1.8
		c-0.6,0-1,0.2-1.3,0.6c-0.3,0.4-0.5,0.9-0.5,1.5v4.3h-2.2v-8.1h1.5l0.4,1c0.3-0.4,0.7-0.7,1.2-0.9
		C828.5,272.2,829,272.1,829.5,272.1z"/>
	<path class="st7" d="M841,272.3h1.4v7.2c0,1.3-0.4,2.3-1.1,3c-0.7,0.7-1.7,1.1-3,1.1c-1.1,0-2-0.3-2.7-0.8s-1.2-1.3-1.4-2.2h2.2
		c0.1,0.3,0.4,0.6,0.7,0.8c0.4,0.2,0.8,0.3,1.2,0.3c0.6,0,1.1-0.2,1.4-0.5c0.4-0.3,0.6-0.8,0.6-1.4v-0.3c-0.7,0.5-1.5,0.7-2.3,0.7
		c-0.7,0-1.4-0.2-2-0.5c-0.6-0.4-1.1-0.8-1.5-1.5c-0.4-0.6-0.5-1.3-0.5-2.1c0-0.7,0.2-1.4,0.5-2c0.4-0.6,0.8-1.1,1.5-1.5
		c0.6-0.4,1.3-0.5,2-0.5c1,0,1.9,0.3,2.7,1L841,272.3z M838.2,278.2c0.6,0,1.1-0.2,1.5-0.6c0.4-0.4,0.6-0.9,0.6-1.5
		c0-0.6-0.2-1.1-0.6-1.5c-0.4-0.4-0.9-0.6-1.5-0.6c-0.6,0-1.1,0.2-1.5,0.6c-0.4,0.4-0.6,0.9-0.6,1.5c0,0.6,0.2,1.1,0.6,1.5
		C837.2,278,837.6,278.2,838.2,278.2z"/>
	<path class="st7" d="M857.5,272.3h2.2l-2.7,8.1h-1.8l-1.8-4.2l-1.8,4.2h-1.8l-2.7-8.1h2.2l1.6,4.8l2.1-4.8h0.6l2.2,4.8L857.5,272.3
		z"/>
	<path class="st7" d="M865.5,272.1c0.9,0,1.6,0.3,2.2,0.9c0.5,0.6,0.8,1.4,0.8,2.5v4.9h-2.2v-4.6c0-0.6-0.1-1.1-0.3-1.4
		c-0.2-0.3-0.6-0.4-1.1-0.4c-0.6,0-1,0.2-1.3,0.6c-0.3,0.4-0.5,0.9-0.5,1.5v4.3h-2.2v-11h2.2v3.7
		C863.7,272.4,864.5,272.1,865.5,272.1z"/>
	<path class="st7" d="M878.3,276.3c0,0.2,0,0.4,0,0.6h-6.1c0.1,0.6,0.3,1,0.7,1.3c0.3,0.3,0.8,0.4,1.3,0.4c0.4,0,0.7-0.1,1-0.3
		c0.3-0.2,0.5-0.4,0.7-0.7h2.3c-0.3,0.9-0.8,1.6-1.5,2.1c-0.7,0.5-1.6,0.8-2.5,0.8c-0.8,0-1.5-0.2-2.1-0.6c-0.6-0.4-1.1-0.9-1.5-1.5
		s-0.5-1.4-0.5-2.2c0-0.8,0.2-1.5,0.5-2.2c0.4-0.7,0.9-1.2,1.5-1.5c0.6-0.4,1.4-0.6,2.2-0.6c0.8,0,1.5,0.2,2.2,0.6
		c0.6,0.4,1.1,0.9,1.5,1.5S878.3,275.5,878.3,276.3z M874.2,273.9c-0.5,0-0.9,0.1-1.2,0.4c-0.3,0.3-0.6,0.6-0.7,1.1h3.9
		c-0.2-0.5-0.4-0.9-0.7-1.1C875.1,274.1,874.6,273.9,874.2,273.9z"/>
	<path class="st7" d="M884.5,272.1c0.9,0,1.6,0.3,2.2,0.9c0.5,0.6,0.8,1.4,0.8,2.5v4.9h-2.2v-4.6c0-1.2-0.5-1.8-1.4-1.8
		c-0.6,0-1,0.2-1.3,0.6c-0.3,0.4-0.5,0.9-0.5,1.5v4.3h-2.2v-8.1h1.5l0.4,1c0.3-0.4,0.7-0.7,1.2-0.9
		C883.5,272.2,884,272.1,884.5,272.1z"/>
	<path class="st7" d="M897.2,272.2h0.7v2.1H897c-0.6,0-1.1,0.1-1.3,0.4c-0.3,0.3-0.4,0.8-0.4,1.4v4.2h-2.2v-8.1h1.4l0.4,1
		C895.4,272.6,896.2,272.2,897.2,272.2z"/>
	<path class="st7" d="M906.9,276.3c0,0.2,0,0.4,0,0.6h-6.1c0.1,0.6,0.3,1,0.7,1.3c0.3,0.3,0.8,0.4,1.3,0.4c0.4,0,0.7-0.1,1-0.3
		c0.3-0.2,0.5-0.4,0.7-0.7h2.3c-0.3,0.9-0.8,1.6-1.5,2.1c-0.7,0.5-1.6,0.8-2.5,0.8c-0.8,0-1.5-0.2-2.1-0.6c-0.6-0.4-1.1-0.9-1.5-1.5
		s-0.5-1.4-0.5-2.2c0-0.8,0.2-1.5,0.5-2.2c0.4-0.7,0.9-1.2,1.5-1.5c0.6-0.4,1.4-0.6,2.2-0.6c0.8,0,1.5,0.2,2.2,0.6
		c0.6,0.4,1.1,0.9,1.5,1.5S906.9,275.5,906.9,276.3z M902.7,273.9c-0.5,0-0.9,0.1-1.2,0.4c-0.3,0.3-0.6,0.6-0.7,1.1h3.9
		c-0.2-0.5-0.4-0.9-0.7-1.1C903.6,274.1,903.2,273.9,902.7,273.9z"/>
	<path class="st7" d="M915.1,272.3h1.5v11h-2.2v-3.4c-0.7,0.5-1.4,0.7-2.2,0.7c-0.8,0-1.5-0.2-2.2-0.6c-0.6-0.4-1.2-0.9-1.5-1.5
		c-0.4-0.7-0.5-1.4-0.5-2.2c0-0.8,0.2-1.5,0.5-2.2c0.4-0.7,0.9-1.2,1.5-1.5c0.6-0.4,1.4-0.6,2.2-0.6c1,0,1.9,0.3,2.6,1L915.1,272.3z
		 M910.7,277.9c0.4,0.4,0.9,0.6,1.6,0.6s1.2-0.2,1.6-0.6c0.4-0.4,0.6-1,0.6-1.6c0-0.6-0.2-1.2-0.6-1.6c-0.4-0.4-0.9-0.6-1.6-0.6
		s-1.2,0.2-1.6,0.6c-0.4,0.4-0.6,1-0.6,1.6C910.1,277,910.3,277.5,910.7,277.9z"/>
	<path class="st7" d="M922.4,280.6c-1.1,0-2.1-0.3-2.8-1c-0.7-0.7-1.1-1.5-1.1-2.6v-4.7h2.2v4.4c0,0.6,0.1,1,0.4,1.4
		c0.3,0.3,0.7,0.5,1.2,0.5c0.5,0,0.9-0.2,1.2-0.5c0.3-0.3,0.4-0.8,0.4-1.3v-4.4h2.2v4.7c0,1.1-0.3,2-1,2.6S923.5,280.6,922.4,280.6z
		"/>
	<path class="st7" d="M928.1,271.2v-2h2.2v2H928.1z M928.1,280.4v-8.1h2.2v8.1H928.1z"/>
	<path class="st7" d="M936.6,272.2h0.7v2.1h-0.9c-0.6,0-1.1,0.1-1.3,0.4c-0.3,0.3-0.4,0.8-0.4,1.4v4.2h-2.2v-8.1h1.4l0.4,1
		C934.8,272.6,935.6,272.2,936.6,272.2z"/>
	<path class="st7" d="M946.2,276.3c0,0.2,0,0.4,0,0.6H940c0.1,0.6,0.3,1,0.7,1.3c0.3,0.3,0.8,0.4,1.3,0.4c0.4,0,0.7-0.1,1-0.3
		c0.3-0.2,0.5-0.4,0.7-0.7h2.3c-0.3,0.9-0.8,1.6-1.5,2.1c-0.7,0.5-1.6,0.8-2.5,0.8c-0.8,0-1.5-0.2-2.1-0.6c-0.6-0.4-1.1-0.9-1.5-1.5
		s-0.5-1.4-0.5-2.2c0-0.8,0.2-1.5,0.5-2.2c0.4-0.7,0.9-1.2,1.5-1.5c0.6-0.4,1.4-0.6,2.2-0.6c0.8,0,1.5,0.2,2.2,0.6
		c0.6,0.4,1.1,0.9,1.5,1.5S946.2,275.5,946.2,276.3z M942,273.9c-0.5,0-0.9,0.1-1.2,0.4c-0.3,0.3-0.6,0.6-0.7,1.1h3.9
		c-0.2-0.5-0.4-0.9-0.7-1.1C942.9,274.1,942.5,273.9,942,273.9z"/>
	<path class="st7" d="M953.7,269.4h2.2v11h-1.6l-0.3-0.7c-0.7,0.6-1.6,0.9-2.5,0.9c-1.2,0-2.2-0.4-3-1.2s-1.2-1.8-1.2-3.1
		c0-0.6,0.1-1.2,0.3-1.7c0.2-0.5,0.5-1,0.9-1.4c0.4-0.4,0.8-0.7,1.4-0.9c0.5-0.2,1.1-0.3,1.7-0.3c0.8,0,1.6,0.2,2.2,0.7V269.4z
		 M950.1,277.9c0.4,0.4,0.9,0.6,1.6,0.6c0.6,0,1.2-0.2,1.6-0.6c0.4-0.4,0.6-1,0.6-1.6c0-0.6-0.2-1.2-0.6-1.6
		c-0.4-0.4-0.9-0.6-1.6-0.6c-0.6,0-1.2,0.2-1.6,0.6c-0.4,0.4-0.6,1-0.6,1.6C949.5,277,949.7,277.5,950.1,277.9z"/>
</g>
<g id="_002-deal" transform="translate(332 1590.667)">
	<g id="Group_267" transform="translate(84 107.535)">
		<path id="Path_2193" class="st8" d="M-246-1522.7c-0.4-0.3-1-0.4-1.5-0.2l-13.2,4.8c-1.6,0.6-2.9,1.8-3.7,3.4
			c-0.1,0.3-0.2,0.6-0.3,0.9c-3.7-1-7.2-2.4-10.7-4.1c-5.4-2.8-10-2.4-15.2,1.5c-2.1,0-5,0.3-7.9,0.5c-1.8,0.2-3.5,0.3-4.9,0.4
			c-0.1-2.6-1.8-4.9-4.3-5.8l-13.2-4.8c-0.8-0.3-1.8,0.1-2.1,1c-0.1,0.2-0.1,0.4-0.1,0.5v32.4c0,0.9,0.7,1.6,1.6,1.6l0,0h4.7
			c2,0,3.9-0.9,5.1-2.5c0.6,0.5,1.4,1.1,2.2,1.7c1.9,1.4,4,3,4.9,3.7c6,5,13.3,10.5,14.7,11.4c1.7,1.1,3.6,1.7,5.6,1.8
			c1.4,0.1,2.7-0.3,3.8-1.1c1.3,0.5,2.8,0.5,4.1-0.1c1.3-0.6,2.4-1.7,3-3c1.4,0.3,2.8,0,4-0.6s2.1-1.5,2.6-2.6
			c1.3,0.1,2.5-0.3,3.5-1.1c1.5-1.1,2.3-2.9,2.1-4.8l4.1-2.3c1.2,1.7,3.1,2.7,5.2,2.7h4.7c0.9,0,1.6-0.7,1.6-1.6l0,0v-32.4
			C-245.3-1522-245.6-1522.4-246-1522.7z M-265-1485.6c-0.5,0.4-1.3,0.7-1.7,0.3c0,0,0,0-0.1,0c0,0,0-0.1-0.1-0.1
			c-1.2-0.9-6.3-6.2-9.5-9.6c-0.6-0.7-1.6-0.7-2.3-0.1c-0.7,0.6-0.7,1.6-0.1,2.3c0,0,0,0,0.1,0.1c0.8,0.8,6.8,7.1,9.2,9.3
			c-0.2,0.6-0.6,1.1-1.2,1.3c-0.8,0.5-1.7,0.5-2.5,0.1l0,0c0,0,0,0,0-0.1c-1.9-1.6-6.8-6.7-7.9-7.9c-0.6-0.7-1.6-0.7-2.3-0.1
			c-0.6,0.6-0.7,1.6-0.1,2.3c0.1,0.1,4.8,5.2,7.5,7.6c-0.2,0.7-0.8,1.4-1.5,1.7c-0.7,0.3-1.6,0.2-2.2-0.3c-2.3-2-7-6.9-7.9-7.9
			c-0.6-0.7-1.6-0.7-2.3-0.1c-0.7,0.6-0.7,1.6-0.1,2.3c1.1,1.2,4.3,4.6,6.7,6.9c-0.3,0-0.6,0.1-0.8,0.1c-1.4-0.1-2.7-0.6-3.8-1.3
			c-1.1-0.7-8.3-6.1-14.4-11.2c-0.9-0.8-3.1-2.4-5-3.8c-1-0.8-2-1.5-2.7-2l6.1-16.2c1.6-0.1,3.7-0.3,5.9-0.4
			c1.3-0.1,2.5-0.2,3.7-0.3c-1.8,1.9-4.6,5.3-4.2,8.5c0.2,1.5,1,2.8,2.3,3.5c0.8,0.5,1.8,0.7,2.8,0.7c2.7-0.1,5.3-1.3,7.1-3.3
			c1.3-0.2,2.5-0.6,3.7-1.2c1.9,1.8,4.4,3.9,7.1,6.1c4.7,3.8,9.9,8.2,11.3,10.6C-263.9-1487.3-264.2-1486.1-265-1485.6z"/>
	</g>
</g>
<g id="_006-user-experience" transform="translate(668 1677.849)">
	<path id="Path_2256" class="st9" d="M-278-1559c-2.1,1.7-4.8,2.6-7.5,2.6l0,0c-2.6,0-5.2-0.9-7.3-2.5c-8.9,3.2-14.8,11.6-14.8,21.1
		v2.1h44.8v-2.1C-262.8-1547.4-268.9-1556-278-1559z"/>
	<path id="Path_2257" class="st10" d="M-313.1-1599.4l2.3,4.7l5.2,0.8l-3.7,3.6l0.9,5.1l-4.6-2.4l-4.6,2.4l0.9-5.1l-3.7-3.6l5.2-0.8
		L-313.1-1599.4z"/>
	<path id="Path_2301" class="st10" d="M-303.1-1615.4l2.3,4.7l5.2,0.8l-3.7,3.6l0.9,5.1l-4.6-2.4l-4.6,2.4l0.9-5.1l-3.7-3.6l5.2-0.8
		L-303.1-1615.4z"/>
	<path id="Path_2303" class="st10" d="M-267.1-1615.4l2.3,4.7l5.2,0.8l-3.7,3.6l0.9,5.1l-4.6-2.4l-4.6,2.4l0.9-5.1l-3.7-3.6l5.2-0.8
		L-267.1-1615.4z"/>
	<path id="Path_2258" class="st11" d="M-273.5-1579h-24.6c-1.9,0-3.4-1.5-3.4-3.4l0,0c0-3,2.4-5.4,5.4-5.4l0,0h18.2
		c2.5,0,4.5,2,4.5,4.5v4.3H-273.5z"/>
	<g id="Group_277" transform="translate(29.991 2.622)">
		<path id="Path_2259" class="st10" d="M-287-1602.2l2.3,4.7l5.2,0.8l-3.7,3.6l0.9,5.1l-4.6-2.4l-4.6,2.4l0.9-5.1l-3.7-3.6l5.2-0.8
			L-287-1602.2z"/>
		<path id="Path_2260" class="st10" d="M-315.5-1611.6l2.3,4.7l5.2,0.8l-3.7,3.6l0.9,5.1l-4.6-2.4l-4.6,2.4l0.9-5.1l-3.7-3.6
			l5.2-0.8L-315.5-1611.6z"/>
	</g>
	<path id="Path_2261" class="st12" d="M-275-1557.7c-1-0.5-2-0.9-3-1.3c-2.1,1.7-4.8,2.6-7.5,2.6l0,0c-2.6,0-5.2-0.9-7.3-2.5
		c-1,0.4-2,0.8-3,1.4C-290-1552-280.7-1552.1-275-1557.7L-275-1557.7z"/>
	<path id="Path_2262" class="st13" d="M-285.5-1556.4L-285.5-1556.4c-6.7,0-12.1-5.4-12.1-12.1v-10.5h24.1v10.5
		C-273.5-1561.8-278.9-1556.4-285.5-1556.4L-285.5-1556.4z"/>
	<rect id="Rectangle_1195" x="-297.6" y="-1579" class="st14" width="24.1" height="3"/>
	<path id="Path_2263" class="st15" d="M-273.5-1579h-24.6c-1.9,0-3.4-1.5-3.4-3.4h24.6C-275-1582.4-273.5-1580.9-273.5-1579z"/>
	<rect id="Rectangle_1196" x="-300.4" y="-1542.5" width="2.2" height="6.9"/>
	<rect id="Rectangle_1197" x="-272.2" y="-1542.5" width="2.2" height="6.9"/>
	<path id="Rectangle_1198" d="M-290.7-1572.7h0.6c0.6,0,1,0.4,1,1v1.2c0,0.6-0.4,1-1,1h-0.6c-0.6,0-1-0.4-1-1v-1.2
		C-291.7-1572.2-291.3-1572.7-290.7-1572.7z"/>
	<path id="Rectangle_1210" d="M-280.7-1572.7h0.6c0.6,0,1,0.4,1,1v1.2c0,0.6-0.4,1-1,1h-0.6c-0.6,0-1-0.4-1-1v-1.2
		C-281.7-1572.2-281.3-1572.7-280.7-1572.7z"/>
	<path id="Path_2265" d="M-313.1-1586.4l6.1,3.2l-1.2-6.8l4.9-4.8l-6.8-1l-3-6.2l-3.1,6.2l-6.8,1l4.9,4.8l-1.2,6.8L-313.1-1586.4z
		 M-318.2-1593.2l3.5-0.5l1.6-3.2l1.6,3.2l3.5,0.5l-2.5,2.5l0.6,3.5l-3.1-1.6l-3.1,1.6l0.6-3.5L-318.2-1593.2z"/>
	<path id="Path_2302" d="M-303.1-1602.4l6.1,3.2l-1.2-6.8l4.9-4.8l-6.8-1l-3-6.2l-3.1,6.2l-6.8,1l4.9,4.8l-1.2,6.8L-303.1-1602.4z
		 M-308.2-1609.2l3.5-0.5l1.6-3.2l1.6,3.2l3.5,0.5l-2.5,2.5l0.6,3.5l-3.1-1.6l-3.1,1.6l0.6-3.5L-308.2-1609.2z"/>
	<path id="Path_2304" d="M-267.1-1602.4l6.1,3.2l-1.2-6.8l4.9-4.8l-6.8-1l-3-6.2l-3.1,6.2l-6.8,1l4.9,4.8l-1.2,6.8L-267.1-1602.4z
		 M-272.2-1609.2l3.5-0.5l1.6-3.2l1.6,3.2l3.5,0.5l-2.5,2.5l0.6,3.5l-3.1-1.6l-3.1,1.6l0.6-3.5L-272.2-1609.2z"/>
	<path id="Path_2266" d="M-247.1-1595l-6.8-1l-3.1-6.2l-3.1,6.2l-6.8,1l4.9,4.8l-1.2,6.8l6.1-3.2l6.1,3.2l-1.2-6.8L-247.1-1595z
		 M-257-1589.1l-3.1,1.6l0.6-3.5l-2.5-2.5l3.5-0.5l1.6-3.2l1.6,3.2l3.5,0.5l-2.5,2.5l0.6,3.5L-257-1589.1z"/>
	<path id="Path_2267" d="M-291.6-1592.7l6.1-3.2l6.1,3.2l-1.2-6.8l4.9-4.8l-6.8-1l-3-6.2l-3.1,6.2l-6.8,1l4.9,4.8L-291.6-1592.7z
		 M-290.6-1602.8l3.5-0.5l1.6-3.2l1.6,3.2l3.5,0.5l-2.5,2.5l0.6,3.5l-3.1-1.6l-3.1,1.6l0.6-3.5L-290.6-1602.8z"/>
	<rect id="Rectangle_1200" x="-314.2" y="-1562.8" width="2.2" height="2.2"/>
	<rect id="Rectangle_1201" x="-314.2" y="-1558.3" width="2.2" height="6.9"/>
	<rect id="Rectangle_1202" x="-314.2" y="-1567.3" width="2.2" height="2.2"/>
	<rect id="Rectangle_1203" x="-314.2" y="-1577" width="2.2" height="7.5"/>
	<rect id="Rectangle_1204" x="-314.2" y="-1581.5" width="2.2" height="2.2"/>
	<rect id="Rectangle_1205" x="-258.1" y="-1554.6" width="2.2" height="2.2"/>
	<rect id="Rectangle_1206" x="-258.1" y="-1550.1" width="2.2" height="2.2"/>
	<rect id="Rectangle_1207" x="-258.1" y="-1581.8" width="2.2" height="2.2"/>
	<rect id="Rectangle_1208" x="-258.1" y="-1572.8" width="2.2" height="16"/>
	<rect id="Rectangle_1209" x="-258.1" y="-1577.3" width="2.2" height="2.2"/>
	<g id="Group_278" transform="translate(21.199 57.321)">
		<path id="Path_2268" class="st5" d="M-292.8-1605c-1.4-1.9-3.2-3.5-5.2-4.7l1.1-1.9c2.3,1.3,4.3,3.1,5.9,5.3L-292.8-1605z"/>
		<path id="Path_2269" class="st5" d="M-321-1603.3l-2-1.1c1.4-2.5,3.4-4.7,5.8-6.4l1.3,1.8C-318-1607.5-319.8-1605.6-321-1603.3z"
			/>
	</g>
</g>
<path id="Path_2207" class="st16" d="M625,233.3c0,0.6-0.5,1.1-1.1,1.1l0,0h-3.7c-0.6,0-1.1-0.5-1.1-1.1c0-0.2,0-0.3,0.1-0.5
	c0.4-0.7,0.7-1.4,1-2.2c2-4.9,2.6-10.3,1.6-15.5c-0.1-0.6,0.3-1.1,0.9-1.2s1.1,0.3,1.2,0.9c1,5.3,0.5,10.8-1.4,15.8
	c-0.2,0.5-0.4,1.1-0.7,1.6h2C624.5,232.3,625,232.7,625,233.3L625,233.3z"/>
<path id="Path_2208" class="st16" d="M618.1,233.3c0,0.6-0.5,1.1-1.1,1.1l0,0h-3.7c-0.6,0-1.1-0.5-1.1-1.1c0-0.2,0-0.3,0.1-0.5
	c0.4-0.7,0.7-1.4,1-2.2c2-4.9,2.6-10.3,1.6-15.5c-0.1-0.6,0.3-1.1,0.9-1.2s1.1,0.3,1.2,0.9l0,0c1,5.3,0.5,10.8-1.4,15.8
	c-0.2,0.5-0.4,1.1-0.7,1.6h2C617.6,232.3,618.1,232.7,618.1,233.3L618.1,233.3z"/>
<path id="Path_2209" class="st16" d="M607.2,233.3c0,0.6-0.5,1.1-1.1,1.1l0,0h-3.7c-0.6,0-1.1-0.5-1.1-1.1c0-0.2,0-0.3,0.1-0.5
	c0.4-0.7,0.7-1.4,1-2.2c2-4.9,2.6-10.3,1.6-15.5c-0.1-0.6,0.3-1.1,0.9-1.2c0.6-0.1,1.1,0.3,1.2,0.9c1,5.3,0.5,10.8-1.4,15.8
	c-0.2,0.5-0.4,1.1-0.7,1.6h2C606.8,232.3,607.2,232.7,607.2,233.3L607.2,233.3z"/>
<path id="Path_2210" class="st16" d="M600.3,233.3c0,0.6-0.5,1.1-1.1,1.1l0,0h-3.7c-0.6,0-1.1-0.5-1.1-1.1c0-0.2,0-0.3,0.1-0.5
	c0.4-0.7,0.7-1.4,1-2.2c2-4.9,2.6-10.3,1.6-15.5c-0.1-0.6,0.3-1.1,0.9-1.2c0.6-0.1,1.1,0.3,1.2,0.9c1,5.3,0.5,10.8-1.4,15.8
	c-0.2,0.5-0.4,1.1-0.7,1.6h2C599.9,232.3,600.3,232.7,600.3,233.3L600.3,233.3z"/>
<path id="Path_2221" class="st17" d="M629.4,214.8c-4.9,1.1-10,1.4-15.1,0.8c-1.8-0.2-3.5-0.6-5.2-1.1c0-18.8,7.3-27.6,7.3-27.6
	l1.6,0.2l4.7,0.5C623.7,198.3,629.4,214.8,629.4,214.8z"/>
<path id="Path_2222" class="st18" d="M614.3,215.6c-1.8-0.2-3.5-0.6-5.2-1.1c0-18.8,7.3-27.6,7.3-27.6l1.6,0.2l0.3,0.6
	C618.4,187.7,611.9,201.7,614.3,215.6z"/>
<path id="Path_2223" class="st19" d="M629.4,171.5l-13.6,4.2l-6,1.9c-3.3-8.4-0.5-13.6,9-13.6C628.3,164,629.4,168.3,629.4,171.5z"
	/>
<path id="Path_2224" class="st20" d="M615.8,175.8l-6,1.9c-3.3-8.4-0.5-13.6,9-13.6C615.4,165,613.3,172,615.8,175.8z"/>
<path id="Path_2225" class="st16" d="M629.4,171.5v7.5c0,4.9-4,8.9-8.9,8.9c-4.4,0-8.2-3.3-8.8-7.6c-1.5-0.5-2.3-2.2-1.8-3.7
	s2.2-2.3,3.7-1.8c0.4,0.1,0.8,0.4,1.1,0.7c0.1-1,0.5-1.9,1-2.8C617.4,170.1,621.5,167.2,629.4,171.5z"/>
<path id="Path_2226" class="st21" d="M618.4,187.7c-3.5-0.9-6.2-3.8-6.7-7.4c-1.5-0.5-2.3-2.2-1.8-3.7s2.2-2.3,3.7-1.8
	c0.4,0.1,0.8,0.4,1.1,0.7c0.1-1,0.5-1.9,1-2.8C614.9,177.9,615,185.5,618.4,187.7z"/>
<g id="Group_271" transform="translate(943.775 1786.047)">
	<path id="Path_2227" class="st22" d="M-321.9-1608c-0.6,0-1.1-0.5-1.1-1.1l0,0v-1.5c0-0.6,0.5-1.1,1.1-1.1s1.1,0.5,1.1,1.1v1.5
		C-320.9-1608.5-321.4-1608-321.9-1608L-321.9-1608z"/>
	<path id="Path_2228" class="st22" d="M-318.1-1608c-0.6,0-1.1-0.5-1.1-1.1l0,0v-1.5c0-0.6,0.5-1.1,1.1-1.1s1.1,0.5,1.1,1.1v1.5
		C-317.1-1608.5-317.5-1608-318.1-1608L-318.1-1608z"/>
</g>
<path id="Path_2229" class="st5" d="M622.2,184.7L622.2,184.7c-1.9,0-3.6-1-4.6-2.6c-0.3-0.5-0.1-1.2,0.4-1.5s1.2-0.1,1.5,0.4l0,0
	c0.6,1,1.6,1.6,2.8,1.5c0.6,0,1,0.5,1,1.1C623.3,184.2,622.8,184.7,622.2,184.7L622.2,184.7z"/>
<path id="Path_2230" class="st23" d="M611.7,171.5c0.7-2.7,0.4-7.5-7-7.5s-14.9,0.6-16.4,11.6c-1.6,11,5.7,21.4,5.7,21.4"/>
<path id="Path_2231" class="st24" d="M593.9,197l2.2-3.1c-0.6-6.2-2.2-29.1,3.7-29.7c-5.6,0.6-10.3,2.8-11.5,11.4
	C586.7,186.7,593.9,197,593.9,197z"/>
<path id="Path_2232" class="st25" d="M611.7,214.8c-4.9,1.1-10,1.4-15.1,0.8c-1.8-0.2-3.5-0.6-5.2-1.1c0-18.8,7.3-27.6,7.3-27.6
	l1.6,0.2l4.7,0.5C606,198.3,611.7,214.8,611.7,214.8z"/>
<path id="Path_2233" class="st26" d="M596.6,215.6c-1.8-0.2-3.5-0.6-5.2-1.1c0-18.8,7.3-27.6,7.3-27.6l1.6,0.2l0.3,0.6
	C600.7,187.7,594.1,201.7,596.6,215.6z"/>
<path id="Path_2234" class="st16" d="M597.8,207.2c-0.6,0-1.2-0.1-1.8-0.4c-0.9-0.4-1.5-1.1-1.8-2.1c-1-3.6,3.5-10,4-10.7
	c0.3-0.5,1-0.6,1.5-0.3s0.6,1,0.3,1.5l0,0c-1.7,2.4-4.2,6.9-3.7,8.9c0.1,0.3,0.3,0.6,0.6,0.7c1.3,0.6,2.1-0.1,3.4-1.2
	c0.9-0.8,1.9-1.6,3.1-1.5c0.9,0.1,1.6,0.6,2.1,1.3c0.4,0.5,0.3,1.1-0.1,1.5c-0.5,0.4-1.1,0.3-1.5-0.1l0,0c-0.2-0.2-0.4-0.4-0.7-0.5
	c-0.3,0-1,0.5-1.6,1C600.7,206.3,599.3,207,597.8,207.2z"/>
<path id="Path_2235" class="st16" d="M615.2,207.2c-0.6,0-1.2-0.1-1.8-0.4c-0.9-0.4-1.5-1.1-1.8-2.1c-1-3.6,3.5-10,4-10.7
	c0.3-0.5,1-0.6,1.5-0.3s0.6,1,0.3,1.5l0,0c-1.7,2.4-4.2,6.9-3.7,8.9c0.1,0.3,0.3,0.6,0.6,0.7c1.3,0.6,2.1-0.1,3.4-1.2
	c0.9-0.8,1.9-1.6,3.1-1.5c0.9,0.1,1.6,0.6,2.1,1.3c0.4,0.5,0.3,1.1-0.1,1.5c-0.5,0.4-1.1,0.3-1.5-0.1c-0.2-0.2-0.4-0.4-0.7-0.5
	c-0.3,0-1,0.5-1.6,1C618.1,206.3,616.7,207,615.2,207.2z"/>
<path id="Path_2237" class="st16" d="M592.9,179.6c0.3,0.3,0.7,0.5,1.1,0.7c0.7,4.9,5.2,8.2,10.1,7.5c4.4-0.6,7.6-4.4,7.6-8.8v-7.5
	c0,0-3.9,0.1-5.5-1.4c-1.7,2.2-4.4,3.5-7.1,3.2l0,0c-0.7,0-1.4-0.2-2.1-0.4v2.6l0,0c-1.1-1.1-2.9-1.1-4.1,0
	C591.8,176.7,591.8,178.5,592.9,179.6L592.9,179.6z"/>
<path id="Path_2238" class="st21" d="M592.9,179.6c0.3,0.3,0.7,0.5,1.1,0.7c0.5,3.6,3.2,6.6,6.7,7.4c-4.6-2.5-1.7-14.2-1.6-14.3l0,0
	c-0.7,0-1.4-0.2-2.1-0.4v2.6l0,0c-1.1-1.1-2.9-1.1-4.1,0C591.8,176.7,591.8,178.5,592.9,179.6L592.9,179.6z"/>
<g id="Group_273" transform="translate(926.034 1786.047)">
	<path id="Path_2239" class="st22" d="M-321.9-1608c-0.6,0-1.1-0.5-1.1-1.1v-1.5c0-0.6,0.5-1.1,1.1-1.1s1.1,0.5,1.1,1.1v1.5
		C-320.9-1608.5-321.4-1608-321.9-1608L-321.9-1608z"/>
	<path id="Path_2240" class="st22" d="M-318.1-1608c-0.6,0-1.1-0.5-1.1-1.1l0,0v-1.5c0-0.6,0.5-1.1,1.1-1.1s1.1,0.5,1.1,1.1v1.5
		C-317.1-1608.5-317.5-1608-318.1-1608z"/>
</g>
<path id="Path_2241" class="st5" d="M604.5,184.7L604.5,184.7c-1.9,0-3.6-1-4.6-2.6c-0.3-0.5-0.1-1.2,0.4-1.5s1.2-0.1,1.5,0.4l0,0
	c0.6,1,1.6,1.6,2.8,1.5c0.6,0,1,0.5,1,1.1C605.5,184.2,605.1,184.7,604.5,184.7L604.5,184.7z"/>
<g id="Group_274" transform="translate(917.532 1842.285)">
	<path id="Path_2242" class="st25" d="M-317.2-1609c0,0.6-0.5,1.1-1.1,1.1l0,0h-3.7c-0.6,0-1.1-0.5-1.1-1.1c0-0.2,0-0.3,0.1-0.5
		c0.4-0.7,0.7-1.4,1-2.2h2.3c-0.2,0.5-0.4,1.1-0.7,1.6h2C-317.7-1610-317.2-1609.5-317.2-1609L-317.2-1609z"/>
	<path id="Path_2243" class="st25" d="M-310.3-1609c0,0.6-0.5,1.1-1.1,1.1l0,0h-3.7c-0.6,0-1.1-0.5-1.1-1.1c0-0.2,0-0.3,0.1-0.5
		c0.4-0.7,0.7-1.4,1-2.2h2.3c-0.2,0.5-0.4,1.1-0.7,1.6h2C-310.8-1610-310.3-1609.5-310.3-1609L-310.3-1609z"/>
</g>
<g id="Group_275" transform="translate(935.272 1842.285)">
	<path id="Path_2244" class="st23" d="M-317.2-1609c0,0.6-0.5,1.1-1.1,1.1l0,0h-3.7c-0.6,0-1.1-0.5-1.1-1.1c0-0.2,0-0.3,0.1-0.5
		c0.4-0.7,0.7-1.4,1-2.2h2.3c-0.2,0.5-0.4,1.1-0.7,1.6h2C-317.7-1610-317.2-1609.5-317.2-1609L-317.2-1609z"/>
	<path id="Path_2245" class="st23" d="M-310.3-1609c0,0.6-0.5,1.1-1.1,1.1l0,0h-3.7c-0.6,0-1.1-0.5-1.1-1.1c0-0.2,0-0.3,0.1-0.5
		c0.4-0.7,0.7-1.4,1-2.2h2.3c-0.2,0.5-0.4,1.1-0.7,1.6h2C-310.8-1610-310.3-1609.5-310.3-1609L-310.3-1609z"/>
</g>
<g id="Group_279">
	<path id="Path_2205" class="st27" d="M655,233.3c0,0.6-0.5,1.1-1.1,1.1l0,0h-3.7c-0.6,0-1.1-0.5-1.1-1.1c0-0.2,0-0.3,0.1-0.5
		c0.4-0.7,0.7-1.4,1-2.2c1.8-4.3,2.4-9.1,1.9-13.8c-0.3-2.4-0.8-4.8-1.8-7c-0.2-0.5,0-1.2,0.5-1.4s1.2,0,1.4,0.5l0,0
		c1,2.4,1.7,5,1.9,7.6c0.6,4.8,0,9.6-1.7,14.1c-0.2,0.5-0.4,1.1-0.7,1.6h2C654.5,232.3,655,232.7,655,233.3L655,233.3z"/>
	<path id="Path_2206" class="st27" d="M645.2,233.3c0,0.6-0.5,1.1-1.1,1.1h-3.7c-0.6,0-1.1-0.5-1.1-1.1c0-0.2,0-0.3,0.1-0.5
		c0.4-0.7,0.7-1.4,1-2.2c2.7-6.7,2.8-14.1,0.1-20.8c-0.2-0.5,0-1.2,0.5-1.4s1.2,0,1.4,0.5c1,2.4,1.7,5,1.9,7.6
		c0.6,4.8,0,9.6-1.7,14.1c-0.2,0.5-0.4,1.1-0.7,1.6h2C644.8,232.3,645.2,232.7,645.2,233.3L645.2,233.3z"/>
	<path id="Path_2211" class="st16" d="M663.1,193.1c-0.3-0.1-0.6-0.1-1,0V192c0-0.6-0.5-1.1-1.1-1.1s-1.1,0.5-1.1,1.1v2
		c-1.1,1-1.9,2.2-2.3,3.7c-0.2,1-1.1,1.8-2.2,1.9c-1.6,0.1-3.1-0.6-4.1-1.9c-0.3-0.5-0.9-0.7-1.4-0.4s-0.7,0.9-0.4,1.4l0,0
		c1.3,1.8,3.3,2.9,5.6,3c0.2,0,0.3,0,0.5,0c1.9-0.2,3.5-1.5,4-3.3c0.2-0.7,0.6-1.4,1-2l1.9,0.2c0.6,0.1,1.1-0.3,1.1-0.9l0.2-1.2
		C664,193.8,663.7,193.3,663.1,193.1z"/>
	<path id="Path_2212" class="st19" d="M654.5,209.3c0,0-5.5,2.7-11,1.7c-2.3-0.4-4.3-1.5-5.9-3.1c0,0,1.7-11.6,5-18.3
		c0.4-0.8,0.8-1.6,1.4-2.4l2,0.2l4.1,0.3c0,0.6,0.1,1.7,0.2,3.1C650.7,195.7,652.1,204.6,654.5,209.3z"/>
	<path id="Path_2213" class="st20" d="M643.5,211c-2.3-0.4-4.3-1.5-5.9-3.1c0,0,2.2-14.9,6.3-20.7l2,0.2l0.6,0.6
		C645,191,641.5,202.9,643.5,211z"/>
	<path id="Path_2214" class="st16" d="M656.5,168.3V179c0,4.9-4,8.9-8.9,8.9c-1.3,0-2.5-0.3-3.7-0.8l0,0c-2.8-1.3-4.7-3.9-5.1-6.9
		c-1.5-0.5-2.3-2.2-1.8-3.7s2.2-2.3,3.7-1.8c0.4,0.1,0.8,0.4,1.1,0.7l0.7-4.3l0.5-2.9L656.5,168.3z"/>
	<path id="Path_2215" class="st21" d="M643.9,187.1c-2.8-1.3-4.7-3.9-5.1-6.9c-1.5-0.5-2.3-2.2-1.8-3.7s2.2-2.3,3.7-1.8
		c0.4,0.1,0.8,0.4,1.1,0.7l0.7-4.3l2.3,0.5C643.9,173.4,639.7,179.6,643.9,187.1z"/>
	<path id="Path_2216" class="st27" d="M660.7,164c0,4.3-3.5,7.7-7.7,7.7h-8.1v0.7c0,1.7-1.4,3.1-3.1,3.1l0,0c-0.8-0.8-2-1.1-3.1-0.6
		v-3.2c0-4.3,3.5-7.7,7.7-7.7H660.7z"/>
	<path id="Path_2217" class="st22" d="M652.8,164h-6.3c-4.3,0-7.7,3.5-7.7,7.7v3.2c1.1-0.4,2.3-0.2,3.1,0.6c1.7,0,3.1-1.4,3.1-3.1
		l0,0v-0.7h0.2C645,167.5,648.5,164,652.8,164z"/>
	<path id="Path_2218" class="st22" d="M648.9,178c-0.6,0-1.1-0.5-1.1-1.1l0,0v-1.5c0-0.6,0.5-1.1,1.1-1.1s1.1,0.5,1.1,1.1v1.5
		C650,177.6,649.5,178,648.9,178L648.9,178z"/>
	<path id="Path_2219" class="st22" d="M652.8,178c-0.6,0-1.1-0.5-1.1-1.1l0,0v-1.5c0-0.6,0.5-1.1,1.1-1.1s1.1,0.5,1.1,1.1v1.5
		C653.8,177.6,653.3,178,652.8,178L652.8,178z"/>
	<path id="Path_2220" class="st5" d="M649.3,184.7L649.3,184.7c-1.9,0-3.6-1-4.6-2.6c-0.3-0.5-0.1-1.2,0.4-1.5s1.2-0.1,1.5,0.4l0,0
		c0.6,1,1.6,1.6,2.8,1.5c0.6,0,1,0.5,1,1.1S649.9,184.7,649.3,184.7L649.3,184.7z"/>
	<path id="Path_2236" class="st16" d="M643.8,207.2c-0.6,0-1.2-0.1-1.8-0.4c-0.9-0.4-1.5-1.1-1.8-2.1c-1-3.6,3.5-10,4-10.7
		c0.3-0.5,1-0.6,1.5-0.3s0.6,1,0.3,1.5l0,0c-1.7,2.4-4.2,6.9-3.7,8.9c0.1,0.3,0.3,0.6,0.6,0.7c1.3,0.6,2.1-0.1,3.4-1.2
		c0.9-0.8,1.9-1.6,3.1-1.5c0.9,0.1,1.6,0.6,2.1,1.3c0.4,0.5,0.3,1.1-0.1,1.5c-0.5,0.4-1.1,0.3-1.5-0.1c-0.2-0.2-0.4-0.4-0.7-0.5
		c-0.3,0-1,0.5-1.6,1C646.6,206.3,645.3,207,643.8,207.2z"/>
	<path id="Path_2246" class="st19" d="M645.2,233.3c0,0.6-0.5,1.1-1.1,1.1h-3.7c-0.6,0-1.1-0.5-1.1-1.1c0-0.2,0-0.3,0.1-0.5
		c0.4-0.7,0.7-1.4,1-2.2h2.3c-0.2,0.5-0.4,1.1-0.7,1.6h2C644.8,232.3,645.2,232.7,645.2,233.3L645.2,233.3z"/>
	<path id="Path_2247" class="st19" d="M655,233.3c0,0.6-0.5,1.1-1.1,1.1l0,0h-3.7c-0.6,0-1.1-0.5-1.1-1.1c0-0.2,0-0.3,0.1-0.5
		c0.4-0.7,0.7-1.4,1-2.2h2.3c-0.2,0.5-0.4,1.1-0.7,1.6h2C654.5,232.3,655,232.7,655,233.3L655,233.3z"/>
</g>
<g id="Group_280" transform="translate(1425.889 1767.605)">
	<path id="Path_2205-2" class="st27" d="M-314-1542.3c0,0.6,0.5,1.1,1.1,1.1l0,0h3.7c0.6,0,1.1-0.5,1.1-1.1c0-0.2,0-0.3-0.1-0.5
		c-0.4-0.7-0.7-1.4-1-2.2c-1.8-4.3-2.4-9.1-1.9-13.8c0.3-2.4,0.8-4.8,1.8-7c0.2-0.5,0-1.2-0.5-1.4c-0.5-0.2-1.2,0-1.4,0.5
		c-1,2.4-1.7,5-1.9,7.6c-0.6,4.8,0,9.6,1.7,14.1c0.2,0.5,0.4,1.1,0.7,1.6h-2C-313.6-1543.3-314-1542.9-314-1542.3L-314-1542.3z"/>
	<path id="Path_2206-2" class="st27" d="M-304.3-1542.3c0,0.6,0.5,1.1,1.1,1.1h3.7c0.6,0,1.1-0.5,1.1-1.1c0-0.2,0-0.3-0.1-0.5
		c-0.4-0.7-0.7-1.4-1-2.2c-2.7-6.7-2.8-14.1-0.1-20.8c0.2-0.5,0-1.2-0.5-1.4s-1.2,0-1.4,0.5l0,0c-1,2.4-1.7,5-1.9,7.6
		c-0.6,4.8,0,9.6,1.7,14.1c0.2,0.5,0.4,1.1,0.7,1.6h-2C-303.8-1543.3-304.3-1542.9-304.3-1542.3L-304.3-1542.3z"/>
	<path id="Path_2211-2" class="st16" d="M-322.2-1582.5c0.3-0.1,0.6-0.1,1,0v-1.1c0-0.6,0.5-1.1,1.1-1.1s1.1,0.5,1.1,1.1v2
		c1.1,1,1.9,2.2,2.3,3.7c0.2,1,1.1,1.8,2.2,1.9c1.6,0.1,3.1-0.6,4.1-1.9c0.3-0.5,0.9-0.7,1.4-0.4c0.5,0.3,0.7,0.9,0.4,1.4l0,0
		c-1.3,1.8-3.3,2.9-5.6,3c-0.2,0-0.3,0-0.5,0c-1.9-0.2-3.5-1.5-4-3.3c-0.2-0.7-0.6-1.4-1-2l-1.9,0.2c-0.6,0.1-1.1-0.3-1.1-0.9
		l-0.2-1.2C-323.1-1581.8-322.7-1582.3-322.2-1582.5z"/>
	<path id="Path_2212-2" class="st19" d="M-313.6-1566.3c0,0,5.5,2.7,11,1.7c2.3-0.4,4.3-1.5,5.9-3.1c0,0-1.7-11.6-5-18.3
		c-0.4-0.8-0.8-1.6-1.4-2.4l-2,0.2l-4.1,0.3c0,0.6-0.1,1.7-0.2,3.1C-309.8-1579.9-311.2-1571-313.6-1566.3z"/>
	<path id="Path_2213-2" class="st20" d="M-302.6-1564.6c2.3-0.4,4.3-1.5,5.9-3.1c0,0-2.2-14.9-6.3-20.7l-2,0.2l-0.6,0.6
		C-304.1-1584.6-300.5-1572.7-302.6-1564.6z"/>
	<path id="Path_2214-2" class="st16" d="M-315.6-1607.3v10.7c0,4.9,4,8.9,8.9,8.9c1.3,0,2.5-0.3,3.7-0.8l0,0
		c2.8-1.3,4.7-3.9,5.1-6.9c1.5-0.5,2.3-2.2,1.8-3.7s-2.2-2.3-3.7-1.8c-0.4,0.1-0.8,0.4-1.1,0.7l-0.7-4.3l-0.5-2.9h-13.5V-1607.3z"/>
	<path id="Path_2215-2" class="st21" d="M-303-1588.5c2.8-1.3,4.7-3.9,5.1-6.9c1.5-0.5,2.3-2.2,1.8-3.7s-2.2-2.3-3.7-1.8
		c-0.4,0.1-0.8,0.4-1.1,0.7l-0.7-4.3l-2.3,0.5C-302.9-1602.2-298.8-1596-303-1588.5z"/>
	<path id="Path_2216-2" class="st27" d="M-319.7-1611.6c0,4.3,3.5,7.7,7.7,7.7h8.1v0.7c0,1.7,1.4,3.1,3.1,3.1l0,0
		c0.8-0.8,2-1.1,3.1-0.6v-3.2c0-4.3-3.5-7.7-7.7-7.7H-319.7z"/>
	<path id="Path_2217-2" class="st22" d="M-311.8-1611.6h6.3c4.3,0,7.7,3.5,7.7,7.7v3.2c-1.1-0.4-2.3-0.2-3.1,0.6
		c-1.7,0-3.1-1.4-3.1-3.1l0,0v-0.7h-0.2C-304.1-1608.2-307.5-1611.6-311.8-1611.6L-311.8-1611.6z"/>
	<path id="Path_2218-2" class="st22" d="M-308-1597.6c0.6,0,1.1-0.5,1.1-1.1l0,0v-1.5c0-0.6-0.5-1.1-1.1-1.1s-1.1,0.5-1.1,1.1v1.5
		C-309-1598.1-308.6-1597.6-308-1597.6L-308-1597.6z"/>
	<path id="Path_2219-2" class="st22" d="M-311.8-1597.6c0.6,0,1.1-0.5,1.1-1.1l0,0v-1.5c0-0.6-0.5-1.1-1.1-1.1s-1.1,0.5-1.1,1.1v1.5
		C-312.9-1598.1-312.4-1597.6-311.8-1597.6L-311.8-1597.6z"/>
	<path id="Path_2220-2" class="st5" d="M-308.4-1590.9L-308.4-1590.9c1.9,0,3.6-1,4.6-2.6c0.3-0.5,0.1-1.2-0.4-1.5s-1.2-0.1-1.5,0.4
		l0,0c-0.6,1-1.6,1.6-2.8,1.5c-0.6,0-1,0.5-1,1.1C-309.4-1591.4-309-1590.9-308.4-1590.9L-308.4-1590.9z"/>
	<path id="Path_2236-2" class="st16" d="M-302.8-1568.5c0.6,0,1.2-0.1,1.8-0.4c0.9-0.4,1.5-1.1,1.8-2.1c1-3.6-3.5-10-4-10.7
		c-0.3-0.5-1-0.6-1.5-0.3s-0.6,1-0.3,1.5l0,0c1.7,2.4,4.2,6.9,3.7,8.9c-0.1,0.3-0.3,0.6-0.6,0.7c-1.3,0.6-2.1-0.1-3.4-1.2
		c-0.9-0.8-1.9-1.6-3.1-1.5c-0.9,0.1-1.6,0.6-2.1,1.3c-0.4,0.5-0.3,1.1,0.1,1.5c0.5,0.4,1.1,0.3,1.5-0.1c0.2-0.2,0.4-0.4,0.7-0.5
		c0.3,0,1,0.5,1.6,1C-305.7-1569.3-304.3-1568.6-302.8-1568.5z"/>
	<path id="Path_2246-2" class="st19" d="M-304.3-1542.3c0,0.6,0.5,1.1,1.1,1.1h3.7c0.6,0,1.1-0.5,1.1-1.1c0-0.2,0-0.3-0.1-0.5
		c-0.4-0.7-0.7-1.4-1-2.2h-2.3c0.2,0.5,0.4,1.1,0.7,1.6h-2C-303.8-1543.3-304.3-1542.9-304.3-1542.3L-304.3-1542.3z"/>
	<path id="Path_2247-2" class="st19" d="M-314-1542.3c0,0.6,0.5,1.1,1.1,1.1l0,0h3.7c0.6,0,1.1-0.5,1.1-1.1c0-0.2,0-0.3-0.1-0.5
		c-0.4-0.7-0.7-1.4-1-2.2h-2.3c0.2,0.5,0.4,1.1,0.7,1.6h-2C-313.6-1543.3-314-1542.9-314-1542.3L-314-1542.3z"/>
</g>
<path id="Path_2299" class="st5" d="M386.1,115.4L386.1,115.4c-2.2,1.2-4.9,1.2-7-0.1c-0.7-0.4-0.9-1.3-0.5-1.9
	c0.4-0.7,1.3-0.9,1.9-0.5c0,0,0,0,0.1,0c1.3,0.8,2.9,0.8,4.2,0c0.7-0.4,1.5-0.1,1.9,0.6C387,114.2,386.7,115,386.1,115.4
	L386.1,115.4z"/>
<path id="Path_2300" class="st5" d="M385.5,116L385.5,116c-1.7,1.1-3.7,1.3-5.5,0.3c-0.6-0.3-0.9-1-0.7-1.6c0.2-0.5,0.7-0.8,1.2-0.6
	c0.1,0,0.1,0.1,0.2,0.1c1,0.6,2.3,0.5,3.3-0.2c0.6-0.3,1.3-0.1,1.6,0.4C386,114.9,386,115.6,385.5,116z"/>
<g id="_003-way" transform="translate(1155 1678.647)">
	<path id="Path_2194" class="st28" d="M-311.8-1574.3c4.9,0,8.9-1.9,8.9-4.2s-4-4.2-8.9-4.2s-8.9,1.9-8.9,4.2
		S-316.7-1574.3-311.8-1574.3z"/>
	<path id="Path_2195" class="st29" d="M-311.8-1610.2c5.4,0,9.8,4.4,9.8,9.8c0,1.4-0.3,2.7-0.8,3.9l-9,18l-9-18
		c-2.2-5,0.1-10.7,5-12.9C-314.5-1610-313.2-1610.2-311.8-1610.2z"/>
	<path id="Path_2196" class="st30" d="M-311.8-1596.2c2.4,0,4.3-1.9,4.3-4.3s-1.9-4.3-4.3-4.3s-4.3,1.9-4.3,4.3l0,0
		C-316.1-1598.1-314.2-1596.2-311.8-1596.2z"/>
	<path id="Path_2197" class="st31" d="M-273.9-1565.9c4.9,0,8.9-1.9,8.9-4.2s-4-4.2-8.9-4.2s-8.9,1.9-8.9,4.2
		S-278.8-1565.9-273.9-1565.9z"/>
	<path id="Path_2198" class="st32" d="M-296.5-1542.6c4.9,0,8.9-1.9,8.9-4.2s-4-4.2-8.9-4.2s-8.9,1.9-8.9,4.2
		S-301.4-1542.6-296.5-1542.6z"/>
	<path id="Path_2199" class="st33" d="M-306.2-1600.4c0-3.1-2.5-5.6-5.6-5.6s-5.6,2.5-5.6,5.6s2.5,5.6,5.6,5.6l0,0
		C-308.7-1594.8-306.2-1597.3-306.2-1600.4z M-314.7-1600.4c0-1.6,1.3-2.9,2.9-2.9s2.9,1.3,2.9,2.9s-1.3,2.9-2.9,2.9
		C-313.4-1597.5-314.7-1598.8-314.7-1600.4z"/>
	<path id="Path_2200" class="st33" d="M-273.9-1575.6c-3.5,0-6.6,0.9-8.4,2.3l-4.9-1.1c-0.7-0.2-1.5,0.3-1.6,1s0.3,1.5,1,1.6l0,0
		l3.8,0.8c-0.1,0.3-0.1,0.6-0.1,0.8c0,1.9,1.5,3.5,4,4.5l-2.2,2.3c-0.5,0.5-0.5,1.4,0,1.9s1.4,0.5,1.9,0l3.3-3.3
		c1.1,0.2,2.1,0.3,3.2,0.3c5.8,0,10.2-2.4,10.2-5.6C-263.7-1573.2-268.1-1575.6-273.9-1575.6z M-273.9-1567.3
		c-4.5,0-7.5-1.7-7.5-2.8c0-0.3,0.2-0.6,0.4-0.8l0.1-0.1c1-1,3.6-1.9,7-1.9c4.5,0,7.5,1.7,7.5,2.8
		C-266.4-1568.9-269.4-1567.2-273.9-1567.3L-273.9-1567.3z"/>
	<path id="Path_2201" class="st33" d="M-290.2-1551.3l2.2-2.3c0.5-0.5,0.5-1.4,0-1.9s-1.4-0.5-1.9,0l-3.3,3.3
		c-1.1-0.2-2.1-0.3-3.2-0.3c-5.8,0-10.2,2.4-10.2,5.6s4.4,5.6,10.2,5.6c5.8,0,10.2-2.4,10.2-5.6
		C-286.3-1548.7-287.8-1550.3-290.2-1551.3z M-296.5-1544c-4.5,0-7.5-1.7-7.5-2.8c0-1.1,3-2.8,7.5-2.8s7.5,1.7,7.5,2.8
		S-292-1544-296.5-1544L-296.5-1544z"/>
	<path id="Path_2202" class="st33" d="M-298.5-1574.1c0.7,0.2,1.5-0.3,1.6-1s-0.3-1.5-1-1.6l-3.8-0.8c0.1-0.3,0.1-0.6,0.1-0.8
		c0-2.6-2.9-4.3-6.1-5.1l6.1-12.3v-0.1c2.5-5.7-0.1-12.3-5.7-14.7s-12.3,0.1-14.7,5.7c-0.6,1.4-0.9,2.9-0.9,4.5
		c0,1.5,0.3,3.1,0.9,4.5c0,0,0,0,0,0.1l6.1,12.3c-3.3,0.8-6.2,2.5-6.2,5.1c0,3.2,4.4,5.6,10.2,5.6c3.5,0,6.6-0.9,8.4-2.3
		L-298.5-1574.1z M-320.3-1600.4c0-4.7,3.8-8.4,8.4-8.4c4.7,0,8.4,3.8,8.4,8.4c0,1.2-0.2,2.3-0.7,3.4l-7.7,15.5l-7.7-15.5
		C-320-1598.1-320.3-1599.3-320.3-1600.4L-320.3-1600.4z M-319.3-1578.5c0-0.7,1.8-2,4.7-2.6l1.6,3.2c0.3,0.7,1.2,1,1.8,0.6
		c0.3-0.1,0.5-0.3,0.6-0.6l1.6-3.2c2.9,0.6,4.7,1.8,4.7,2.6c0,0.3-0.2,0.6-0.4,0.8l-0.1,0.1c-1,1-3.6,1.9-7,1.9
		C-316.3-1575.7-319.3-1577.4-319.3-1578.5z"/>
	<path id="Path_2203" class="st33" d="M-285.2-1559.8c-0.8,0-1.4,0.6-1.4,1.4s0.6,1.4,1.4,1.4s1.4-0.6,1.4-1.4l0,0
		C-283.8-1559.2-284.4-1559.8-285.2-1559.8z"/>
	<path id="Path_2204" class="st33" d="M-292.9-1572.9c0.8,0,1.4-0.6,1.4-1.4s-0.6-1.4-1.4-1.4s-1.4,0.6-1.4,1.4l0,0
		C-294.2-1573.5-293.6-1572.9-292.9-1572.9z"/>
</g>
<g id="Group_282" transform="translate(1393.19 1789.573)">
	<path id="Path_2277" class="st34" d="M-294-1599.9h-6.6v-4.2h6.6c1.2,0,2.1,0.9,2.1,2.1S-292.9-1599.9-294-1599.9L-294-1599.9z"/>
	<path id="Path_2281" class="st35" d="M-296.5-1598.4L-296.5-1598.4l-8.1-12.4H-323v15.1h22.6L-296.5-1598.4z"/>
	<path id="Path_2282" class="st34" d="M-296.5-1598.4l-3.9,2.7H-323v16.6h25.7c1.7,0,3.1-1.4,3.1-3.1l0,0v-12.8L-296.5-1598.4
		L-296.5-1598.4z"/>
	<path id="Path_2283" class="st36" d="M-300.1-1586.8h-6c-1,0-1.8-0.8-1.8-1.8c0-0.9,0.6-1.6,1.5-1.8l5.9-1.2
		c1.3-0.3,2.6,0.6,2.9,1.9s-0.6,2.6-1.9,2.9C-299.8-1586.8-299.9-1586.8-300.1-1586.8L-300.1-1586.8z"/>
	<path id="Path_2284" class="st37" d="M-303.6-1569.3c2.5,0,4.6-2.1,4.6-4.6l0,0v-5.2h-9.2v5.2
		C-308.2-1571.4-306.1-1569.3-303.6-1569.3z"/>
	<path id="Path_2285" class="st38" d="M-297.3-1581.3H-323v2.2h25.7c1.7,0,3.1-1.4,3.1-3.1v-2.2
		C-294.2-1582.7-295.6-1581.3-297.3-1581.3L-297.3-1581.3z"/>
	<path id="Path_2286" class="st39" d="M-308.2-1579.1h9.2v2.1h-9.2V-1579.1z"/>
	<path id="Path_2290" d="M-300.1-1586c1.8,0,3.2-1.4,3.2-3.2c0-1.8-1.4-3.2-3.2-3.2c-0.2,0-0.4,0-0.6,0.1l-5.9,1.2
		c-1.4,0.3-2.3,1.7-2.1,3.1c0.2,1.2,1.3,2.1,2.6,2.1L-300.1-1586z M-307.2-1588.6c0-0.5,0.4-0.9,0.8-1l5.9-1.2c0.1,0,0.2,0,0.3,0
		c0.9,0,1.7,0.7,1.7,1.7c0,0.9-0.7,1.7-1.7,1.7h-6C-306.7-1587.5-307.2-1588-307.2-1588.6L-307.2-1588.6z"/>
	<path id="Path_2291" d="M-323-1590.6h11.5v1.6H-323V-1590.6z"/>
	<path id="Path_2292" d="M-323-1587.3h11.5v1.6H-323V-1587.3z"/>
	<path id="Path_2293" d="M-323-1584.1h11.5v1.6H-323V-1584.1z"/>
	<path id="Path_2294" d="M-294-1604.8h-5.7l-4.5-6.8H-323v1.6h17.9l7.5,11.4l-3.1,2.2H-323v1.6h22.9l3.5-2.4l1.7,2.5v12.6
		c0,1.3-1.1,2.3-2.3,2.3H-323v1.6h14v4.4c0,3,2.4,5.4,5.4,5.4s5.4-2.4,5.4-5.4v-4.4h0.9c2.2,0,3.9-1.8,3.9-3.9v-13.1l-2.5-3.8h1.9
		c1.6,0,2.9-1.3,2.9-2.9C-291.1-1603.5-292.4-1604.8-294-1604.8L-294-1604.8z M-299.8-1573.9c0,2.1-1.7,3.8-3.8,3.8
		c-2.1,0-3.8-1.7-3.8-3.8l0,0v-4.4h7.6L-299.8-1573.9L-299.8-1573.9z M-294-1600.7h-3l-1.7-2.6h4.7c0.7,0,1.3,0.6,1.3,1.3
		S-293.3-1600.7-294-1600.7L-294-1600.7z"/>
	<path id="Path_2297" class="st5" d="M-299.3-1583.6h1.6v1.6h-1.6V-1583.6z"/>
</g>
<g id="Group_283" transform="translate(1368 1789.573)">
	<path id="Path_2277-2" class="st34" d="M-320.1-1599.9h6.6v-4.2h-6.6c-1.2,0-2.1,0.9-2.1,2.1S-321.3-1599.9-320.1-1599.9z"/>
	<path id="Path_2281-2" class="st35" d="M-317.6-1598.4L-317.6-1598.4l8.1-12.4h18.4v15.1h-22.6L-317.6-1598.4z"/>
	<path id="Path_2282-2" class="st34" d="M-317.6-1598.4l3.9,2.7h22.6v16.6h-25.7c-1.7,0-3.1-1.4-3.1-3.1l0,0v-12.8L-317.6-1598.4
		L-317.6-1598.4z"/>
	<path id="Path_2283-2" class="st36" d="M-314-1586.8h6c1,0,1.8-0.8,1.8-1.8c0-0.9-0.6-1.6-1.5-1.8l-5.9-1.2
		c-1.3-0.3-2.6,0.6-2.9,1.9s0.6,2.6,1.9,2.9C-314.4-1586.8-314.2-1586.8-314-1586.8L-314-1586.8z"/>
	<path id="Path_2284-2" class="st37" d="M-310.5-1569.3c-2.5,0-4.6-2.1-4.6-4.6l0,0v-5.2h9.2v5.2
		C-306-1571.4-308-1569.3-310.5-1569.3z"/>
	<path id="Path_2285-2" class="st38" d="M-316.8-1581.3h25.7v2.2h-25.7c-1.7,0-3.1-1.4-3.1-3.1v-2.2
		C-319.9-1582.7-318.5-1581.3-316.8-1581.3L-316.8-1581.3z"/>
	<path id="Path_2286-2" class="st39" d="M-306-1579.1h-9.2v2.1h9.2V-1579.1z"/>
	<path id="Path_2290-2" d="M-314-1586c-1.8,0-3.2-1.4-3.2-3.2c0-1.8,1.4-3.2,3.2-3.2c0.2,0,0.4,0,0.6,0.1l5.9,1.2
		c1.4,0.3,2.3,1.7,2.1,3.1c-0.2,1.2-1.3,2.1-2.6,2.1L-314-1586z M-306.9-1588.6c0-0.5-0.4-0.9-0.8-1l-5.9-1.2c-0.1,0-0.2,0-0.3,0
		c-0.9,0-1.7,0.7-1.7,1.7c0,0.9,0.7,1.7,1.7,1.7h6C-307.4-1587.5-306.9-1588-306.9-1588.6L-306.9-1588.6z"/>
	<path id="Path_2291-2" d="M-291.1-1590.6h-11.5v1.6h11.5V-1590.6z"/>
	<path id="Path_2292-2" d="M-291.1-1587.3h-11.5v1.6h11.5V-1587.3z"/>
	<path id="Path_2293-2" d="M-291.1-1584.1h-11.5v1.6h11.5V-1584.1z"/>
	<path id="Path_2294-2" d="M-320.1-1604.8h5.7l4.5-6.8h18.8v1.6H-309l-7.5,11.4l3.1,2.2h22.4v1.6h-23l-3.5-2.4l-1.7,2.5v12.6
		c0,1.3,1,2.3,2.3,2.3h25.7v1.6h-14v4.4c0,3-2.4,5.4-5.4,5.4s-5.4-2.4-5.4-5.4v-4.4h-0.9c-2.2,0-3.9-1.8-3.9-3.9v-13.1l2.5-3.8h-1.9
		c-1.6,0-2.9-1.3-2.9-2.9C-323-1603.5-321.7-1604.8-320.1-1604.8z M-314.3-1573.9c0,2.1,1.7,3.8,3.8,3.8s3.8-1.7,3.8-3.8v-4.4h-7.6
		L-314.3-1573.9L-314.3-1573.9z M-320.1-1600.7h3l1.7-2.6h-4.7c-0.7,0-1.3,0.6-1.3,1.3C-321.4-1601.2-320.9-1600.7-320.1-1600.7z"/>
	<path id="Path_2305" class="st5" d="M-285.4-1600.7l1.1-1.1l-3.2-3.2l-1.1,1.1L-285.4-1600.7z M-289.8-1605.1l1.1-1.1l-1.1-1.1
		l-1.1,1.1L-289.8-1605.1z"/>
	<path id="Path_2296" class="st5" d="M-300.9-1600.7l1.1-1.1l-3.2-3.2l-1.1,1.1L-300.9-1600.7z M-305.3-1605.1l1.1-1.1l-1.1-1.1
		l-1.1,1.1L-305.3-1605.1z"/>
	<path id="Path_2297-2" class="st5" d="M-314.8-1583.6h-1.6v1.6h1.6V-1583.6z"/>
</g>
</svg>
