<svg xmlns="http://www.w3.org/2000/svg" width="26.747" height="17" viewBox="0 0 26.747 17"><defs><style>.a{fill:#161616;}</style></defs><path class="a" d="M24.649,16.606l-.663-1.872H2.761L2.1,16.606A.591.591,0,0,1,1.541,17a.579.579,0,0,1-.2-.034.592.592,0,0,1-.36-.755l.523-1.477H1.064A1.065,1.065,0,0,1,0,13.67V7.493A1.065,1.065,0,0,1,1.064,6.43h24.62a1.065,1.065,0,0,1,1.064,1.064V13.67a1.065,1.065,0,0,1-1.064,1.064h-.443l.523,1.477a.591.591,0,1,1-1.114.4ZM23.7,5.247V5.13A2.535,2.535,0,0,0,21.171,2.6H15.488A2.531,2.531,0,0,0,13.374,3.74,2.531,2.531,0,0,0,11.26,2.6H5.577A2.534,2.534,0,0,0,3.046,5.13v.117H2.411V2.778A2.782,2.782,0,0,1,5.189,0H21.558a2.782,2.782,0,0,1,2.778,2.778V5.247Zm-9.564,0V5.13a1.351,1.351,0,0,1,1.349-1.349h5.683A1.351,1.351,0,0,1,22.52,5.13v.117Zm-9.911,0V5.13A1.351,1.351,0,0,1,5.576,3.781H11.26A1.351,1.351,0,0,1,12.609,5.13v.117Z"/></svg>