<svg xmlns="http://www.w3.org/2000/svg" width="23.538" height="17" viewBox="0 0 23.538 17"><defs><style>.a{fill:#161616;}</style></defs><path class="a" d="M86.252,30.44l-.927.551a4.385,4.385,0,0,0-4.781.159c-.232.145-.464.275-.681.406l-11.1,6.5c-.217.13-.449.261-.681.391a4.349,4.349,0,0,0-2.477,4.1l-.927.551a.964.964,0,1,0,.971,1.666l.493-.29a3.894,3.894,0,0,0,.261.478,4.772,4.772,0,0,0,6.5,1.71,6.239,6.239,0,0,0,2.84-4.086,7.783,7.783,0,0,0,.174-1.985l2.695-1.579a7.372,7.372,0,0,0,1.811.826,6.167,6.167,0,0,0,4.94-.478,4.747,4.747,0,0,0,1.681-6.5c-.1-.159-.188-.319-.29-.464l.493-.29a.959.959,0,0,0,.348-1.318,1.006,1.006,0,0,0-1.347-.348ZM75.444,38.625a3.531,3.531,0,0,0-.2-.406,3.689,3.689,0,0,0-.985-1.145l2.057-1.2a3.79,3.79,0,0,0,.522,1.42,3.381,3.381,0,0,0,.246.377Zm8.924-.927" transform="translate(-64.197 -30.311)"/></svg>