<svg xmlns="http://www.w3.org/2000/svg" width="13.569" height="13" viewBox="0 0 13.569 13"><defs><style>.a{fill:#f1ac32;}</style></defs><path class="a" d="M13.274,6.938a.973.973,0,0,0-.54-1.66L9.449,4.8a.429.429,0,0,1-.323-.235L7.656,1.589a.973.973,0,0,0-1.745,0L4.442,4.566a.43.43,0,0,1-.324.235L.833,5.279a.973.973,0,0,0-.54,1.66L2.671,9.256a.43.43,0,0,1,.124.38l-.561,3.272a.953.953,0,0,0,.212.789.983.983,0,0,0,1.2.237l2.938-1.545a.44.44,0,0,1,.4,0l2.938,1.545a.963.963,0,0,0,.453.113.976.976,0,0,0,.747-.35.952.952,0,0,0,.212-.789l-.561-3.272a.43.43,0,0,1,.124-.38Z" transform="translate(0.001 -1.047)"/></svg>