<svg xmlns="http://www.w3.org/2000/svg" width="23.531" height="23.531" viewBox="0 0 23.531 23.531"><defs><style>.a{fill:#e4e4e4;}</style></defs><path class="a" d="M279,281a1.84,1.84,0,0,0,1.838,1.838H283A1.84,1.84,0,0,0,284.837,281v-2.16A1.84,1.84,0,0,0,283,277h-2.16A1.84,1.84,0,0,0,279,278.838Zm1.838-2.16H283V281h-2.161Z" transform="translate(-266.177 -264.269)"/><circle class="a" cx="1" cy="1" r="1" transform="translate(16.766 8.766)"/><circle class="a" cx="1" cy="1" r="1" transform="translate(12.766 8.766)"/><path class="a" d="M22.612,16.178a.919.919,0,0,0,.919-.919V5.515a3.681,3.681,0,0,0-3.677-3.677H18.66V.919a.919.919,0,0,0-1.838,0v.919H12.639V.919a.919.919,0,0,0-1.838,0v.919H6.664V.919a.919.919,0,0,0-1.838,0v.919H3.677A3.681,3.681,0,0,0,0,5.515V19.854a3.681,3.681,0,0,0,3.677,3.677H19.854a3.681,3.681,0,0,0,3.677-3.677.919.919,0,0,0-1.838,0,1.84,1.84,0,0,1-1.838,1.838H3.677a1.84,1.84,0,0,1-1.838-1.838V5.515A1.84,1.84,0,0,1,3.677,3.677H4.826V4.6a.919.919,0,0,0,1.838,0V3.677H10.8V4.6a.919.919,0,0,0,1.838,0V3.677h4.182V4.6a.919.919,0,0,0,1.838,0V3.677h1.195a1.84,1.84,0,0,1,1.838,1.838v9.743A.919.919,0,0,0,22.612,16.178Z"/><circle class="a" cx="1" cy="1" r="1" transform="translate(4.766 16.766)"/><circle class="a" cx="1" cy="1" r="1" transform="translate(4.766 8.766)"/><circle class="a" cx="1" cy="1" r="1" transform="translate(4.766 12.766)"/><circle class="a" cx="1" cy="1" r="1" transform="translate(8.766 12.766)"/><circle class="a" cx="1" cy="1" r="1" transform="translate(8.766 8.766)"/><circle class="a" cx="1" cy="1" r="1" transform="translate(8.766 16.766)"/></svg>