<svg xmlns="http://www.w3.org/2000/svg" width="26.841" height="17" viewBox="0 0 26.841 17"><defs><style>.a{fill:#161616;}</style></defs><path class="a" d="M11035.77-7239.438a2.416,2.416,0,0,1-2.434-2.406,2.417,2.417,0,0,1,2.447-2.391,2.415,2.415,0,0,1,2.434,2.406,2.414,2.414,0,0,1-2.443,2.391Zm-.633-2.405a.65.65,0,0,0,.639.613.6.6,0,0,0,.621-.626.646.646,0,0,0-.636-.612A.65.65,0,0,0,11035.137-7241.843Zm16.92.027-4.689-.008-1.209,0-6.374-.013a3.96,3.96,0,0,0-4.009-3.958,3.958,3.958,0,0,0-4.023,3.941h-.9a3.018,3.018,0,0,1-3.027-2.947l0,.239c-.009.348-.383.616-.907.627s-.925-.283-.917-.633v-3.519c.009-.348.383-.616.905-.627s.913.275.918.615l.014-5.363a3.015,3.015,0,0,1,3.04-2.974l16.515.032a3.013,3.013,0,0,1,3.025,2.988l-.017,8.642a2.939,2.939,0,0,1-1.073,2.255l2.724,0,.007-1.072.783,0-.008,1.072.006.7Zm-10.985-7.722h5.239l0-3.261h-5.238Zm-7.96-3.266,0,3.215,3.391-.008,0-3.216Z" transform="translate(-11026.001 7256.438)"/></svg>