<svg xmlns="http://www.w3.org/2000/svg" width="20.182" height="17" viewBox="0 0 20.182 17"><defs><style>.a{fill:#161616;}</style></defs><path class="a" d="M187.071,24.732l.883-.393,1.915-10.609a2.583,2.583,0,0,1,.438-.965h0c1.106-.728,2.168-1.455,3.059-2.116,1.685-1.262,2.7-2.42,2.472-2.784h0c-.238-.371-1.715.059-3.571,1.047-.98.527-2.086,1.173-3.215,1.863h0a2.672,2.672,0,0,1-1.062-.015L177.576,7.983l-.735.638,8.4,4.588h0c-2.346,1.544-4.239,2.866-4.551,3.066a20.7,20.7,0,0,0-1.648,1.455h0L176.165,16.6l-.475.3,1.923,2.287h0c-.193.223-.3.379-.267.431s.215.015.5-.059h0l1.247,2.71.475-.3.2-3.081h0a18.36,18.36,0,0,0,2.019-.876c.312-.2,2.309-1.351,4.707-2.821h0Z" transform="translate(-175.69 -7.732)"/></svg>