<svg xmlns="http://www.w3.org/2000/svg" width="21.069" height="17.705" viewBox="0 0 21.069 17.705"><defs><style>.a{fill:#161616;}</style></defs><path class="a" d="M11035.981-7242.6c-.011-.463-.013-4.723.165-7.359a1.024,1.024,0,0,0-.51-.955,1.749,1.749,0,0,1-.92-1.473l.073-4.167a.312.312,0,0,1,.29-.287.3.3,0,0,1,.306.3l.007,3.325a.324.324,0,0,0,.342.326.326.326,0,0,0,.324-.344l-.075-3.34a.319.319,0,0,1,.312-.326.3.3,0,0,1,.336.3l.23,3.33a.327.327,0,0,0,.342.326.327.327,0,0,0,.324-.346l-.311-3.324a.294.294,0,0,1,.283-.317.281.281,0,0,1,.309.254l.436,4.159a1.808,1.808,0,0,1-.787,1.545.972.972,0,0,0-.428.968c.4,2.591.8,6.856.814,7.319a1.12,1.12,0,0,1-.878,1.265h-.04C11036.426-7241.422,11036.018-7241.94,11035.981-7242.6Zm17.36-.743c0-.434-.02-4.094.126-6.721l-.254,0a.629.629,0,0,1-.639-.6l-.137-2.968a7.814,7.814,0,0,1,1.349-4.72.184.184,0,0,1,.188-.067.235.235,0,0,1,.127.175l.356,8.118c.373,2.6.723,6.25.745,6.694a1.121,1.121,0,0,1-.878,1.267h-.037C11053.786-7242.164,11053.379-7242.683,11053.342-7243.347Zm-14.82-6.627a6.665,6.665,0,0,1,.889-3.644,6.609,6.609,0,0,1,5.451-3.322,6.633,6.633,0,0,1,6.924,6.38,6.662,6.662,0,0,1-6.34,6.964c-.1,0-.2.007-.3.007A6.655,6.655,0,0,1,11038.521-7249.974Zm6.4-5.359a5.063,5.063,0,0,0-4.8,5.3,5.06,5.06,0,0,0,5.264,4.834,5.032,5.032,0,0,0,4.135-2.519,5.058,5.058,0,0,0,.67-2.779,5.066,5.066,0,0,0-5.02-4.84C11045.086-7255.339,11045-7255.337,11044.922-7255.333Zm-3.449,5.221a3.674,3.674,0,0,1,.489-2.014,3.683,3.683,0,0,1,3.034-1.847,3.668,3.668,0,0,1,3.837,3.548,3.693,3.693,0,0,1-3.524,3.86c-.057,0-.115,0-.172,0A3.692,3.692,0,0,1,11041.473-7250.112Z" transform="translate(-11280.717 6868.895) rotate(2)"/></svg>